<?xml version="1.0" encoding="utf-8"?>
<!-- Generator: Adobe Illustrator 23.0.1, SVG Export Plug-In . SVG Version: 6.00 Build 0)  -->
<svg version="1.1" id="Calque_1" xmlns="http://www.w3.org/2000/svg" xmlns:xlink="http://www.w3.org/1999/xlink" x="0px" y="0px"
	 viewBox="0 0 555.1 523.9" style="enable-background:new 0 0 555.1 523.9;" xml:space="preserve">
<style type="text/css">
	.st0{opacity:0.7;fill:#FFFFFF;}
	.st1{fill:#FFFDFD;}
	.st2{fill:#FFFFFF;}
</style>
<g>
	<path class="st0" d="M163.2,250.9l84.3,51.4l5.1-228l42.2-5.5l21.7,15.4l-4.2,101.3l32.6-10.8l39.4,26.7l43.2-2.1
		c0,0,12.3,32.9,18.5,32.9c6.2,0,27.8-13.4,27.8-13.4s24.7,5.1,24.7,5.1c0,0,8.2,104.9,8.2,104.9v76.1l-49.4,55.5L373,482.3
		l-63.8-13l-71-61L125.5,283.8l9.1-21.6L163.2,250.9z"/>
	<g>
		<path class="st1" d="M476.5,206c-9,0-17.4,2.7-24.4,7.4c-6-17.1-22.3-29.4-41.4-29.4c-9,0-17.4,2.7-24.4,7.4
			c-6-17.1-22.3-29.4-41.4-29.4c-8,0-15.5,2.2-21.9,5.9V96.3c0-24.2-19.7-43.9-43.9-43.9c-24.2,0-43.9,19.7-43.9,43.9v186.5
			l-38.1-28.6c-22.6-17-54.8-14.7-74.8,5.3c-12.8,12.8-12.8,33.7,0,46.5l156.2,156.3c18.6,18.6,43.5,28.9,69.8,28.9h51.4
			c66.5,0,120.7-54.1,120.7-120.7V249.9C520.4,225.7,500.7,206,476.5,206z M498.5,370.5c0,54.4-44.3,98.7-98.7,98.7h-51.4
			c-20.5,0-39.8-8-54.3-22.5L137.8,290.5c-4.3-4.3-4.3-11.2,0-15.5c6.8-6.8,15.9-10.3,25-10.3c7.4,0,14.9,2.3,21.1,7l55.7,41.7
			c3.3,2.5,7.8,2.9,11.5,1c3.7-1.9,6.1-5.7,6.1-9.8V96.3c0-12.1,9.8-21.9,21.9-21.9c12.1,0,21.9,9.9,21.9,21.9v164.5
			c0,6.1,4.9,11,11,11s11-4.9,11-11V206c0-12.1,9.8-21.9,21.9-21.9c12.1,0,21.9,9.9,21.9,21.9v54.8c0,6.1,4.9,11,11,11
			c6.1,0,11-4.9,11-11v-32.9c0-12.1,9.8-21.9,21.9-21.9c12.1,0,21.9,9.9,21.9,21.9v32.9c0,6.1,4.9,11,11,11s11-4.9,11-11v-11
			c0-12.1,9.8-21.9,21.9-21.9c12.1,0,21.9,9.9,21.9,21.9L498.5,370.5L498.5,370.5z"/>
	</g>
</g>
<g>
	<polygon class="st2" points="364.6,110.5 364.5,56.9 494.4,71.7 451.3,29.5 481.4,0 553.3,88.2 469,174.4 438.7,145.8 487.1,103.3 
			"/>
	<polygon class="st2" points="188.7,111.5 188.8,57.9 58.9,72.7 102,30.5 71.9,1 0,89.2 84.4,175.4 114.6,146.8 66.2,104.3 	"/>
</g>
</svg>
