<?xml version="1.0" encoding="utf-8"?>
<!-- Generator: Adobe Illustrator 23.0.2, SVG Export Plug-In . SVG Version: 6.00 Build 0)  -->
<svg version="1.1" xmlns="http://www.w3.org/2000/svg" xmlns:xlink="http://www.w3.org/1999/xlink" x="0px" y="0px"
	 viewBox="0 0 536.3 557.8" style="enable-background:new 0 0 536.3 557.8;" xml:space="preserve">
<style type="text/css">
	.st0{opacity:0.79;}
	.st1{fill:#113581;}
	.st2{fill:#F9BB02;}
	.st3{fill:#BCE6F5;}
	.st4{fill:#83BDD6;}
</style>
<g id="Layer_1">
	<g>
		<g class="st0">
			<path class="st1" d="M528.2,289.2c0,141.4-114.6,256-256,256c-21.3,0-42.1-2.6-61.9-7.5c-17.2-4.3-33.7-10.3-49.4-17.8
				c-38.9-18.8-72.3-47.2-97.2-82c-9-12.5-16.8-25.9-23.4-40c-15.5-33-24.1-69.8-24.1-108.6c0-141.4,114.6-256,256-256
				c38.9,0,75.8,8.7,108.8,24.2c14.1,6.6,27.5,14.5,40.1,23.5c34.6,24.8,62.9,58.1,81.6,96.7c7.6,15.7,13.6,32.2,17.9,49.5
				C525.5,247,528.2,267.8,528.2,289.2z"/>
		</g>
		<path class="st2" d="M16.2,294.1v-21.8c0.3-0.7,23.1-58.2,74.4-127.4c30.3-40.9,62.1-73,94.6-95.6c41.2-28.6,83.6-40.8,126-38.3
			c70.4,4.2,115.7,36,141.6,62.4c39.5,40.2,39.1,83.8,39.5,84.9l-13.9-21.7c-0.1-0.3-10.8-26.5-36.8-53.2
			C406.8,47.8,362.6,29.1,310.2,26c-38.9-2.3-78.1,9-116.4,35.6c-31.1,21.6-61.8,52.6-91.1,92C52.5,221.3,16.5,293.4,16.2,294.1z"/>
		<g>
			<path class="st3" d="M161.6,230.2c0.3-1.2,0.3-2.4,0-3.7l-3.7-16.6c0,0,0,0,0,0l-11-49.5l-4.8-21.6l-2.4-10.8l19.5-22.9l6.3-7.4
				c3.1-3.7,5-8.2,5.5-12.8c0.5-4.6-0.4-9.4-2.7-13.7c-0.3-0.5-0.7-1-1.2-1.4c-0.5-0.4-1-0.7-1.6-0.9c-9.2-3.1-19.4-0.3-25.7,7.1
				l-6.3,7.4l-19.5,22.9l0,0l-11-0.6l0,0l-3.9-0.2l-18.1-1l-50.7-2.8l-17-0.9c-1.3-0.1-2.5,0.2-3.6,0.6s-2.1,1.2-2.9,2.2
				c-3.2,3.7-2.3,9.4,1.8,12l9,5.7l45.5,28.9l10,6.4l0,0c-4.7,6.8-9,13.8-12.9,21.1c-4.3,7.9-8.1,16-11.5,24.3c0,0,0,0.1-0.1,0.1
				c-1.8,4.5,3.2,8.7,7.3,6.2c0,0,0.1-0.1,0.1-0.1c7.6-4.7,15-9.8,22.1-15.3c6.5-5,12.7-10.4,18.7-16.1l7.9,8.9l35.9,40.2l7.1,7.9
				c3.2,3.6,8.9,3.6,12.1-0.2C160.7,232.5,161.3,231.4,161.6,230.2z"/>
			<path class="st4" d="M85.2,225.8l-6.9-33c-5.1,4-10.4,7.7-15.8,11.3c0,0,0,0,0,0c0,0,0,0,0,0c2.6-5.9,5.5-11.7,8.6-17.4
				c3.9-7.2,8.2-14.3,12.9-21.1c4.6-6.7,9.5-13.2,14.8-19.4l26.1-30.8L150.6,85c5-5.9,12.4-8.9,19.9-8.3c-0.5-1.9-1.2-3.8-2.1-5.6
				c-0.3-0.5-0.7-1-1.1-1.4c-0.5-0.4-1-0.7-1.6-0.9c-9.2-3.1-19.4-0.3-25.7,7.1l-25.8,30.4l0,0l-11-0.6l0,0l-3.9-0.2L79,129.4
				c-5.3,6.2-10.2,12.7-14.8,19.4c-0.3,0.5-0.6,0.9-0.9,1.4l10,6.4l0,0c-4.7,6.8-9,13.8-12.9,21.1l-33.7-1.4c-2.5-0.1-4.9,1-6.5,2.9
				c-3,3.5-2.4,8.7,0.9,11.5c0.7,0.6,1.4,1,2.3,1.4l25.5,10l0,0l0,0c0,0,0,0.1-0.1,0.1c-1.8,4.5,3.1,8.7,7.3,6.2
				c0,0,0.1-0.1,0.1-0.1l14,23.6c0.5,0.8,1.1,1.5,1.7,2.1c3.3,2.8,8.5,2.6,11.5-1C85,230.8,85.7,228.2,85.2,225.8z"/>
		</g>
	</g>
</g>
<g id="Calque_2">
</g>
</svg>
