<?xml version="1.0" encoding="utf-8"?>
<!-- Generator: Adobe Illustrator 23.0.2, SVG Export Plug-In . SVG Version: 6.00 Build 0)  -->
<svg version="1.1" xmlns="http://www.w3.org/2000/svg" xmlns:xlink="http://www.w3.org/1999/xlink" x="0px" y="0px"
	 viewBox="0 0 481 236" style="enable-background:new 0 0 481 236;" xml:space="preserve">
<style type="text/css">
	.st0{fill:#193772;}
	.st1{fill:#FFAF30;}
	.st2{fill:#FFFFFF;}
	.st3{fill:#FFAF30;stroke:#FFFFFF;stroke-width:4;stroke-miterlimit:10;}
	.st4{fill:#FFFFFF;stroke:#FFFFFF;stroke-width:3;stroke-linecap:round;stroke-miterlimit:10;stroke-dasharray:6,6;}
</style>
<g id="Calque_1">
	<g>
		<g>
			<path class="st0" d="M293,0.7L6.6,0.7C3,0.7,0,3.6,0,7.3v77.9c0.2,0,0.3,0,0.5,0c18.5,0,33.5,15,33.5,33.5s-15,33.5-33.5,33.5
				c-0.2,0-0.3,0-0.5,0v75.6c0,4.4,3.5,7.9,7.9,7.9H293c0.3-4.8,4.1-8.7,9-9V9.6C297.2,9.4,293.3,5.5,293,0.7z"/>
			<path class="st1" d="M479.5,85.2c0.2,0,0.3,0,0.5,0v-76c0-4.7-3.8-8.5-8.5-8.5L311,0.7c-0.3,4.8-4.1,8.7-9,9v217
				c4.8,0.3,8.7,4.1,9,9h159.4c5.3,0,9.6-4.3,9.6-9.6v-73.9c-0.2,0-0.3,0-0.5,0c-18.5,0-33.5-15-33.5-33.5S461,85.2,479.5,85.2z"/>
			<path class="st1" d="M303,226.7c-0.2,0-0.3,0-0.5,0s-0.3,0-0.5,0"/>
			<path class="st1" d="M302,9.6c0.2,0,0.3,0,0.5,0s0.3,0,0.5,0"/>
		</g>
		<g>
			<g>
				<path class="st2" d="M447.6,146.8c-0.7-0.9-2-1.1-2.9-0.4l-18.6,14.5c-0.5,0.4-0.8,1-0.8,1.6v6.2c0,1.1,0.9,2.1,2.1,2.1
					s2.1-0.9,2.1-2.1v-5.2l17.8-13.8C448.1,149,448.3,147.7,447.6,146.8z"/>
			</g>
		</g>
		<g>
			<g>
				<path class="st2" d="M301.7,20.7c-0.7,0-1.3-0.4-1.3-1v-3c0-0.6,0.6-1,1.3-1c0.7,0,1.3,0.4,1.3,1v3
					C303,20.2,302.4,20.7,301.7,20.7z"/>
				<path class="st2" d="M301.7,209.8c-0.7,0-1.3-0.4-1.3-1v-5.9c0-0.6,0.6-1,1.3-1c0.7,0,1.3,0.4,1.3,1v5.9
					C303,209.3,302.4,209.8,301.7,209.8z M301.7,197.9c-0.7,0-1.3-0.4-1.3-1V191c0-0.6,0.6-1,1.3-1c0.7,0,1.3,0.4,1.3,1v5.9
					C303,197.5,302.4,197.9,301.7,197.9z M301.7,186.1c-0.7,0-1.3-0.4-1.3-1v-5.9c0-0.6,0.6-1,1.3-1c0.7,0,1.3,0.4,1.3,1v5.9
					C303,185.7,302.4,186.1,301.7,186.1z M301.7,174.3c-0.7,0-1.3-0.4-1.3-1v-5.9c0-0.6,0.6-1,1.3-1c0.7,0,1.3,0.4,1.3,1v5.9
					C303,173.9,302.4,174.3,301.7,174.3z M301.7,162.5c-0.7,0-1.3-0.4-1.3-1v-5.9c0-0.6,0.6-1,1.3-1c0.7,0,1.3,0.4,1.3,1v5.9
					C303,162,302.4,162.5,301.7,162.5z M301.7,150.7c-0.7,0-1.3-0.4-1.3-1v-5.9c0-0.6,0.6-1,1.3-1c0.7,0,1.3,0.4,1.3,1v5.9
					C303,150.2,302.4,150.7,301.7,150.7z M301.7,138.8c-0.7,0-1.3-0.4-1.3-1v-5.9c0-0.6,0.6-1,1.3-1c0.7,0,1.3,0.4,1.3,1v5.9
					C303,138.4,302.4,138.8,301.7,138.8z M301.7,127c-0.7,0-1.3-0.4-1.3-1v-5.9c0-0.6,0.6-1,1.3-1c0.7,0,1.3,0.4,1.3,1v5.9
					C303,126.6,302.4,127,301.7,127z M301.7,115.2c-0.7,0-1.3-0.4-1.3-1v-5.9c0-0.6,0.6-1,1.3-1c0.7,0,1.3,0.4,1.3,1v5.9
					C303,114.8,302.4,115.2,301.7,115.2z M301.7,103.4c-0.7,0-1.3-0.4-1.3-1v-5.9c0-0.6,0.6-1,1.3-1c0.7,0,1.3,0.4,1.3,1v5.9
					C303,102.9,302.4,103.4,301.7,103.4z M301.7,91.6c-0.7,0-1.3-0.4-1.3-1v-5.9c0-0.6,0.6-1,1.3-1c0.7,0,1.3,0.4,1.3,1v5.9
					C303,91.1,302.4,91.6,301.7,91.6z M301.7,79.8c-0.7,0-1.3-0.4-1.3-1v-5.9c0-0.6,0.6-1,1.3-1c0.7,0,1.3,0.4,1.3,1v5.9
					C303,79.3,302.4,79.8,301.7,79.8z M301.7,67.9c-0.7,0-1.3-0.4-1.3-1V61c0-0.6,0.6-1,1.3-1c0.7,0,1.3,0.4,1.3,1v5.9
					C303,67.5,302.4,67.9,301.7,67.9z M301.7,56.1c-0.7,0-1.3-0.4-1.3-1v-5.9c0-0.6,0.6-1,1.3-1c0.7,0,1.3,0.4,1.3,1v5.9
					C303,55.7,302.4,56.1,301.7,56.1z M301.7,44.3c-0.7,0-1.3-0.4-1.3-1v-5.9c0-0.6,0.6-1,1.3-1c0.7,0,1.3,0.4,1.3,1v5.9
					C303,43.9,302.4,44.3,301.7,44.3z M301.7,32.5c-0.7,0-1.3-0.4-1.3-1v-5.9c0-0.6,0.6-1,1.3-1c0.7,0,1.3,0.4,1.3,1v5.9
					C303,32,302.4,32.5,301.7,32.5z"/>
				<path class="st2" d="M301.7,218.7c-0.7,0-1.3-0.4-1.3-1v-3c0-0.6,0.6-1,1.3-1c0.7,0,1.3,0.4,1.3,1v3
					C303,218.2,302.4,218.7,301.7,218.7z"/>
			</g>
			<g>
				<path class="st3" d="M43,91.7l4.4-37h42.2v13H61l-1.6,14.4c1.2-0.7,2.8-1.3,4.7-1.8s3.8-0.8,5.7-0.8c7.2,0,12.7,2.1,16.5,6.4
					c3.9,4.3,5.8,10.2,5.8,17.9c0,4.6-1,8.8-3.1,12.6c-2.1,3.8-5,6.6-8.7,8.7c-3.7,2-8.2,3-13.2,3c-4.5,0-8.8-0.9-12.8-2.8
					c-4-1.9-7.1-4.4-9.3-7.7c-2.2-3.3-3.4-6.9-3.3-11h16.8c0.2,2.6,1,4.7,2.5,6.3c1.5,1.6,3.5,2.3,6,2.3c5.6,0,8.4-4.2,8.4-12.5
					c0-7.7-3.4-11.5-10.3-11.5c-3.9,0-6.8,1.3-8.7,3.8L43,91.7z"/>
				<path class="st3" d="M151,97.5c0,9.8-2.2,17.3-6.6,22.6c-4.4,5.3-10.6,7.9-18.5,7.9c-8,0-14.3-2.7-18.7-8
					c-4.4-5.3-6.6-12.8-6.6-22.5V84.3c0-9.8,2.2-17.3,6.6-22.6c4.4-5.3,10.6-7.9,18.6-7.9c8,0,14.2,2.7,18.6,8
					c4.4,5.3,6.6,12.9,6.6,22.6V97.5z M134.3,82.1c0-5.2-0.7-9.1-2-11.6c-1.4-2.6-3.5-3.8-6.5-3.8c-2.9,0-5,1.2-6.3,3.6
					c-1.3,2.4-2,6-2.1,10.8v18.5c0,5.4,0.7,9.3,2,11.8c1.4,2.5,3.5,3.7,6.5,3.7c2.8,0,4.9-1.2,6.3-3.6c1.4-2.4,2.1-6.2,2.1-11.4
					V82.1z"/>
				<path class="st3" d="M209.9,97.5c0,9.8-2.2,17.3-6.6,22.6c-4.4,5.3-10.6,7.9-18.5,7.9c-8,0-14.3-2.7-18.7-8
					c-4.4-5.3-6.6-12.8-6.6-22.5V84.3c0-9.8,2.2-17.3,6.6-22.6c4.4-5.3,10.6-7.9,18.6-7.9c8,0,14.2,2.7,18.6,8
					c4.4,5.3,6.6,12.9,6.6,22.6V97.5z M193.2,82.1c0-5.2-0.7-9.1-2-11.6c-1.4-2.6-3.5-3.8-6.5-3.8c-2.9,0-5,1.2-6.3,3.6
					c-1.3,2.4-2,6-2.1,10.8v18.5c0,5.4,0.7,9.3,2,11.8c1.4,2.5,3.5,3.7,6.5,3.7c2.8,0,4.9-1.2,6.3-3.6c1.4-2.4,2.1-6.2,2.1-11.4
					V82.1z"/>
				<path class="st3" d="M259.5,101.8H244c0.2,4.3,1.3,7.6,3.5,9.6c2.2,2.1,5.8,3.1,10.9,3.1c3.3,0,6.2-0.5,8.7-1.5l2.1,13.4
					c-4.4,1-8.7,1.5-13,1.5c-8.9,0-16-2.3-21.4-6.9c-5.3-4.6-8.1-11-8.4-19.2h-8.2v-7.9h8.2v-6h-8.2v-7.9h8.3
					c0.6-8.2,3.7-14.6,9.2-19.2c5.5-4.6,12.8-6.9,21.9-6.9c3.5,0,7.3,0.5,11.5,1.5l-2.1,13.4c-2.6-1-5.3-1.5-8.3-1.5
					c-4.6,0-8.1,1-10.5,3.1c-2.4,2.1-3.8,5.3-4.3,9.6h15.3v7.9H244v6h15.5V101.8z"/>
			</g>
			<g>
				<path class="st2" d="M52.6,145.9l8.1,25.3l8.1-25.3h11.5v36.3h-8.8v-8.5l0.8-17.4l-8.8,25.8h-5.8L49,156.3l0.8,17.4v8.5h-8.8
					v-36.3H52.6z"/>
				<path class="st2" d="M108.4,166.8H94.6v8.7h16.3v6.7h-25v-36.3h25.1v6.8H94.6v7.7h13.8V166.8z"/>
				<path class="st2" d="M142.9,152.6H132v29.5h-8.8v-29.5h-10.7v-6.8h30.3V152.6z"/>
				<path class="st2" d="M155.4,169.8v12.3h-8.8v-36.3h14.5c2.8,0,5.2,0.5,7.4,1.5c2.1,1,3.8,2.5,5,4.4c1.2,1.9,1.8,4,1.8,6.4
					c0,3.5-1.3,6.4-3.8,8.5s-6,3.2-10.4,3.2H155.4z M155.4,163.1h5.7c1.7,0,3-0.4,3.9-1.3s1.3-2,1.3-3.6c0-1.7-0.5-3-1.4-4.1
					c-0.9-1-2.2-1.5-3.7-1.5h-5.8V163.1z"/>
				<path class="st2" d="M210.2,182.2h-8.7V167h-12.9v15.2h-8.8v-36.3h8.8v14.4h12.9v-14.4h8.7V182.2z"/>
				<path class="st2" d="M244.2,152.6h-10.9v29.5h-8.8v-29.5h-10.7v-6.8h30.3V152.6z"/>
				<path class="st2" d="M265.5,175.4h-12l-2.1,6.8h-9.3l13.3-36.3h8.2l13.4,36.3h-9.4L265.5,175.4z M255.6,168.6h7.8l-3.9-12.6
					L255.6,168.6z"/>
			</g>
			<g>
				<g>
					<path class="st2" d="M386,69.6c-26.2,0-47.5,21.3-47.5,47.5s21.3,47.5,47.5,47.5c26.2,0,47.5-21.3,47.5-47.5
						S412.2,69.6,386,69.6z M386,160.5c-23.9,0-43.4-19.5-43.4-43.4s19.5-43.4,43.4-43.4c23.9,0,43.4,19.5,43.4,43.4
						S409.9,160.5,386,160.5z"/>
				</g>
			</g>
			<g>
				<g>
					<path class="st2" d="M405.9,73.9c-0.2-0.1-0.4-0.1-0.6-0.2l-0.5-0.1c-0.7-0.1-1.5,0.2-1.9,0.8c-0.5,0.6-0.6,1.4-0.3,2.1
						c1.4,3.4,3.1,10.3,0.9,11.8l-4.8,1.9c-3.6,1.5-6.2,4.8-6.6,8.7l0,0.2c-0.1,0.8-0.8,1-1.1,1.1c-0.5,0.1-1.2,0-1.6-0.7l-2.1-3.4
						c-0.8-1.3-2.1-2-3.6-1.9c-1.5,0.1-2.7,0.9-3.4,2.3c-1.8,3.9-4.2,9.6-4.7,14.3c-0.2,1.5,0.1,2.9,0.8,4.3l2.4,4.8
						c0.8,1.7,2.1,3.1,3.8,4.1c1.5,0.9,4.2,2.8,6,4.9c2,2.4,4.7,4,7.6,4.4c-0.1,3.9,0.1,10.2,2.8,13c0.9,1,2.1,1.5,3.4,1.6
						c0.2,0,0.6,0.1,1.2,0.1c1.5,0,4.1-0.3,6.4-2.3c3.3-2.7,4.9-7.4,5-14.1l3-13.3l1.1,1.9c0.9,1.5,2.4,2.6,4.2,2.9
						c1.7,0.3,3.6-0.1,5-1.1l4.5-3.4c0.5-0.4,0.8-1,0.8-1.7C433.5,98.6,422.7,81.7,405.9,73.9z M425.7,118.8
						c-0.5,0.4-1.1,0.5-1.7,0.4c-0.6-0.1-1.1-0.5-1.4-1l-2.1-3.6c-0.7-1.2-2-1.8-3.4-1.6c-1.4,0.2-2.4,1.2-2.7,2.6l-3.4,15.5
						c0,0.1,0,0.3,0,0.4c0,5.4-1.2,9.2-3.4,11.1c-2,1.7-4.4,1.4-4.5,1.3c-0.3,0-0.5,0.2-0.9-0.3c-1.3-1.4-1.9-6.2-1.6-11.7
						c0-0.7-0.2-1.3-0.6-1.8c-0.5-0.5-1.1-0.8-1.8-0.8c-2.3,0-4.6-1.1-6.2-3.1c-2-2.4-4.9-4.5-7-5.8c-1-0.6-1.8-1.5-2.3-2.5
						l-2.4-4.8c-0.3-0.6-0.4-1.3-0.3-1.9c0.5-4.2,2.8-9.7,4.2-12.7l1.9,3.1c1.2,2.1,3.6,3.1,6,2.6c2.3-0.5,4-2.3,4.3-4.6l0-0.3
						c0.3-2.4,1.8-4.5,4.1-5.3l5-2c0.1,0,0.2-0.1,0.3-0.2c3.9-2.4,3.4-8.1,2.4-12.3c12.8,7.6,21,21.4,21.3,36.3L425.7,118.8z"/>
				</g>
			</g>
			<g>
				<g>
					<path class="st2" d="M376.3,145.8l-1.3-1.3c-1.5-1.5-3.3-2.7-5.3-3.6l-6.4-2.7c-2.6-1.1-4.2-3.6-4.2-6.4v-3.1
						c0-1.9-0.9-3.7-2.5-4.8c-1.6-1.1-3.6-1.3-5.3-0.7l-9.9,3.7c-1,0.4-1.5,1.4-1.3,2.5c4.7,17.3,19,30.8,36.6,34.3
						c0.1,0,0.3,0,0.4,0c0.9,0,1.7-0.6,2-1.5l0.8-2.6C381.2,154.7,379.9,149.4,376.3,145.8z M375.9,158.5l-0.2,0.8
						c-14.6-3.6-26.5-14.7-31-29.1l8.1-3c0.5-0.2,1.1-0.1,1.5,0.2c0.5,0.3,0.7,0.8,0.7,1.4v3.1c0,4.5,2.6,8.5,6.7,10.2l6.4,2.7
						c1.5,0.6,2.8,1.5,4,2.7l1.3,1.3C375.9,151.2,376.9,155,375.9,158.5z"/>
				</g>
			</g>
			<g>
				<g>
					<path class="st2" d="M364.3,76.7c-0.6-0.8-1.8-1-2.7-0.5c-13.6,8.1-22.3,22.5-23.1,38.3c0,0.7,0.3,1.4,0.9,1.8
						c0.4,0.3,0.8,0.4,1.2,0.4c0.3,0,0.5,0,0.7-0.1l12.8-5.1c3.1-1.2,4.7-4.6,3.6-7.8c-0.3-0.8-0.1-1.6,0.5-2.2l6-6
						c2-2,3.2-4.7,3.2-7.6v-2.7C367.4,82.2,366.3,79.2,364.3,76.7z M363.3,88c0,1.8-0.7,3.4-1.9,4.7l-6,6c-1.7,1.7-2.3,4.1-1.5,6.4
						c0.4,1.1-0.2,2.2-1.2,2.6l-9.7,3.8c1.6-12.5,8.6-23.7,19.2-30.7c0.7,1.4,1.1,2.9,1.1,4.5V88L363.3,88z"/>
				</g>
			</g>
			<g>
				<g>
					<path class="st2" d="M386,55c-2.1,0-4.3,0.1-6.4,0.3c-1.1,0.1-2,1.1-1.8,2.3c0.1,1.1,1,1.9,2.1,1.9c0.1,0,0.1,0,0.2,0
						c2-0.2,4-0.3,6-0.3c1.1,0,2.1-0.9,2.1-2.1S387.1,55,386,55z"/>
				</g>
			</g>
			<g>
				<g>
					<path class="st2" d="M328.9,126.8c-0.5-3.2-0.8-6.5-0.8-9.7c0-0.7,0-1.4,0-2.1c0-1.1-0.9-2.1-2-2.1c-1.1-0.1-2.1,0.9-2.1,2
						c0,0.7,0,1.5,0,2.2c0,3.5,0.3,7,0.9,10.4c0.2,1,1,1.7,2,1.7c0.1,0,0.2,0,0.3,0C328.4,128.9,329.1,127.9,328.9,126.8z"/>
				</g>
			</g>
			<g>
				<g>
					<path class="st2" d="M337.5,148.6c-2.2-3.3-4-6.8-5.4-10.5c-0.4-1.1-1.6-1.6-2.7-1.2c-1.1,0.4-1.6,1.6-1.2,2.7
						c1.5,3.9,3.5,7.7,5.8,11.2c0.4,0.6,1.1,0.9,1.7,0.9c0.4,0,0.8-0.1,1.1-0.3C337.9,150.9,338.1,149.6,337.5,148.6z"/>
				</g>
			</g>
			<g>
				<g>
					<path class="st2" d="M332.8,89.4c-1-0.5-2.3-0.1-2.8,1c-1.8,3.8-3.3,7.8-4.3,11.9c-0.3,1.1,0.4,2.2,1.5,2.5
						c0.2,0,0.3,0.1,0.5,0.1c0.9,0,1.8-0.6,2-1.6c0.9-3.8,2.3-7.6,4-11.1C334.2,91.1,333.8,89.9,332.8,89.4z"/>
				</g>
			</g>
			<g>
				<g>
					<path class="st2" d="M348.2,70.5c-0.8-0.9-2.1-1-2.9-0.2c-3.2,2.8-6.1,5.9-8.6,9.2c-0.7,0.9-0.5,2.2,0.4,2.9
						c0.4,0.3,0.8,0.4,1.2,0.4c0.6,0,1.2-0.3,1.6-0.8c2.4-3.1,5.1-6,8.1-8.6C348.8,72.7,348.9,71.4,348.2,70.5z"/>
				</g>
			</g>
			<g>
				<g>
					<path class="st2" d="M375.9,174c-3.9-0.7-7.7-1.8-11.4-3.2c-1.1-0.4-2.3,0.1-2.7,1.2c-0.4,1.1,0.1,2.3,1.2,2.7
						c3.9,1.6,8,2.7,12.2,3.5c0.1,0,0.2,0,0.4,0c1,0,1.9-0.7,2-1.7C377.8,175.3,377,174.2,375.9,174z"/>
				</g>
			</g>
			<g>
				<g>
					<path class="st2" d="M401.9,174.9c-0.3-1.1-1.4-1.8-2.5-1.5c-3.8,0.9-7.8,1.4-11.7,1.5c-1.1,0-2,1-2,2.1c0,1.1,1,2,2.1,2
						c0,0,0,0,0.1,0c4.2-0.1,8.5-0.7,12.6-1.6C401.5,177.1,402.2,176,401.9,174.9z"/>
				</g>
			</g>
			<g>
				<g>
					<path class="st2" d="M369.8,59.3c-0.3-1.1-1.5-1.7-2.6-1.3c-4,1.3-7.9,3-11.6,5.1c-1,0.6-1.3,1.8-0.8,2.8c0.4,0.7,1.1,1,1.8,1
						c0.3,0,0.7-0.1,1-0.3c3.4-1.9,7.1-3.5,10.8-4.7C369.5,61.5,370.1,60.4,369.8,59.3z"/>
				</g>
			</g>
			<g>
				<g>
					<path class="st2" d="M354.1,165.3c-3.3-2.2-6.4-4.7-9.1-7.5c-0.8-0.8-2.1-0.8-2.9,0c-0.8,0.8-0.8,2.1,0,2.9c3,3,6.3,5.7,9.8,8
						c0.4,0.2,0.7,0.3,1.1,0.3c0.7,0,1.3-0.3,1.7-0.9C355.3,167.2,355,165.9,354.1,165.3z"/>
				</g>
			</g>
			<g>
				<g>
					<path class="st2" d="M418.8,167.3c-0.6-1-1.9-1.3-2.8-0.7c-1.7,1-3.5,2-5.3,2.8c-1,0.5-1.5,1.7-1,2.8c0.4,0.7,1.1,1.2,1.9,1.2
						c0.3,0,0.6-0.1,0.9-0.2c1.9-0.9,3.8-1.9,5.6-3C419,169.5,419.4,168.2,418.8,167.3z"/>
				</g>
			</g>
			<g>
				<g>
					<path class="st2" d="M428,160.5l-6.2-2.1c-1.1-0.4-2.3,0.2-2.6,1.3c-0.4,1.1,0.2,2.3,1.3,2.6l6.2,2.1c0.2,0.1,0.4,0.1,0.7,0.1
						c0.9,0,1.7-0.5,2-1.4C429.7,162.1,429.1,160.9,428,160.5z"/>
				</g>
			</g>
		</g>
		<g>
			<g>
				<path class="st2" d="M443.7,163.8l-4.1-10.3c-0.2-0.4-0.5-0.8-0.9-1l-10.3-6.2c-1-0.6-2.2-0.3-2.8,0.7c-0.6,1-0.3,2.2,0.7,2.8
					l9.7,5.8l3.9,9.7c0.3,0.8,1.1,1.3,1.9,1.3c0.3,0,0.5,0,0.8-0.2C443.6,166.1,444.1,164.8,443.7,163.8z"/>
			</g>
		</g>
	</g>
	<path class="st4" d="M-270.5-80.5"/>
</g>
<g id="Calque_2">
</g>
</svg>
