<svg xmlns="http://www.w3.org/2000/svg" xmlns:xlink="http://www.w3.org/1999/xlink" viewBox="0 0 31.695 30.593">
  <defs>
    <style>
      .cls-1 {
        fill: none;
      }

      .cls-2 {
        clip-path: url(#clip-path);
      }

      .cls-3 {
        fill: #ff4b41;
      }

      .cls-4 {
        fill: #fff;
      }
    </style>
    <clipPath id="clip-path">
      <path id="Path_157" data-name="Path 157" class="cls-1" d="M0-30.593H31.695V0H0Z"/>
    </clipPath>
  </defs>
  <g id="Group_222" data-name="Group 222" transform="translate(0 30.593)">
    <g id="Group_221" data-name="Group 221" class="cls-2">
      <g id="Group_216" data-name="Group 216" transform="translate(30.695 -15.297)">
        <path id="Path_152" data-name="Path 152" class="cls-3" d="M0,0C0,1.512-2.2,2.646-2.641,4.007c-.457,1.408.629,3.648-.224,4.819S-6.15,9.6-7.326,10.457s-1.569,3.317-2.961,3.771c-1.34.435-3.076-1.327-4.561-1.327s-3.22,1.762-4.56,1.327c-1.393-.454-1.8-2.927-2.959-3.771C-23.545,9.6-25.973,10-26.831,8.825s.233-3.41-.226-4.818C-27.5,2.646-29.695,1.512-29.695,0s2.2-2.644,2.638-4.007c.459-1.408-.627-3.647.227-4.819s3.285-.775,4.463-1.63c1.16-.845,1.566-3.318,2.959-3.771,1.342-.435,3.076,1.328,4.56,1.328s3.221-1.763,4.561-1.328c1.392.453,1.8,2.926,2.961,3.771,1.177.855,3.6.452,4.461,1.63s-.232,3.411.224,4.819C-2.2-2.644,0-1.511,0,0"/>
      </g>
      <g id="Group_217" data-name="Group 217" transform="translate(15.848 -3.395)">
        <path id="Path_153" data-name="Path 153" class="cls-4" d="M0,0A5.877,5.877,0,0,1,2.542.813c.661.329,1.386.673,1.709.562C4.646,1.247,5.044.5,5.395-.162A5.819,5.819,0,0,1,6.934-2.253a5.745,5.745,0,0,1,2.473-.82c.717-.123,1.529-.263,1.767-.591a3.5,3.5,0,0,0,.04-1.9A6.07,6.07,0,0,1,11.256-8.2a5.785,5.785,0,0,1,1.478-2.08c.547-.573,1.114-1.165,1.114-1.618s-.566-1.043-1.113-1.616A5.8,5.8,0,0,1,11.256-15.6a6.081,6.081,0,0,1-.042-2.633,3.5,3.5,0,0,0-.04-1.907c-.238-.328-1.05-.466-1.766-.59a5.754,5.754,0,0,1-2.474-.82A5.819,5.819,0,0,1,5.395-23.64c-.351-.66-.749-1.409-1.143-1.537-.332-.106-1.049.235-1.709.562A5.874,5.874,0,0,1,0-23.8a5.87,5.87,0,0,1-2.542-.814c-.659-.327-1.377-.668-1.71-.562-.394.128-.792.877-1.143,1.537a5.812,5.812,0,0,1-1.536,2.091,5.771,5.771,0,0,1-2.476.82c-.717.124-1.529.262-1.767.59a3.493,3.493,0,0,0-.04,1.905,6.074,6.074,0,0,1-.044,2.635,5.8,5.8,0,0,1-1.478,2.083c-.546.572-1.112,1.163-1.112,1.615s.566,1.045,1.113,1.617A5.791,5.791,0,0,1-11.258-8.2a6.052,6.052,0,0,1,.043,2.637,3.5,3.5,0,0,0,.04,1.9c.239.329,1.052.469,1.769.592a5.77,5.77,0,0,1,2.474.819A5.829,5.829,0,0,1-5.394-.162c.351.66.748,1.409,1.143,1.537.333.11,1.048-.233,1.709-.562A5.877,5.877,0,0,1,0,0M4.1,3.4a5.7,5.7,0,0,1-2.451-.791A4.635,4.635,0,0,0,0,2a4.635,4.635,0,0,0-1.653.605A5.7,5.7,0,0,1-4.1,3.4a2.49,2.49,0,0,1-.766-.119A4.491,4.491,0,0,1-7.16.774a4.7,4.7,0,0,0-.947-1.41A4.617,4.617,0,0,0-9.746-1.1a4.4,4.4,0,0,1-3.046-1.384A4.53,4.53,0,0,1-13.2-5.82a4.826,4.826,0,0,0,.038-1.765A4.583,4.583,0,0,0-14.181-8.9a4.557,4.557,0,0,1-1.667-3,4.548,4.548,0,0,1,1.665-3,4.609,4.609,0,0,0,1.023-1.319,4.826,4.826,0,0,0-.038-1.765,4.54,4.54,0,0,1,.407-3.335A4.4,4.4,0,0,1-9.746-22.7a4.576,4.576,0,0,0,1.639-.467,4.665,4.665,0,0,0,.946-1.409,4.494,4.494,0,0,1,2.292-2.5A2.479,2.479,0,0,1-4.1-27.2a5.7,5.7,0,0,1,2.452.791A4.612,4.612,0,0,0,0-25.8a4.616,4.616,0,0,0,1.653-.6A5.7,5.7,0,0,1,4.105-27.2a2.484,2.484,0,0,1,.765.118,4.5,4.5,0,0,1,2.291,2.5,4.686,4.686,0,0,0,.948,1.411,4.571,4.571,0,0,0,1.638.466,4.4,4.4,0,0,1,3.044,1.384,4.536,4.536,0,0,1,.407,3.337,4.867,4.867,0,0,0-.04,1.763A4.62,4.62,0,0,0,14.181-14.9a4.548,4.548,0,0,1,1.667,3,4.554,4.554,0,0,1-1.668,3,4.6,4.6,0,0,0-1.022,1.316A4.841,4.841,0,0,0,13.2-5.822a4.529,4.529,0,0,1-.407,3.336A4.4,4.4,0,0,1,9.747-1.1a4.569,4.569,0,0,0-1.638.467A4.7,4.7,0,0,0,7.161.775a4.5,4.5,0,0,1-2.291,2.5A2.49,2.49,0,0,1,4.1,3.4"/>
      </g>
      <g id="Group_218" data-name="Group 218" transform="translate(9.767 -16.544)">
        <path id="Path_154" data-name="Path 154" class="cls-4" d="M0,0Q.236-1.019.469-1.876a.406.406,0,0,1,.2-.289.645.645,0,0,1,.389.009c.081.021.152.04.217.055a1.232,1.232,0,0,1,.188.065c.061.026.127.058.2.1s.15.086.241.144a.5.5,0,0,1,.26.293.761.761,0,0,1-.036.357Q1.936-.553,1.735.2t-.4,1.531q-.2.779-.376,1.52t-.31,1.3q-.047.3-.48.209a5.211,5.211,0,0,1-.754-.209.849.849,0,0,1-.5-.481q-.113-.249-.229-.577c-.078-.219-.156-.456-.236-.71s-.16-.517-.241-.793-.155-.552-.224-.83c-.059.331-.119.663-.181.994s-.12.649-.176.95-.108.582-.153.842-.082.485-.107.677A.244.244,0,0,1-2.73,4.8a.466.466,0,0,1-.28-.021l-.389-.1a1.448,1.448,0,0,1-.381-.165.516.516,0,0,1-.237-.2.623.623,0,0,1-.044-.325c.011-.144.028-.35.053-.617s.055-.571.1-.91.086-.7.137-1.091S-3.67.593-3.611.208s.119-.756.179-1.114.121-.676.181-.954a.39.39,0,0,1,.2-.3.623.623,0,0,1,.393,0c.2.058.39.117.578.176a4.6,4.6,0,0,1,.585.232.753.753,0,0,1,.352.261,1.164,1.164,0,0,1,.153.461c.026.155.061.352.1.593s.092.5.145.782.109.569.169.865.117.582.177.854Q-.237,1.018,0,0"/>
      </g>
      <g id="Group_219" data-name="Group 219" transform="translate(13.35 -18.435)">
        <path id="Path_155" data-name="Path 155" class="cls-4" d="M0,0Q.42-.1.882-.177c.306-.053.623-.1.945-.14s.647-.066.967-.077a.541.541,0,0,1,.585.353,1.555,1.555,0,0,1,.144.35c.027.1.054.217.081.339A.365.365,0,0,1,3.571.93a.5.5,0,0,1-.3.1c-.32.038-.652.075-.994.113s-.7.083-1.082.136c-.08.24-.154.49-.224.749s-.147.532-.233.815c.16-.022.321-.038.482-.049s.331-.019.512-.024a.953.953,0,0,1,.354.04.435.435,0,0,1,.216.208,1.642,1.642,0,0,1,.148.318c.034.1.066.209.093.316.042.123.046.2.012.248a.545.545,0,0,1-.278.113c-.32.058-.647.115-.981.169S.643,4.3.333,4.36q-.065.257-.121.486C.175,5,.135,5.148.093,5.3c.25-.043.49-.078.717-.105s.474-.048.742-.064a.823.823,0,0,1,.347.032.438.438,0,0,1,.213.192,1.856,1.856,0,0,1,.149.3c.035.094.073.189.116.284a.307.307,0,0,1,0,.221c-.026.04-.112.073-.257.1-.342.063-.689.131-1.042.2s-.689.134-1.01.192a1.022,1.022,0,0,1-.485.036A.975.975,0,0,1-.7,6.565c-.09-.059-.178-.119-.26-.18s-.181-.141-.293-.237a.827.827,0,0,1-.212-.264.7.7,0,0,1-.06-.369L-.766.184C-.536.125-.28.063,0,0"/>
      </g>
      <g id="Group_220" data-name="Group 220" transform="translate(19.05 -15.021)">
        <path id="Path_156" data-name="Path 156" class="cls-4" d="M0,0Q.243-.577.48-1.114c.159-.358.305-.684.442-.978a6.5,6.5,0,0,1,.332-.649.472.472,0,0,1,.213-.225.6.6,0,0,1,.348.008,2.939,2.939,0,0,1,.389.1c.105.038.229.086.372.145a.747.747,0,0,1,.182.1.324.324,0,0,1,.088.112.432.432,0,0,1,.031.152c0,.06,0,.129,0,.209s-.008.245-.024.465S2.822-1.2,2.8-.9,2.758-.3,2.733.032,2.687.687,2.665,1q.168-.393.364-.83t.4-.878c.134-.294.265-.581.4-.861s.254-.544.369-.79.219-.466.313-.662.173-.354.236-.477c.08-.165.161-.258.241-.276a.692.692,0,0,1,.376.076,4.024,4.024,0,0,1,.365.2,2.929,2.929,0,0,1,.349.245.486.486,0,0,1,.176.376,1.064,1.064,0,0,1-.1.409q-.2.369-.442.842c-.16.315-.323.645-.488.986S4.882.05,4.713.405s-.328.7-.481,1.034-.294.649-.429.943-.248.55-.344.769a.369.369,0,0,1-.217.193.972.972,0,0,1-.392,0c-.1-.017-.18-.034-.248-.053l-.2-.052c-.061-.016-.123-.033-.183-.051s-.131-.037-.2-.053A.628.628,0,0,1,1.7,2.914a.813.813,0,0,1-.129-.309c-.015-.112-.035-.248-.059-.408s-.047-.336-.069-.525-.042-.384-.059-.581A5.737,5.737,0,0,1,1.351.514q-.184.353-.377.733t-.365.741c-.115.241-.22.464-.317.67s-.173.375-.232.509a.37.37,0,0,1-.2.188.79.79,0,0,1-.292,0,4.72,4.72,0,0,1-.477-.1c-.152-.04-.3-.081-.438-.124a.573.573,0,0,1-.276-.172.662.662,0,0,1-.108-.333c-.043-.219-.081-.472-.116-.758s-.066-.592-.092-.918Q-1.984.441-2.017-.12c-.021-.374-.04-.746-.055-1.118s-.028-.735-.033-1.09-.008-.686-.008-.99a.458.458,0,0,1,.1-.329c.06-.048.174-.053.345-.016.2.043.377.087.537.132a1.989,1.989,0,0,1,.449.188.609.609,0,0,1,.192.177.772.772,0,0,1,.109.221,1.006,1.006,0,0,1,.043.24,1.443,1.443,0,0,1,0,.228c0,.139-.013.342-.027.61S-.4-1.3-.409-.974-.434-.3-.441.053-.453.746-.453,1.066C-.314.741-.164.386,0,0"/>
      </g>
    </g>
  </g>
</svg>
