<?xml version="1.0" encoding="utf-8"?>
<!-- Generator: Adobe Illustrator 23.0.1, SVG Export Plug-In . SVG Version: 6.00 Build 0)  -->
<svg version="1.1" id="Capa_1" xmlns="http://www.w3.org/2000/svg" xmlns:xlink="http://www.w3.org/1999/xlink" x="0px" y="0px"
	 viewBox="0 0 284.9 284.9" style="enable-background:new 0 0 284.9 284.9;" xml:space="preserve">
<style type="text/css">
	.st0{fill:url(#SVGID_1_);}
</style>
<linearGradient id="SVGID_1_" gradientUnits="userSpaceOnUse" x1="4.2" y1="142.3" x2="280.4" y2="142.3" gradientTransform="matrix(-1 0 0 1 284.6 0)">
	<stop  offset="0" style="stop-color:#FFC84B"/>
	<stop  offset="0.9949" style="stop-color:#FF6C00"/>
</linearGradient>
<path class="st0" d="M167.9,149.1c1.9-1.9,2.9-4.1,2.9-6.6s-0.9-4.7-2.8-6.6L35.3,2.5c-1.9-1.9-4.1-2.9-6.6-2.9s-4.7,1-6.6,2.9
	L7.8,16.7c-1.9,1.9-2.9,4.1-2.9,6.6s0.9,4.7,2.8,6.6l111.9,112.6L7.1,254.2c-1.9,1.9-2.9,4.1-2.9,6.6s0.9,4.7,2.8,6.6l14.2,14.3
	c1.9,1.9,4.1,2.9,6.6,2.9s4.7-0.9,6.6-2.8L167.9,149.1z M117.4,17c-1.9,1.9-2.9,4.1-2.9,6.6s0.9,4.7,2.8,6.6l111.9,112.6
	L116.7,254.6c-1.9,1.9-2.9,4.1-2.9,6.6s0.9,4.7,2.8,6.6l14.2,14.3c1.9,1.9,4.1,2.9,6.6,2.9s4.7-0.9,6.6-2.8l133.5-132.6
	c1.9-1.9,2.9-4.1,2.9-6.6s-0.9-4.7-2.8-6.6L144.9,2.9c-1.9-2-4.1-2.9-6.6-2.9s-4.7,0.9-6.6,2.8L117.4,17z"/>
</svg>
