<?xml version="1.0" encoding="utf-8"?>
<!-- Generator: Adobe Illustrator 23.0.1, SVG Export Plug-In . SVG Version: 6.00 Build 0)  -->
<svg version="1.1" id="Capa_1" xmlns="http://www.w3.org/2000/svg" xmlns:xlink="http://www.w3.org/1999/xlink" x="0px" y="0px"
	 viewBox="0 0 284.9 284.9" style="enable-background:new 0 0 284.9 284.9;" xml:space="preserve">
<style type="text/css">
	.st0{fill:url(#SVGID_1_);}
</style>
<linearGradient id="SVGID_1_" gradientUnits="userSpaceOnUse" x1="4.2" y1="142.3" x2="280.4" y2="142.3">
	<stop  offset="0" style="stop-color:#FFC84B"/>
	<stop  offset="0.9949" style="stop-color:#FF6C00"/>
</linearGradient>
<path class="st0" d="M250.2,281.8c1.9,1.9,4.1,2.8,6.6,2.8s4.7-1,6.6-2.9l14.2-14.3c1.9-1.9,2.8-4.1,2.8-6.6s-1-4.7-2.9-6.6
	L165,142.5L276.9,29.9c1.9-1.9,2.8-4.1,2.8-6.6s-1-4.7-2.9-6.6L262.5,2.5c-1.9-1.9-4.1-2.9-6.6-2.9s-4.7,1-6.6,2.9L116.6,135.9
	c-1.9,1.9-2.8,4.1-2.8,6.6s1,4.7,2.9,6.6L250.2,281.8z M152.9,2.8C151,0.9,148.8,0,146.3,0c-2.5,0-4.7,0.9-6.6,2.9L7,136.4
	c-1.9,1.9-2.8,4.1-2.8,6.6s1,4.7,2.9,6.6l133.5,132.6c1.9,1.9,4.1,2.8,6.6,2.8s4.7-1,6.6-2.9l14.2-14.3c1.9-1.9,2.8-4.1,2.8-6.6
	s-1-4.7-2.9-6.6L55.4,142.8L167.3,30.2c1.9-1.9,2.8-4.1,2.8-6.6s-1-4.7-2.9-6.6L152.9,2.8z"/>
</svg>
