<?xml version="1.0" encoding="utf-8"?>
<!-- Generator: Adobe Illustrator 23.0.1, SVG Export Plug-In . SVG Version: 6.00 Build 0)  -->
<svg version="1.1" id="Layer_1" xmlns="http://www.w3.org/2000/svg" xmlns:xlink="http://www.w3.org/1999/xlink" x="0px" y="0px"
	 viewBox="0 0 569 328.8" style="enable-background:new 0 0 569 328.8;" xml:space="preserve">
<style type="text/css">
	.st0{fill:url(#SVGID_1_);}
	.st1{fill:#FFFFFF;}
</style>
<linearGradient id="SVGID_1_" gradientUnits="userSpaceOnUse" x1="818.2427" y1="284.1779" x2="996.734" y2="284.1779" gradientTransform="matrix(-5.799276e-04 -1 1 -5.799276e-04 2.1417 998.9071)">
	<stop  offset="0" style="stop-color:#FFFFFF"/>
	<stop  offset="1" style="stop-color:#FF9505"/>
</linearGradient>
<path class="st0" d="M298.3,3c-8.5,4.2-15.8,8.8-21.5,13.6c-6.9-3-15.1-5.4-24.5-7l-2.3-0.4l-1.2,2c-4.9,8.2-8.5,15.9-10.7,23.1
	c-7.4,1.2-15.6,3.6-24.4,7.3l-2.1,0.9l0.1,2.3c0.3,9.5,1.5,18,3.5,25.2c-5.6,5-11.2,11.5-16.6,19.3l-1.3,1.9l1.3,1.9
	c5.4,7.9,11,14.3,16.6,19.3c-2,7.2-3.2,15.7-3.5,25.2l-0.1,2.3l2.1,0.9c8.8,3.7,16.9,6.1,24.4,7.3c2.2,7.2,5.8,14.9,10.7,23.1l1.2,2
	l2.3-0.4c9.4-1.6,17.6-4,24.5-7c5.7,4.8,12.9,9.4,21.5,13.6l2.1,1l1.7-1.6c7-6.5,12.6-12.9,16.8-19.1c7.4,1,16,0.9,25.4-0.2l2.3-0.3
	l0.6-2.2c2.4-9.2,3.7-17.6,3.8-25.1l0,0l0,0c6.8-3.2,13.9-7.9,21.3-13.9l1.8-1.5l-0.7-2.2c-3-9.1-6.5-16.8-10.5-23.2
	c4-6.4,7.5-14.2,10.4-23.2l0.7-2.2l-1.8-1.5c-7.4-6-14.5-10.7-21.3-13.9c-0.1-7.5-1.4-15.9-3.8-25.2l-0.6-2.2l-2.3-0.3
	c-9.5-1.1-18-1.1-25.4-0.1c-4.1-6.3-9.8-12.7-16.8-19.1L300.4,2L298.3,3z M253.5,16.7c6.7,1.3,12.8,3,18,5
	c-4.3,4.5-7.4,9.3-9.2,14.1c-4-1.4-8.3-2.2-13.1-2.3c-0.9,2.3-1.6,4.5-2.1,6.7c5.1-0.1,9.6,0.6,13.5,2.1c-0.3,1.6-0.4,3.2-0.4,4.8
	c0,7.5,2.9,15.1,8.2,21.8c-7.2-7.5-16.1-11.6-25.3-11.5C240,44.3,246.7,28.5,253.5,16.7z M286.8,76.2l2.2,5.6l3.6-4.8
	c2.1-2.7,3.8-5.4,5.3-8.2c-1.2,2.9-2.1,6-2.8,9.4l-1.2,5.9l5.7-2c3.2-1.2,6.1-2.5,8.8-4.1c-2.5,1.8-5,3.9-7.4,6.3l-4.2,4.3l5.9,1.3
	c3.4,0.8,6.6,1.2,9.8,1.3c-3.2,0.1-6.4,0.6-9.8,1.4l-5.9,1.3l4.2,4.3c2.4,2.4,4.8,4.5,7.4,6.3c-2.7-1.6-5.7-2.9-8.8-4.1l-5.7-2
	l1.2,5.9c0.7,3.3,1.6,6.4,2.8,9.3c-1.4-2.8-3.2-5.5-5.2-8.2l-3.7-4.8l-2.1,5.6c-1.2,3.2-2.1,6.3-2.7,9.4c0.2-1.6,0.2-3.3,0.2-5
	c0-1.6-0.1-3.2-0.2-4.8l-0.5-6l-4.8,3.5c-2.8,2-5.2,4.2-7.4,6.5c2-2.5,3.8-5.2,5.4-8.3l2.8-5.3l-6,0.4c-3.4,0.2-6.7,0.7-9.7,1.5
	c3-1,6-2.4,9-4.1l5.2-2.9l-5.2-2.9c-3-1.7-6-3-9-4c3.1,0.7,6.3,1.2,9.7,1.4l6,0.4l-2.8-5.3c-1.6-3-3.4-5.8-5.4-8.3
	c2.2,2.3,4.7,4.5,7.4,6.5l4.8,3.6l0.5-6c0.1-1.6,0.2-3.2,0.2-4.8c0-1.7-0.1-3.4-0.2-5C284.7,69.9,285.6,73,286.8,76.2z M289.9,57.9
	c0-6.1,1.6-11.6,4.8-16c0.9,2.6,1.4,5.3,1.4,8.1c0,5.5-1.7,11.4-5,17.1C290.3,64,289.9,60.9,289.9,57.9z M320.3,53.6
	c-2.3,9.8-10.2,15.9-16.8,19.3C306,65.9,310.8,57.2,320.3,53.6z M335.5,77.2c-7.2,7.1-17.2,7.9-24.6,7.2
	C316.7,79.9,325.5,75.2,335.5,77.2z M335.5,105.3c-9.9,2-18.7-2.7-24.5-7.2C318.3,97.4,328.2,98.2,335.5,105.3z M303.5,109.6
	c6.5,3.4,14.5,9.5,16.8,19.3C310.9,125.3,306,116.5,303.5,109.6z M291.1,115.3c3.3,5.7,5,11.7,5,17.1c0,2.8-0.5,5.6-1.4,8.2
	c-3.1-4.4-4.8-9.8-4.8-16C289.9,121.6,290.3,118.5,291.1,115.3z M266.9,136.6c-0.4-8.1,3.4-16.3,10.6-23.3
	C277.2,120.3,275.1,130.3,266.9,136.6z M245.7,118.2c5-8.8,14.3-12.4,21.5-13.9C262.9,110.4,255.8,117.4,245.7,118.2z M237.7,91.3
	c8.9-4.7,18.7-2.7,25.6,0C256.5,94,246.7,96,237.7,91.3z M267.2,78.2c-7.2-1.5-16.6-5-21.5-13.8C255.7,65.2,262.9,72.2,267.2,78.2z
	 M277.5,69.2c-6.9-6.6-10.7-14.4-10.7-22c0-0.4,0-0.9,0-1.3C275,52.2,277.2,62.2,277.5,69.2z M218.6,47c6.3-2.6,12.3-4.4,17.9-5.5
	c-1.1,6.1-1.2,11.8-0.1,16.9c-4.1,0.9-8.2,2.6-12.3,5.2c0.5,2.4,1.2,4.7,1.9,6.8c4.2-2.8,8.4-4.7,12.5-5.5
	c3.7,8.4,11.1,14.8,20.9,18.2c-10.1-2.4-19.7-1.1-27.4,4C222.2,77.5,219.2,60.6,218.6,47z M205.6,91.3c4-5.6,8-10.4,12.1-14.3
	c2.3,5.7,5.4,10.5,9,14.3c-3,3-5.5,6.7-7.6,11c1.7,1.7,3.5,3.3,5.2,4.7c2-4.6,4.5-8.5,7.5-11.4c7.7,5.1,17.3,6.4,27.4,4
	c-9.8,3.4-17.2,9.8-20.9,18.2C225.1,115.1,213.5,102.4,205.6,91.3z M218.7,135.6c0.3-6.9,1.1-13.1,2.4-18.5c5.1,3.6,10.2,6,15.3,7.1
	c-0.9,4.1-1,8.6-0.4,13.3c2.4,0.5,4.7,0.9,6.9,1.1c-0.8-5-0.8-9.6,0.2-13.7c9.2,0.1,18.1-4,25.3-11.5c-5.3,6.8-8.2,14.3-8.2,21.9
	c0,1.6,0.1,3.2,0.4,4.8C247.9,145.1,231.3,140.7,218.7,135.6z M245.6,149c6.2,0.3,11.8-0.5,16.7-2.3c1.5,3.9,3.8,7.8,6.9,11.4
	c2.3-0.9,4.5-1.8,6.4-2.8c-3.4-3.8-5.8-7.6-7.2-11.6c7.8-4.9,13-13,15-23.2c-0.1,1.4-0.2,2.7-0.2,4c0,8.8,2.8,16.5,8.1,22.4
	c-8,11-24.3,16.2-37.7,18.8C250.2,159.9,247.5,154.3,245.6,149z M299.3,172.4c-6.1-3.1-11.4-6.4-15.8-9.9c5.4-3.1,9.7-6.8,12.8-11
	c3.4,2.5,7.4,4.5,12,5.9c1.5-2,2.8-3.9,3.9-5.9c-4.9-1.3-9-3.3-12.3-5.8c2-4.2,3-8.7,3-13.4c0-4.7-1-9.5-2.9-14.2
	c4.8,9.2,12.1,15.5,20.9,18C320,149.8,309.3,162.9,299.3,172.4z M341.3,153.2c-6.8,0.7-13.1,0.7-18.7,0.2c2.8-5.5,4.4-10.9,4.9-16.2
	c4.2,0.3,8.6-0.2,13.3-1.5c0.2-2.5,0.2-4.8,0.1-7c-4.8,1.5-9.4,2.1-13.5,1.8c-1.2-9.1-6.5-17.3-14.9-23.3c9,5.1,18.6,6.6,27.4,3.8
	C346.6,122.9,344.6,139.9,341.3,153.2z M366.3,114.3c-5.4,4.3-10.6,7.7-15.6,10.3c-0.6-6.2-2.2-11.6-4.7-16.2
	c3.7-2,7.1-4.9,10.4-8.4c-1.2-2.2-2.4-4.2-3.7-6c-3.2,3.9-6.7,6.9-10.4,8.8c-5.9-7-14.7-11-25.1-11.6c10.4-0.5,19.2-4.5,25.1-11.6
	C354.4,86.1,361.8,101.4,366.3,114.3z M366.3,68.1c-2.2,6.5-4.8,12.2-7.5,17.1c-3.9-4.9-8.1-8.6-12.7-11.1c2-3.7,3.4-8,4.2-12.7
	c-2.2-1.2-4.3-2.2-6.3-3c-0.6,5-2,9.4-4,13.1c-8.8-2.7-18.4-1.3-27.3,3.8c8.4-6.1,13.6-14.2,14.8-23.3
	C340.9,50.8,355.5,59.7,366.3,68.1z M341.3,29.3c1.6,6.7,2.6,12.8,2.9,18.4c-5.9-2-11.5-2.8-16.7-2.5c-0.3-4.2-1.5-8.5-3.4-12.9
	c-2.5,0.2-4.8,0.5-7,0.9c2.2,4.6,3.4,9,3.7,13.2c-8.9,2.5-16.1,8.8-20.9,18c1.9-4.8,2.9-9.6,2.9-14.2c0-4.7-1-9.2-3-13.4
	C310.5,28.4,327.7,27.9,341.3,29.3z M311.7,24c-6,1.5-11.2,3.8-15.4,6.9c-2.6-3.4-5.8-6.4-9.8-9.1c-2,1.5-3.8,3-5.4,4.5
	c4.3,2.7,7.7,5.7,10.2,9.1c-5.3,5.9-8.1,13.6-8.1,22.4c0,1.3,0.1,2.7,0.2,4c-2-10.2-7.2-18.3-15-23.2c3.2-8.8,11-16.2,18.7-21.5
	c3.6-2.5,7.7-4.9,12.1-7.2C304.2,14.8,308.4,19.5,311.7,24z"/>
<g>
	<path class="st1" d="M33.5,215.3l1.9-0.5c0.3,0,0.4,0.3,0.4,0.8c0,0.5-0.8,1.3-2.3,2.5c-1.5,1.1-3.3,1.7-5.5,1.7
		c-2.1,0-3.8-0.6-5-1.8c-1.2-1.2-1.8-2.8-1.8-4.8c0-4.2,2.7-8.3,8.2-12.4c5.4-4.1,12.1-7.4,20.1-9.9c7.9-2.5,15.5-3.7,22.8-3.7
		c10.7,0,18.6,1.7,23.8,5.2c5.2,3.5,7.8,8.1,7.8,13.9c0,7.5-5.2,14.7-15.5,21.6c-5.4,3.7-11.3,6.6-17.6,8.8c6.9,0.7,12.5,3,16.6,6.7
		c3.1,2.8,4.7,6.4,4.7,10.7s-2.1,8.8-6.2,13.3c-4.1,4.5-9.7,8.2-16.5,11.2c-6.9,3-13.9,4.4-21.1,4.4c-8.3,0-14.4-1.8-18.3-5.5
		c-1.8-1.7-2.6-3.1-2.6-4.4c0-1.3,0.3-2.7,1-4.1c-3.2,5.8-5.5,10.2-7,13.1c-0.7,1.3-2,2-4,2c-2,0-3.5-0.5-4.6-1.6
		c-1.1-1.1-1.6-2.2-1.6-3.6c0-1.3,0.2-2.5,0.6-3.5c2-5.2,8.9-17.3,20.9-36.3c12-19.1,19.3-30.1,21.9-33.1c1.4-1.7,4.6-2.6,9.5-2.6
		c2,0,3,0.4,3,1.3c0,0.7-2.9,5.6-8.7,14.8c-5.8,9.2-8.9,14-9.1,14.5c6.1-1.8,12.3-4.2,18.7-7.2c6.4-3,12-6.5,16.7-10.4
		c4.8-3.9,7.1-7.3,7.1-10.5c0-5.1-5.6-7.7-16.7-7.7c-11.7,0-22.9,3.1-33.7,9.3c-2.7,1.5-4.7,2.9-6.1,4.2c-1.4,1.3-2.1,2.2-2.1,2.7
		S33,215.3,33.5,215.3z M45.3,246.8c-0.8,0-1.7-0.9-2.6-2.8c-4.2,6.7-8.5,14.1-13.1,22.2c2.1-2.9,5.1-4.3,9-4.3c2.6,0,3.9,0.3,3.9,1
		c0,0.3-0.3,0.5-0.9,0.7c-1.8,0.7-2.6,1.6-2.6,3c0,3.2,3.4,4.7,10.1,4.7c9.1,0,17.3-3.2,24.7-9.5c3.9-3.3,5.9-6.2,5.9-8.7
		c0-1.5-1.6-3.2-4.8-5.1c-3.7-2.1-9.4-3.1-17-3.1c-5.3,0-8.7,0.3-10.2,0.9C46.2,246.5,45.4,246.8,45.3,246.8z"/>
	<path class="st1" d="M124.7,267.9c0,1.3-0.1,2.3-0.4,2.8c-2.1,4.4-5.6,7.9-10.3,10.6c-4.7,2.7-8.8,4-12.2,4c-3.5,0-6.4-1.2-8.9-3.5
		c-2.5-2.3-3.8-4.7-3.8-7.1c0-2.4,1.2-5.9,3.6-10.5c2.4-4.6,4.8-8.9,7.2-12.8c2.4-3.9,3.6-6,3.6-6.3s-0.5-1-1.3-1.9
		c-0.9-1-1.3-1.7-1.3-2.1c0-0.5,0.9-1.7,2.7-3.6c1.8-2,4-3.9,6.6-5.8c2.6-1.9,4.6-2.9,6-2.9s2.6,0.6,3.7,1.8
		c1.1,1.2,1.6,2.3,1.6,3.4c0,1-5.2,10.5-15.7,28.5c-0.1,0.3-0.5,0.8-1.1,1.7c-0.6,0.9-1.1,1.6-1.4,2.2s-0.7,1.3-1.2,2.1
		c-0.9,1.8-1.3,3.2-1.3,4.4c0,1.5,1,2.2,3,2.2c2,0,4.1-0.7,6.3-2.1s4-2.9,5.6-4.6c4.1-4.4,6.5-6.6,7-6.6
		C124.2,262,124.7,264,124.7,267.9z M135.4,210.5c0,2.5-1.2,5-3.5,7.5c-2.3,2.5-4.7,3.8-7.3,3.8c-2.5,0-3.8-1.3-3.8-3.9
		c0-2.6,1.1-5.1,3.3-7.5c2.2-2.4,4.7-3.6,7.3-3.6c1.2,0,2.1,0.3,2.8,1C135,208.4,135.4,209.3,135.4,210.5z"/>
	<path class="st1" d="M120.9,284.3l-4.2-0.9c-1.3-0.1-2.3-0.9-3.2-2.4c-0.2-0.4-0.4-0.6-0.4-0.7c-0.1-0.1-0.1-0.2-0.1-0.3
		c0-0.1,0-0.3,0.1-0.6c0.1-0.2,0.2-0.6,0.4-1c0.2-0.4,0.3-0.8,0.5-1.3c0.9-3.1,8.6-17.8,23.1-43.9c14.5-26.2,22-39.7,22.7-40.5
		c0.7-0.8,1.2-1.4,1.5-1.8c0.3-0.4,0.7-0.7,1.1-1c0.4-0.3,0.7-0.4,0.9-0.5c0.2-0.1,0.6-0.2,1.2-0.4c0.6-0.2,1.2-0.4,1.8-0.6
		c0.6-0.2,1.3-0.5,2-0.9c0.7-0.4,1.2-0.6,1.4-0.8c0.3-0.2,0.6-0.2,1-0.2c0.4,0,0.8,0.2,1.2,0.6c0.4,0.4,0.6,0.9,0.6,1.5v0.5
		c-0.2,0.8-5.9,11.2-17.1,31.2c-11.2,20-17.3,30.9-18.3,32.8c3.4-1.4,8.5-4.7,15.1-10.1c6.7-5.4,10-8.9,10.1-10.7
		c0.1-1.8,0.7-3,1.8-3.8c1.1-0.8,2.4-1.2,3.7-1.2c1.3,0,2.5,0.5,3.4,1.3c0.9,0.9,1.4,2.4,1.3,4.4c0,2-1.2,4.6-3.4,7.8s-4.9,6-8,8.7
		c-6.7,5.7-12.3,9.5-16.8,11.3c3.6,9.6,7.6,14.4,12.2,14.4c2.5-0.4,5.6-2.4,9.2-6.1c1.4-1.4,2.7-2.7,3.9-4.1c1.3-1.4,2-2.2,2.3-2.5
		c0.3-0.3,0.7-0.4,1.2-0.4c0.8,0,1.3,0.6,1.5,1.9c0.2,1.3,0.3,2.6,0.3,3.9c0,1.4-0.1,2.3-0.4,2.8c-1.3,2.5-4.1,5.5-8.4,9
		c-4.3,3.5-8.4,5.3-12.2,5.3c-2.8,0-5-0.5-6.6-1.6c-1.6-1.1-2.9-1.9-3.8-2.6c-0.9-0.7-1.9-1.7-2.8-2.9c-1-1.2-1.8-2.2-2.4-3
		c-0.6-0.8-1.4-1.9-2.2-3.3c-0.8-1.4-1.4-2.4-1.7-3c-0.4-0.6-0.9-1.6-1.5-2.9c-0.7-1.3-1.1-2.1-1.2-2.2c-0.8,1.6-1.7,3.4-2.6,5.3
		c-1,1.9-1.8,3.6-2.6,5.3c-0.8,1.6-1.5,3.1-2.2,4.4c-0.7,1.3-1.2,2.4-1.6,3.3c-0.4,0.9-0.6,1.3-0.7,1.4
		C121.9,283.9,121.5,284.3,120.9,284.3z"/>
	<path class="st1" d="M201.6,267.9c0,1.3-0.1,2.3-0.4,2.8c-2.1,4.4-5.6,7.9-10.3,10.6c-4.7,2.7-8.8,4-12.2,4c-3.5,0-6.4-1.2-8.9-3.5
		c-2.5-2.3-3.8-4.7-3.8-7.1c0-2.4,1.2-5.9,3.6-10.5c2.4-4.6,4.8-8.9,7.2-12.8c2.4-3.9,3.6-6,3.6-6.3s-0.5-1-1.3-1.9
		c-0.9-1-1.3-1.7-1.3-2.1c0-0.5,0.9-1.7,2.7-3.6c1.8-2,4-3.9,6.6-5.8c2.6-1.9,4.6-2.9,6-2.9s2.6,0.6,3.7,1.8
		c1.1,1.2,1.6,2.3,1.6,3.4c0,1-5.2,10.5-15.7,28.5c-0.1,0.3-0.5,0.8-1.1,1.7c-0.6,0.9-1.1,1.6-1.4,2.2s-0.7,1.3-1.2,2.1
		c-0.9,1.8-1.3,3.2-1.3,4.4c0,1.5,1,2.2,3,2.2c2,0,4.1-0.7,6.3-2.1s4-2.9,5.6-4.6c4.1-4.4,6.5-6.6,7-6.6
		C201,262,201.6,264,201.6,267.9z M212.2,210.5c0,2.5-1.2,5-3.5,7.5c-2.3,2.5-4.7,3.8-7.3,3.8c-2.5,0-3.8-1.3-3.8-3.9
		c0-2.6,1.1-5.1,3.3-7.5c2.2-2.4,4.7-3.6,7.3-3.6c1.2,0,2.1,0.3,2.8,1C211.9,208.4,212.2,209.3,212.2,210.5z"/>
	<path class="st1" d="M231,272.6c0,1.9,1.3,2.9,3.9,2.9c1.4,0,3.2-0.7,5.3-2.1c2.1-1.4,4-2.9,5.8-4.6c4.6-4.5,7.1-6.8,7.8-6.8
		c1.1,0,1.7,1.6,1.7,4.9s-1,5.5-3.1,6.8c-6.3,5.7-11.1,9.1-14.5,10.3c-1.9,0.7-4.1,1-6.4,0.9c-2.3,0-4.6-1.1-6.9-3
		c-2.3-2-3.4-4.4-3.4-7.2c0-2.8,0.7-6,2.2-9.6c1.5-3.6,3-6.7,4.6-9.2c1.6-2.6,3.5-5.5,5.8-8.9c2.3-3.4,3.5-5.5,3.6-6.3l-0.1-0.1
		c-1.4,0.1-5,3-10.8,8.6s-10.4,10.4-14.2,14.5c-3.7,4.1-8.2,9.6-13.4,16.5c-1.4,1.9-2.6,2.8-3.6,2.8c-0.9,0-2.2-0.3-3.7-0.9
		c-1.6-0.6-2.5-1-2.9-1.3c-0.4-0.3-0.5-0.7-0.5-1.2s0.2-1.2,0.5-1.9c0.3-0.8,0.6-1.4,0.9-1.9c0.3-0.5,0.8-1.3,1.4-2.3
		c0.7-1.1,2-3.3,3.9-6.7c2-3.4,4.9-8.5,9-15.2c4-6.8,6.4-10.8,7.2-12.2c1.7-2.9,3-5,4.1-6.3c2-2.5,5.3-3.8,10-3.8
		c1.1,0,1.6,0.7,1.6,2c0,2.1-1.9,5.9-5.7,11.6l-2.8,4.1c7.6-8.4,14-13.7,19.2-16c2.5-1.1,4.8-1.6,6.9-1.6c2,0,3.7,0.5,4.9,1.6
		c1.2,1.1,1.8,2.3,1.8,3.7c0,1.3-0.5,2.9-1.4,4.8c-0.9,1.9-1.9,3.5-2.8,5c-0.9,1.5-2.2,3.3-3.7,5.6c-1.5,2.2-2.4,3.5-2.5,3.7
		c-0.1,0.2-0.5,0.7-1,1.6c-0.5,0.9-1,1.5-1.2,1.9c-0.3,0.4-0.7,1.1-1.3,2.1c-0.6,1-1.1,1.8-1.5,2.5c-0.4,0.7-0.8,1.5-1.4,2.4
		c-0.5,1-1,1.8-1.3,2.5c-0.3,0.7-0.7,1.5-1,2.3C231.3,270.3,231,271.6,231,272.6z"/>
	<path class="st1" d="M281.5,267.9c0,1.3-0.1,2.3-0.4,2.8c-2.1,4.4-5.6,7.9-10.3,10.6c-4.7,2.7-8.8,4-12.2,4c-3.5,0-6.4-1.2-8.9-3.5
		c-2.5-2.3-3.8-4.7-3.8-7.1c0-2.4,1.2-5.9,3.6-10.5c2.4-4.6,4.8-8.9,7.2-12.8c2.4-3.9,3.6-6,3.6-6.3s-0.5-1-1.3-1.9
		c-0.9-1-1.3-1.7-1.3-2.1c0-0.5,0.9-1.7,2.7-3.6c1.8-2,4-3.9,6.6-5.8c2.6-1.9,4.6-2.9,6-2.9s2.6,0.6,3.7,1.8
		c1.1,1.2,1.6,2.3,1.6,3.4c0,1-5.2,10.5-15.7,28.5c-0.1,0.3-0.5,0.8-1.1,1.7c-0.6,0.9-1.1,1.6-1.4,2.2s-0.7,1.3-1.2,2.1
		c-0.9,1.8-1.3,3.2-1.3,4.4c0,1.5,1,2.2,3,2.2c2,0,4.1-0.7,6.3-2.1s4-2.9,5.6-4.6c4.1-4.4,6.5-6.6,7-6.6
		C280.9,262,281.5,264,281.5,267.9z M292.1,210.5c0,2.5-1.2,5-3.5,7.5c-2.3,2.5-4.7,3.8-7.3,3.8c-2.5,0-3.8-1.3-3.8-3.9
		c0-2.6,1.1-5.1,3.3-7.5c2.2-2.4,4.7-3.6,7.3-3.6c1.2,0,2.1,0.3,2.8,1C291.8,208.4,292.1,209.3,292.1,210.5z"/>
	<path class="st1" d="M411.2,191.3l2.5-0.1c0.7,0,1.6,0.3,2.5,1s1.4,1.2,1.4,1.7c-0.2,1-5.4,9.8-15.5,26.4c-31.6,52-49,81.3-52.2,88
		c1.6-1.7,3.4-3.4,5.4-5c2-1.6,3-2.5,3.3-2.5c0.2,0,0.5,0.1,0.8,0.4c0.3,0.3,0.4,0.6,0.4,0.9c0,0.3-0.2,0.6-0.6,1.1
		c-0.4,0.4-1.8,2.2-4.1,5.2c-2.3,3-4.1,5.2-5.2,6.5c-1.1,1.3-2.2,2.7-3.1,4.1c-0.9,1.5-1.7,2.5-2.3,3.1c-0.6,0.6-1.4,0.9-2.3,0.9
		c-2.7,0-4.9-1.2-6.7-3.5c-1.8-2.3-2.7-4.2-2.7-5.8c0-3.1,6.5-15,19.6-35.9c13-20.9,24.5-38.4,34.5-52.6c-23,27.2-41.4,45-55,53.5
		c-4.7,3-8.6,4.5-11.6,4.5c-1.4,0-2.9-0.4-4.3-1.2c-1.4-0.8-2.5-1.9-3.1-3.2c-0.6-1.3-1-3.5-1-6.8c0-3.3,1.4-8,4.2-14.1
		c2.8-6.1,6.4-12.7,10.9-19.6c7.8-12.5,15.1-23.1,21.7-32c-5.9,5.3-10.7,8-14.4,8c-1.7,0-2.8-0.3-3.4-0.8c-0.5-0.5-1.3-1.3-2.2-2.4
		c-0.9-1.1-1.4-2.3-1.4-3.6c0-1.3,0.2-2.3,0.7-3.1c0.5-0.7,0.9-1.3,1.3-1.7c1.5-1.5,2.5-2.4,2.9-2.6c0.4-0.3,1-0.4,1.6-0.4
		c0.6,0,1,0.1,1,0.3s-0.2,0.5-0.7,0.9s-0.7,0.7-0.7,0.9c0,0.2,0.2,0.3,0.7,0.3c0.5,0,1.1-0.1,1.8-0.4c0.7-0.2,1.7-0.7,2.9-1.3
		c1.2-0.6,2.3-1.2,3.3-1.8c1-0.5,2.5-1.4,4.4-2.6c2-1.2,3.5-2,4.5-2.6c1-0.6,2.5-1.6,4.5-3.1c2-1.5,3.5-2.5,4.4-3
		c1.6-1,2.9-1.2,4-0.9c1,0.4,1.8,0.7,2.4,0.8c0.6,0.1,1.1,0.3,1.6,0.6c0.5,0.2,0.9,0.5,1.3,0.8c1.4,1,2,2.1,2,3.4
		c0,1.3-0.6,2.8-1.9,4.5c-1.2,1.7-4,5.8-8.4,12.1c-4.3,6.4-9.2,13.7-14.7,22c-5.5,8.3-10.3,16-14.4,23.3c-4.1,7.2-6.2,11.8-6.2,13.7
		c0,0.7,0.2,1,0.5,1c0.4,0,1.6-0.9,3.9-2.6c11.8-9.1,26.7-23.3,44.9-42.7c15-15.9,23.8-25.8,26.4-29.5c0.8-1.1,1.7-1.9,2.5-2.3
		c0.8-0.4,2.1-0.6,3.7-0.6L411.2,191.3z"/>
	<path class="st1" d="M438.8,232.6c1.3,0,2.7,0.6,4,1.8c1.4,1.2,2.1,3,2.1,5.4c0,2.4-0.9,5.6-2.6,9.5c-1.7,3.9-4.1,7.8-7,11.8
		c-3,4-6.3,7.8-9.8,11.3s-7.4,6.4-11.6,8.7c-4.1,2.3-7.9,3.4-11.3,3.4s-6.1-1.1-8.1-3.2c-2-2.1-3.1-5.1-3.1-8.9
		c0-3.8,0.9-8,2.8-12.6c1.9-4.6,4.3-8.7,7.2-12.2c2.9-3.5,6.1-6.7,9.5-9.5c7.1-5.7,13.4-8.6,18.8-8.6c2.4,0,4.2,0.6,5.5,1.8
		c0.4,0.4,0.7,0.7,0.7,1.1v0.4C436.6,232.6,437.5,232.6,438.8,232.6z M432.2,241.3h-0.5c-1.5,0-2.3-1.1-2.3-3.4
		c-3.2,1.1-6.6,2.9-10.1,5.5c-3.5,2.6-6.6,5.7-9.4,9.3c-5.6,7.2-8.5,13.3-8.6,18.2c0,2.5,0.9,3.7,2.7,3.7c1.8,0,4.5-1.2,8-3.6
		s7.1-5.7,10.6-10.1c3.5-4.4,6.1-8.2,7.8-11.4s2.6-5.4,2.6-6.6S432.8,241.3,432.2,241.3z"/>
	<path class="st1" d="M464,239c4.2-2.9,8.4-5.2,12.5-6.7c4.1-1.6,7.6-2.4,10.6-2.4s4.9,0.9,5.7,2.6c1.7-2,3.8-3,6.4-3.2
		c0.7,0,1.7-0.1,2.8-0.1c1.1,0,1.8,0.1,2,0.4c0.3,0.3,0.5,0.8,0.7,1.6s0.4,1.2,0.4,1.3c0,0.1,0.1,0.2,0.1,0.4s-0.1,0.4-0.3,0.7
		c-0.2,0.3-0.5,0.6-0.8,0.8s-0.5,0.4-0.5,0.5c-9.7,13.9-19.6,29.8-29.7,47.6c10.4-9.3,19.8-15.9,28-19.9c0.5-0.3,1-0.4,1.5-0.4
		c0.7,0,1.2,0.5,1.4,1.3c0.2,0.9,0.3,2.2,0.3,3.8c0,1.7-0.1,2.7-0.3,3.1c-0.2,0.4-1.2,1.2-3.1,2.4c-1.8,1.2-4.2,2.7-7.2,4.6
		c-2.9,1.9-6.1,4-9.3,6.2c-7.9,5.5-14.4,11.2-19.5,17.3c-6.6,7.9-11.3,14.3-14.1,19.2c-1.1,1.9-2.8,2.8-5.3,2.8c-5,0-7.4-2.3-7.4-7
		c0-4.8,2.3-9.7,7-14.7c3.5-3.7,6.7-6.8,9.7-9.1c2.9-2.4,4.5-3.7,4.8-4c3.2-4.9,7.7-11.8,13.2-20.7c-4.7,5-9.3,8.9-13.8,11.8
		c-4.5,2.9-7.8,4.4-10,4.4c-6.7,0-10.1-2.9-10.1-8.6c0-4.6,1.2-9.2,3.5-13.8c2.3-4.6,5.3-8.8,8.9-12.5S459.8,241.9,464,239z
		 M489,237.3c-5.1,1.1-9.9,2.9-14.3,5.4c-4.5,2.5-8.2,5.2-11.1,8.1c-2.9,2.9-5.4,5.8-7.5,8.8c-3.9,5.7-5.9,10-5.9,13.2
		c0,0.7,0.2,1.1,0.6,1.1c0.4,0,1.2-0.4,2.5-1.2c1.3-0.8,3.1-2.1,5.5-4c2.4-1.9,5-4.2,7.9-6.8C473.4,255.7,480.8,247.5,489,237.3z"/>
	<path class="st1" d="M550.1,232.7c3.3,0,5,1.1,5,3.4c0,1.2-0.3,2.1-0.9,2.7c-0.6,0.6-1.8,2.5-3.7,5.7c-1.9,3.2-3.9,7.3-6.2,12.4
		c-2.3,5-3.7,9.3-4.4,12.9c-0.1,0.4-0.2,1.1-0.2,1.8c0,2.4,0.7,3.6,2,3.6s2.9-0.6,4.7-1.9c1.8-1.2,3.4-2.6,4.8-4s2.8-2.9,4.1-4.4
		c1.3-1.5,2.1-2.3,2.4-2.6c0.3-0.2,0.7-0.3,1.2-0.3c0.8,0,1.3,0.6,1.5,1.9c0.2,1.3,0.3,2.6,0.3,3.9c0,1.4-0.1,2.3-0.4,2.8
		c-1.3,2.5-4.1,5.5-8.4,9c-4.3,3.5-8.2,5.3-11.8,5.3c-3.5,0-6.1-1.1-7.8-3.2c-1.7-2.1-2.5-4.5-2.5-7.1c0-2.6,0.4-4.9,1.3-6.9
		c-3.6,4.7-7.8,8.7-12.5,12c-4.7,3.3-8.6,4.9-11.5,4.9s-5.4-0.9-7.3-2.7c-2.4-2.2-3.6-5.3-3.6-9.3c0-4,0.9-8,2.7-12
		c1.8-4,4.1-7.7,7-11s6.1-6.3,9.5-9c7.3-5.7,14-8.6,20.1-8.6c2.4,0,4.3,0.4,5.8,1.2c1.5,0.8,2.4,1.8,2.8,3c1.1-1.6,1.9-2.6,2.7-3
		C547.6,232.9,548.6,232.7,550.1,232.7z M541.3,240c-7.5,0-15.3,4.2-23.3,12.5c-2.9,3-5.5,6.6-7.9,10.7c-2.4,4.2-3.6,7-3.6,8.6
		s0.4,2.3,1.3,2.3c1.2,0,4.6-2.4,10.3-7.3c5.6-4.8,9.3-8.4,11.2-10.7C531.4,253.6,535.4,248.2,541.3,240z"/>
</g>
</svg>
