<?xml version="1.0" encoding="utf-8"?>
<!-- Generator: Adobe Illustrator 23.0.1, SVG Export Plug-In . SVG Version: 6.00 Build 0)  -->
<svg version="1.1" xmlns="http://www.w3.org/2000/svg" xmlns:xlink="http://www.w3.org/1999/xlink" x="0px" y="0px"
	 viewBox="0 0 158 158" style="enable-background:new 0 0 158 158;" xml:space="preserve">
<style type="text/css">
	.st0{fill:#038F54;}
	.st1{fill:#147749;}
	.st2{fill:#014428;}
	.st3{fill:#307157;}
	.st4{fill:#1B5F3E;}
	.st5{fill:#003B23;}
	.st6{fill:#035233;}
	.st7{fill:#00321C;}
	.st8{fill:#3CAA82;}
	.st9{fill:#B5E8DB;}
	.st10{fill:#00A959;}
</style>
<g id="Calque_1">
	<g>
		<g>
			<g>
				<g>
					<path class="st0" d="M37.1,72.1C36.9,73.9,35,74,33.8,73c-1.6-1.3-2.3-3.7-3.1-5.6c-1.8-4-3.4-8-3.7-12.4
						c-0.6-8.3,2.6-16.1,3-24.2c-1.1,3-4,5.1-6.1,7.4c-2.8,3-5.4,6.2-8.2,9.3c-2.6,2.8-4.4,5.3-5.1,9.2c-0.7,3.7-0.8,7.5,0.7,11
						c1.4,3.4,4.7,5.4,6.5,8.7c0.8,1.4,1.3,3,1.8,4.5c0.3,0.9,0.8,2.4,0.2,3.3c-1.7,2.5-3.6-3.1-4-4.1c-1.2-3.4-1.5-7.5-3.6-10.5
						c-1.1,1.1-0.8,3-1.5,4.3c-1,2-2.3,3.8-3.4,5.7c-1.9,3.3-3.4,7-4,10.8c-0.6,4.8-0.1,13.4,6.2,14.2c3.9,0.5,8.3-1.8,11.4-3.8
						c3.7-2.4,6.8-5.6,9.4-9.1c2.7-3.5,5.5-7.2,7.2-11.3c0.6-1.5,1.4-3.6,1.1-5.3c-0.1-0.7-1.3-2.9-0.9-3.5
						C37.4,71.8,37.3,71.9,37.1,72.1z"/>
					<path class="st1" d="M76.4,67c3.5,0.1,5.1-4.5,6.1-7.1c1.6-4.1,3.2-8.2,4.4-12.4c1.2-4.3,1.6-8.8,3-13.1
						c1.4-4.4,3.3-8.8,5.9-12.6c2.2-3.2,5.4-5.8,9.2-6.9c1.1-0.3,2.6-0.5,3.3,0.6c1,1.5,0.4,4,0.2,5.7c-0.9,7.9-2.7,15.7-6,22.9
						c-3.3,7-7.9,12.8-13.7,17.9c-2.4,2.1-4.8,4-7.9,4.9c-1,0.3-5.3,1.5-4.8-0.7C76.1,66.5,76.2,66.7,76.4,67z"/>
					<path class="st2" d="M50.8,90.6c1,1.3,3.6,0.6,4.9,0.4c2.5-0.4,4.7-1.6,7-2.7c2.5-1.3,5.1-2.6,7.5-4c2-1.1,4.6-2.1,6.1-3.9
						c-1.6-1.1-4.4-0.6-6.2-0.4c-2.7,0.3-5.1,1.2-7.6,2.3c-4.4,1.9-10.2,3.8-12.5,8.4C50.3,90.7,50.5,90.6,50.8,90.6z"/>
					<path class="st1" d="M10.2,79.5c0,1.6-0.7,3.4-0.4,5.1c0.2,0.9,0.5,1.6,0.3,2.5c-0.2,0.8-0.4,1.6-0.3,2.4
						c0.2,1.4,1.6,2.2,2,3.6c0.4,1.4-0.8,2.7-0.7,4.2c0.1,2.4,3.9,4.2,5.7,5.3c1.3,0.8,2.6,1.7,4.1,2.1c1.3,0.4,3.2-0.8,4.4-1.4
						c3.2-1.6,2.4-4.4,0-6.4c-1.5-1.3-3.2-2.3-4.6-3.7c-1.5-1.5-2.4-3.4-3.5-5.2c-1-1.7-1.9-3.4-2.6-5.2c-0.5-1.2-0.4-2.6-0.5-3.8
						c-0.1-1-0.4-2.6-1.7-2.9C10.3,75.7,10.2,78.1,10.2,79.5z"/>
					<path class="st2" d="M20.3,82.2c0,1.3-0.9,2.4-2.3,1.7c-1.6-0.9-2.3-3.2-2.8-4.7c-1.3-3.8-2.5-7.6-3.4-11.5
						c-0.3,3.6-2.5,6.5-3.4,9.9c0.4-0.3,0.9-0.6,1.2-1c-0.1,0.9,0.2,1.9,0.3,2.8c0.6-0.4,1.4-1.7,2.1-0.9c0.8,0.9,0.4,2.2,0.6,3.2
						c0.4,2.2,4,5.2,6.2,4.3c-0.2,0.1-0.3,0.3-0.3,0.5C19.2,85.1,19.8,83.6,20.3,82.2z"/>
					<path class="st1" d="M20,85.1c-0.4-2.1-0.8-4.2-1.5-6.1c-0.8-2-2.2-3.5-3.3-5.3c-0.7-1.1-1.3-2.1-1-3.4
						c0.5-1.9,0.9-3.6,0.5-5.6c-0.3-1.6-1.8-3-1.7-4.7c0.1-0.8,0.7-1.3,0.6-2.2c-0.1-1-0.5-1.8-0.1-2.9c0.6-1.6,2.3-2.5,3.1-4
						c0.8-1.7,1.1-3.5,2.9-4.5c0.8-0.4,1.6-0.7,2.4-1.2c0.5-0.4,1.7-1.7,2.3-1.1c0.9,1,0.8,2.6,0.6,3.8c-0.2,1.4-0.6,2.7-0.7,4.1
						c-0.2,1.8,0.7,3.8,1.2,5.5c1.3,4,2.5,8.3,4.8,11.9c1.1,1.8,2.6,3.2,4.3,4.5c1.7,1.3,3.7,2.7,4.6,4.7c1,2.2,0.6,4.9,1.1,7.3
						c0.2,1.1,0.6,2.2,1.5,2.9c1.1,0.9,2.1,0.3,3.2-0.2c1.2-0.5,2.8,0,3.3,1.3c0.5,1.5-0.1,3.5-0.6,4.9c-0.6,1.6-1.5,2.6-2.9,3.6
						c-1.2,0.9-2.4,2.3-3.8,3c-2.5,1.1-1.9-4.1-2.7-5.1c-1.7-2.2-4.3,1.1-6,1.5c-2.7,0.7-6.1-1.4-7.6-3.5c-0.9-1.3-1.6-2.7-2.2-4.1
						C21.2,88.4,20.3,86.8,20,85.1z"/>
					<path class="st3" d="M72.9,54.1c0.4-2,1.2-3.9,2-5.7c0.9-2.2,1.7-4.4,2.6-6.7c1.7-4.4,3.3-8.7,5.3-12.9c1-2,1.9-4,2.9-5.9
						c0.5-1,1-2,1.4-3c0.2-0.5,0.5-1,0.7-1.5c0.4-0.9,0.4-1,0-1.9c-0.9-1.7-2.2-2.3-3.9-3c-2.1-0.9-4.3-1.6-6.3-2.6
						c-1.9-1-3.3-1.4-5.5-1.3c-0.9,0.1-1.9,0.1-2.8,0.1c-0.6,0-0.9-0.3-1,0.4c-0.1,0.6-0.2,1.2-0.3,1.8c-0.9,4.1-2.6,7.9-3.8,11.9
						c-1.4,4.4-2.9,8.8-4.2,13.3c-1.2,4.2-1.3,8.6-1.8,12.9c-0.2,1.9-0.2,3.8-0.3,5.7c-0.1,2.2-0.6,4.5-1,6.7
						c-0.5,2.5-0.7,6.3-2.4,8.4c-2.1,2.6-4.1-2.9-4.2-4.3c-0.4-3.9,0-8.1,0.4-11.9c0.4-4.2,0.9-8.4,1.1-12.5
						c0.2-4.2,1.3-8.2,1.9-12.3c0.6-4,2.6-7.1,4.8-10.4c1.2-1.8,2.4-3.7,3.7-5.4c1.1-1.4,2.4-2.7,3.1-4.4c-3.7,1.9-7.9,2.3-11.9,3.1
						c-1.9,0.4-3.9,1.1-5.6,2.1c-1.8,0.9-3.1,2-5.2,2.1c-3.5,0.2-7.1,0.7-9.4,3.7c-1.1,1.4-0.5,3.2-0.8,4.9c-0.3,2-1,3.7-0.9,5.8
						c0.3,4.3,1.7,8.4,1.9,12.8c0.1,2.1,0,4.2,0.2,6.3c0.1,2,0.7,3.8,1.2,5.7c0.5,2,0.8,4,1.3,5.9c0.5,2,1.2,4,1.7,6.1
						c0.3,1.6,0,3.8-1,5.1c-0.9,1.2-2.2,0.4-3.3,0.1c0.7,0.7,1.2,1.6,1.7,2.3c0.7,0.9,1.7,1.5,2.7,2.1c2,1.1,4,1.6,6.3,1.4
						c4-0.3,7.7-2.3,10.8-4.7c3.7-2.9,7.3-6.2,10.4-9.8c1.5-1.8,2.7-3.7,3.8-5.8c1-1.8,2.1-3.8,3.8-5.1c0,0.3-0.1,0.6-0.3,0.8
						C72.7,54.3,72.8,54.2,72.9,54.1z"/>
					<path class="st3" d="M21.6,104.4c-1.3,1.2-4.1,2.2-5.8,2.2c-0.9,0-1.8-0.3-2.7-0.5c-1.3-0.3-2.6-0.3-3.9-0.3
						c-3.7,0.1-7.6,0.2-8.5-4.1c-0.7-3.4,0.2-7.1,1.1-10.4c0.4-1.5,0.9-2.9,1.5-4.3c1-2.4,2.6-4.5,3.4-7c-0.8,1.5-0.2,2,0.8,3
						c1.3,1.4,1,3.5,1.1,5.3c0.2,2-0.8,3.5-1,5.4C7.5,95.6,8.8,97,8.3,99c-0.4,1.8-0.2,3,1.5,4c1.5,0.9,3.1,1.1,4.7,0.8
						C15.5,103.6,22.3,101.6,21.6,104.4z"/>
					<path class="st1" d="M81.9,65.2c-0.5,3.1-6.8,1.1-8.1-0.2c-2.7-2.7-0.6-8.5-0.2-11.7c0.1-0.9,0.3-1.9,0.5-2.8
						c0.1-0.6,1-2.1,0.6-2.3c-1-0.6-1.4-1.6-1.4-2.8c0.1-2.4,1.5-4.6,2.4-6.8c0.5-1.2,0.3-2.5,0.5-3.7c0.3-1.9,2-3.4,2.7-5.2
						c0.3-0.8,1.7-4.5,0.3-4.5c-1.6,0-1.4-2.5-1.4-3.6c0-1.7,0-3.4-1.5-4.6c-1.2-1-2.4-1.1-3.6,0c-0.7,0.6-1.1,1.4-1.6,2.2
						c-0.5,0.8-1.1,1-1.9,1.4c-1.7,0.8-2,2.7-1.9,4.4c0,2-1,3-1.9,4.7c-1,1.8-0.3,3.6-0.4,5.4c-0.1,2-1.1,4.1-2.4,5.7
						c-1.4,1.9-3.4,3.4-4,5.8c-0.6,2.4-0.6,5-0.7,7.5c-0.1,2.5-0.3,4.9-0.7,7.3c-0.4,3.1,0.6,10.5-4.6,10.1c0,0.2-0.6,0.9-0.7,1.3
						c-0.1,0.5-0.1,1.1,0.2,1.6c0.6,1.2,1.9,1.9,3,2.4c2.7,1.3,5.7,1.9,8.7,2.1c4.4,0.3,8.5-2.2,12.2-4.4c3.5-2.1,6.2-5.3,6.3-9.6
						c-0.1,0.2-0.3,0.5-0.4,0.7C81.9,65.4,81.9,65.3,81.9,65.2z"/>
					<path class="st4" d="M36.7,74.8c-1.6-0.4-2.1,1.3-2,2.6c0.1,1.4,1.1,2.3,1.4,3.6c0.3,1.2-0.7,2.3-2,1.9
						C33,82.5,32.3,81.1,32,80c-0.5-1.4-0.1-3.1-0.8-4.5c-0.8-1.6-2.7-1.5-4.2-1.3c-1.4,0.2-2.6,0-3.7-1c-0.8-0.7-2-2.7-0.6-3.5
						c0.9-0.5,2.1,0.2,3-0.3c1.5-0.8-0.3-2.2-1-2.7c-0.9-0.5-1.9-0.9-2.2-2c-0.4-1.1,0-2.3,0.3-3.3c0.3-1.1,0.6-2.2,0.4-3.3
						c-0.2-1-1.3-2.8-2.5-2.3c-1.1,0.4-1.9,1.6-3.2,0.8c-1.3-0.8-1.7,0.9-1.8,1.9c-0.3,1.5,0.8,2.5,0.7,4c-0.1,0.9-0.2,1.9-0.1,2.8
						c0,0.9,0.6,1.5,1,2.3c0.3,0.6,0.4,1.4,0.4,2.1c0,0.8-0.6,1.3-0.9,2.1c-0.5,1.5,1.1,2.8,1.9,3.9c1,1.3,0.9,3.1,1.7,4.5
						c0.9,1.8,2.1,3.7,3.2,5.4c1.4,2.2,2.6,4.6,4.4,6.6c0.7,0.8,1.7,1.7,2.8,1.9c0.5,0.1,1,0,1.5-0.2c0.4-0.5,0.1-1,0.3-1.5
						c0.3-1.1,3.3,0.5,3.9,0.6c1.5,0.3,3.3-0.6,4.2-1.8c1.1-1.5,0.5-3.1-0.1-4.6c-0.7-1.8-0.5-3.5-0.7-5.4c-0.1-1.4-0.2-2.7-0.7-4
						c-0.2-0.6-0.5-1.2-1-1.7C37.7,75,37,75.1,36.7,74.8z"/>
					<path class="st0" d="M37.7,45.5c0,3.1,0.6,6.2,0.3,9.4c-0.2,2.2,0.2,4.4,0.2,6.6c0,1.1,0,2.2-0.4,3.2c-0.1,0.4-0.3,0.8-0.6,1.1
						c-0.4,0.5,0,1.6,0.1,2.2c0.1,2.1,0.1,4.7-1.2,6.5C40.1,71,43,66,44.3,61c0.7-2.6,1-5.4,0.6-8.1c-0.4-2.8-1.9-5.5-1.8-8.3
						c0.1-2.2,0.2-3.8-1.1-5.6c-0.7-0.9-2.1-3-3.4-1.7C36.7,39.1,37.7,43.2,37.7,45.5C37.6,48.9,37.7,44.1,37.7,45.5z"/>
					<path class="st3" d="M100.2,11.7c-3.2-1.5-6.8-1.1-10.2-0.9c-3.5,0.2-6.5-0.4-9.9-1.1c-3.1-0.7-6.9-1.5-10-0.2
						c-0.3,0.1-0.6,0.3-0.9,0.5c-0.5,0.3-0.2,0.6-0.1,1.1c0.1,1,0,2,0.2,3c0.2,1.3-0.5,3.1,0.4,4.2c0.4,0.5,1.4-0.8,1.8-1
						c0.3-0.1,1.2,0.7,1.3,0.9c0.5,0.7,1.2,1.2,2.1,0.7c1.6-0.8,2.7-0.7,4.4-0.1c1.2,0.4,3.3,0,4.1,1c1,1.2-0.5,2.3-1,3.3
						c-0.4,0.7,0.3,0.8,0.2,1.3c-0.1,0.6-0.5,1.2-0.8,1.7c-0.4,0.6,0.1,1.2,0.7,0.9c0.6-0.3,1.1-0.8,1.6-1.3
						c1.2-1.4,2.1-2.9,3.3-4.3c3.4-3.9,7.6-8.4,12.8-9.6c-0.2,0-0.3,0.1-0.4,0.2C99.7,11.9,100,11.8,100.2,11.7z"/>
					<path class="st4" d="M81.6,66.8c-0.1,0,0.1,0.3,0,0.3c-1-0.1,0-2.4,0.2-2.7c0.8-1.2,1.8-2.2,2.8-3.1c0.8-0.7,1.7-1.5,2.3-2.4
						c1.2-1.8,1.8-3.9,2.6-5.9c0.7-1.9,1.6-3.6,2.7-5.3c1.2-1.7,2.1-3.5,1.9-5.6c-0.2-1.7-0.6-3.3,0.3-4.9c0.9-1.8,3.1-3,3.2-5.1
						c0.1-1.7,0-2.9,1.5-4.1c0.5-0.4,1.1-0.7,1.5-1.1c0.7-0.7,0.8-1.7,1.2-2.6c0.7-1.7,1.3-2.9,1.2-4.8c0-1.3-0.3-3,0.4-4.2
						c1.6-2.8,7.4-1.3,9.8-0.5c3.5,1.1,6.7,3.1,9.6,5.3c3.3,2.4,5.9,5.5,8.2,8.8c1.8,2.5,4,5.4,3.9,8.7c-0.1,3.7-3.1,7.1-5.3,9.9
						c-2.6,3.3-5.1,6.5-8.2,9.3c-3.2,2.8-6.5,5.3-9.7,8.1c-3.1,2.7-6.6,4.6-10.6,5.6c-3.7,1-7.4,1.1-11.2,0.3
						c-1.7-0.4-3.4-0.9-5-1.5c-0.9-0.3-1.8-0.7-2.6-1c-0.4-0.2-0.8-0.4-1.3-0.5c0.1-0.2,0.2-0.8,0-0.9c-0.1,0-0.1,0.3-0.3,0.2
						C81.2,67,81.4,66.9,81.6,66.8z"/>
					<path class="st1" d="M37.5,33.6c-0.1,1.8-0.2,3.7-0.2,5.5c0,1.8,0.7,3.6,0.8,5.4c0,0.7,0.2,1.4,0.6,1.9c0.5,0.5,1.1,0.8,1,1.6
						c-0.1,0.7-0.5,1.3-0.6,2C39,51,39.4,52,39.5,53c0.6,3.9,0.7,7.9,0.4,11.8c-0.1,1.7-0.1,3.5-0.7,5.2c-0.2,0.6-1.7,3.2-2.2,1.4
						c-0.1,0.4-0.2,0.6-0.2,1c0-0.1,0-0.2,0.1-0.3c-0.1,0.4,0.6,2.1,0.7,2.5c0.2,1,0.4,2,0.6,3c0.4,2.2,0.7,4.5,1.3,6.6
						c0.4,1.6,0.3,3.4,1.2,4.8c0.6,0.9,2.3,1.6,3.4,1.7c0.7,0,1.3-0.3,1.9-0.6c0.4,0.4,0.3,1,0.1,1.5c-0.5,1-1.3,1.9-1.9,2.9
						c-0.7,1.2-2.6,4.7,0.3,3.3c2.1-1,4.1-2.6,5.8-4.2c0.9-0.9,1.6-2,2.5-2.9c1.6-1.7,3.4-3.3,4.5-5.3c1.7-3,0.5-6.7,0-9.9
						c-0.2-1.3-0.4-2.9-1.2-4.1c-0.9-1.3-2.7-0.3-3.9-0.5c-2.2-0.3-2.5-3.5-2.6-5.1c-0.2-2.7-0.2-5.5-0.1-8.2c0.1-2.5,0-5.1,0.4-7.6
						c0.3-1.9,1.1-4.6,0.2-6.4c-2,1.8-4.6-0.9-3.5-3.1c0.7-1.4,1.8-2.4,0.6-3.9c-0.9-1.2-0.6-2.7-1-4c-0.2-0.6-0.5-1.1-1-1.5
						c-0.5-0.4-1.3-0.5-1.7-1c-0.4-0.5-0.3-1.4-0.2-2c0.1-0.4,0.1-0.8,0.1-1.1c-0.1-0.6-0.5-0.5-1-0.5
						C38.7,26.7,37.8,30.8,37.5,33.6C37.4,35.5,37.8,30.3,37.5,33.6z"/>
					<path class="st5" d="M11.9,84c0.1,1.4-0.2,2.1-1.2,3.1c-1,1,2.1,3.4,2.8,4.1c1.2,1.2,1.8,2.5,1.7,4.3c-0.1,1.5-0.3,2.8,0.7,4.1
						c1,1.3,2.4,2.1,4.1,2.1c1.4,0,2.6-0.9,4-0.9c1.5,0,3.4,1.4,4.7,0.4c0.8-0.6,1.6-1.4,2.4-2.1c0.8-0.6,1.9-1,2.5-1.8
						c-1.9,0.2-2.1-1.1-2.7-2.6c-1-2.3-2.9-2.7-4.8-3.9c-2.4-1.4-3.7-6.5-7.2-5.6c-0.3,0.1-0.3,0.4-0.6,0.5c-0.4,0.1-0.7-0.2-1-0.4
						c-0.8-0.7-1.5-1.7-2.1-2.6c-0.6-0.8-1.2-1.8-2-2.3c-0.7-0.5-0.6,0.1-0.7,0.7C12.1,82.2,11.9,83.1,11.9,84
						C12.1,85.9,11.8,82.5,11.9,84z"/>
					<g>
						<path class="st4" d="M134.7,75c5.3-0.3,10.5-0.8,15.7-2.1c-3.2-0.2-6.3,0.2-9.5,0.7c-3.5,0.5-7,0.9-10.4,1.6
							C131.9,75.1,133.3,75.1,134.7,75C139.9,74.7,133.3,75.1,134.7,75z"/>
						<path class="st4" d="M155.5,79.3c-3,2-6.1,3.9-9.5,5.1c-3.4,1.2-7,1.9-10.5,2.2c-7.5,0.6-15.4-0.1-22.9-1.2
							c0.1,2.9,4.8,3.4,6.9,3.7c3.1,0.4,6.3,0.4,9.5,0.3c2.8-0.1,5.6-0.1,8.3-0.4c2.9-0.3,5.5-1,8.2-1.9c2.7-0.8,5.6-1.3,8.1-2.7
							C155.6,83.4,155.1,81.2,155.5,79.3C154.9,79.8,155.4,79.8,155.5,79.3z"/>
						<path class="st6" d="M109.4,20.8c0.6,0.5,1.9,1.3,0.9,2.1c-0.6,0.5-2.8,1.1-2.3,2.2c0.5,1.1,1.9,1.8,1.9,3.2
							c0,1.8-1.6,3.6-2.5,5.1c-2.1,3.6-0.2,7.6-2.3,11.1c-0.9,1.5-2,2.8-2.6,4.4c-0.6,1.5-0.2,3.4-1.2,4.6c-1,1.4-3.1,1.7-3.8,3.4
							c-0.7,1.8,0.6,3.4,0.6,5.2c0,0.9-0.2,1.7-1.1,2.1c-0.5,0.2-0.9-0.2-1.4-0.3c-1.5-0.5-3.1,0.3-3.8,1.6
							c-1.7,3.4,1.7,6.8,4.7,7.9c1.7,0.7,3.6,0.9,5.4,1.2c2.3,0.3,4.5,0.8,6.8,1c2.9,0.3,5.9,0.2,8.6-0.9c2.5-1,4.7-2.6,7.2-3.6
							c2.3-1,4.7-1.1,7.1-0.5c2.6,0.6,3.1,2.4,1.4,4.4c4.2-0.2,8.5-0.5,12.7-1.2c2.1-0.3,4.2-0.8,6.2-1.3c1-0.3,2-0.6,3-0.9
							c0.5-0.2,1-0.4,1.5-0.5c0.7-0.3,0.5-0.5,0.6-1.2c0.5-4,0.2-8.2-0.9-12.1c-1-3.6-3.3-7-3.6-10.8c-0.3-3.4,1.1-7.6-2.2-9.8
							c-1.4-1-3.1-1.6-4.5-2.6c-1.8-1.2-3.4-2.5-5.3-3.5c-2-1.1-4-2.1-5.9-3.3c-1.8-1.2-3.5-2.6-5.3-3.8c-1.8-1.1-3.7-1.8-5.5-2.8
							c-1.3-0.7-2.5-2.5-4-2.4c0.2,0.2,0.4,0.4,0.6,0.6c-1,0.7-2.1,0.2-3-0.4c-1.2-0.7-2.5-1.4-3.8-1.7c-1.4-0.4-3.2-0.4-4.4,0.6
							C108,18.8,108.5,20,109.4,20.8C110.9,22.1,108,19.5,109.4,20.8z"/>
						<path class="st6" d="M130.6,86.8c1,1,3.4,1,4.6,1c2-0.1,4.8-0.4,6.2-2C137.9,86.5,134.2,86.8,130.6,86.8
							C130.7,86.8,134.2,86.8,130.6,86.8z"/>
						<g>
							<path class="st2" d="M98.9,35.8c-1.2,1.5-3.1,2.3-4.2,3.9c-1.1,1.6-1.4,3.7-1.8,5.5c-1,3.8-4.7,6.2-5.3,10
								c-0.5,3.5,0.2,8.4-3.4,10.5c-1.7,1-3,1.8-3.8,3.7c-0.7,1.6-1.4,3.3-3.4,3.4c-1.7,0.1-3.2,0-4.5,1.2c-1.5,1.4-1.6,3-2.5,4.7
								c-0.7,1.2-1.8,1.3-3,1.7c-1.3,0.5-1.2,1.7,0.2,2c1.4,0.3,2.8,0,4.2,0.2c1,0.1,2.2,0.9,0.9,1.6c-1.1,0.7-2.5,1-3.7,1.5
								c-2.3,1-4.5,2.1-6.8,3c-0.9,0.3-2,0.6-2.7,1.2c-0.9,0.8,0.6,1.3,1.2,1.4c1.1,0.2,2.3,0.1,3.4,0.1c1.5,0.1,3,0.5,4.5,0.8
								c2.9,0.7,5.6,1.6,8.3,2.9c1.1,0.5,2.3,1.1,3.5,1.2c1.4,0.2,2.7-0.3,4-0.5c-1.1-1.9-5.7-4.5-1.5-6.1c2-0.8,4.3,0,6.3,0.4
								c3,0.6,6,1,9,1.4c5.9,0.9,11.9,1.2,17.9,1.8c2.9,0.3,5.8,0.6,8.7,1.2c1.4,0.3,2.7,0.6,4.1,0.8c1.5,0.1,3.4,0.6,4.8,0.3
								c-0.1,0-0.2,0-0.3,0c1.2,0,2.4,0.3,3.7,0.4c1.4,0.1,2.8-0.1,4.2-0.3c2.6-0.5,5.3-0.9,7.8-1.9c1.9-0.8,3.5-1.8,4.4-3.8
								c0.5-1.1,1.3-3.4-0.1-4.2c-0.6,1-1.8,1.6-2.8,2.2c-1.2,0.7-2.7,1-4.1,1c-1.4,0-2.7-0.8-4.1-1.2c-1.5-0.5-3.1-0.9-4.7-1.1
								c-3.4-0.3-6.8,0-10.2-0.1c-3.4-0.1-6.9-0.6-10.3-0.6c0.5-0.4-1-0.3-1.4-0.4c-0.7-0.1-1.3-0.2-2-0.3c-1.3-0.2-2.6-0.4-3.9-0.7
								c-2.8-0.6-5.5-1.5-7.8-3.2c-2-1.5-2.4-4.1,0.4-4.9c2.8-0.8,5.7-0.8,8.7-0.8c6.4-0.1,12.9-0.3,19.3-0.6
								c6.3-0.3,12.6-0.6,18.8-1.9c-2.4-0.7-0.1-2.7,1.3-3.1c2-0.5,4-0.6,4.8-2.8c0.7-1.8,0.5-4.2-0.6-5.9c-1.2-1.9-3.6-2.1-3.6-4.7
								c-0.1-2.3,0.5-4.6-0.3-6.9c-0.3-1-0.9-1.7-1.9-2.2c-0.9-0.4-1.7-0.6-2.1-1.6c-0.7-2.1,0.7-3.7,1.6-5.4
								c0.5-0.9,1.3-3.3-0.7-2.8c1.7,1.5-2.3,4.1-3.2,4.9c-2.8,2.2-3.9,6.4-7.3,7.7c-3.2,1.3-6.8,0.6-10.2,1
								c-4.1,0.5-7.5,2.9-9.5,6.3c-0.4,0.7-0.9,1.4-1.7,1.5c-0.9,0.1-1.4-0.6-2.2-0.8c-2-0.6-3.3,1.8-5.1,1.8c-0.6,0-1-0.3-1.6-0.2
								c-0.8,0.1-1.4,0.5-2.1,1c-1.3,0.9-2.1,2.4-3.4,3.3c-1.2,0.8-2.8-0.2-4,0.5c-1.1,0.6-1.5,2.1-3.1,1.9
								c-3.8-0.6-2.1-6.6-1.5-8.9c1.1-4.3,2.6-8.5,4.1-12.6c0.9-2.6,2.1-4.6,3.8-6.7c1-1.2,3-3.2,2.9-5c0-0.9-1.1-1-1.7-0.7
								C100.4,33.4,99.7,34.8,98.9,35.8C97.7,37.2,99.6,35,98.9,35.8z"/>
							<path class="st4" d="M51.2,91.1c0,0.1,0.1,0.3,0.1,0.4c0.5-1.3,1.2-3.1-0.5-3.9c-1.8-0.9-2.5-2-3.1-4
								c-1.3-4.2-2.6-8.3-4.1-12.4c-0.5-1.5-1.3-2.8-1.8-4.3c-0.2-0.7-0.4-1.4-0.3-2.1c0.1-0.8,1.7,0.2,2,0.5
								c1.2,1.1,1.7,2.7,2.2,4.2c0.5,1.7,1,3.4,1.5,5.2c0.5,2.1,1.6,9.2,5,8.5c1.5-0.3,1.7-2.4,1.5-3.6c-0.4-1.8-1-3.5-0.9-5.4
								c0-1.7,0.5-2.5,2-3.2c1.6-0.8,1.8-2.7,1.9-4.3c0-0.8,0.1-1.6,0.3-2.4c0.6-0.2,1-0.8,1.2-1.4c0.5-1.5,0.3-3.1,0.9-4.6
								c0.5-1.2,1.6-1.8,1.7-3.2c0.3-2.1,0.6-3.7,1.5-5.7c0.9-1.9,1.6-3.9,2.2-5.9c0.5-1.7,0.3-3.5,1-5.1c0.3-0.7,0.9-1.1,1.3-1.7
								c0.4-0.8,0.6-1.7,0.8-2.6c0.5-2.1,1.5-3.8,1.4-5.9c0-1.6,0.2-2.6,1.4-3.7c0.7-0.7,2-2,3.1-1.9c1.3,0.2,0.7,2.1,0.3,2.8
								c-0.7,1.3-1.4,2.3-1.5,3.8c-0.2,1.9-0.5,3.5-1.4,5.2c-0.4,0.8-1,1.6-1.2,2.5c-0.2,1,0,2,0,3c0,1.9-1.5,3.2-1.8,5
								c-0.4,1.9,0.8,3.7,0.7,5.6c0,0.8-0.4,1.6-0.4,2.5c0,1,0.7,1.7,1.3,2.4c1.1,1.3,0.5,3.3,1.6,4.6c0.3,0.3,0.6,0.6,1,0.7
								c-3,0.3-4.3,4.7-4.7,7.2c-0.3,1.6-0.1,3.2,0.9,4.6c1.1,1.5,2.7,2.5,3.3,4.2c0.3,0.7,0.7,1.7,0.1,2.3c-0.9,0.8-2,1.3-3,1.9
								c-2,1.2-3.5,3.1-5.5,4.3c-2,1.1-4.4,1.5-6.5,2.3c-2.1,0.9-4.1,2-5.8,3.6C50.9,91.2,51.1,91.1,51.2,91.1z"/>
							<path class="st2" d="M105.3,104c-2.2,0.2-4.3,1.4-3.3,3.8c0.4,0.9,1,1.8,1,2.8c0,0.5-0.1,0.9-0.2,1.4
								c-0.2,0.7-0.5,1.2,0.3,1.5c6.1,2.6,12,5.6,18.2,7.9c2.8,1,5.6,2,8.6,2.7c1.6,0.4,2.7,0.5,4.1-0.4c1.4-1,2.8-2,4.1-3.2
								c2.4-2.2,4.3-4.7,5.8-7.5c1.6-2.8,3.2-5.5,4.8-8.2c-0.7,0.4-1.4,0.3-2.2,0.1c-1.1-0.3-1.4,0-2.4,0.5c-1.6,0.8-3.2,1.5-4.9,2
								c-3.7,1-7.4,0.8-11.2,1.2c-3.6,0.3-7.4-0.6-10.8-1.5c-2-0.5-4-1.1-6-1.7C109.4,104.7,107.4,104.4,105.3,104
								C104.4,104.1,106.8,104.3,105.3,104z"/>
							<path class="st1" d="M128.7,95.4c4,0.3,7.9,0.6,11.9,1c3.5,0.3,7.1,0.6,10.6,0.3c0.9-0.1,1.8-0.2,2.6-0.3
								c0-0.7,0.2-1.3,0.4-2c0.4-1.2,0.2-2.5,0.5-3.8c0.3-1.5,0.8-2.8,1.1-4.3c0.2-1.6,0.3-3.3,0.7-4.9c-1.8,0.4-3.3,2.4-3.5,4.1
								c-0.1,1,0.6,1.6,0.6,2.6c0,1.3-1.3,2.4-2.2,3c-2.1,1.5-4.8,1.6-7.3,1.5c-1.2-0.1-4.2-0.6-5.1,0.5c0.4,0.2,0.5,0.6,0.9,0.8
								c-2.1,1.3-4.3,0.8-6.6,0.4c-1.1-0.2-2.2-0.5-3.3-0.4C128.9,94,127.2,94.5,128.7,95.4C132.7,95.8,126.9,94.3,128.7,95.4z"/>
							<path class="st3" d="M33.2,97.4c1.1-0.5,2.7-1.2,3.9-0.7c1.7,0.6,0.5,2.5,1.4,3.5c1.4,1.6,2.3-2,2.4-2.7
								c0.3-1.3,1.5-2.5,0.7-3.8c-0.8-1.3-1.4-0.2-2.4,0.2c-0.6,0.2-1.4-0.2-2-0.3c-1-0.3-4.6-1.1-3.1,1.1c-0.6,0.2-1.3,0.6-1.4,1.3
								C32.5,96.5,33.2,96.8,33.2,97.4z"/>
							<path class="st6" d="M75.5,66.3c-0.3,3.8-4.3,5.1-6.3,7.9c-1.5,2.1-0.1,4.5,2.4,4.3c1.3-0.1,2.4-0.9,3.1-2
								c0.8-1.1,1-1.9,2.5-1.5c1.5,0.4,2.9,0.8,4-0.5c0.6-0.6,0.9-1.4,1.3-2.1c0.4-1,1.1-1.1,2.1-1.2c1.8-0.3,1.6-2.2,2-3.6
								c0.6-1.8,2.9-1.6,3.5-3.3c0.6-1.7-0.8-3-0.9-4.6c-0.1-1.9,0.1-4.4,1.3-6c0.5-0.7,1.1-1.3,1.6-2c0.4-0.7,0.3-1.2,0.4-2
								c0.1-0.9,0.9-1.6,1.3-2.3c0.5-0.9,0.5-2,0.5-3c0.1-2.1,1-3,2.4-4.5c1.3-1.4,1.3-3.5,2.5-4.9c0.3-0.4,1.9-2.6,0.4-2.5
								c-2.5,0.3-2.3,3-3.4,4.6c-1.3,1.9-3,3-3.5,5.4c-0.2,1-0.3,2-0.7,3c-0.5,1.3-1.4,2.3-2.2,3.3c-1.6,2-2.1,3.8-2.3,6.2
								c-0.2,2.2-0.8,5.3-2.8,6.6c-0.8,0.5-1.8,0.8-2.6,1.3c-1,0.6-1.5,1.7-2.3,2.5c-1.6,1.8-2.8,1.4-4.6,0.4
								C75.3,65.9,75.4,66.1,75.5,66.3z"/>
							<path class="st6" d="M52.9,71.3c0.3,2.2,2,4,2.2,6.3c0.1,1,0,2,0.1,3c0.1,0.8,0.1,1.7-0.3,2.5c-0.4,0.8-1.8,1.5-0.6,2.1
								c0.7,0.3,1.6,0,2.3-0.3c0.9-0.4,1.8-1,2.7-1.4c1.4-0.6,2.8-1,4-1.9c2.1-1.6,2.3-3.4,1.3-5.7c-1-2.2-0.9-4.5-0.5-6.8
								c0.7-4,2.1-10.2-1.7-13.2c-0.5,1,0.3,2.1,0.3,3.1c0.1,1.4-0.4,3-1.2,4.1c-1.3,1.9-3.3,1-5.2,1.2c0.3,1.6,0,3.1-0.7,4.5
								c-0.2,0.4-1.4,2.7-2,1.6C53.5,70.9,53.2,71.1,52.9,71.3z"/>
							<path class="st2" d="M18.1,83.9c-0.6-0.3-0.8,2.1-0.9,2.4c-0.2,1.5,0,2.5,0.6,4c0.5,1.4,0.9,3.4,1,4.9c0,1.5-0.5,2,1,2.9
								c0.6,0.4,1.2,0.6,1.6,1.1c0.5,0.6,0.4,1.6,1.3,1.7c1.3,0.1,2.5-1,3.6-1.5c1.3-0.6,3.5,0,3.5-2.1c0.1-1.3-0.6-1.6,0.8-2.6
								c-0.6-0.5-0.4-1.5-0.8-1.7c-0.5-0.3-1.1-0.6-1.5-1c-1.2-1.2,1.2-1.3,2-1.1c0.9,0.3,2.4,1.3,3.2,0.3c-1-1.7-3.6-2.1-5.1-3.2
								c-1.4-1.1-2.7-2.7-2.7-4.5c0-2.1,2.1-1.6,3.3-0.6c1.9,1.7,3.8,4.5,6.7,4.9c1.2,0.2,0.4-0.9,0-1.3c-0.9-0.7-1.9-1.2-2.8-1.8
								c-1.3-0.9-1.1-2.7-1.7-4c-0.9-1.8-3.2-2.2-4.7-3.4c-2.4-1.9-4.9-4.3-5.5-7.5c-0.2-1-0.7-5.6-2.5-4.8
								c-3.9,1.7,2.1,8.9,3.2,10.9c0.6,1.2,1.8,3.5,0.4,4.6c-0.4,0.3-0.8,0.4-1.2,0.5c-0.6,0.1,0.3,1.5,0.5,1.8
								C22.1,85,19.2,84.5,18.1,83.9z"/>
							<path class="st7" d="M105.2,64.9c-1.7,1.4,4.4,3.8,5.4,4c0.7,0.2,3,0.6,2.5-0.8c-0.5-1.4-2.6-1.1-3.4-2.2
								c-1.1-1.5,0.8-2.5,1.9-2.9c0.6-0.2,2.8-1.6,1.3-2.2c-1-0.4-2.4,0-3.4,0.3c-1,0.3-2,0.9-2.8,1.6c-0.9,0.8-1.1,2-2.5,1.6
								C104.5,64.5,104.9,64.7,105.2,64.9z"/>
							<path class="st5" d="M47.6,92.4c-0.3,1,1.9,2.6,0.1,3.3c-0.6,0.2-1.2,0-1.8,0c-0.8-0.1-1.7,0.3-2.4,0.7
								c-0.6,0.3-1,0.8-1.5,1.1c-0.3,0.2-0.8,0.4-1,0.7c0.3,1.7-2.2,1.7-2.7,3c-0.6,1.6-0.5,3.6-0.6,5.3c0,2.3,0.2,4.6,0.5,6.9
								c0.3,2.1,1.1,4.1,1.9,6.1c0.9,2.3,1.2,4.6,1.6,7c0.4,2.1,0.8,4.3,1.1,6.4c0.2,1.8,0.3,3.7,1.1,5.3c0.9,1.7,2.8,2.4,4.5,3.2
								c2.1,1.1,4.3,2.1,6.5,2.9c7.9,3,16.3,4.8,24.8,4.3c2.9-0.2,5.9-0.1,8.8-0.5c2.8-0.4,5.7-1,8.5-0.9c-4-0.8-8.1-1.4-12-2.8
								c-4.2-1.4-7.8-4-11.3-6.5c-7-5-14.2-10.5-17.8-18.6c-0.4-0.9-0.9-2.4,0.7-2.2c1.4,0.2,2.6,1.9,3.4,2.8
								c3.1,3.4,6.8,6.3,10.3,9.3c3.7,3.1,7.5,6.3,11.6,8.9c1.9,1.2,3.9,2.3,5.8,3.4c1.9,1.1,3.7,2.6,5.6,3.7c1.8,1,6,2.9,8,1.5
								c1.1-0.8,1.9-1.9,2.9-2.8c1.4-1.2,3.2-2,4.8-2.8c3.5-1.6,6.9-3.5,10.2-5.5c1.6-1,3.2-2,4.6-3.3c1.5-1.4,2.8-3.1,4.3-4.5
								c-1-0.2-1.9-0.5-2.9-0.8c-1-0.3-2.2-0.2-3.2-0.2c-2.4-0.1-4.8-0.3-7.1-0.5c-4.5-0.5-8.9-1.4-13.3-2.2
								c-4.4-0.9-8.9-1.8-13.2-3.2c-4.1-1.4-7.6-3.6-11-6.3c-3.3-2.7-6.3-5.5-8.7-9c-0.6-0.9-2-2.6-1.2-3.8c0.7-1,2.4-0.9,3.4-0.8
								c4.1,0.4,7.9,2.5,11.9,3.4c4.4,1,8.7,2.9,12.7,4.9c2,1,4,2.2,6,3.4c2.1,1.3,4.5,2.1,6.8,3.2c2.1,1,4.2,2,6.4,2.7
								c2.4,0.7,4.8,1.5,7.2,2.2c2,0.6,3.8,1.4,5.6,2.4c1.6,0.9,3.9,1.7,5.6,0.6c1.4-0.9,1-2.9,2.2-3.8c1.1-0.8,2.6-0.4,3.5-1.8
								c0.5-0.8,0.8-1.6,1.4-2.3c0.7-0.7,1.5-1.3,2.1-2c1-1.2,2-3.1,1.5-4.7c-0.7-2.3-4.8-0.8-6.3-0.3c-1.2,0.4-2.4,0.7-3.7,0.7
								c-2.1,0-4.1-1.1-6.2-0.9c-4.4,0.3-9-1.1-13.1-2.3c-0.5-0.2-1.1-0.3-1.6-0.5c-0.7,0.4-0.7,0.2-1.3-0.3
								c-0.9-0.8-2.5-0.9-3.7-1.1c-2.6-0.4-5.3-1-7.9-1.7c-2.6-0.7-5.1-1.6-7.5-2.7c-1.2-0.5-2.3-1.1-3.5-1.7
								c-1.1-0.6-2.2-0.6-3.4-1c-1.6-0.6-2.9-1.9-4-3.1c-1-1-2.2-2.5-1.4-4c1.4-2.4,6.2-1.4,8.4-1.3c-0.9-0.9-1.6-2.3-2.8-2.7
								c-0.7-0.2-1.4,0.1-2,0.5c-0.8,0.6-1.6-0.9-1.9-1.6c-1.1-2-2.7-2.6-4.9-2.7c-2.4-0.1-4.9-0.3-7.2,0.4c-2,0.6-3.4,2.4-5.6,2.5
								c-0.7,0-1.5-0.1-2.2,0.1c-1,0.3-1.5,1.1-2.2,1.8c-0.8,0.8-2,0.9-3,1.1c-1.2,0.2-2.4,0.5-3.5,0.9c-1.2,0.4-2.3,0.8-3.4,1.4
								C49.3,91,47.9,91.5,47.6,92.4C47.3,93.2,47.8,91.7,47.6,92.4z"/>
							<path class="st4" d="M99.3,85.4c1.4,0.6,2.6,1.6,3.9,2.4c1.3,0.8,2.4,0.6,3.8,0.8c1.3,0.2,2.4,1,3.5,1.5
								c1.2,0.6,2.6,1.1,3.9,1.3c1.1,0.1,5.4-0.1,5.8-1.7c0.4-2-4.3-1.3-2.4-3.7c-3.8-0.4-7.4-0.3-11.1-1.5
								c-1.8-0.6-3.7-1.2-5.3-2.3c-0.7-0.5-2.6-2.4-2.4-3.3C95.4,80,96.1,84.1,99.3,85.4C101,86.1,96.2,84.2,99.3,85.4z"/>
							<path class="st2" d="M91.2,101.5c0.6,0.3,1.6,0.5,1.8,1.2c0.2,0.6-0.2,0.9-0.3,1.5c0,1,3.4,1.6,2.1,2.8
								c-0.5,0.4-1.3,0.6-1,1.5c1,0.5,2.1,1,3.1,1.6c1,0.5,1.9,1.2,3,1.5c0.9,0.3,1.7,0.5,2.6,0.8c3.6,1.2,7.3,1.6,11,2.4
								c3.6,0.9,6.6,2.4,9.4,4.8c2.2,1.9,6,5.2,8.9,2.5c1.2-1.1,1.5-3.3,2.9-4c0.7-0.4,1.5-0.5,2-1.2c0.5-0.6,0.6-1.4,1.1-2.1
								c0.8-1.2,2.1-0.4,3,0c1.6,0.7,2.2-0.6,1.9-2c-0.2-1.1,1.2-2.5-0.3-3.1c-1.3-0.5-2.8,0.4-4,0.7c-2.2,0.6-4.6,0.6-6.9,0.2
								c-1.1-0.2-2.2-0.5-3.2-0.9c-1-0.4-1.9-1.2-3-1.3c-1,1.5-3.3,1.6-4.9,1.6c-2,0-4-0.1-5.9-0.4c-2.6-0.4-4.7-1.2-7.1-2.3
								c-2.3-1.1-4.8-1.5-7.1-2.6c-2.3-1.1-6.6-5.4-9.3-3.7c0.1,0.1,0.2,0.2,0.3,0.3c0,0-0.2-0.1-0.2-0.1
								C91.1,101.4,91.1,101.4,91.2,101.5C91.7,101.8,91,101.1,91.2,101.5z"/>
							<path class="st4" d="M118.8,60.7c1,0,2.6-0.3,3.1,0.9c0.4,1.2-1,1.7-1.9,1.3c-2.3-1-2.1,2.2-1.4,3.6c-0.9,0.1-2.2,0.1-3,0.7
								c-1.3,1,1.8,1.2,2.2,1.2c1.3,0,2.9-0.3,4,0.5c0.7,0.5,0.5,1.1,0.8,1.7c0.3,0.8,1.3,0.9,2.1,0.9c1.6,0.1,3.2-0.2,4.8-0.2
								c2.2,0,4.6,0.3,6.7-0.5c0.7-0.3,1.4-0.5,2.2-0.4c0.7,0.2,1.3,0.7,2,0.8c1.8,0.4,4.2-0.4,6-0.7c0.9-0.1,1.9-0.4,2.7-0.9
								c0.6-0.4,1-0.8,1.8-0.8c0.8,0,1.3,0.7,2.1,0.8c1.1,0.1,2.1-0.3,2.6-1.3c0.8-1.5,0.7-3.7,0.6-5.4c-0.1-1.9-0.6-3.8-1.6-5.5
								c-0.9-1.6-1.6-3-2.1-4.7c-0.4-1.4,0.6-3.4-0.7-4.3c-1-0.7-1.6,1.2-1.8,1.8c-0.5,1.6-1,2.8-2.7,3.5c-1.5,0.6-2.6,1.2-3.9,2.2
								c-1.2,1-2.5,2.1-4,2.4c-0.7,0.1-1.5,0-2.1-0.4c-0.7-0.5-1.4-1-2.3-0.5c-0.6,0.4-0.8,1.1-1.6,1.2c-0.8,0.1-1.6-0.2-2.4-0.4
								c-1.5-0.4-2.4-0.1-3.8,0.4c-1.1,0.4-2.9,0.5-3.2-1c-0.2-1.2,1-2.3,1.9-2.9c1.6-0.9,3.5-0.3,5.2-0.4c1.8-0.1,3.9-0.6,5.3-1.7
								c0.7-0.5,1.2-1.2,2.1-1.4c0.8-0.2,1.6,0.2,2.4-0.5c1.1-1,1-2.9,1.3-4.2c0.3-1.4,1.3-2.3,2.4-3.1c1.4-1.2,5.4-3.7,4.1-6
								c-0.9-1.5-3.2-1.3-4.4-2.5c-1.4-1.4-1.9-3.1-4.2-3.3c-1.9-0.2-1.7-1.4-3-2.4c-1.4-1.1-3.3-1-5-1.3c-2.3-0.4-3.9-2.8-6.3-2.8
								c-1.2,0-2.1,1-3,1.7c-1.3,1.1-1.5,2.4-0.2,3.6c1.2,1,0.2,2.6,1.7,3.3c1.4,0.7,2.7,0.2,3.8,1.5c2.3,2.7-1.9,6.3-3.7,8
								c-1.4,1.4-3,2.7-4.2,4.3c-1.1,1.5-1.5,3.5-2.6,5c-1,1.3-2.2,2.5-2.2,4.3c0,1.3,1.8,0.6,2.6,0.9
								C120.2,58.1,117.2,60.5,118.8,60.7z"/>
							<path class="st2" d="M38.5,99.5c0.3,1.6,2.2-0.3,2.9-0.4c0.6-0.1,1.5,0.4,1.9,0.8c0.2,0.3,0.7,1.9,0,2c-0.5,0-1.6-0.9-2-0.5
								c-0.9,1,0.2,3.6,0.3,4.8c0.1,1.9-0.2,3.8-0.2,5.7c0.1,2.1,0.4,4.1,0.8,6.1c0.8,3.9,2,7.7,2.9,11.5c0.3,1.2,0.2,2.5,0.8,3.6
								c0.2,0.4,0.7,0.9,1.3,0.6c0.5-0.3,0.2-1.2,0.8-1.3c1.1-0.3,2.9,2.2,3.6,2.9c1.5,1.7,2.1,3.6,2.8,5.7c0.2,0.5,1.4,4.4,2.6,3.4
								c1-0.9,0.8-1.9,2.4-2c1.6,0,3.1,0.8,4.7,0.7c1.8-0.1-1.1-3.2-1.5-3.6c-3.7-3.8-10.3-8.7-8.8-14.9c0.2-0.9,0.8-1.5,1.8-1.5
								c0.8,0,0.7,0.3,0.9,0.9c0,0.2,1,0.2,1.2,0.2c0.8,0.1,1.3,0,2,0.5c0.7,0.7,1.3,1.5,1.9,2.2c1.3,1.6,2.9,3.3,4.5,4.7
								c0.9,0.8,1.8,1.5,2.1,2.8c0.4,2,0.2,4,0.6,6c0.2,1,0.7,1.9,0.9,2.8c0.2,0.7-0.1,1-0.1,1.7c0,1.4,2.6,1.2,3.4,1.1
								c1.1-0.2,3.4-1.1,4.2,0.2c0.9,1.3,1.6,1.5,3.2,1.1c0.7-0.2,1.4-0.4,2.1-0.2c0.7,0.2,1.3,0.5,2,0.2c1.5-0.6,3.2,0.1,4.7-0.8
								c-1-0.7-2.2-1.1-3.3-1.5c2.3,0.4,4.6,1.4,6.9,1.4c1,0,2-0.3,3.1-0.2c1,0.1,1.8,0.7,2.7,1c-3.3,1.5-7.5,1.3-11.1,1.5
								c-4.4,0.3-8.7,0.7-13.1,0.4c-4-0.3-7.9-1.1-11.7-2.3c-4.2-1.3-8-3.3-11.9-5.1c-1.9-0.9-4.2-1.4-5.9-2.7
								c-1.6-1.2-1.5-2.6-1.7-4.4c-0.2-2.1-0.8-4.2-1.2-6.3c-0.4-2-0.3-4.1-0.8-6c-1-4.2-2.5-8.3-3.2-12.6c-0.4-2-0.5-3.9-0.3-6
								C37.6,103.1,37.9,99.5,38.5,99.5z"/>
							<path class="st7" d="M75.7,124.4c3.3,3.3,7,5.7,11,8c1.5,0.9,7.9,5.9,9,2.7c0.6-1.8,2.9-1.4,4.4-1.1c2.2,0.5,2.2,2.4,2.2,4.3
								c0,0.6,0.2,0.7-0.4,0.9c-0.4,0.2-0.8,0.3-1.1,0.6c-0.6,0.5-0.5,1.3-0.9,1.9c-0.8,1.4-2.7,0.5-3.8,1.5c-1.2,1-0.4,3.4,1.1,3.7
								c2.3,0.5,2.6-1.9,4.1-2.8c0.7-0.4,1.5-0.6,2.2-1.1c0.7-0.5,1.3-1.1,2-1.6c0.9-0.5,1.3-1,1.9-1.7c0.6-0.7,1.8-0.9,2.7-1.2
								c0.9-0.3,1.9-0.6,2.7-1.2c0.8-0.6,0.8-1.4,1.3-2.2c0.4-0.6,0.9-0.7,1.4-1.1c0.5-0.5-0.3-1.3-0.8-1.4
								c-1.2-0.4-2.6,0.3-3.8,0.5c-1.7,0.4-3.5-0.2-5-1c-0.5-0.3-0.3-0.3-0.2-0.7c0.2-0.6,0.4-0.6-0.2-1.1c-0.6-0.5-1.9-0.8-2-1.7
								c-0.3-2.2,4.4-0.7,5.5-0.5c5.1,0.5,10.6,0.4,15.6-1c-6.5-0.1-12.9-0.8-19.3-2.1c-3.3-0.7-6.6-1.4-9.9-2.4
								c-0.8-0.2-3-1.4-3.4-0.4c-0.2,0.5-0.7,0.4-0.6,1.1c0,0.2,0.1,0.5,0.3,0.7c-0.3,0.2-0.7,0.4-1,0.4c-2.2,0.4-3.2-2.6-5.3-2.5
								c-1.1,0-1.5,1.4-2.7,1.4c-1,0-2.1-0.2-3.1-0.4c-1-0.2-1.8-0.5-2.8-1.1c-0.9-0.6-2-1-3-0.4C72.5,122,75.3,123.9,75.7,124.4
								C77.3,125.9,74.8,123.5,75.7,124.4z"/>
							<path class="st7" d="M124.5,122.6c-0.6-0.3-1.3-0.5-1.9-0.7C123.2,122.2,123.8,122.4,124.5,122.6
								C124.4,122.6,123.8,122.4,124.5,122.6z"/>
							<path class="st6" d="M88.2,80.6c-0.4,1.5,4.4,3.6,5.4,4.2c2.2,1.2,4.7,3.2,7.3,2.9c0.6-0.1,1.6-0.3,1-0.9
								c-0.7-0.8-1.6-1.3-2.4-2c-1.4-1.3-1.8-3.4-3.3-4.7c-0.6-0.5-1.2-1-2-1c-0.7,0-1.2,0.7-2,0.8C91.2,80,88.5,79,88.2,80.6z"/>
							<path class="st4" d="M98.7,78.3c0.4-1.7,3.5-2.1,4.9-2.4c2.1-0.4,4.2-0.8,6.3-0.9c2.8-0.2,6.6,0.9,9.2-0.4
								c1.1-0.6,0.7-1.7-0.2-2.2c-1.2-0.8-2.6-0.6-4-0.7c-2-0.2-3.8-3.1-5.9-2.1c-1,0.5-1,2.5-2.3,2.2c-1.2-0.3-2-1.2-3.3-1.3
								c-1.5-0.2-3,0.1-4.3,1c-0.7,0.5-1.3,1-2,1.4c-0.7,0.3-1.5,0.5-2,1.2c0.4,1,0.8,2,1.4,2.8c0.3,0.4,0.7,0.9,1.1,1.1
								C98.1,78.1,98.4,77.9,98.7,78.3z"/>
							<path class="st1" d="M70.4,101.1c1.2,0.8,2.5,0.7,3.9,1c1.5,0.3,3,0.8,4.4,1.4c1.3,0.5,2.7,0.6,4.1,0.9
								c1.6,0.4,3.1,0.8,4.7,1.4c-0.7-0.8-3.4-2.8-0.8-2.9c0.8,0,1.5,0.1,2.3,0c1.1-0.1-0.2-1.5-0.7-1.8c-1.5-1.1-3.5-1.1-5-2.1
								c-1.3-0.8-2.3-2.1-3.5-3c-0.8-0.6-2.8-1.6-3.4-0.2c-0.3,0.7,1.7,2.9-0.3,2.5c-1.5-0.3-2.9-1.8-4.5-1.3
								C70.2,97.4,70.9,100.1,70.4,101.1C70.8,101.3,71.4,99.1,70.4,101.1z"/>
							<path class="st2" d="M72.2,110.8c-1.7,0.7-2.8-3-3.8-3.9c-2.3-1.9-5.1-2.1-6.8-4.7c-1.2-1.9-2.3-5.6-4.9-5.8
								c-1.3-0.1-2.3,0.9-2.2,2.2c0,1.2,1.1,2,2,2.6c2.5,1.5,3.2,3.9,4.9,6.1c0.9,1.2,2,1.9,3.3,2.5c1.3,0.6,2.1,1.4,3.1,2.4
								c0.9,0.9,4.7,3.8,5.8,1.8c0.5-0.9-0.2-3.2-1.5-3C72.1,110.9,72.1,110.8,72.2,110.8z"/>
							<path class="st8" d="M104.2,124.6c-1.3-0.3-2.5-0.5-3.8-0.8c0.9,1.6,3.5,2.1,5.1,2.4c1.6,0.3,4.5,1,5.9-0.3
								C109,125.5,106.6,125.1,104.2,124.6z"/>
							<path class="st7" d="M102.1,104.3c-0.8-0.3-1.9-0.4-2.5-1.2c-0.4-0.5-0.2-0.5-0.9-0.8c-0.7-0.2-1.4-0.5-2.1-0.7
								c-2.2-0.8-4.7-2.2-7-2.2c-0.2,1.9,1.8,2,3,2.7c0.6,0.4,0.8,1.1,1.3,1.5c0.7,0.6,1.6,0.4,2.4,0.3c1.8-0.1,3.1,1.9,4.6,2.7
								c0.9,0.5,1.8,0.8,2.7,1.2c0.4,0.2,0.9,0.5,1.3,0.8c0.5,0.4,0.5,0.9,0.9,0.2c0,0.7,1,0.3,0.7,0.9c-0.2,0.5-0.7,0.7-1.2,0.6
								c-0.6,0-1.2-0.2-1.8-0.4c-0.5-0.1-1.6-0.6-1.3,0.4c0.2,0.5,1,0.6,1.4,0.7c0.9,0.3,0.4,0.5,0.7,1.1c0.4,1,2.3,0.9,3.2,1.3
								c0.9,0.4,1.8,0.8,2.6,1.4c0.4,0.3,0.7,0.6,1,1c-0.3,0.4-0.1,0.5,0.3,0.8c1.4,0.9,3.5,0.6,5.1,1c1.9,0.4,3.6,1.1,5.1,2.4
								c1.3,1.1,3,1.1,4.6,1.1c0.7,0,1.4,0,2-0.3c0.8-0.3,1.1-1.2,1.6-1.7c1.2-1.3,4.1-1.2,3.7-3.7c-0.2-1.4-2.4-0.4-2.5-1.5
								c-0.1-1.6-2.5-2.6-3.7-3.1c-0.8-0.3-1.6-0.5-2.4-0.4c-0.8,0.1-1.4,0.4-2.2,0.3c-1-0.2-1.9-0.7-2.9-0.9
								c-1.2-0.3-2.4-0.4-3.7-0.7c-2-0.4-3.7-1.1-5.5-2.1c-2-1-3.9-1.6-6.1-2.1C103.8,104.8,102.9,104.6,102.1,104.3
								C101.5,104.1,103.5,104.8,102.1,104.3z"/>
							<path class="st4" d="M154.4,80c-0.3,0.2,0,0.3-0.2,0.6c-0.5,0.5-1.1,0.9-1.7,1.2c-1.3,0.8-2.7,1.3-4.1,1.8
								c-2.8,0.9-5.5,1.8-8.4,2.4c-2.4,0.4-4.8,0.7-7.2,1.2c-1.8,0.4-2.2,1.3-0.8,2.7c-0.6,0.7-4,2.4-2,3.1c1.4,0.5,3,0.3,4.5,0.3
								c1.4-0.1,2.9,0,4.4-0.1c0.9-0.1,1.8-0.5,2.7-0.7c1.1-0.2,2.2-0.2,3.3-0.3c3.1-0.1,7.6-1.6,9.5-4.3c1.1-1.5-0.5-3,0.9-4.3
								C156.6,82.3,156.9,79.9,154.4,80C154.3,80.1,156.1,80,154.4,80z"/>
							<path class="st7" d="M50.8,106.5c-0.9,0.4-1.9-0.7-2.3-1.3c0.5-1,0.1-1.9-0.4-2.8c-0.6-0.8-1.2-1.6-1.8-2.5
								c-0.6-0.9-1.3-2.1-2.4-2.7c-2.2-1.2-2.3,2-1.3,3.2c0.8,0.9,2,1.7,2.4,2.9c0.4,1.1,0.3,2.4,0.9,3.4c1.2,2.2,4.1,1.7,5.8,3.2
								c1,0.9,1.8,1.9,3,2.4c0.8,0.3,1.9,0.3,1.6-0.9c-0.4-1.5-1.7-2.9-2.7-4c-0.5-0.5-1-1-1.6-1.3
								C51.6,106.1,51.3,106.5,50.8,106.5z"/>
							<path class="st7" d="M22,84.1c0,1.1-2,2.2-2.5,0.9c-0.7-1.6-1.4-0.2-2.6-0.4c-0.4-0.1-0.9-0.4-1.3-0.3
								c-0.5,0.1-0.3,1.3-0.2,1.6c0.2,0.7,0.7,1.3,0.9,2c0.2,0.7,0.1,1.5,0.2,2.2c0.2,2.7,4.2,3.8,6.4,4.1c2.3,0.4,5.3,0.7,7.6-0.1
								c-2.4-0.5-6.9-1.6-5.4-5c0.7-1.5-1-1.3-1.5-2.3C23.2,86.2,23.3,83.9,22,84.1z"/>
							<path class="st2" d="M63.2,66.2c0,1.2-1,2-1.3,3c-0.3,1.1,0,2.2,0.3,3.2c0.6,1.8,1.1,3.9,2.3,5.5c1.7,2.2,1.8-1,1.5-2.3
								c-0.6-2.6-0.3-5.3-0.2-7.9c0.1-2.7,0.2-5.6,0.5-8.3c0.1-1,0.4-2.2,0-3.2c-0.2-0.5-1.1-1.6-1.6-0.6c-0.7,1.5,0.1,3.2-0.4,4.7
								c-0.4,1-0.9,1.8-1,2.9C63.2,64,62.8,65.5,63.2,66.2z"/>
							<path class="st0" d="M48.9,57.9c-2.5,0.4-3.2-3.3-3.8-4.9c-0.3-0.8-0.8-1.9-1.7-2.1c-1.1-0.2-1.8,0.5-1.9,1.5
								c-0.3,2.2,0.8,4.3,1.3,6.3c0.4,1.6,0.2,3.3,0.8,4.8c0.8,1.9,3.2,2.3,4,4.1c1.5,3-0.2,6.3,0.5,9.4c0.3,1.4,1.2,2.7,2.5,3.2
								c1.6,0.6,2.1-0.8,1.8-2.1c-0.4-1.6-0.9-3.1-0.8-4.7c0.1-0.8,0.3-1.5,0.5-2.2c0.3-0.6-0.1-0.6-0.6-1c-0.4-0.4-0.7-0.9-1-1.5
								c-1.2-2.9-0.5-6.2-0.8-9.2c0-0.5-0.1-1.4-0.6-1.8c-0.2,0.3,0.1,0.2,0.1,0.4C49.2,58,49.1,57.9,48.9,57.9z"/>
							<path class="st2" d="M13.9,102.6c0.2,1.4,1.8,1.1,2.9,1.1c1.5-0.1,3.4,0.9,1.3,2.1c1.6-0.6,3.3-0.9,4.9-1.4
								c2-0.7,3.6-1.5,5.3-2.8c-1.5-0.6-2.9,0.1-4.4,0.6c-1.4,0.5-2.7,0.6-4.1,0.1C18.5,101.8,13.4,99.2,13.9,102.6
								C14.3,105.1,13.5,99.8,13.9,102.6z"/>
							<path class="st2" d="M72.1,130.2c1-3.8,5,2.6,7.1,0.9c2.1-1.7-4.5-5.5-5.4-6.4c-1.3-1.3-2.1-3-3.7-3.9
								c-1.3-0.8-2.8-1-4.1-1.6c-1.4-0.7-3.3-2.9-5-2.3c-0.5,0.2-0.9,0.5-1.2,0.9c-0.8,0.8-0.2,1,0.5,1.7c1.3,1.2,2.8,2.2,4.2,3.3
								c1.4,1.1,2.8,2.4,4.2,3.6C69.2,126.9,72.3,129.2,72.1,130.2z"/>
							<path class="st2" d="M108.2,139.5c-2-0.8-4.1-0.9-6.2-0.9c0.1-1,0-1.9-0.3-2.9c-0.2-0.5-0.3-1-0.5-1.6
								c0.3-0.3,0.8-0.5,1.2-0.5c1.8-0.2,3.2,0.7,4.9-0.2c0.7-0.4,1.4-0.6,2.2-0.4c1.2,0.3,0.1,1.6-0.4,2.1c-0.5,0.4-1.2,1.4-0.8,2
								c0.4,0.7,1.5,0.7,2.1,1.3C110,139,109,139.6,108.2,139.5z"/>
							<path class="st4" d="M138,74.8c2.5-0.2,5.1-0.5,7.6-0.9c-0.1-2-2.8-0.5-3.7-0.2C140.5,74.1,138.9,73.1,138,74.8
								C140.5,74.6,138,74.7,138,74.8z"/>
							<path class="st7" d="M22.8,77.7c0.2,1.4,3.4,2.1,4.5,2.1c0.3,0,1.7,0,1.5-0.6c-0.2-0.5-0.8-1-1.2-1.3
								c-1.3-1.3-2.7-2.6-4.2-3.8c-0.8-0.6-1.5,0.3-1.7,1.1C21.5,76.4,22,77,22.8,77.7z"/>
							<path class="st2" d="M37.1,70.7c0.2,1,0.2,3.2-1.4,2.9c-1.1-0.3-2-1.1-3.1-1.5c0.1,0.7,0.8,0.8,1.2,1.2
								c0.8,0.7,1.4,1.6,1.8,2.6c0.9,1.8,1.5,4,1.6,6c0.1,2.1-1.4,4.1,0.9,5.4c1.9,1.1,1.1,4.4,3.7,4.5c1.5,0.1,2.7-1.3,3.1-2.7
								c0.6-2.2-1.3-3.8-1.8-5.8c-0.3-1.2-0.3-2.5-0.5-3.8c-0.2-1.3-0.7-2.4-1.3-3.6c-1-2.1-2.3-4.6-4.3-6
								C37.2,70.3,37.2,70.5,37.1,70.7C37.3,71.7,37.2,70.5,37.1,70.7z"/>
						</g>
					</g>
				</g>
			</g>
			<g>
				<path class="st9" d="M39,96.7c13.2-11.2,29-17.4,44.7-24.1c8.8-3.7,17.6-7.5,26.5-11c8.6-3.4,17.5-6.1,25.5-10.7
					c3.5-2,6.8-4.3,9.9-6.9c-6.2,5.5-13.2,9.5-20.8,12.8c-8.7,3.8-17.6,7.1-26.2,11c-8.9,3.9-17.8,7.9-26.8,11.7
					c-8,3.3-15.7,7.2-23.2,11.4C45.3,92.6,42.2,94.7,39,96.7z"/>
				<path class="st9" d="M38.3,96.4c1.6-1.9,3.9-3.2,6-4.5c2.1-1.3,4.3-2.5,6.6-3.3c-2.2,1.5-4.2,3.2-6.2,4.8
					C43,94.8,40.7,96.7,38.3,96.4z"/>
				<path class="st9" d="M37.9,95.9c2-2.4,5.2-3.8,7.9-5.1c3.7-1.8,7.4-3.5,11.2-5.1c-3.3,2.1-6.6,4.2-10,6.2
					C44.2,93.6,41.2,95.6,37.9,95.9z"/>
				<path class="st9" d="M39.3,98.5c1.2-2.8,3.9-4.9,6.2-6.7c2.7-2.1,5.5-3.9,8.7-5.3c-2.8,1.9-5.3,4.1-7.7,6.4
					C44.5,94.9,42.2,97.6,39.3,98.5z"/>
				<path class="st9" d="M39.7,99.4c0.1,0-0.4-2-0.5-2.2c-0.6-0.9-1.8-1.4-2.9-1.6c1.4-0.4,3.4-0.3,4.3,1
					C41.4,97.5,41.2,99.3,39.7,99.4z"/>
				<path class="st9" d="M99.2,78c-1.3,3.3,2.9,4.7,5.3,5.4c3.8,1.1,7.7,1.6,11.6,2c7.3,0.7,14.6,0.7,21.9,1.1
					c-7.3-0.2-14.6,0-21.9-0.6C112.8,85.8,95.5,84.4,99.2,78z"/>
				<path class="st2" d="M38.4,95c5.3-3.9,11.1-7.3,16.9-10.4c6.7-3.7,13.6-6.8,21-8.8c-7.3,2.3-14,5.7-20.6,9.5
					C50,88.6,44.4,92.3,38.4,95z"/>
				<path class="st2" d="M81.8,73.4c8.8-4.5,18.2-8,27.4-11.7c7.9-3.2,15.8-6.3,23.7-9.4c-7.7,3.3-15.3,6.6-23,9.9
					C100.7,66.1,91.4,70.3,81.8,73.4z"/>
				<path class="st7" d="M36.4,95.6c1.5-1.3,3.4-2.2,5.1-3.2c2-1.2,4.1-2.2,6.3-3.1c-2,1.2-3.9,2.5-5.9,3.8
					C40.2,94.1,38.4,95.4,36.4,95.6z"/>
				<path class="st7" d="M36.6,95.8c0.9-2.2-11.3-3.1-12.8-3.3c-5.3-0.9-9.6-3.2-11.1-8.6c1.8,5.2,6.1,7.2,11.3,7.9
					c2.5,0.3,5,0.5,7.5,0.9C32.2,92.9,38.1,94,36.6,95.8z"/>
				<path class="st7" d="M62.5,84.7c2.8-0.9,6.1,1.7,8.2,3.2c3,2.3,5.7,5.1,8.7,7.4c6.1,4.6,13.2,8.6,20.6,10.5
					c-7.3-1.5-13.7-5.1-20-9.2c-3.3-2.1-6.1-5-9.1-7.5C68.8,87.4,65.6,84.4,62.5,84.7z"/>
				<path class="st7" d="M42,99.5c4,1.1,3.8,7,3.8,10.2c0,3.7-0.6,8.5,1.7,11.7c-2.5-2.9-2.3-7.6-2.4-11.2
					C44.9,106.8,45.1,101.9,42,99.5z"/>
				<path class="st7" d="M45.6,115.5c-1-2.4-1-5.1-1.3-7.6c-0.3-2.9-0.8-5.7-1.8-8.4c1.3,2.4,2,5,2.5,7.7
					C45.4,109.9,45.8,112.8,45.6,115.5z"/>
				<path class="st7" d="M40.9,99.7c5.1,3.2,2.1,11.4,2.9,16.2c-0.8-2.7-0.6-5.5-0.7-8.3C43,104.7,42.3,102.2,40.9,99.7z"/>
				<path class="st7" d="M75.3,66.1c8.2,3.9,14.6-34.6,18-39.1c-0.9,1.2-1.3,2.8-1.7,4.2c-0.6,1.9-1.1,3.9-1.6,5.8c-1,4-2,8-3.2,12
					C86,52.3,81.2,70.4,75.3,66.1z"/>
				<path class="st7" d="M74.4,49.3c0.3-5.8,2.9-11.5,5.3-16.7c2.8-5.8,6.5-12.9,12.4-16.1c-5.5,3.4-8.8,10.2-11.4,15.9
					C78.2,37.9,76.2,43.6,74.4,49.3z"/>
				<path class="st7" d="M100.1,77.2c2.3-2.2,6-2.5,9-2.6c3.8-0.1,7.6,0.3,11.5,0.2c7.1-0.2,14.3-0.4,21.4-0.8
					c-7.1,0.7-14.2,1.2-21.3,1.6c-3.7,0.2-7.3-0.2-11-0.1C106.5,75.4,102.9,75.5,100.1,77.2z"/>
				<path class="st7" d="M101.3,146.5c1.7-3.4,5.6-5.2,8.9-6.6c3.7-1.5,7.6-2.8,10.7-5.3c-2.8,2.7-6.4,4.2-9.9,5.8
					C107.5,142,104.2,143.8,101.3,146.5z"/>
				<path class="st7" d="M44.5,138.7c1.8,1.9,4.4,2.6,6.8,3.4c3.1,1,6.1,2.3,9.1,3.4c5.7,2.1,11.5,3.5,17.6,3.9
					c-6.1-0.1-12-1.3-17.8-3.3c-3.1-1-6.1-2.3-9.1-3.3C48.6,142,45.8,141,44.5,138.7z"/>
				<path class="st7" d="M16.8,83.2c1.1,0.8,2.2,0.2,2.3-1.1c0.3-1.5-0.5-3.1-1.2-4.3c-1.5-2.7-4-5.3-4.6-8.5
					c1.2,3.9,5,6.5,6.4,10.4c0.3,0.8,0.5,1.7,0.2,2.6C19.6,83.7,17.7,84.9,16.8,83.2z"/>
				<path class="st7" d="M34,73.4c1.7,2.7,2.4-2.1,2.6-3.4c0.4-2.8-0.3-5.2-0.9-7.9c-1.1-5.1-2.1-10.2-2.9-15.3
					c1.2,5.2,2.5,10.5,3.8,15.7c0.7,2.7,1.3,5.1,0.8,8c-0.2,1.3-0.6,2.8-1.4,3.8C35.1,75.2,34.3,74.3,34,73.4z"/>
				<path class="st7" d="M34.7,54.5c-1.9-3.3-2-7.2-1.9-10.9c0.1-4,0.3-7.9-0.4-11.8c1,3.7,1.1,7.4,1.2,11.3
					C33.6,47,34,50.6,34.7,54.5z"/>
				<path class="st7" d="M94.6,24.1c1.4-5.8,7.9-8.9,13.2-10.1c-2.7,0.9-5.2,2-7.5,3.8C98,19.6,96.5,21.9,94.6,24.1z"/>
				<path class="st7" d="M155.7,79.3c-7.9,9.8-23.1,7.6-34.3,7.9c6.1-0.5,12.3-0.4,18.4-1.3C145.8,85,150.9,82.9,155.7,79.3z"/>
				<path class="st7" d="M155.5,79.5c1.9,1.5,0,5.1-0.8,6.7C155.2,84,155.1,81.8,155.5,79.5z"/>
				<path class="st7" d="M131.9,124.4c2.9-2.9,6.7-4.6,9.2-7.8c-1,1.7-2.5,3.2-4,4.5C135.7,122.4,133.9,124.1,131.9,124.4z"/>
				<path class="st7" d="M79.2,123.1c4.2,2.6,8.4,4.9,13.1,6.4c4.9,1.6,10.1,2.5,15.2,3.3c-5.2-0.6-10.4-1.2-15.4-2.6
					C87.4,128.9,82.5,126.9,79.2,123.1z"/>
				<path class="st7" d="M51.1,128.9c4.2,4,9.1,6.9,14.1,10.1c-2.6-1.3-5.2-2.5-7.7-4C55,133.6,52.1,131.8,51.1,128.9z"/>
				<path class="st7" d="M46.9,119.4c3.5,6.6,10.8,10.8,17.7,13.2c-3.8-1-7.6-2.6-10.9-4.7C50.8,126,47.4,123.2,46.9,119.4z"/>
				<path class="st7" d="M44.9,111.4c1.1,1.5,1.9,3,3.1,4.4c1.4,1.7,2.9,3.1,4.5,4.6C49.7,118.5,44.8,115.4,44.9,111.4z"/>
				<path class="st7" d="M46.9,124.2c0.4,2.1,0.7,4.3,1.5,6.3c0.9,2.4,2.1,4.6,3.6,6.6C49.1,134.1,45.2,128.6,46.9,124.2z"/>
				<path class="st7" d="M65.4,111.9c1.5,0.8,2.8,2.2,4,3.4c1.7,1.5,3.4,2.9,5.2,4.2C71.4,117.8,67,115.5,65.4,111.9z"/>
				<path class="st7" d="M60.7,102.9c2.4,2.4,4.5,5.1,7,7.4C65.4,108.8,60.8,106.2,60.7,102.9z"/>
				<path class="st7" d="M72.4,120.2c2.1,2.2,3.7,5,5.6,7.4c2.1,2.7,4.5,5.1,7.1,7.3C80,131.3,74.4,126.3,72.4,120.2z"/>
				<path class="st7" d="M65.5,113.5c0.6,1.7,1.2,3.4,2.1,5c1.1,1.9,2.3,3.7,3.2,5.7C69,121.4,64.2,117.3,65.5,113.5z"/>
				<path class="st7" d="M124.6,113.3c2.1,0.1,4.2,0.9,6.3,1.3c2.4,0.5,4.9,0.8,7.3,1C133.9,115.9,128.3,116,124.6,113.3z"/>
				<path class="st7" d="M124.8,113.6c2.8-0.1,5.5-0.2,8.3-1.1c2.6-0.8,5.2-1.9,7.8-2.9C136.5,111.9,129.9,116.2,124.8,113.6z"/>
				<path class="st7" d="M80.6,76.3c1.9-0.9,4.2-0.2,6,0.7c2.5,1.1,4.7,2.6,6.9,4.2c1.6,1.1,3.1,2.3,4.8,3c2.2,1,4.6,1.8,7,2.6
					c10.3,3.1,21.1,3.6,31.7,3.7c-10.6,0.2-21.2-0.1-31.5-2.8c-4.2-1.1-8-2.7-11.6-5.1c-2.2-1.5-4.4-3.2-6.8-4.5
					C85.2,76.8,82.8,75.6,80.6,76.3z"/>
				<path class="st7" d="M70.6,80c2.9-0.9,5.6-2,8.3-3.4c3.8-1.9,7.6-3.5,11.6-5c6.9-2.6,13.8-5.3,20.8-7.8
					c-6.7,2.7-13.3,5.6-20,8.3c-3.9,1.5-7.8,3.2-11.6,5C76.8,78.5,73.8,79.7,70.6,80z"/>
				<path class="st7" d="M114.5,59.3c3.6-0.6,6.9-2.3,10.1-3.8c2.7-1.3,5.5-2.4,8.2-3.7c6.6-3,12.4-7.6,18.2-11.8
					c-5.7,4.5-11.3,9.3-17.9,12.5c-2.5,1.2-5.1,2.3-7.6,3.5C122.1,57.6,118.3,59.4,114.5,59.3z"/>
				<path class="st7" d="M114.4,61.1c4.2-1.7,8.5-3.1,12.5-5c4.3-2.1,8.5-4.4,12.5-7c-3.9,2.9-7.9,5.5-12.2,7.7
					C123.2,58.8,118.9,60.7,114.4,61.1z"/>
				<path class="st7" d="M107,64.3c6.1-0.8,12.3,0.5,18.4,1.1c6.5,0.6,12.7,0.1,18.6-2.6c-5.9,3-12.2,3.7-18.7,3.3
					C119.2,65.7,113.1,64.9,107,64.3z"/>
				<path class="st7" d="M107.1,66.3c1.5,0.5,3,1.3,4.5,1.7c1.9,0.5,3.8,0.9,5.7,1.1C114.3,69.2,108.8,69.5,107.1,66.3z"/>
				<path class="st7" d="M123.6,57.6c2.9-1.2,6.1-1,9.2-1.2c3.5-0.2,6.6-0.9,9.8-2.4c-3,1.8-6.2,2.8-9.6,3.1
					C129.8,57.4,126.6,57.7,123.6,57.6z"/>
				<path class="st7" d="M122,57.3c2.4-1.5,4.6-2.9,6.7-4.9c2.2-2.1,4.3-4.4,6.8-6.3c-2.3,2.1-4.2,4.6-6.3,6.8
					C127.3,55,125,57,122,57.3z"/>
				<path class="st7" d="M103.1,64.7c3.8-2.2,7-4.9,9.8-8.2c3-3.5,5.5-7.4,8.5-11c-2.6,3.6-4.8,7.5-7.5,11
					C111.1,60,107.6,63.7,103.1,64.7z"/>
				<path class="st7" d="M61.8,84.5c2.6-0.6,5.2,1.2,7.1,2.7c2.5,1.9,4.7,4.3,7,6.5C71.5,90.3,67.3,85.9,61.8,84.5z"/>
				<path class="st7" d="M54.9,87.7c2.1-2.1,5-3.3,7.7-4.4c2.8-1.2,5.7-2.2,8.6-3.2c-2.8,1.3-5.5,2.5-8.3,3.9
					C60.2,85.2,57.6,86.8,54.9,87.7z"/>
				<path class="st7" d="M40.7,99c1.5-5.1,7.8-8.1,12.1-10.3c-2.2,1.5-4.4,3-6.4,4.7C44.3,95.1,42.6,97.1,40.7,99z"/>
				<path class="st7" d="M63.4,80.5c1.4-1.1,1.5-3.7,1.6-5.3c0.2-2.2,0.3-4.5,0.3-6.7c0.1-5.3-0.1-10.6,0.6-15.8
					c1.5-10.9,3-21.8,7.9-31.8c-4.5,10-5.8,20.6-7.1,31.3c-0.7,5.4-0.4,10.8-0.6,16.3c-0.1,2.3-0.2,4.5-0.6,6.8
					C65.3,76.9,65,79.5,63.4,80.5z"/>
				<path class="st7" d="M49.9,87.8c1-2.3,0.2-5.1-0.4-7.4c-0.8-2.9-1.9-5.8-3-8.6c-1.1-2.8-2.3-5.7-3.1-8.6
					c-0.5-2.4-0.8-4.9-1.1-7.4c-1.2-11.1-0.7-22.7,3.2-33.2C42,33.2,41.7,44.7,43,55.8c0.3,2.4,0.6,4.8,1.1,7.1c0.7,3,2,5.8,3.1,8.6
					c1,2.7,2,5.4,2.7,8.2C50.5,82.3,51.3,85.5,49.9,87.8z"/>
				<path class="st7" d="M37.6,90.3c1.7-0.3-2.1-3.9-2.6-4.4c-2.1-2-4.4-4-6.3-6c-3.7-3.5-7.3-7.3-9.2-12.2C18,63.9,18,60,18.6,56
					c-0.3,3.1-0.4,6.1,0.5,9.1c1.2,4.1,3.6,7.6,6.6,10.7c2.6,2.7,5.5,5.2,8.2,7.9c1.1,1.1,2.1,2.2,3.1,3.4
					C37.2,87.6,39.3,90.4,37.6,90.3z"/>
				<path class="st7" d="M22.4,72.2c-3.6-4-1.8-11.3-0.4-15.8c-0.4,2.6-0.8,5.2-0.8,7.9C21.2,67.1,21.7,69.6,22.4,72.2z"/>
				<path class="st7" d="M27.9,77.5c-2.9-1.1-1.8-7.1-1.5-9.3C26.6,71.2,26.6,74.7,27.9,77.5z"/>
				<path class="st7" d="M27.2,78.6c-2.6,1.3-5.5-1-7.3-2.7c-1.9-1.8-3.4-3.9-5-5.9C18.2,73.4,22,78.4,27.2,78.6z"/>
				<path class="st7" d="M86.7,71.2c3.5-1.7,4-7.5,4.5-10.8c0.6-3.8,1-7.6,2.3-11.3c3.2-8.9,8.1-17.3,15-23.8
					c-6.3,6.5-10.9,14.6-13.9,23.1c-1.5,4.1-1.9,8.4-2.7,12.7C91.4,64.3,90.4,70.2,86.7,71.2z"/>
				<path class="st7" d="M77.3,74.5c3.5-1.7,7.1-3,10.7-4.5c3.8-1.6,7.7-3.1,11.7-3.9c-4,1.2-7.7,2.9-11.4,4.6
					C84.8,72.4,81.1,74.2,77.3,74.5z"/>
				<path class="st7" d="M79.1,73.7c4.5-1.8,9.1-3.3,13.5-5.1c5-2,10.1-4.1,15.3-5.7c-4.9,1.8-9.7,4-14.5,6.1
					C88.9,71.1,84.1,73.2,79.1,73.7z"/>
				<path class="st7" d="M89.1,69.6c0.4-1.4,1.2-2.6,1.7-4c0.5-1.4,0.7-2.8,0.8-4.2C91.9,63.9,91.8,68.3,89.1,69.6z"/>
				<path class="st7" d="M107.3,62.7c1-1,2.1-1.9,3.1-2.9c1.3-1.2,2.4-2.6,3.6-4C112.6,58.3,110.5,62.6,107.3,62.7z"/>
				<path class="st7" d="M108.2,62.3c0.7-1.3,2.1-2.1,3.2-3c1.1-0.9,2.3-1.7,3.4-2.5C113.1,58.8,110.9,61.8,108.2,62.3z"/>
				<path class="st2" d="M42.7,52.4c-0.3-5.5,4.3-10.7,7-15.2c-1.2,2.5-2.6,4.9-3.9,7.3C44.5,47.2,43.6,49.8,42.7,52.4z"/>
				<path class="st2" d="M41.8,51.9c-2.4-4.7-5.7-9.4-7-14.6c0.9,2.6,2.3,5,3.8,7.3C39.9,46.9,41.5,49.3,41.8,51.9z"/>
				<path class="st2" d="M68.3,43.3c0.9-2.6,2.7-4.7,4.5-6.6c2-2.2,4.1-4.2,5.9-6.5c-1.5,2.3-3.4,4.4-5.2,6.5
					C71.7,38.9,70,41.1,68.3,43.3z"/>
				<path class="st2" d="M70.3,30.8c1.7-3.2,4.4-5.6,7.1-8c2.9-2.6,5.5-5.2,7.7-8.5c-1.9,3.3-4.3,6.1-7.1,8.7
					C75.3,25.5,72.8,28.2,70.3,30.8z"/>
				<path class="st2" d="M68.9,27.8c-0.6-3.6,0.3-7.7,1.1-11.2c-0.2,1.9-0.3,3.9-0.4,5.8C69.6,24.2,69.6,26.1,68.9,27.8z"/>
				<path class="st2" d="M95.8,43.1c2.8-4,5.9-8.6,10.1-11.1c-2,1.5-3.6,3.3-5.1,5.4C99.4,39.4,98,41.8,95.8,43.1z"/>
				<path class="st2" d="M94,50.7c0.3-5.6,6.2-9.7,10.2-12.9C100.1,41.7,96.3,45.4,94,50.7z"/>
				<path class="st2" d="M92.6,58.7c1.7-4.4,5.9-8,9.4-11c-1.7,1.8-3.4,3.6-5,5.5C95.6,55,94.3,57.1,92.6,58.7z"/>
				<path class="st2" d="M95.9,44.3c1.3-5-0.6-10.5,1.3-15.3c-0.7,2.4-0.4,5.1-0.3,7.6C97.2,39,97.6,42.2,95.9,44.3z"/>
				<path class="st2" d="M96.4,66.8c2.5-1.1,3.9-3.6,4.9-6c1.5-3.5,1.8-7.2,2.8-10.8c1.5-5.9,5.5-10.4,8.9-15.3
					c-3.1,4.8-6.9,9.2-8.3,14.9c-0.9,3.7-1.2,7.5-2.6,11C101,63.1,99.3,66.1,96.4,66.8z"/>
				<path class="st2" d="M52.2,71.3c2.7-0.3,3.7-3.5,4.3-5.7c0.8-3,1.2-6.2,1.6-9.3c0.4-3.2,0.6-6.5,0.9-9.7
					c0.2-2.8,0.3-5.9,1.3-8.5c-0.8,2.5-0.8,5.3-1,7.9c-0.2,3.4-0.3,6.9-0.6,10.3c-0.3,3.1-0.6,6.4-1.5,9.4
					C56.4,68,55,71.5,52.2,71.3z"/>
				<path class="st2" d="M52.4,71.1c-4.2-2.4-3.8-9.1-3.5-13.1c0.4-5.9,1.9-11.6,2.6-17.4c0.7-5.9,1.4-11.6,4.4-16.9
					c2.5-4.5,5.8-8.5,8.6-12.8c-2.4,3.9-5.2,7.6-7.5,11.6c-1.5,2.5-2.7,5.1-3.4,7.9c-0.8,3-1.1,6.2-1.4,9.3
					c-0.7,5.9-2,11.6-2.6,17.5C49.2,61.4,48.4,68.2,52.4,71.1z"/>
				<path class="st2" d="M36.8,71.7c-0.1,0.5-0.3,2.7-0.9,3c-0.3,0.2-1.5-0.7-1.8-0.9c-0.9-0.6-1.5-1.4-2.1-2.3
					c-2-2.9-2.8-6.6-3.4-10c0.6,2.4,1.3,4.7,2.3,6.9c0.6,1.3,1.3,2.5,2.2,3.6c0.4,0.5,0.9,0.9,1.4,1.3c0.2,0.2,0.5,0.3,0.7,0.5
					c0.3,0.2,1,0.2,0.3,0.5C36,73.4,36.4,72.5,36.8,71.7z"/>
				<path class="st2" d="M1.4,103.7c-3.6-9.5,3.3-20,8.1-27.7C4.7,84.6-0.1,93.6,1.4,103.7z"/>
				<path class="st2" d="M35,96.4c-8.1,2.2-20,7.4-26.8,0C15.6,103.8,26.3,96.8,35,96.4z"/>
				<path class="st2" d="M19.2,100.7c-2.3,4.2-10,4.3-13.9,3C9.8,104.8,15.4,103.6,19.2,100.7z"/>
				<path class="st2" d="M11.1,99.3c-1.9,2-5.8,0.5-7.9-0.2C5.9,99.6,8.4,99.7,11.1,99.3z"/>
				<path class="st2" d="M17.2,99.5c-5.6-0.4-9.2-7.9-9.6-12.7C8.5,92.1,12.2,97.2,17.2,99.5z"/>
				<path class="st2" d="M91.4,129.7c3.5,1,6.8,2.9,10.2,4.1c3.8,1.4,7.6,2.1,11.6,1.7C105.7,136.7,97.8,133.7,91.4,129.7z"/>
				<path class="st2" d="M101.4,132.7c3.2-0.6,6.3-1.2,9.4-2c3.2-0.7,6.2-1,9.4-0.3c-3.4-0.5-6.5,0.1-9.8,1
					C107.5,132.3,104.5,133.2,101.4,132.7z"/>
				<path class="st2" d="M89,128.4c2.2-0.4,4.5-0.9,6.7-1.4c2.4-0.6,4.7-1,7.2-0.7c-2.4-0.1-4.7,0.6-7.1,1.3
					C93.7,128.2,91.3,129,89,128.4z"/>
				<path class="st2" d="M86.3,129.6c2.8,0.3,4.9,3.4,6.6,5.4c1.7,2,3.3,4.1,5.6,5.4C93.4,138.1,91.2,132.2,86.3,129.6z"/>
				<path class="st2" d="M113.4,111.8c2.3,0.5,4.2,2.1,5.9,3.6c2,1.7,3.9,3.3,6.3,4.3c-2.4-0.7-4.3-2.1-6.3-3.6
					C117.4,114.6,115.4,113.2,113.4,111.8z"/>
				<path class="st2" d="M108.6,32.6c1.1-5,6.4-8.2,9.5-11.9c-1.5,2.1-3.2,3.9-4.9,5.8C111.4,28.4,110,30.5,108.6,32.6z"/>
				<path class="st2" d="M68.6,10.2c1.2-2.8,5.1-2.3,7.4-1.8c3.2,0.7,6.4,2.3,9.7,2.3c-3.1,0.2-6.3-1-9.3-1.6
					C73.9,8.6,70.5,8,68.6,10.2z"/>
				<path class="st2" d="M83.5,10.6c1.9-0.2,3.8-0.1,5.6-0.1c2.6-0.1,5.1-0.2,7.7,0.2C92.5,10.5,87.5,12.2,83.5,10.6z"/>
				<path class="st5" d="M80.8,91c5.2,7.6,14.7,8.7,22.2,13c-4.3-1.7-8.8-2.5-13.1-4.1C86.1,98.4,80.7,95.8,80.8,91z"/>
				<path class="st5" d="M82.5,89.5c-3.3,2.2,2.3,4.9,4.1,5.9c3.6,2,7.3,3.9,11.1,5.5c7,2.9,14.3,5,21.4,7.6
					c-7.5-2.1-15.2-3.7-22.5-6.5c-3.9-1.5-7.8-3.3-11.3-5.5C83.6,95.4,77.6,90.4,82.5,89.5z"/>
				<path class="st5" d="M143.2,112.2c-0.5-4.3,4.9-8.2,8-10.1c-1.5,1.6-2.8,3.2-4,5C146.1,108.7,145,111.1,143.2,112.2z"/>
				<path class="st5" d="M142.3,108.7c0.4-1.9,2.2-3.1,3.7-4.1c1.5-1,3.1-1.8,4.8-2.6c-1.3,1.2-2.6,2.5-3.9,3.7
					C145.6,106.9,144.2,108.6,142.3,108.7z"/>
				<path class="st5" d="M153.6,96.1c-0.1-2.8,1.1-5.9,1.6-8.7C155.1,90.1,155.2,93.8,153.6,96.1z"/>
				<path class="st5" d="M155,86.7c-0.2-1.6,0.4-3.1,0.7-4.6c0.4-1.6,0.7-3.3,0.5-5C157.1,80.1,156.4,83.9,155,86.7z"/>
				<path class="st5" d="M153.9,87.3c-0.9-1.5-0.2-3.2,0.4-4.7c0.7-1.7,1.4-3.4,2-5.1c0,1.7-0.1,3.4-0.4,5
					C155.5,84.2,155.2,86.2,153.9,87.3z"/>
				<path class="st5" d="M151.6,83.8c0.8-2.3,3.4-3.6,4.6-5.8C156.2,79.8,154.4,85,151.6,83.8z"/>
				<path class="st2" d="M49.4,61.4c-1.1-1.7-0.4-4.1,0.2-5.9c0.7-2.1,1.7-4.1,2.7-6.1c-0.3,2-0.7,4-1.1,6
					C50.8,57.4,50.6,59.7,49.4,61.4z"/>
				<path class="st2" d="M81.4,76.3c4.8-0.1,8.8,2.8,12.6,5.4c4.1,2.9,8.2,5.8,13.3,6.4C97.5,87.6,91,78.3,81.4,76.3z"/>
				<path class="st2" d="M112.3,89c3.7,0.1,7.3,0.7,11,0.9c4.3,0.3,8.6,0.5,12.8,0.9C128.3,90.4,119.8,91.3,112.3,89z"/>
				<path class="st2" d="M109.4,64.7c3.1,0.1,6.2,0.7,9.3,1c3.4,0.4,6.8,0.6,10.2,0.8C122.6,66.5,115.5,66.9,109.4,64.7z"/>
				<path class="st2" d="M39.2,93.1c-1-2.2-2.1-4.2-3.7-6c-1.7-2-3.7-3.8-5.6-5.8C33.5,84.4,39,87.9,39.2,93.1z"/>
				<path class="st2" d="M21.9,73.1c-3.7-1.9-4.7-6.6-5-10.4c-0.3-4.2,0.2-8.4,0.7-12.6C17.1,57.4,15.8,67.6,21.9,73.1z"/>
				<path class="st2" d="M49,87.8c2.1-6.1-2-13.1-4.8-18.3c1.8,2.9,3.6,5.9,4.7,9.1C49.9,81.3,51,85.2,49,87.8z"/>
				<path class="st2" d="M44.5,68.8c-1.4-2.5-1.8-5.4-2.2-8.1c-0.4-3.2-0.7-6.5-1.3-9.7c0.8,3,1.3,6,1.8,9.1
					C43.2,63,44,65.9,44.5,68.8z"/>
				<path class="st9" d="M61.9,82.7c4.9-8.5,3.1-18.3,4.3-27.7c-0.4,4.7,0,9.4-0.1,14.1C65.9,73.8,65.3,79,61.9,82.7z"/>
				<path class="st9" d="M97.4,66.4c2.3-3.2,3.8-6.6,4.9-10.5c1.1-4,1.9-8.2,3.7-12.1C103.1,51.1,103.8,61.1,97.4,66.4z"/>
				<path class="st9" d="M48.2,89.8c0.4-1.4,1-2.8,1.3-4.2c0.3-1.7,0.2-3.5-0.3-5.2C50.4,83.2,50.7,87.5,48.2,89.8z"/>
				<path class="st9" d="M63.1,82c0-1.9,1.3-4.2,1.9-6C64.8,78,64.6,80.7,63.1,82z"/>
				<path class="st9" d="M79,76.4c2.7-1.8,6.9,0.3,9.1,2.1C85.2,76.8,82.3,76.5,79,76.4z"/>
				<path class="st9" d="M105.4,64.4c2-1.3,5.1-0.3,7.2,0.4c-1.3-0.2-2.5-0.3-3.8-0.4C107.6,64.5,106.5,64.6,105.4,64.4z"/>
				<path class="st9" d="M122.2,57.5c2.4-1.4,6-0.7,8.6-0.4c-1.4,0-2.8,0.1-4.3,0.2C125.2,57.4,123.6,57.7,122.2,57.5z"/>
				<path class="st9" d="M122.5,57.3c1.2-1.5,3.4-2.5,4.9-3.5C126.2,55.1,124.5,57.3,122.5,57.3z"/>
				<path class="st9" d="M102.8,65.4c2.7-1.8,5.2-3.2,7.1-5.9C108.7,62,105.9,65.5,102.8,65.4z"/>
				<path class="st9" d="M58.2,85.1c-0.3-2.3,4.7-0.4,5.5,0c2.2,0.9,4.6,2,6.3,3.7C68.7,87.8,58.8,82.8,58.2,85.1z"/>
				<path class="st9" d="M58.2,84.7c5.4-1.9,10.3,3.1,13.8,6.4c-2-1.6-4-3.3-6.3-4.6C63.3,85.2,60.9,84.8,58.2,84.7z"/>
				<path class="st9" d="M36.8,96.5c-2.2-1.5-4.5-2.3-7-3.1C31.8,93.7,36.1,94,36.8,96.5z"/>
				<path class="st9" d="M32.6,97.6c-2.4,1.3-5.8,1.5-8.5,2C26.7,98.7,29.9,97.2,32.6,97.6z"/>
				<path class="st9" d="M71.1,28.8c1.2-3.7,5.9-5.6,8.4-8.3C77.1,23.7,73.6,25.7,71.1,28.8z"/>
				<path class="st9" d="M68.4,41.5c1.9-2.6,4.5-5,6.7-7.3C73.1,36.7,71.1,39.8,68.4,41.5z"/>
				<path class="st9" d="M86.5,71c3.6-3.3,4-8.3,4.8-12.8C90.8,62.3,90.8,68.9,86.5,71z"/>
				<path class="st9" d="M92.8,51.7c0.5-5.6,4.3-10.8,7-15.6C97.2,41.3,94.6,46.3,92.8,51.7z"/>
				<path class="st9" d="M38.9,94.2c-0.1-2.5-0.8-4.5-2.6-6.2C38,89.2,40.2,92,38.9,94.2z"/>
				<path class="st9" d="M46.2,119.6c2.2,3.8,4.9,6.9,8.7,9.3C51.4,127,47.1,123.9,46.2,119.6z"/>
				<path class="st9" d="M52.6,131c2.1,1.3,3.9,3.2,6.1,4.4C56.4,134.5,53.8,133.2,52.6,131z"/>
				<path class="st10" d="M38.9,98c4.9-6.3,12.3-10.5,19.3-13.8c7.4-3.5,15.1-6.2,22.8-8.8c-7.5,3.1-15,6.3-22.1,10.1
					c-4,2.1-7.9,4.5-11.7,7C44.4,94.3,41.8,96.3,38.9,98z"/>
				<path class="st10" d="M81.7,76.1c6.6,0.7,12.1,5.9,17.5,9.1c-3.1-1.6-6-3.4-9-5.1C87.5,78.6,84.6,77.4,81.7,76.1z"/>
				<path class="st10" d="M84.6,72.2c1.8-1.7,3.6-3.1,4.6-5.4C88.7,68.8,87,72.3,84.6,72.2z"/>
				<path class="st10" d="M60.5,83.5c2-2.1,4-4.2,4.7-7.2C65,78.8,63.4,83,60.5,83.5z"/>
				<path class="st10" d="M37.7,95.7c0.8-1.4,0.9-2.9,0.7-4.5C38.9,92.2,39.8,95.7,37.7,95.7z"/>
				<path class="st10" d="M32.2,93.8c-5,0.7-11.3-1.1-15.1-4.5C21.6,92.7,27,92.5,32.2,93.8z"/>
				<path class="st10" d="M58.4,85.4c1.7-2.4,5.7-0.2,7.4,1.1C63.4,85.2,61,84.8,58.4,85.4z"/>
				<path class="st10" d="M77.1,76.8c2.2-1.2,5.4-0.7,7.7,0c-1.2-0.1-2.3-0.2-3.5-0.1C79.9,76.8,78.5,77.1,77.1,76.8z"/>
				<path class="st10" d="M46.5,123.7c-0.7,3.3,1.1,6.5,2.2,9.6C47.4,131,44,126.1,46.5,123.7z"/>
				<path class="st10" d="M17.5,101.3c-1.2,2.7-6.1,2.7-8.5,2C12,103.6,15,102.7,17.5,101.3z"/>
				<path class="st10" d="M26.3,78.6c-3.4,0.9-6.9-3.6-8.9-5.7C20.1,75.1,22.8,77.6,26.3,78.6z"/>
				<path class="st10" d="M42.7,48.2c0.9-3.3,3.5-6.4,5.5-9.2c-0.8,1.5-1.7,3.1-2.5,4.6C44.8,45.2,44,46.9,42.7,48.2z"/>
				<path class="st10" d="M40.7,48.3c-2.1-2.2-3.8-5.7-4.7-8.6C37.3,42.5,40.1,45.1,40.7,48.3z"/>
				<path class="st10" d="M44.5,68.3c-2.3-3.9-2.7-9.1-2.6-13.5c0.2,2.5,0.5,4.8,1.1,7.2C43.5,64.2,44.3,66.2,44.5,68.3z"/>
				<path class="st10" d="M69.7,80.8c3.8-1.5,8,1.8,11.6,2.9c-2-0.4-3.8-1.1-5.7-1.8C73.6,81.3,71.7,81.1,69.7,80.8z"/>
				<path class="st10" d="M67.8,79.2c2.2-1.9,3.2-4.3,4.7-6.7C71.5,74.6,70.7,79,67.8,79.2z"/>
				<path class="st10" d="M75.7,66.5c-3.9,2.6-3.6-5.6-3.4-7.4c0.3-3.2,1-6.3,1.6-9.4c-0.4,3.3-1,6.6-1.1,10
					C72.7,61.8,72.2,67.5,75.7,66.5z"/>
				<path class="st10" d="M41.3,48.5c0-4.3,0.6-8.6,1-12.9c0.5-4.7,1.1-9.4,1.9-14c-0.6,4.7-1.1,9.4-1.4,14.1
					C42.6,40,42.4,44.4,41.3,48.5z"/>
				<path class="st2" d="M37.9,99.8c2.1,1.5,4.6-3.7,5.5-5c-0.2,0-0.3-0.1-0.5-0.1c1.2-2.7,5-4.3,7.5-5.8c-2.1,1.7-4.8,2.6-7.2,3.8
					c-1.3,0.7-2.7,1.4-4,2c-1.2,0.5-2.6,0.6-3.7,1.5c2.3-0.3,4,2.1,2.3,4C37.8,100.1,37.9,99.9,37.9,99.8z"/>
				<path class="st10" d="M45.3,92.3c4.4-1.9,9.3,3.5,10.6,7.2C54,95.4,49.9,92.4,45.3,92.3z"/>
				<path class="st10" d="M44.6,92.9c4.5-1.2,9.2,1.3,11.2,5.4c-1.3-2-3-3.5-5.2-4.3C48.6,93.3,46.6,93.3,44.6,92.9z"/>
				<path class="st7" d="M48,92.4c7.8,0.2,12,9.7,15.1,15.6c4,7.9,9.5,14.8,17.6,18.8c-8.3-3.7-14.1-10.5-18.3-18.4
					C59.2,102.4,55.5,94,48,92.4z"/>
				<path class="st7" d="M38.3,100.7c0.6-1.9,3.3-3.4,4.8-4.7C42,97.6,40.4,100.3,38.3,100.7z"/>
				<path class="st7" d="M48.5,92c1.6-1.9,3.9-3.1,6-4.3c2.1-1.2,4.2-2.3,6.4-3.4c-2,1.3-4,2.7-6,4C52.9,89.7,50.8,91.3,48.5,92z"/>
				<path class="st7" d="M71.3,79.8c2.3-0.2,4.7,0.6,6.9,1.4c2.3,0.8,4.6,1.7,6.9,2.6c-2.4-0.6-4.7-1.2-7.1-1.9
					C75.8,81.3,73.4,80.8,71.3,79.8z"/>
				<path class="st7" d="M69.8,78.1c0.5-2.3,2.3-4,3.1-6.1C72.8,73.8,71.8,77.5,69.8,78.1z"/>
				<path class="st7" d="M64.5,80.3c0.1-1.5,0.9-2.9,1.3-4.3c0.4-1.5,0.7-2.8,0.8-4.3C67,74.4,66.9,78.4,64.5,80.3z"/>
				<path class="st7" d="M60.6,82.1c0.8-1.5,1.9-2.8,2.6-4.3C64,76,64.4,74,64.3,72C65,75.4,64.2,80.6,60.6,82.1z"/>
				<path class="st7" d="M49.2,88c1.1-1.2,2.7-1.8,4.1-2.5c1.7-0.8,3.4-1.6,5.2-2.4C55.9,84.9,52.5,87.7,49.2,88z"/>
				<path class="st7" d="M35.9,96c-1.4-0.2-2.8-0.8-4.2-1.2c-1.4-0.4-2.8-0.7-4.2-1C29.9,93.8,34.4,93.6,35.9,96z"/>
				<path class="st2" d="M39.5,99.2c4.4,4.6,4.9,11.2,5.8,17.2c0.9,6.1,2.8,11.5,7.6,15.6c-5.1-3.9-7.2-9.3-8.3-15.5
					C43.6,110.4,42.7,104.6,39.5,99.2z"/>
				<path class="st2" d="M45.6,118.5c2,2,2.6,4.9,4.8,6.8C48.3,124.1,45.3,121.2,45.6,118.5z"/>
				<path class="st2" d="M40.1,97.8c1-3.1,4.8-5.1,7.4-6.7c2.8-1.7,5.7-3.2,8.6-4.6c-2.8,1.6-5.6,3.4-8.2,5.2
					C45.1,93.6,42.3,95.5,40.1,97.8z"/>
			</g>
		</g>
	</g>
</g>
<g id="Calque_2">
</g>
<g id="Calque_3">
</g>
<g id="Calque_4">
</g>
</svg>
