<?xml version="1.0" encoding="utf-8"?>
<!-- Generator: Adobe Illustrator 23.0.1, SVG Export Plug-In . SVG Version: 6.00 Build 0)  -->
<svg version="1.1" id="Capa_1" xmlns="http://www.w3.org/2000/svg" xmlns:xlink="http://www.w3.org/1999/xlink" x="0px" y="0px"
	 viewBox="0 0 46.2 46.2" style="enable-background:new 0 0 46.2 46.2;" xml:space="preserve">
<style type="text/css">
	.st0{fill:#538870;}
</style>
<path class="st0" d="M10.4,37.9c5.9,0,10.6-4.8,10.6-10.7s-4.8-10.7-10.7-10.7c-0.1,0-0.1,0-0.2,0c2.3-1.9,5.3-3,8.5-3
	c1.5,0,2.7-1.2,2.7-2.7s-0.9-2.7-2.4-2.7C8.3,8.3,0,16.8,0,27.3l0,0C0,33.2,4.5,37.9,10.4,37.9z M35.4,37.9
	c5.9,0,10.6-4.8,10.6-10.7s-4.8-10.7-10.7-10.7c-0.1,0-0.1,0-0.2,0c2.3-1.9,5.3-3,8.5-3c1.5,0,2.7-1.2,2.7-2.7s-1-2.7-2.4-2.7
	c-10.5,0-18.8,8.5-18.8,19l0,0C25,33.2,29.5,37.9,35.4,37.9z"/>
</svg>
