<?xml version="1.0" encoding="utf-8"?>
<!-- Generator: Adobe Illustrator 23.0.1, SVG Export Plug-In . SVG Version: 6.00 Build 0)  -->
<svg version="1.1" id="Calque_1" xmlns="http://www.w3.org/2000/svg" xmlns:xlink="http://www.w3.org/1999/xlink" x="0px" y="0px"
	 viewBox="0 0 124.4 19.5" style="enable-background:new 0 0 124.4 19.5;" xml:space="preserve">
<style type="text/css">
	.st0{fill:url(#SVGID_1_);}
</style>
<linearGradient id="SVGID_1_" gradientUnits="userSpaceOnUse" x1="62.1658" y1="0.4115" x2="62.1658" y2="19.1047">
	<stop  offset="0" style="stop-color:#FFC84B"/>
	<stop  offset="1" style="stop-color:#FF6C00"/>
</linearGradient>
<path class="st0" d="M10.2,0.8l2.5,5.9L19,7.2c0.4,0,0.6,0.6,0.3,0.9l-4.8,4.2l1.4,6.2c0.1,0.4-0.4,0.8-0.7,0.5l-5.5-3.3L4.3,19
	c-0.4,0.2-0.8-0.1-0.7-0.5L5,12.2L0.2,8C-0.2,7.8,0,7.2,0.5,7.2l6.3-0.5l2.5-5.9C9.5,0.3,10,0.3,10.2,0.8z M36.4,0.8l2.5,5.9
	l6.3,0.5c0.4,0,0.6,0.6,0.3,0.9l-4.8,4.2l1.4,6.2c0.1,0.4-0.4,0.8-0.7,0.5L36,15.7L30.5,19c-0.4,0.2-0.8-0.1-0.7-0.5l1.4-6.2L26.4,8
	c-0.3-0.3-0.2-0.8,0.3-0.9L33,6.6l2.5-5.9C35.7,0.3,36.2,0.3,36.4,0.8z M62.6,0.8l2.5,5.9l6.3,0.5c0.4,0,0.6,0.6,0.3,0.9l-4.8,4.2
	l1.4,6.2c0.1,0.4-0.4,0.8-0.7,0.5l-5.5-3.3L56.7,19c-0.4,0.2-0.8-0.1-0.7-0.5l1.4-6.2L52.6,8c-0.3-0.3-0.2-0.8,0.3-0.9l6.3-0.5
	l2.5-5.9C61.9,0.3,62.5,0.3,62.6,0.8z M88.9,0.8l2.5,5.9l6.3,0.5c0.4,0,0.6,0.6,0.3,0.9l-4.8,4.2l1.4,6.2c0.1,0.4-0.4,0.8-0.7,0.5
	l-5.5-3.3L82.9,19c-0.4,0.2-0.8-0.1-0.7-0.5l1.4-6.2L78.8,8c-0.3-0.3-0.2-0.8,0.3-0.9l6.3-0.5l2.5-5.9C88.1,0.3,88.7,0.3,88.9,0.8z
	 M115.1,0.8l2.5,5.9l6.3,0.5c0.4,0,0.6,0.6,0.3,0.9l-4.8,4.2l1.4,6.2c0.1,0.4-0.4,0.8-0.7,0.5l-5.5-3.3l-5.5,3.3
	c-0.4,0.2-0.8-0.1-0.7-0.5l1.4-6.2L105,8c-0.3-0.3-0.2-0.8,0.3-0.9l6.3-0.5l2.5-5.9C114.3,0.3,114.9,0.3,115.1,0.8z"/>
</svg>
