<?xml version="1.0" encoding="utf-8"?>
<!-- Generator: Adobe Illustrator 22.1.0, SVG Export Plug-In . SVG Version: 6.00 Build 0)  -->
<svg version="1.1" id="Layer_1" xmlns="http://www.w3.org/2000/svg" xmlns:xlink="http://www.w3.org/1999/xlink" x="0px" y="0px"
	 viewBox="0 0 109 77" style="enable-background:new 0 0 109 77;" xml:space="preserve">
<style type="text/css">
	.st0{fill:#D13296;}
</style>
<g>
	<path class="st0" d="M95.6,58.8c-2-1.6-6.4-4.8-12.2-6.7c-6.2,4.2-17.9,7.9-25.1,6.7C68.9,65.5,84.9,64.8,95.6,58.8z M9.5,59.2
		c3.9-3.8,8.7-6.8,13.8-8.8c-3.9-3.1-8.3-7.8-10.4-12.6c4.5-1.2,8.7-1.8,13.3-1.6c-2-4.3-3.1-8.4-3.7-13.1c4.6,0.6,8.8,1.7,13.1,3.7
		c-0.2-4.7,0.4-9,1.6-13.5c4.1,2.3,7.5,4.9,10.7,8.4c1.6-4.4,3.8-8.1,6.6-11.8c2.9,3.7,5,7.4,6.6,11.8c3.2-3.5,6.6-6.1,10.7-8.4
		c1.2,4.5,1.8,8.7,1.6,13.5c4.3-2,8.4-3.1,13.1-3.7c-0.6,4.6-1.7,8.8-3.7,13.1c4.7-0.2,9,0.4,13.5,1.6c-2.7,4.9-6.1,9-10.5,12.5
		c5.3,2,9.7,5,13.8,8.8c-12,7.8-26.6,9-39.7,3.1c-2.4-1.1-4.3-2.4-5.4-3.8c-1.1,1.4-3,2.7-5.4,3.8C36.4,68.1,21.1,67.1,9.5,59.2z
		 M61.3,54c4.8-2,9.5-5.9,13.1-9.5c5.1-5.1,8.1-12.3,9.3-18.5c-2.1,0.4-6.2,1.4-10.5,3.6c-0.9,8-6.1,19.1-12.3,24.5
		C61,54.1,61.1,54,61.3,54z M81.5,38.8c-4.1,7.3-12.9,15.3-20.8,17.9c5.3,0.1,11.4-1.7,16.2-3.7c7-2.9,12.4-8.6,15.7-13.5
		C90.5,39,86.4,38.4,81.5,38.8z M59.9,51.8c9-9,12.8-22.3,10.3-34.7c-1.8,1.2-5.2,3.7-8.3,7.3c0.9,3,1.4,6.1,1.4,9.1
		C63.3,39.4,62.5,46.8,59.9,51.8z M54.5,54.1c1.6,0,3.1-2.1,4.3-5.6c1.4-3.8,2.2-9.1,2.2-14.9c0-6.9-2.7-14-6.5-19.6
		C50.8,19.3,48,26.5,48,33.6c0,5.9,0.8,11.1,2.2,14.9C51.4,51.9,52.9,54.1,54.5,54.1z M49,51.8c-2.6-5.1-3.4-12.6-3.4-18.2
		c0-3.1,0.5-6.2,1.4-9.1c-3.1-3.7-6.5-6.1-8.3-7.3c-2.2,10.8,0.1,20.1,6.2,29.5l0,0l0.2,0.3l0,0l0.2,0.3l0,0l0.1,0.1l0,0l0.2,0.3
		l0,0l0.1,0.1l0,0l0.3,0.4l0,0l0.2,0.3l0,0l0.7,0.9l0,0l0.3,0.4l0,0l0.1,0.1l0,0l0.1,0.1l0,0l0.3,0.4l0,0l0.1,0.1v0l0.1,0.1l0,0
		l0.1,0.1l0,0l0.1,0.1l0,0l0.1,0.1l0,0L49,51.8z M47.6,53.7L47.6,53.7L47.6,53.7l-0.5-0.4c-5.8-5.7-10.5-15.7-11.4-23.7
		c-4.3-2.2-8.3-3.2-10.5-3.6c1.3,6.6,4.4,13.6,9.3,18.5c4.4,4.4,9.3,7.9,13.5,9.6l-0.1,0v0c0,0,0,0-0.1-0.1v0l0,0v0L47.6,53.7
		L47.6,53.7z M48.2,56.7C40.4,54.1,31.4,46,27.4,38.8c-4.8-0.4-8.9,0.3-11.1,0.7c5.2,7.9,11.3,12.3,19.7,15
		C40,55.7,43.9,56.7,48.2,56.7z M13.3,58.8c10.7,5.9,26.7,6.7,37.3,0C43,60,31.7,56.2,25.5,52.1C19.8,54,15.3,57.2,13.3,58.8z"/>
</g>
</svg>
