<?xml version="1.0" encoding="utf-8"?>
<!-- Generator: Adobe Illustrator 22.1.0, SVG Export Plug-In . SVG Version: 6.00 Build 0)  -->
<svg version="1.1" id="Layer_1" xmlns="http://www.w3.org/2000/svg" xmlns:xlink="http://www.w3.org/1999/xlink" x="0px" y="0px"
	 viewBox="0 0 50 50" style="enable-background:new 0 0 50 50;" xml:space="preserve">
<g>
	<path d="M6.7,21.7c0.1,0,0.2,0,0.2,0c0.5-0.1,0.9-0.7,0.7-1.2c-0.2-0.8-0.3-1.6-0.3-2.4c0-4.9,3.8-8.8,8.4-8.8c4.8,0,8.3,3.3,8.4,8
		c0,0.5,0.4,1,1,1c0.5,0,1-0.4,1-1c0-4.6,3.6-8,8.4-8c4.6,0,8.4,4,8.4,8.8c0,0.8-0.1,1.6-0.3,2.4c-0.1,0.5,0.2,1.1,0.7,1.2
		c0.5,0.1,1.1-0.2,1.2-0.7C44.9,20,45,19,45,18.1c0-6-4.7-10.8-10.4-10.8c-4.3,0-7.7,2.2-9.4,5.5c-1.6-3.4-5.1-5.5-9.4-5.5
		c-5.7,0-10.4,4.9-10.4,10.8c0,1,0.1,2,0.3,2.9C5.9,21.4,6.3,21.7,6.7,21.7z"/>
	<path d="M38,27.2L25.2,39.9L12.5,27.3c-0.4-0.4-1-0.4-1.4,0c-0.4,0.4-0.4,1,0,1.4L24.5,42c0.2,0.2,0.4,0.3,0.7,0.3
		c0.3,0,0.5-0.1,0.7-0.3l13.5-13.4c0.4-0.4,0.4-1,0-1.4C39,26.8,38.4,26.8,38,27.2z"/>
	<path d="M47.5,23.3L47.5,23.3L47.5,23.3C47.3,23.1,47,23,46.7,23c-0.3,0-0.6,0.1-0.8,0.3H31.4c-0.2-0.2-0.5-0.3-0.8-0.3
		c-0.7,0-1.3,0.6-1.3,1.3c0,0,0,0.1,0,0.1l-3.9,5.1l-6-12c0-0.1,0-0.2,0-0.3c0-0.7-0.6-1.3-1.3-1.3c-0.7,0-1.3,0.6-1.3,1.3
		c0,0,0,0.1,0,0.1l-4.5,6H3.7C3.5,23.1,3.2,23,2.8,23c-0.7,0-1.3,0.6-1.3,1.3c0,0.7,0.6,1.3,1.3,1.3c0.4,0,0.7-0.2,1-0.4h8.9
		c0.3,0,0.6-0.1,0.8-0.4l4.4-5.9l6,12.1c0,0.1-0.1,0.3-0.1,0.4c0,0.7,0.6,1.3,1.3,1.3c0.7,0,1.3-0.6,1.3-1.3c0-0.1,0-0.1,0-0.2
		l4.3-5.6c0.3,0,0.5-0.2,0.7-0.4h14.2c0.2,0.2,0.6,0.4,1,0.4c0.7,0,1.3-0.6,1.3-1.3C48,23.9,48,23.5,47.5,23.3z"/>
</g>
</svg>
