<?xml version="1.0" encoding="utf-8"?>
<!-- Generator: Adobe Illustrator 22.1.0, SVG Export Plug-In . SVG Version: 6.00 Build 0)  -->
<svg version="1.1" id="Layer_1" xmlns="http://www.w3.org/2000/svg" xmlns:xlink="http://www.w3.org/1999/xlink" x="0px" y="0px"
	 viewBox="0 0 50 50" style="enable-background:new 0 0 50 50;" xml:space="preserve">
<g>
	<g>
		<path d="M31.2,10.3c-0.3-0.1-0.7,0-1,0.3c-0.2,0.3-0.3,0.7-0.1,1c1.3,2.5,1.9,5.1,1.9,7.9c0,9.5-7.8,17.3-17.3,17.3
			c-1.7,0-3.4-0.2-5-0.7c-0.3-0.1-0.7,0-1,0.3c-0.2,0.3-0.3,0.7-0.1,1c3.3,6.4,9.8,10.4,17,10.4c10.5,0,19.1-8.6,19.1-19.1
			C44.8,20.3,39.2,12.7,31.2,10.3z"/>
		<path d="M11.3,20.4h7.2l-7.9,9.4c-0.2,0.3-0.3,0.7-0.1,1c0.2,0.3,0.5,0.5,0.8,0.5h9.1c0.5,0,0.9-0.4,0.9-0.9s-0.4-0.9-0.9-0.9
			h-7.2l7.9-9.4c0.2-0.3,0.3-0.6,0.1-1c-0.2-0.3-0.5-0.5-0.8-0.5h-9.1c-0.5,0-0.9,0.4-0.9,0.9S10.8,20.4,11.3,20.4z"/>
		<path d="M10.4,14.8c0-0.5-0.4-0.9-0.9-0.9H5.8l4.4-5.8c0.2-0.3,0.2-0.6,0.1-1c-0.2-0.3-0.5-0.5-0.8-0.5H4c-0.5,0-0.9,0.4-0.9,0.9
			S3.5,8.5,4,8.5h3.6l-4.4,5.8c-0.2,0.3-0.2,0.6-0.1,1s0.5,0.5,0.8,0.5h5.5C10,15.7,10.4,15.3,10.4,14.8z"/>
		<path d="M15,4.8h1.9l-2.7,4c-0.2,0.3-0.2,0.6,0,0.9c0.2,0.3,0.5,0.5,0.8,0.5h3.6c0.5,0,0.9-0.4,0.9-0.9c0-0.5-0.4-0.9-0.9-0.9
			h-1.9l2.7-4c0.2-0.3,0.2-0.6,0-0.9C19.2,3.2,18.9,3,18.6,3H15C14.4,3,14,3.4,14,3.9S14.4,4.8,15,4.8z"/>
	</g>
</g>
</svg>
