<svg xmlns="http://www.w3.org/2000/svg" width="125.05" height="129.13" viewBox="0 0 125.05 129.13"><title>headline-thai</title><g id="Layer_2" data-name="Layer 2"><g id="Layer_1-2" data-name="Layer 1"><path d="M9.45,10.77a2.69,2.69,0,0,0-2.74-3c-1.78-.06-2.85,1-2.92,3A8.21,8.21,0,0,0,4.19,13h.09a6.36,6.36,0,0,1,.92-2.84,2,2,0,0,1,1.7-.81,1.77,1.77,0,0,1,1.77,1.85,1.86,1.86,0,0,1-1.94,1.9,2.29,2.29,0,0,1-.82-.18,10,10,0,0,0-.76,3.32l-1.9-.06a7.9,7.9,0,0,0-.67-2.64,7.66,7.66,0,0,1-.7-3C2,8.1,4.06,6.76,6.81,6.85c3.37.12,4.61,1.77,4.54,4l-.19,5.65-1.9-.07Zm-3.64.66a.87.87,0,0,0,.88.83,1,1,0,0,0,1.11-1,1,1,0,0,0-.9-1A1.15,1.15,0,0,0,5.81,11.43Z" style="fill:#020202;stroke:#020202;stroke-miterlimit:3;stroke-width:2.60784701939692px"/><path d="M9.59,21.7l.05-1.65a1.29,1.29,0,0,1-.49.08,1.35,1.35,0,0,1-1.29-1.44,1.49,1.49,0,0,1,1.61-1.42A1.46,1.46,0,0,1,10.89,19l-.09,2.8ZM10,18.81c0-.38-.15-.76-.62-.78a.72.72,0,0,0-.79.71.66.66,0,0,0,.67.69,1,1,0,0,0,.66-.26A.91.91,0,0,0,10,18.81Z" style="fill:#020202;stroke:#020202;stroke-miterlimit:3;stroke-width:2.60784701939692px"/><path d="M19.62,16.75l.2-5.79c.07-2.21-1.12-2.74-2-2.77a1.81,1.81,0,0,0-1.93,1.36L18,10l-.36.84c-1.08.12-1.45.64-1.49,1.74l0,.67a1.74,1.74,0,0,1,.94-.24,1.65,1.65,0,0,1,1.55,1.93,1.9,1.9,0,0,1-2.1,1.94c-1.45-.05-2.29-1.06-2.23-3l0-1.18a2.09,2.09,0,0,1,1.58-2.16v0L14,10.11c.21-1.33,1.2-3,4-2.88,1.4,0,3.84.63,3.74,3.55l-.15,4.4a11.28,11.28,0,0,1,2.51-2l.06-2c0-.62.05-1.34.06-2.88l1.74-.65h.22L26,12.58c.13,0,.29,0,.42,0a2.09,2.09,0,0,1,2.12,2.25,2.31,2.31,0,0,1-2.43,2.35c-1.34-.05-2.18-1-2.13-2.6v-.16a9.77,9.77,0,0,0-2.47,2.4Zm-3.71-2c0,.72.25,1.22.87,1.24s.94-.48,1-1.11c0-.8-.46-1.11-.9-1.12a1,1,0,0,0-.84.35A2.47,2.47,0,0,0,15.91,14.74Zm10-1.11a6.31,6.31,0,0,0-.15,1c0,.74.13,1.53.78,1.55s.87-.71.89-1.25a1.21,1.21,0,0,0-1.09-1.33A1.91,1.91,0,0,0,25.94,13.63Z" style="fill:#020202;stroke:#020202;stroke-miterlimit:3;stroke-width:2.60784701939692px"/><path d="M29.72,10.27a2.77,2.77,0,0,1,2.83-2.94,4.15,4.15,0,0,1,1.9.62,2.67,2.67,0,0,0,1.08.4,1.3,1.3,0,0,0,1-.51l.49.73a2.2,2.2,0,0,1-1.94,1,5.35,5.35,0,0,1-1.82-.46,4.36,4.36,0,0,0-1.44-.39c-.44,0-.81.22-.82.58a1.07,1.07,0,0,0,.06.36c2.33.28,3.8.55,4.56,1.14s.73,1,.68,2.26L36.2,15a2.37,2.37,0,0,1-2.57,2.47,2,2,0,0,1-2.05-2,1.91,1.91,0,0,1,2-1.94,1.54,1.54,0,0,1,.75.18l0-1c0-1.28-.61-1.72-4.65-2.11A1.57,1.57,0,0,1,29.72,10.27Zm4,4a1.11,1.11,0,0,0-1.12,1.13,1.06,1.06,0,0,0,1,1.19c.49,0,1-.36,1-1.26a2.25,2.25,0,0,0-.09-.69A1.3,1.3,0,0,0,33.68,14.25Z" style="fill:#020202;stroke:#020202;stroke-miterlimit:3;stroke-width:2.60784701939692px"/><path d="M35.46,18.23h.11l-.08,2.48c-.06,1.81-.78,1.85-2.28,1.8l-2.36-.08.11-.69.83,0,0-1.1a1.31,1.31,0,0,1-.63.14,1.28,1.28,0,0,1-1.29-1.37A1.45,1.45,0,0,1,31.46,18a1.47,1.47,0,0,1,1.47,1.66l-.07,2.1h.22c.83,0,1.16,0,1.2-1l.07-2.15ZM32,19.52a.7.7,0,0,0-.64-.79.7.7,0,0,0-.77.72.66.66,0,0,0,.67.71.9.9,0,0,0,.66-.24A1.14,1.14,0,0,0,32,19.52Z" style="fill:#020202;stroke:#020202;stroke-miterlimit:3;stroke-width:2.60784701939692px"/><path d="M31.83,6A1.77,1.77,0,0,0,33,5.37,1.38,1.38,0,0,1,31.7,4a1.47,1.47,0,0,1,1.59-1.42,1.38,1.38,0,0,1,1.38,1.5,2.24,2.24,0,0,1-.88,1.62l0,0c1.41-.27,2-1.43,2.15-2.88l1.79.06A4.24,4.24,0,0,1,35.45,6a9.05,9.05,0,0,1-3.66.63ZM33.2,3.28a.66.66,0,0,0-.74.67.81.81,0,0,0,.82.83c.42,0,.62-.36.63-.74A.72.72,0,0,0,33.2,3.28Z" style="fill:#020202;stroke:#020202;stroke-miterlimit:3;stroke-width:2.60784701939692px"/><path d="M47,7.24a3.17,3.17,0,0,1-1.23,2,3.09,3.09,0,0,1,.77,2.22l-.21,6.16-1.9-.06.16-4.53a3.18,3.18,0,0,0-2.18-1.13,1.41,1.41,0,0,0-1.53,1.54,2.81,2.81,0,0,0,0,.56,1.79,1.79,0,0,1,.92-.22,1.66,1.66,0,0,1,1.59,1.93,1.91,1.91,0,0,1-2.12,1.94c-1.48-.05-2.38-1.06-2.31-3L39,14a2.93,2.93,0,0,1,3.3-3,4.59,4.59,0,0,1,2.32.8v-.16a2.94,2.94,0,0,0-.28-1.46c-.37.19-.75.35-1.09.5l-.55-.34v0a7.72,7.72,0,0,0,1.12-.77A2,2,0,0,0,42.5,9.1a3.93,3.93,0,0,0-2.85,1.11l-.6-.81a5.24,5.24,0,0,1,3.69-1.32,4.74,4.74,0,0,1,1.93.44,3,3,0,0,0,.47-1.35ZM40.6,15.58c0,.72.25,1.22.9,1.24a1,1,0,0,0,1-1.11,1,1,0,0,0-.94-1.12,1.1,1.1,0,0,0-.87.35A3.78,3.78,0,0,0,40.6,15.58Z" style="fill:#020202;stroke:#020202;stroke-miterlimit:3;stroke-width:2.60784701939692px"/><path d="M44.14,3l.4,0c0-.09,0-.17,0-.29A1.47,1.47,0,0,1,46.1,1.3a1.36,1.36,0,0,1,1.38,1.44,1.36,1.36,0,0,1-1,1.28,3.14,3.14,0,0,1,.71,2.15,3.59,3.59,0,0,1-.34,1.35,9.54,9.54,0,0,0-6.06-1.88A3.07,3.07,0,0,1,44.14,3Zm2.34,3.5a2.68,2.68,0,0,0-2.56-2.15A2.13,2.13,0,0,0,42.06,5,9.76,9.76,0,0,1,46.48,6.46ZM46.7,2.8A.7.7,0,0,0,46,2a.71.71,0,0,0-.74.69.73.73,0,0,0,.73.78A.72.72,0,0,0,46.7,2.8Z" style="fill:#020202;stroke:#020202;stroke-miterlimit:3;stroke-width:2.60784701939692px"/><path d="M54.85,18.1C55,16.61,55,15.58,55,15l.1-2.82C55.17,10,54,9.42,53.05,9.39a1.87,1.87,0,0,0-1.95,1.34l2.06.45L52.8,12c-.9.15-1.14.61-1.18,1.7l-.14,4.09-1.9-.06.14-3.89a1.89,1.89,0,0,1,1.43-2.05l0-.07-2-.4c.2-1.36,1.22-3,4-2.93,1.41.05,3.87.63,3.77,3.55l-.18,5.52-1.55.62Z" style="fill:#020202;stroke:#020202;stroke-miterlimit:3;stroke-width:2.60784701939692px"/><path d="M61.92,14.65a2.2,2.2,0,0,1,1-.21,1.77,1.77,0,0,1,1.74,1.94,2.06,2.06,0,0,1-2.21,2c-1.5-.06-2.51-1.07-2.45-2.93l.1-2.81c0-1.05,0-2,0-3.08l1.62-.67.35,0Zm-.24,1.58c0,.87.32,1.27,1,1.29a1.09,1.09,0,0,0,1-1.15,1,1,0,0,0-1-1.18,1.11,1.11,0,0,0-.86.35A2.17,2.17,0,0,0,61.68,16.23Z" style="fill:#020202;stroke:#020202;stroke-miterlimit:3;stroke-width:2.60784701939692px"/><path d="M74.25,13a3,3,0,0,0-.45-1.8,7.81,7.81,0,0,1-.82.33l-.55-.33v-.05a6.61,6.61,0,0,0,.83-.55,3.2,3.2,0,0,0-1.75-.6c-1.79-.06-2.85,1-2.92,3A8.69,8.69,0,0,0,69,15.21h.1A6.35,6.35,0,0,1,70,12.38a2,2,0,0,1,1.7-.81,1.77,1.77,0,0,1,1.77,1.85,1.87,1.87,0,0,1-1.94,1.9,2.32,2.32,0,0,1-.82-.19A10.07,10.07,0,0,0,70,18.46l-1.9-.06a7.84,7.84,0,0,0-.67-2.64,7.7,7.7,0,0,1-.7-3c.08-2.46,2.18-3.79,4.93-3.7a6.41,6.41,0,0,1,2.55.53,2.88,2.88,0,0,0,.52-1.41l1.81.06a3.23,3.23,0,0,1-1.26,2.08A3.63,3.63,0,0,1,76.15,13L76,18.66l-1.9-.06Zm-3.65.66a.9.9,0,0,0,.89.84,1,1,0,0,0,1.11-1,1,1,0,0,0-.9-1A1.17,1.17,0,0,0,70.6,13.63Z" style="fill:#020202;stroke:#020202;stroke-miterlimit:3;stroke-width:2.60784701939692px"/><path d="M78.06,11.92A2.78,2.78,0,0,1,80.89,9a4.15,4.15,0,0,1,1.9.63,2.69,2.69,0,0,0,1.08.39,1.29,1.29,0,0,0,1-.5l.49.73a2.22,2.22,0,0,1-1.94,1,5.23,5.23,0,0,1-1.81-.47,4.4,4.4,0,0,0-1.44-.38c-.45,0-.82.22-.83.57a1.34,1.34,0,0,0,.06.36c2.34.28,3.8.56,4.56,1.14s.73,1.05.69,2.26l-.07,1.9A2.36,2.36,0,0,1,82,19.07a2,2,0,0,1-2.06-2,1.92,1.92,0,0,1,2-1.95,1.89,1.89,0,0,1,.76.18l0-1c0-1.27-.61-1.72-4.65-2.1C78.06,12.05,78.06,12,78.06,11.92Zm4,4A1.09,1.09,0,0,0,80.91,17a1.07,1.07,0,0,0,1,1.2c.49,0,1-.37,1-1.26a2,2,0,0,0-.09-.7A1.29,1.29,0,0,0,82,15.9Z" style="fill:#020202;stroke:#020202;stroke-miterlimit:3;stroke-width:2.60784701939692px"/><path d="M80.18,7.61A1.77,1.77,0,0,0,81.33,7,1.39,1.39,0,0,1,80,5.63a1.48,1.48,0,0,1,1.59-1.42A1.37,1.37,0,0,1,83,5.71a2.26,2.26,0,0,1-.88,1.63l0,0c1.42-.26,2-1.43,2.15-2.87l1.79.06a4.19,4.19,0,0,1-2.3,3.12,9.19,9.19,0,0,1-3.66.63Zm1.36-2.69a.68.68,0,0,0-.74.67.82.82,0,0,0,.82.84c.43,0,.62-.36.63-.74A.71.71,0,0,0,81.54,4.92Z" style="fill:#020202;stroke:#020202;stroke-miterlimit:3;stroke-width:2.60784701939692px"/><path d="M90.05,19.14l.2-6c0-1.61-.77-2.29-1.78-2.32a3.11,3.11,0,0,0-2,.76L86,10.73a4.3,4.3,0,0,1,2.92-1.08A3.18,3.18,0,0,1,92.15,13l-.21,6.17Z" style="fill:#020202;stroke:#020202;stroke-miterlimit:3;stroke-width:2.60784701939692px"/><path d="M98.14,15.64a1.77,1.77,0,0,1,1.75,1.94,2,2,0,0,1-2.17,2c-1.5-.05-2.51-1.07-2.45-2.93L95.64,5.9c0-.83-.2-.88-.33-.89-.27.6-.64,1.59-1.39,3.53h-.47a26,26,0,0,0-1.16-3.44c-.17-.3-.28-.3-.57-.31l0-1.32.4,0c1,0,1,0,1.86,2.59h0c.58-1.5.8-2,1-2.5h0a2.16,2.16,0,0,1,2.38,2.51l-.34,9.76A2.26,2.26,0,0,1,98.14,15.64Zm-1.22,1.79c0,.87.32,1.27,1,1.29a1.09,1.09,0,0,0,1.05-1.15,1,1,0,0,0-1-1.18,1.1,1.1,0,0,0-.87.35A2.49,2.49,0,0,0,96.92,17.43Z" style="fill:#020202;stroke:#020202;stroke-miterlimit:3;stroke-width:2.60784701939692px"/><path d="M104.19,13.9a2.06,2.06,0,0,1-.76.11,1.85,1.85,0,0,1-1.9-1.9,2.06,2.06,0,0,1,2.23-2c.69,0,2.45.35,2.36,2.86L106,15.57a12,12,0,0,1-.15,1.61l0,0a10.94,10.94,0,0,1,3.25-3.69,1.65,1.65,0,0,1-.86-1.52,2,2,0,0,1,2.07-1.81A1.86,1.86,0,0,1,112.24,12a2.12,2.12,0,0,1-.74,1.52.73.73,0,0,1,.2.56l-.2,5.77-1.89-.07.19-5.58c-1.28.74-2.83,2.79-4,5.45L104,19.62Zm.37-1.64c0-.62-.27-1.24-.94-1.26a1.11,1.11,0,0,0,0,2.21,1.15,1.15,0,0,0,.74-.24A1.91,1.91,0,0,0,104.56,12.26Zm6.72-.29a.94.94,0,0,0-.93-.94.89.89,0,0,0-1,.9,1.27,1.27,0,0,0,1.1,1.25A1.47,1.47,0,0,0,111.28,12Z" style="fill:#020202;stroke:#020202;stroke-miterlimit:3;stroke-width:2.60784701939692px"/><path d="M116.8,16l.06-1.72a1.87,1.87,0,0,1-.84.15,1.83,1.83,0,0,1-1.86-1.88,2,2,0,0,1,2.24-2c.72,0,2.47.4,2.38,2.93l-.1,3.06a10.73,10.73,0,0,1,2.86,2l.14-4c0-.62,0-1.34,0-2.88l1.75-.65h.22l-.32,9.25-1.92-.07a7.35,7.35,0,0,0-2.8-2.51,1.3,1.3,0,0,1,0,.34,2.26,2.26,0,0,1-2.39,2.2,2.14,2.14,0,1,1,0-4.27A2.49,2.49,0,0,1,116.8,16Zm.43-3.52a1,1,0,0,0-1-1.08,1.07,1.07,0,0,0-1.13,1.05,1,1,0,0,0,1,1.13,1.27,1.27,0,0,0,.86-.3A1.85,1.85,0,0,0,117.23,12.49Zm-.75,4.45a1.26,1.26,0,0,0-1.28,1.29c0,.61.33,1,.75,1,.63,0,.94-.64,1-1.3a2.06,2.06,0,0,0-.14-1A.66.66,0,0,0,116.48,16.94Z" style="fill:#020202;stroke:#020202;stroke-miterlimit:3;stroke-width:2.60784701939692px"/><path d="M9.45,10.77a2.69,2.69,0,0,0-2.74-3c-1.78-.06-2.85,1-2.92,3A8.21,8.21,0,0,0,4.19,13h.09a6.36,6.36,0,0,1,.92-2.84,2,2,0,0,1,1.7-.81,1.77,1.77,0,0,1,1.77,1.85,1.86,1.86,0,0,1-1.94,1.9,2.29,2.29,0,0,1-.82-.18,10,10,0,0,0-.76,3.32l-1.9-.06a7.9,7.9,0,0,0-.67-2.64,7.66,7.66,0,0,1-.7-3C2,8.1,4.06,6.76,6.81,6.85c3.37.12,4.61,1.77,4.54,4l-.19,5.65-1.9-.07Zm-3.64.66a.87.87,0,0,0,.88.83,1,1,0,0,0,1.11-1,1,1,0,0,0-.9-1A1.15,1.15,0,0,0,5.81,11.43Z" style="fill:#fff"/><path d="M9.59,21.7l.05-1.65a1.29,1.29,0,0,1-.49.08,1.35,1.35,0,0,1-1.29-1.44,1.49,1.49,0,0,1,1.61-1.42A1.46,1.46,0,0,1,10.89,19l-.09,2.8ZM10,18.81c0-.38-.15-.76-.62-.78a.72.72,0,0,0-.79.71.66.66,0,0,0,.67.69,1,1,0,0,0,.66-.26A.91.91,0,0,0,10,18.81Z" style="fill:#fff"/><path d="M19.62,16.75l.2-5.79c.07-2.21-1.12-2.74-2-2.77a1.81,1.81,0,0,0-1.93,1.36L18,10l-.36.84c-1.08.12-1.45.64-1.49,1.74l0,.67a1.74,1.74,0,0,1,.94-.24,1.65,1.65,0,0,1,1.55,1.93,1.9,1.9,0,0,1-2.1,1.94c-1.45-.05-2.29-1.06-2.23-3l0-1.18a2.09,2.09,0,0,1,1.58-2.16v0L14,10.11c.21-1.33,1.2-3,4-2.88,1.4,0,3.84.63,3.74,3.55l-.15,4.4a11.28,11.28,0,0,1,2.51-2l.06-2c0-.62.05-1.34.06-2.88l1.74-.65h.22L26,12.58c.13,0,.29,0,.42,0a2.09,2.09,0,0,1,2.12,2.25,2.31,2.31,0,0,1-2.43,2.35c-1.34-.05-2.18-1-2.13-2.6v-.16a9.77,9.77,0,0,0-2.47,2.4Zm-3.71-2c0,.72.25,1.22.87,1.24s.94-.48,1-1.11c0-.8-.46-1.11-.9-1.12a1,1,0,0,0-.84.35A2.47,2.47,0,0,0,15.91,14.74Zm10-1.11a6.31,6.31,0,0,0-.15,1c0,.74.13,1.53.78,1.55s.87-.71.89-1.25a1.21,1.21,0,0,0-1.09-1.33A1.91,1.91,0,0,0,25.94,13.63Z" style="fill:#fff"/><path d="M29.72,10.27a2.77,2.77,0,0,1,2.83-2.94,4.15,4.15,0,0,1,1.9.62,2.67,2.67,0,0,0,1.08.4,1.3,1.3,0,0,0,1-.51l.49.73a2.2,2.2,0,0,1-1.94,1,5.35,5.35,0,0,1-1.82-.46,4.36,4.36,0,0,0-1.44-.39c-.44,0-.81.22-.82.58a1.07,1.07,0,0,0,.06.36c2.33.28,3.8.55,4.56,1.14s.73,1,.68,2.26L36.2,15a2.37,2.37,0,0,1-2.57,2.47,2,2,0,0,1-2.05-2,1.91,1.91,0,0,1,2-1.94,1.54,1.54,0,0,1,.75.18l0-1c0-1.28-.61-1.72-4.65-2.11A1.57,1.57,0,0,1,29.72,10.27Zm4,4a1.11,1.11,0,0,0-1.12,1.13,1.06,1.06,0,0,0,1,1.19c.49,0,1-.36,1-1.26a2.25,2.25,0,0,0-.09-.69A1.3,1.3,0,0,0,33.68,14.25Z" style="fill:#fff"/><path d="M35.46,18.23h.11l-.08,2.48c-.06,1.81-.78,1.85-2.28,1.8l-2.36-.08.11-.69.83,0,0-1.1a1.31,1.31,0,0,1-.63.14,1.28,1.28,0,0,1-1.29-1.37A1.45,1.45,0,0,1,31.46,18a1.47,1.47,0,0,1,1.47,1.66l-.07,2.1h.22c.83,0,1.16,0,1.2-1l.07-2.15ZM32,19.52a.7.7,0,0,0-.64-.79.7.7,0,0,0-.77.72.66.66,0,0,0,.67.71.9.9,0,0,0,.66-.24A1.14,1.14,0,0,0,32,19.52Z" style="fill:#fff"/><path d="M31.83,6A1.77,1.77,0,0,0,33,5.37,1.38,1.38,0,0,1,31.7,4a1.47,1.47,0,0,1,1.59-1.42,1.38,1.38,0,0,1,1.38,1.5,2.24,2.24,0,0,1-.88,1.62l0,0c1.41-.27,2-1.43,2.15-2.88l1.79.06A4.24,4.24,0,0,1,35.45,6a9.05,9.05,0,0,1-3.66.63ZM33.2,3.28a.66.66,0,0,0-.74.67.81.81,0,0,0,.82.83c.42,0,.62-.36.63-.74A.72.72,0,0,0,33.2,3.28Z" style="fill:#fff"/><path d="M47,7.24a3.17,3.17,0,0,1-1.23,2,3.09,3.09,0,0,1,.77,2.22l-.21,6.16-1.9-.06.16-4.53a3.18,3.18,0,0,0-2.18-1.13,1.41,1.41,0,0,0-1.53,1.54,2.81,2.81,0,0,0,0,.56,1.79,1.79,0,0,1,.92-.22,1.66,1.66,0,0,1,1.59,1.93,1.91,1.91,0,0,1-2.12,1.94c-1.48-.05-2.38-1.06-2.31-3L39,14a2.93,2.93,0,0,1,3.3-3,4.59,4.59,0,0,1,2.32.8v-.16a2.94,2.94,0,0,0-.28-1.46c-.37.19-.75.35-1.09.5l-.55-.34v0a7.72,7.72,0,0,0,1.12-.77A2,2,0,0,0,42.5,9.1a3.93,3.93,0,0,0-2.85,1.11l-.6-.81a5.24,5.24,0,0,1,3.69-1.32,4.74,4.74,0,0,1,1.93.44,3,3,0,0,0,.47-1.35ZM40.6,15.58c0,.72.25,1.22.9,1.24a1,1,0,0,0,1-1.11,1,1,0,0,0-.94-1.12,1.1,1.1,0,0,0-.87.35A3.78,3.78,0,0,0,40.6,15.58Z" style="fill:#fff"/><path d="M44.14,3l.4,0c0-.09,0-.17,0-.29A1.47,1.47,0,0,1,46.1,1.3a1.36,1.36,0,0,1,1.38,1.44,1.36,1.36,0,0,1-1,1.28,3.14,3.14,0,0,1,.71,2.15,3.59,3.59,0,0,1-.34,1.35,9.54,9.54,0,0,0-6.06-1.88A3.07,3.07,0,0,1,44.14,3Zm2.34,3.5a2.68,2.68,0,0,0-2.56-2.15A2.13,2.13,0,0,0,42.06,5,9.76,9.76,0,0,1,46.48,6.46ZM46.7,2.8A.7.7,0,0,0,46,2a.71.71,0,0,0-.74.69.73.73,0,0,0,.73.78A.72.72,0,0,0,46.7,2.8Z" style="fill:#fff"/><path d="M54.85,18.1C55,16.61,55,15.58,55,15l.1-2.82C55.17,10,54,9.42,53.05,9.39a1.87,1.87,0,0,0-1.95,1.34l2.06.45L52.8,12c-.9.15-1.14.61-1.18,1.7l-.14,4.09-1.9-.06.14-3.89a1.89,1.89,0,0,1,1.43-2.05l0-.07-2-.4c.2-1.36,1.22-3,4-2.93,1.41.05,3.87.63,3.77,3.55l-.18,5.52-1.55.62Z" style="fill:#fff"/><path d="M61.92,14.65a2.2,2.2,0,0,1,1-.21,1.77,1.77,0,0,1,1.74,1.94,2.06,2.06,0,0,1-2.21,2c-1.5-.06-2.51-1.07-2.45-2.93l.1-2.81c0-1.05,0-2,0-3.08l1.62-.67.35,0Zm-.24,1.58c0,.87.32,1.27,1,1.29a1.09,1.09,0,0,0,1-1.15,1,1,0,0,0-1-1.18,1.11,1.11,0,0,0-.86.35A2.17,2.17,0,0,0,61.68,16.23Z" style="fill:#fff"/><path d="M74.25,13a3,3,0,0,0-.45-1.8,7.81,7.81,0,0,1-.82.33l-.55-.33v-.05a6.61,6.61,0,0,0,.83-.55,3.2,3.2,0,0,0-1.75-.6c-1.79-.06-2.85,1-2.92,3A8.69,8.69,0,0,0,69,15.21h.1A6.35,6.35,0,0,1,70,12.38a2,2,0,0,1,1.7-.81,1.77,1.77,0,0,1,1.77,1.85,1.87,1.87,0,0,1-1.94,1.9,2.32,2.32,0,0,1-.82-.19A10.07,10.07,0,0,0,70,18.46l-1.9-.06a7.84,7.84,0,0,0-.67-2.64,7.7,7.7,0,0,1-.7-3c.08-2.46,2.18-3.79,4.93-3.7a6.41,6.41,0,0,1,2.55.53,2.88,2.88,0,0,0,.52-1.41l1.81.06a3.23,3.23,0,0,1-1.26,2.08A3.63,3.63,0,0,1,76.15,13L76,18.66l-1.9-.06Zm-3.65.66a.9.9,0,0,0,.89.84,1,1,0,0,0,1.11-1,1,1,0,0,0-.9-1A1.17,1.17,0,0,0,70.6,13.63Z" style="fill:#fff"/><path d="M78.06,11.92A2.78,2.78,0,0,1,80.89,9a4.15,4.15,0,0,1,1.9.63,2.69,2.69,0,0,0,1.08.39,1.29,1.29,0,0,0,1-.5l.49.73a2.22,2.22,0,0,1-1.94,1,5.23,5.23,0,0,1-1.81-.47,4.4,4.4,0,0,0-1.44-.38c-.45,0-.82.22-.83.57a1.34,1.34,0,0,0,.06.36c2.34.28,3.8.56,4.56,1.14s.73,1.05.69,2.26l-.07,1.9A2.36,2.36,0,0,1,82,19.07a2,2,0,0,1-2.06-2,1.92,1.92,0,0,1,2-1.95,1.89,1.89,0,0,1,.76.18l0-1c0-1.27-.61-1.72-4.65-2.1C78.06,12.05,78.06,12,78.06,11.92Zm4,4A1.09,1.09,0,0,0,80.91,17a1.07,1.07,0,0,0,1,1.2c.49,0,1-.37,1-1.26a2,2,0,0,0-.09-.7A1.29,1.29,0,0,0,82,15.9Z" style="fill:#fff"/><path d="M80.18,7.61A1.77,1.77,0,0,0,81.33,7,1.39,1.39,0,0,1,80,5.63a1.48,1.48,0,0,1,1.59-1.42A1.37,1.37,0,0,1,83,5.71a2.26,2.26,0,0,1-.88,1.63l0,0c1.42-.26,2-1.43,2.15-2.87l1.79.06a4.19,4.19,0,0,1-2.3,3.12,9.19,9.19,0,0,1-3.66.63Zm1.36-2.69a.68.68,0,0,0-.74.67.82.82,0,0,0,.82.84c.43,0,.62-.36.63-.74A.71.71,0,0,0,81.54,4.92Z" style="fill:#fff"/><path d="M90.05,19.14l.2-6c0-1.61-.77-2.29-1.78-2.32a3.11,3.11,0,0,0-2,.76L86,10.73a4.3,4.3,0,0,1,2.92-1.08A3.18,3.18,0,0,1,92.15,13l-.21,6.17Z" style="fill:#fff"/><path d="M98.14,15.64a1.77,1.77,0,0,1,1.75,1.94,2,2,0,0,1-2.17,2c-1.5-.05-2.51-1.07-2.45-2.93L95.64,5.9c0-.83-.2-.88-.33-.89-.27.6-.64,1.59-1.39,3.53h-.47a26,26,0,0,0-1.16-3.44c-.17-.3-.28-.3-.57-.31l0-1.32.4,0c1,0,1,0,1.86,2.59h0c.58-1.5.8-2,1-2.5h0a2.16,2.16,0,0,1,2.38,2.51l-.34,9.76A2.26,2.26,0,0,1,98.14,15.64Zm-1.22,1.79c0,.87.32,1.27,1,1.29a1.09,1.09,0,0,0,1.05-1.15,1,1,0,0,0-1-1.18,1.1,1.1,0,0,0-.87.35A2.49,2.49,0,0,0,96.92,17.43Z" style="fill:#fff"/><path d="M104.19,13.9a2.06,2.06,0,0,1-.76.11,1.85,1.85,0,0,1-1.9-1.9,2.06,2.06,0,0,1,2.23-2c.69,0,2.45.35,2.36,2.86L106,15.57a12,12,0,0,1-.15,1.61l0,0a10.94,10.94,0,0,1,3.25-3.69,1.65,1.65,0,0,1-.86-1.52,2,2,0,0,1,2.07-1.81A1.86,1.86,0,0,1,112.24,12a2.12,2.12,0,0,1-.74,1.52.73.73,0,0,1,.2.56l-.2,5.77-1.89-.07.19-5.58c-1.28.74-2.83,2.79-4,5.45L104,19.62Zm.37-1.64c0-.62-.27-1.24-.94-1.26a1.11,1.11,0,0,0,0,2.21,1.15,1.15,0,0,0,.74-.24A1.91,1.91,0,0,0,104.56,12.26Zm6.72-.29a.94.94,0,0,0-.93-.94.89.89,0,0,0-1,.9,1.27,1.27,0,0,0,1.1,1.25A1.47,1.47,0,0,0,111.28,12Z" style="fill:#fff"/><path d="M116.8,16l.06-1.72a1.87,1.87,0,0,1-.84.15,1.83,1.83,0,0,1-1.86-1.88,2,2,0,0,1,2.24-2c.72,0,2.47.4,2.38,2.93l-.1,3.06a10.73,10.73,0,0,1,2.86,2l.14-4c0-.62,0-1.34,0-2.88l1.75-.65h.22l-.32,9.25-1.92-.07a7.35,7.35,0,0,0-2.8-2.51,1.3,1.3,0,0,1,0,.34,2.26,2.26,0,0,1-2.39,2.2,2.14,2.14,0,1,1,0-4.27A2.49,2.49,0,0,1,116.8,16Zm.43-3.52a1,1,0,0,0-1-1.08,1.07,1.07,0,0,0-1.13,1.05,1,1,0,0,0,1,1.13,1.27,1.27,0,0,0,.86-.3A1.85,1.85,0,0,0,117.23,12.49Zm-.75,4.45a1.26,1.26,0,0,0-1.28,1.29c0,.61.33,1,.75,1,.63,0,.94-.64,1-1.3a2.06,2.06,0,0,0-.14-1A.66.66,0,0,0,116.48,16.94Z" style="fill:#fff"/><path d="M5.67,33.93a3.21,3.21,0,0,1-1,.2,2.55,2.55,0,0,1-2.74-2.49A2.83,2.83,0,0,1,4.82,28.8c.95,0,3.39.32,3.44,3.76l.05,3.54a16.29,16.29,0,0,1-.09,2.22l.07,0a14.74,14.74,0,0,1,4.22-5.3,2.3,2.3,0,0,1-1.29-2A2.73,2.73,0,0,1,14,28.38,2.56,2.56,0,0,1,16.6,30.8a2.83,2.83,0,0,1-.92,2.14,1,1,0,0,1,.32.77l.12,7.93-2.61,0L13.39,34c-1.71,1.11-3.69,4-5.17,7.78l-2.43,0Zm.39-2.29c0-.86-.45-1.68-1.38-1.67A1.53,1.53,0,0,0,4.85,33a1.61,1.61,0,0,0,1-.39A2.57,2.57,0,0,0,6.06,31.64Zm9.22-.85a1.3,1.3,0,0,0-1.34-1.24,1.24,1.24,0,0,0-1.31,1.32,1.76,1.76,0,0,0,1.6,1.63A2,2,0,0,0,15.28,30.79Z" style="stroke:#000;stroke-miterlimit:3;stroke-width:3.7499915052230524px"/><path d="M19.53,22.94a5.4,5.4,0,0,1-5.41,4.43c-1.81,0-3.7-.72-3.73-2.56a2.07,2.07,0,0,1,2.12-2.13,2,2,0,0,1,1.29,3.58v.06c1.78.13,2.91-1,3.24-3.34ZM12.5,26a1.35,1.35,0,0,0,1-1.37,1,1,0,0,0-1-1,1,1,0,0,0-1.07,1.1A1.39,1.39,0,0,0,12.5,26Z" style="stroke:#000;stroke-miterlimit:3;stroke-width:3.7499915052230524px"/><path d="M22.87,33.69a3.82,3.82,0,0,1-1.14.21A2.47,2.47,0,0,1,19,31.41a2.76,2.76,0,0,1,2.85-2.87c2.07,0,3.53,1.21,3.57,4l.11,6.67a12.78,12.78,0,0,1,4-3.07l0-2.53c0-.86,0-1.84-.12-4l2.35-1h.31l.1,6.71c.19,0,.4,0,.59,0a2.87,2.87,0,0,1,3.06,2.94,3.19,3.19,0,0,1-3.18,3.4c-1.85,0-3.06-1.15-3.1-3.43,0-.12,0-.22,0-.55A12.11,12.11,0,0,0,25.6,41.5l-2.61,0Zm.3-2.28c0-1.2-.55-1.71-1.38-1.7a1.45,1.45,0,0,0-1.36,1.62,1.41,1.41,0,0,0,1.5,1.49A1.6,1.6,0,0,0,23,32.4,3.43,3.43,0,0,0,23.17,31.41Zm9,5.4A7.11,7.11,0,0,0,32,38.2c0,1,.28,2.09,1.17,2.08s1.16-1,1.15-1.78a1.68,1.68,0,0,0-1.6-1.76A2.83,2.83,0,0,0,32.15,36.81Z" style="stroke:#000;stroke-miterlimit:3;stroke-width:3.7499915052230524px"/><path d="M49.84,28.39,50,38a3.34,3.34,0,0,1-3.54,3.47,3.24,3.24,0,0,1-3.5-3.3l-.1-6.34c0-1.48-.53-2.45-1.88-2.43a2,2,0,0,0-2,1.32,2.31,2.31,0,0,1,.92-.2,2.09,2.09,0,0,1,2.12,2.21,2.31,2.31,0,0,1-2.3,2.35,2.64,2.64,0,0,1-2.66-2.89c0-2.46,1.91-3.9,4.28-3.94,2.09,0,4,1.17,4,3.48l.11,7.14c0,.73.18,1.41,1,1.4s.94-.79.93-1.46l-.08-5.42c0-.86,0-1.84-.12-4l2.29-1ZM38.57,32.56A1.34,1.34,0,0,0,39.86,34,1.18,1.18,0,0,0,41,32.74a1.21,1.21,0,0,0-1.28-1.24,1.76,1.76,0,0,0-1,.35A2,2,0,0,0,38.57,32.56Z" style="stroke:#000;stroke-miterlimit:3;stroke-width:3.7499915052230524px"/><path d="M53.53,30.12A7.64,7.64,0,0,1,58.66,28c2.71-.05,5.28,1.3,5.33,4.44l.07,4.34c0,3.54-2.12,4.46-5.13,4.51S54,40.05,54,37.53l0-2.37a3.36,3.36,0,0,1,3.33-3.72A2.48,2.48,0,0,1,60,33.9a2.4,2.4,0,0,1-2.29,2.74,3.29,3.29,0,0,1-1.18-.2l0,1.23a2.14,2.14,0,0,0,2.5,2.4c1.63,0,2.45-.72,2.43-2.47l-.08-4.83c0-2-1.06-3.37-3-3.34a5.68,5.68,0,0,0-4,1.75Zm3.9,5.57a1.37,1.37,0,0,0,1.33-1.53c0-.92-.46-1.62-1.38-1.61s-1.13.79-1.11,1.65a2.86,2.86,0,0,0,.23,1.16A1.42,1.42,0,0,0,57.43,35.69Z" style="stroke:#000;stroke-miterlimit:3;stroke-width:3.7499915052230524px"/><path d="M72.53,33.09a2.56,2.56,0,0,1-2.75-2.48,2.84,2.84,0,0,1,2.94-2.85c1,0,3.4.32,3.45,3.77l.09,6c0,2.39-.14,3.2-2.14,3.23l-1.78,0a31.61,31.61,0,0,0-6.78-6.94l.84-1.27a29.93,29.93,0,0,1,6.72,6.66c.49,0,.55-.22.53-1.33l-.08-5A3.1,3.1,0,0,1,72.53,33.09ZM74,30.6c0-.86-.46-1.68-1.38-1.67A1.53,1.53,0,0,0,72.76,32a1.64,1.64,0,0,0,1-.39A2.77,2.77,0,0,0,74,30.6Z" style="stroke:#000;stroke-miterlimit:3;stroke-width:3.7499915052230524px"/><path d="M90.31,32.75a3.71,3.71,0,0,0-4-3.94c-2.46,0-3.85,1.57-3.81,4.34a11.12,11.12,0,0,0,.7,3h.12a8.76,8.76,0,0,1,1.08-4A2.81,2.81,0,0,1,86.71,31a2.46,2.46,0,0,1,2.57,2.43,2.57,2.57,0,0,1-2.55,2.74A3.14,3.14,0,0,1,85.59,36a13.84,13.84,0,0,0-.82,4.62l-2.62,0a10.9,10.9,0,0,0-1.1-3.58A10.88,10.88,0,0,1,79.88,33c0-3.39,2.75-5.37,6.54-5.43,4.64-.07,6.46,2.12,6.51,5.13l.12,7.79-2.62,0Zm-5,1.16A1.23,1.23,0,0,0,86.62,35a1.42,1.42,0,0,0,1.46-1.5,1.33,1.33,0,0,0-1.32-1.37A1.59,1.59,0,0,0,85.34,33.91Z" style="stroke:#000;stroke-miterlimit:3;stroke-width:3.7499915052230524px"/><path d="M91.25,47.79l0-2.28a1.72,1.72,0,0,1-.68.14,1.85,1.85,0,0,1-1.87-1.88,2.06,2.06,0,0,1,2.12-2.07,2,2,0,0,1,2.06,2.22l.06,3.84Zm.34-4c0-.52-.26-1-.91-1a1,1,0,0,0-1,1,.91.91,0,0,0,1,.91,1.27,1.27,0,0,0,.88-.41A1.24,1.24,0,0,0,91.59,43.78Z" style="stroke:#000;stroke-miterlimit:3;stroke-width:3.7499915052230524px"/><path d="M104.71,40.29l-.12-8c0-3.05-1.72-3.7-3-3.68a2.49,2.49,0,0,0-2.56,2l2.93.42-.44,1.17c-1.47.24-2,1-1.93,2.5v.92a2.5,2.5,0,0,1,1.29-.39c1.41,0,2.23,1,2.25,2.55a2.61,2.61,0,0,1-2.75,2.81c-2,0-3.23-1.3-3.27-4l0-1.63a2.87,2.87,0,0,1,2-3.08v-.06l-2.68-.36c.19-1.85,1.44-4.17,5.32-4.23,1.94,0,5.33.59,5.4,4.62l.09,6.06a15.24,15.24,0,0,1,3.31-2.88l0-2.7c0-.87,0-1.85-.12-4l2.35-1h.31l.1,6.71c.18,0,.4,0,.58,0A2.86,2.86,0,0,1,116.84,37a3.18,3.18,0,0,1-3.17,3.4c-1.85,0-3.07-1.15-3.1-3.43v-.22a13.53,13.53,0,0,0-3.24,3.47Zm-5.24-2.5c0,1,.42,1.65,1.29,1.64S102,38.7,102,37.84c0-1.11-.7-1.5-1.31-1.49a1.45,1.45,0,0,0-1.13.54A4.07,4.07,0,0,0,99.47,37.79Zm13.72-2.22a7.21,7.21,0,0,0-.13,1.39c0,1,.28,2.09,1.17,2.08s1.15-1,1.14-1.78a1.67,1.67,0,0,0-1.59-1.76A3.92,3.92,0,0,0,113.19,35.57Z" style="stroke:#000;stroke-miterlimit:3;stroke-width:3.7499915052230524px"/><path d="M5.67,33.93a3.21,3.21,0,0,1-1,.2,2.55,2.55,0,0,1-2.74-2.49A2.83,2.83,0,0,1,4.82,28.8c.95,0,3.39.32,3.44,3.76l.05,3.54a16.29,16.29,0,0,1-.09,2.22l.07,0a14.74,14.74,0,0,1,4.22-5.3,2.3,2.3,0,0,1-1.29-2A2.73,2.73,0,0,1,14,28.38,2.56,2.56,0,0,1,16.6,30.8a2.83,2.83,0,0,1-.92,2.14,1,1,0,0,1,.32.77l.12,7.93-2.61,0L13.39,34c-1.71,1.11-3.69,4-5.17,7.78l-2.43,0Zm.39-2.29c0-.86-.45-1.68-1.38-1.67A1.53,1.53,0,0,0,4.85,33a1.61,1.61,0,0,0,1-.39A2.57,2.57,0,0,0,6.06,31.64Zm9.22-.85a1.3,1.3,0,0,0-1.34-1.24,1.24,1.24,0,0,0-1.31,1.32,1.76,1.76,0,0,0,1.6,1.63A2,2,0,0,0,15.28,30.79Z" style="fill:#fff"/><path d="M19.53,22.94a5.4,5.4,0,0,1-5.41,4.43c-1.81,0-3.7-.72-3.73-2.56a2.07,2.07,0,0,1,2.12-2.13,2,2,0,0,1,1.29,3.58v.06c1.78.13,2.91-1,3.24-3.34ZM12.5,26a1.35,1.35,0,0,0,1-1.37,1,1,0,0,0-1-1,1,1,0,0,0-1.07,1.1A1.39,1.39,0,0,0,12.5,26Z" style="fill:#fff"/><path d="M22.87,33.69a3.82,3.82,0,0,1-1.14.21A2.47,2.47,0,0,1,19,31.41a2.76,2.76,0,0,1,2.85-2.87c2.07,0,3.53,1.21,3.57,4l.11,6.67a12.78,12.78,0,0,1,4-3.07l0-2.53c0-.86,0-1.84-.12-4l2.35-1h.31l.1,6.71c.19,0,.4,0,.59,0a2.87,2.87,0,0,1,3.06,2.94,3.19,3.19,0,0,1-3.18,3.4c-1.85,0-3.06-1.15-3.1-3.43,0-.12,0-.22,0-.55A12.11,12.11,0,0,0,25.6,41.5l-2.61,0Zm.3-2.28c0-1.2-.55-1.71-1.38-1.7a1.45,1.45,0,0,0-1.36,1.62,1.41,1.41,0,0,0,1.5,1.49A1.6,1.6,0,0,0,23,32.4,3.43,3.43,0,0,0,23.17,31.41Zm9,5.4A7.11,7.11,0,0,0,32,38.2c0,1,.28,2.09,1.17,2.08s1.16-1,1.15-1.78a1.68,1.68,0,0,0-1.6-1.76A2.83,2.83,0,0,0,32.15,36.81Z" style="fill:#fff"/><path d="M49.84,28.39,50,38a3.34,3.34,0,0,1-3.54,3.47,3.24,3.24,0,0,1-3.5-3.3l-.1-6.34c0-1.48-.53-2.45-1.88-2.43a2,2,0,0,0-2,1.32,2.31,2.31,0,0,1,.92-.2,2.09,2.09,0,0,1,2.12,2.21,2.31,2.31,0,0,1-2.3,2.35,2.64,2.64,0,0,1-2.66-2.89c0-2.46,1.91-3.9,4.28-3.94,2.09,0,4,1.17,4,3.48l.11,7.14c0,.73.18,1.41,1,1.4s.94-.79.93-1.46l-.08-5.42c0-.86,0-1.84-.12-4l2.29-1ZM38.57,32.56A1.34,1.34,0,0,0,39.86,34,1.18,1.18,0,0,0,41,32.74a1.21,1.21,0,0,0-1.28-1.24,1.76,1.76,0,0,0-1,.35A2,2,0,0,0,38.57,32.56Z" style="fill:#fff"/><path d="M53.53,30.12A7.64,7.64,0,0,1,58.66,28c2.71-.05,5.28,1.3,5.33,4.44l.07,4.34c0,3.54-2.12,4.46-5.13,4.51S54,40.05,54,37.53l0-2.37a3.36,3.36,0,0,1,3.33-3.72A2.48,2.48,0,0,1,60,33.9a2.4,2.4,0,0,1-2.29,2.74,3.29,3.29,0,0,1-1.18-.2l0,1.23a2.14,2.14,0,0,0,2.5,2.4c1.63,0,2.45-.72,2.43-2.47l-.08-4.83c0-2-1.06-3.37-3-3.34a5.68,5.68,0,0,0-4,1.75Zm3.9,5.57a1.37,1.37,0,0,0,1.33-1.53c0-.92-.46-1.62-1.38-1.61s-1.13.79-1.11,1.65a2.86,2.86,0,0,0,.23,1.16A1.42,1.42,0,0,0,57.43,35.69Z" style="fill:#fff"/><path d="M72.53,33.09a2.56,2.56,0,0,1-2.75-2.48,2.84,2.84,0,0,1,2.94-2.85c1,0,3.4.32,3.45,3.77l.09,6c0,2.39-.14,3.2-2.14,3.23l-1.78,0a31.61,31.61,0,0,0-6.78-6.94l.84-1.27a29.93,29.93,0,0,1,6.72,6.66c.49,0,.55-.22.53-1.33l-.08-5A3.1,3.1,0,0,1,72.53,33.09ZM74,30.6c0-.86-.46-1.68-1.38-1.67A1.53,1.53,0,0,0,72.76,32a1.64,1.64,0,0,0,1-.39A2.77,2.77,0,0,0,74,30.6Z" style="fill:#fff"/><path d="M90.31,32.75a3.71,3.71,0,0,0-4-3.94c-2.46,0-3.85,1.57-3.81,4.34a11.12,11.12,0,0,0,.7,3h.12a8.76,8.76,0,0,1,1.08-4A2.81,2.81,0,0,1,86.71,31a2.46,2.46,0,0,1,2.57,2.43,2.57,2.57,0,0,1-2.55,2.74A3.14,3.14,0,0,1,85.59,36a13.84,13.84,0,0,0-.82,4.62l-2.62,0a10.9,10.9,0,0,0-1.1-3.58A10.88,10.88,0,0,1,79.88,33c0-3.39,2.75-5.37,6.54-5.43,4.64-.07,6.46,2.12,6.51,5.13l.12,7.79-2.62,0Zm-5,1.16A1.23,1.23,0,0,0,86.62,35a1.42,1.42,0,0,0,1.46-1.5,1.33,1.33,0,0,0-1.32-1.37A1.59,1.59,0,0,0,85.34,33.91Z" style="fill:#fff"/><path d="M91.25,47.79l0-2.28a1.72,1.72,0,0,1-.68.14,1.85,1.85,0,0,1-1.87-1.88,2.06,2.06,0,0,1,2.12-2.07,2,2,0,0,1,2.06,2.22l.06,3.84Zm.34-4c0-.52-.26-1-.91-1a1,1,0,0,0-1,1,.91.91,0,0,0,1,.91,1.27,1.27,0,0,0,.88-.41A1.24,1.24,0,0,0,91.59,43.78Z" style="fill:#fff"/><path d="M104.71,40.29l-.12-8c0-3.05-1.72-3.7-3-3.68a2.49,2.49,0,0,0-2.56,2l2.93.42-.44,1.17c-1.47.24-2,1-1.93,2.5v.92a2.5,2.5,0,0,1,1.29-.39c1.41,0,2.23,1,2.25,2.55a2.61,2.61,0,0,1-2.75,2.81c-2,0-3.23-1.3-3.27-4l0-1.63a2.87,2.87,0,0,1,2-3.08v-.06l-2.68-.36c.19-1.85,1.44-4.17,5.32-4.23,1.94,0,5.33.59,5.4,4.62l.09,6.06a15.24,15.24,0,0,1,3.31-2.88l0-2.7c0-.87,0-1.85-.12-4l2.35-1h.31l.1,6.71c.18,0,.4,0,.58,0A2.86,2.86,0,0,1,116.84,37a3.18,3.18,0,0,1-3.17,3.4c-1.85,0-3.07-1.15-3.1-3.43v-.22a13.53,13.53,0,0,0-3.24,3.47Zm-5.24-2.5c0,1,.42,1.65,1.29,1.64S102,38.7,102,37.84c0-1.11-.7-1.5-1.31-1.49a1.45,1.45,0,0,0-1.13.54A4.07,4.07,0,0,0,99.47,37.79Zm13.72-2.22a7.21,7.21,0,0,0-.13,1.39c0,1,.28,2.09,1.17,2.08s1.15-1,1.14-1.78a1.67,1.67,0,0,0-1.59-1.76A3.92,3.92,0,0,0,113.19,35.57Z" style="fill:#fff"/><path d="M13.42,52.12l-.1,8.63a3,3,0,0,1-3.27,3A2.91,2.91,0,0,1,7,60.73L7.05,55c0-1.33-.42-2.22-1.63-2.23a1.8,1.8,0,0,0-1.79,1.14,2.08,2.08,0,0,1,.84-.15,1.87,1.87,0,0,1,1.85,2A2.07,2.07,0,0,1,4.2,57.88a2.36,2.36,0,0,1-2.32-2.66c0-2.21,1.81-3.46,3.94-3.44,1.88,0,3.55,1.15,3.53,3.22l-.08,6.42c0,.66.13,1.27.88,1.28S11,62,11,61.41l.05-4.87c0-.77,0-1.66,0-3.56l2.08-.87ZM3.2,55.6a1.19,1.19,0,0,0,1.12,1.34,1.07,1.07,0,0,0,1-1.12,1.09,1.09,0,0,0-1.12-1.15,1.59,1.59,0,0,0-.92.29A1.65,1.65,0,0,0,3.2,55.6Z" style="stroke:#000;stroke-miterlimit:3;stroke-width:2.5286875376010016px"/><path d="M19.74,58.64l0-2.13a2.4,2.4,0,0,1-3.38-2.06,2.52,2.52,0,0,1,2.72-2.52c.88,0,3.06.43,3,3.55l-.05,3.79a13.36,13.36,0,0,1,3.6,2.45l.06-5c0-.77,0-1.66,0-3.57l2.14-.86h.28L28,63.74l-2.38,0a9.08,9.08,0,0,0-3.54-3,2,2,0,0,1,0,.42,2.82,2.82,0,0,1-2.91,2.79,2.65,2.65,0,1,1-.05-5.29A3.77,3.77,0,0,1,19.74,58.64Zm.44-4.37A1.2,1.2,0,0,0,19,53,1.32,1.32,0,0,0,17.6,54.3a1.27,1.27,0,0,0,1.32,1.37,1.62,1.62,0,0,0,1-.41A2.36,2.36,0,0,0,20.18,54.27Zm-.82,5.52a1.56,1.56,0,0,0-1.54,1.65c0,.74.43,1.22,1,1.22.77,0,1.14-.81,1.15-1.64a2.37,2.37,0,0,0-.21-1.17A1.18,1.18,0,0,0,19.36,59.79Z" style="stroke:#000;stroke-miterlimit:3;stroke-width:2.5286875376010016px"/><path d="M30.06,53.86a6.32,6.32,0,0,1,4.45-1.75c2.43,0,4.77,1.3,4.73,4.12L39.19,61a2.93,2.93,0,0,1-3.11,3.12,2.44,2.44,0,0,1-2.6-2.44,2.39,2.39,0,0,1,2.44-2.46,2.12,2.12,0,0,1,.94.2l0-2.9c0-1.82-.93-3.08-2.65-3.1a4.74,4.74,0,0,0-3.42,1.45Zm6,6.29a1.35,1.35,0,0,0-1.35,1.42A1.33,1.33,0,0,0,36,63c.61,0,1.2-.49,1.21-1.59a3,3,0,0,0-.13-.86A1.61,1.61,0,0,0,36.05,60.15Z" style="stroke:#000;stroke-miterlimit:3;stroke-width:2.5286875376010016px"/><path d="M54,64l-2.35,0,.08-7a3.38,3.38,0,0,0-3.58-3.64c-2.41,0-3.59,1.26-3.61,3.47a7.23,7.23,0,0,0,.58,2.53c.29.83.67,1.75,1,2.77h.08a8.91,8.91,0,0,1,1.61-2.33A2.09,2.09,0,0,1,46,57.75a2.19,2.19,0,0,1,2.37-2.16A2.28,2.28,0,0,1,50.73,58a5.44,5.44,0,0,1-1.64,3.16,12.43,12.43,0,0,0-2,2.83l-2.49,0a10.81,10.81,0,0,0-1.3-3.12A7.52,7.52,0,0,1,42.2,57c0-3,2.62-4.75,6.08-4.71,4.23,0,5.87,2.06,5.84,4.77Zm-4.52-6.41a1.14,1.14,0,0,0-1.15-1.12,1.21,1.21,0,0,0-1.28,1.18,1.38,1.38,0,0,0,1.47,1.37A2.09,2.09,0,0,0,49.52,57.62Z" style="stroke:#000;stroke-miterlimit:3;stroke-width:2.5286875376010016px"/><path d="M66.76,57.21a3.33,3.33,0,0,0-3.47-3.64c-2.21,0-3.5,1.32-3.53,3.81a10,10,0,0,0,.55,2.74h.11a7.91,7.91,0,0,1,1.07-3.52,2.49,2.49,0,0,1,2.08-1.06,2.21,2.21,0,0,1,2.25,2.24,2.32,2.32,0,0,1-2.36,2.41,3,3,0,0,1-1-.21,12.69,12.69,0,0,0-.85,4.14l-2.35,0a9.76,9.76,0,0,0-.9-3.24,9.6,9.6,0,0,1-1-3.69c0-3,2.6-4.76,6-4.72,4.17.05,5.76,2.06,5.72,4.77l-.07,7-2.36,0Zm-4.49.92a1.1,1.1,0,0,0,1.12,1,1.29,1.29,0,0,0,1.35-1.32,1.2,1.2,0,0,0-1.15-1.26A1.44,1.44,0,0,0,62.27,58.13Z" style="stroke:#000;stroke-miterlimit:3;stroke-width:2.5286875376010016px"/><path d="M65.92,46.08A3.77,3.77,0,0,1,69.84,50a4.51,4.51,0,0,1-.38,1.68,11.83,11.83,0,0,0-7.56-2.16A3.79,3.79,0,0,1,65.92,46.08Zm3,4.27a3.3,3.3,0,0,0-3.24-2.59,2.64,2.64,0,0,0-2.28,1A12.17,12.17,0,0,1,68.92,50.35Z" style="stroke:#000;stroke-miterlimit:3;stroke-width:2.5286875376010016px"/><path d="M63.8,50.29a2.21,2.21,0,0,0,1.42-.76,1.73,1.73,0,0,1-1.64-1.68,1.82,1.82,0,0,1,1.93-1.8,1.7,1.7,0,0,1,1.75,1.81,2.77,2.77,0,0,1-1.05,2l0,.05c1.75-.36,2.43-1.82,2.59-3.62l2.21,0a5.2,5.2,0,0,1-2.76,3.92,11.26,11.26,0,0,1-4.52.89Zm1.62-3.36a.82.82,0,0,0-.9.85,1,1,0,0,0,1,1c.53,0,.75-.47.76-.94A.89.89,0,0,0,65.42,46.93Z" style="stroke:#000;stroke-miterlimit:3;stroke-width:2.5286875376010016px"/><path d="M71,54.33a6.27,6.27,0,0,1,4.45-1.75c2.43,0,4.77,1.3,4.74,4.12l-.06,4.73a2.92,2.92,0,0,1-3.1,3.12,2.43,2.43,0,0,1-2.6-2.44,2.37,2.37,0,0,1,2.43-2.46,2.12,2.12,0,0,1,.94.2l0-2.9c0-1.83-.93-3.08-2.65-3.1a4.75,4.75,0,0,0-3.42,1.45Zm6,6.29A1.36,1.36,0,0,0,75.67,62,1.33,1.33,0,0,0,77,63.5c.6,0,1.19-.49,1.2-1.6a3,3,0,0,0-.12-.85A1.65,1.65,0,0,0,77,60.62Z" style="stroke:#000;stroke-miterlimit:3;stroke-width:2.5286875376010016px"/><path d="M90.57,60.77l0-3.48c0-2.74-1.51-3.37-2.64-3.38a2.28,2.28,0,0,0-2.4,1.74l2.62.45-.42,1c-1.33.18-1.78.84-1.8,2.2v.83a2.2,2.2,0,0,1,1.19-.32,2.05,2.05,0,0,1,2,2.35,2.38,2.38,0,0,1-2.57,2.46c-1.82,0-2.92-1.25-2.89-3.63l0-1.47a2.58,2.58,0,0,1,1.88-2.72v-.05l-2.4-.39c.21-1.66,1.43-3.72,5-3.68,1.74,0,4.83.67,4.79,4.29l-.08,6.83L91,64.65h-.53C90.55,62.79,90.57,61.52,90.57,60.77Zm-4.82,1.3c0,.89.34,1.5,1.14,1.51a1.28,1.28,0,0,0,1.21-1.4,1.21,1.21,0,0,0-1.21-1.37,1.36,1.36,0,0,0-1,.46A3.85,3.85,0,0,0,85.75,62.07Z" style="stroke:#000;stroke-miterlimit:3;stroke-width:2.5286875376010016px"/><path d="M89.83,46.35a3.15,3.15,0,0,1,.5,0c0-.11,0-.22,0-.36a1.81,1.81,0,0,1,1.9-1.77A1.66,1.66,0,0,1,94,46,1.68,1.68,0,0,1,92.8,47.6a3.87,3.87,0,0,1,.94,2.64,4.51,4.51,0,0,1-.38,1.68,11.88,11.88,0,0,0-7.55-2.16A3.8,3.8,0,0,1,89.83,46.35Zm3,4.27A3.29,3.29,0,0,0,89.59,48a2.6,2.6,0,0,0-2.28.94A12.16,12.16,0,0,1,92.82,50.62ZM93,46.08a.87.87,0,0,0-.88-.92.88.88,0,0,0-.89.88.89.89,0,1,0,1.77,0Z" style="stroke:#000;stroke-miterlimit:3;stroke-width:2.5286875376010016px"/><path d="M100.63,57.65a2.29,2.29,0,0,1-2.41-2.29,2.55,2.55,0,0,1,2.71-2.49c.86,0,3,.37,3,3.46l-.06,5.4c0,2.16-.2,2.87-2,2.85l-1.6,0a28.3,28.3,0,0,0-5.93-6.4L95.13,57A26.87,26.87,0,0,1,101,63.19c.44,0,.5-.19.51-1.18l0-4.51A2.61,2.61,0,0,1,100.63,57.65Zm1.35-2.2c0-.77-.37-1.52-1.2-1.53a1.37,1.37,0,0,0,.08,2.74,1.45,1.45,0,0,0,.92-.32A2.46,2.46,0,0,0,102,55.45Z" style="stroke:#000;stroke-miterlimit:3;stroke-width:2.5286875376010016px"/><path d="M13.42,52.12l-.1,8.63a3,3,0,0,1-3.27,3A2.91,2.91,0,0,1,7,60.73L7.05,55c0-1.33-.42-2.22-1.63-2.23a1.8,1.8,0,0,0-1.79,1.14,2.08,2.08,0,0,1,.84-.15,1.87,1.87,0,0,1,1.85,2A2.07,2.07,0,0,1,4.2,57.88a2.36,2.36,0,0,1-2.32-2.66c0-2.21,1.81-3.46,3.94-3.44,1.88,0,3.55,1.15,3.53,3.22l-.08,6.42c0,.66.13,1.27.88,1.28S11,62,11,61.41l.05-4.87c0-.77,0-1.66,0-3.56l2.08-.87ZM3.2,55.6a1.19,1.19,0,0,0,1.12,1.34,1.07,1.07,0,0,0,1-1.12,1.09,1.09,0,0,0-1.12-1.15,1.59,1.59,0,0,0-.92.29A1.65,1.65,0,0,0,3.2,55.6Z" style="fill:#fff"/><path d="M19.74,58.64l0-2.13a2.4,2.4,0,0,1-3.38-2.06,2.52,2.52,0,0,1,2.72-2.52c.88,0,3.06.43,3,3.55l-.05,3.79a13.36,13.36,0,0,1,3.6,2.45l.06-5c0-.77,0-1.66,0-3.57l2.14-.86h.28L28,63.74l-2.38,0a9.08,9.08,0,0,0-3.54-3,2,2,0,0,1,0,.42,2.82,2.82,0,0,1-2.91,2.79,2.65,2.65,0,1,1-.05-5.29A3.77,3.77,0,0,1,19.74,58.64Zm.44-4.37A1.2,1.2,0,0,0,19,53,1.32,1.32,0,0,0,17.6,54.3a1.27,1.27,0,0,0,1.32,1.37,1.62,1.62,0,0,0,1-.41A2.36,2.36,0,0,0,20.18,54.27Zm-.82,5.52a1.56,1.56,0,0,0-1.54,1.65c0,.74.43,1.22,1,1.22.77,0,1.14-.81,1.15-1.64a2.37,2.37,0,0,0-.21-1.17A1.18,1.18,0,0,0,19.36,59.79Z" style="fill:#fff"/><path d="M30.06,53.86a6.32,6.32,0,0,1,4.45-1.75c2.43,0,4.77,1.3,4.73,4.12L39.19,61a2.93,2.93,0,0,1-3.11,3.12,2.44,2.44,0,0,1-2.6-2.44,2.39,2.39,0,0,1,2.44-2.46,2.12,2.12,0,0,1,.94.2l0-2.9c0-1.82-.93-3.08-2.65-3.1a4.74,4.74,0,0,0-3.42,1.45Zm6,6.29a1.35,1.35,0,0,0-1.35,1.42A1.33,1.33,0,0,0,36,63c.61,0,1.2-.49,1.21-1.59a3,3,0,0,0-.13-.86A1.61,1.61,0,0,0,36.05,60.15Z" style="fill:#fff"/><path d="M54,64l-2.35,0,.08-7a3.38,3.38,0,0,0-3.58-3.64c-2.41,0-3.59,1.26-3.61,3.47a7.23,7.23,0,0,0,.58,2.53c.29.83.67,1.75,1,2.77h.08a8.91,8.91,0,0,1,1.61-2.33A2.09,2.09,0,0,1,46,57.75a2.19,2.19,0,0,1,2.37-2.16A2.28,2.28,0,0,1,50.73,58a5.44,5.44,0,0,1-1.64,3.16,12.43,12.43,0,0,0-2,2.83l-2.49,0a10.81,10.81,0,0,0-1.3-3.12A7.52,7.52,0,0,1,42.2,57c0-3,2.62-4.75,6.08-4.71,4.23,0,5.87,2.06,5.84,4.77Zm-4.52-6.41a1.14,1.14,0,0,0-1.15-1.12,1.21,1.21,0,0,0-1.28,1.18,1.38,1.38,0,0,0,1.47,1.37A2.09,2.09,0,0,0,49.52,57.62Z" style="fill:#fff"/><path d="M66.76,57.21a3.33,3.33,0,0,0-3.47-3.64c-2.21,0-3.5,1.32-3.53,3.81a10,10,0,0,0,.55,2.74h.11a7.91,7.91,0,0,1,1.07-3.52,2.49,2.49,0,0,1,2.08-1.06,2.21,2.21,0,0,1,2.25,2.24,2.32,2.32,0,0,1-2.36,2.41,3,3,0,0,1-1-.21,12.69,12.69,0,0,0-.85,4.14l-2.35,0a9.76,9.76,0,0,0-.9-3.24,9.6,9.6,0,0,1-1-3.69c0-3,2.6-4.76,6-4.72,4.17.05,5.76,2.06,5.72,4.77l-.07,7-2.36,0Zm-4.49.92a1.1,1.1,0,0,0,1.12,1,1.29,1.29,0,0,0,1.35-1.32,1.2,1.2,0,0,0-1.15-1.26A1.44,1.44,0,0,0,62.27,58.13Z" style="fill:#fff"/><path d="M65.92,46.08A3.77,3.77,0,0,1,69.84,50a4.51,4.51,0,0,1-.38,1.68,11.83,11.83,0,0,0-7.56-2.16A3.79,3.79,0,0,1,65.92,46.08Zm3,4.27a3.3,3.3,0,0,0-3.24-2.59,2.64,2.64,0,0,0-2.28,1A12.17,12.17,0,0,1,68.92,50.35Z" style="fill:#fff"/><path d="M63.8,50.29a2.21,2.21,0,0,0,1.42-.76,1.73,1.73,0,0,1-1.64-1.68,1.82,1.82,0,0,1,1.93-1.8,1.7,1.7,0,0,1,1.75,1.81,2.77,2.77,0,0,1-1.05,2l0,.05c1.75-.36,2.43-1.82,2.59-3.62l2.21,0a5.2,5.2,0,0,1-2.76,3.92,11.26,11.26,0,0,1-4.52.89Zm1.62-3.36a.82.82,0,0,0-.9.85,1,1,0,0,0,1,1c.53,0,.75-.47.76-.94A.89.89,0,0,0,65.42,46.93Z" style="fill:#fff"/><path d="M71,54.33a6.27,6.27,0,0,1,4.45-1.75c2.43,0,4.77,1.3,4.74,4.12l-.06,4.73a2.92,2.92,0,0,1-3.1,3.12,2.43,2.43,0,0,1-2.6-2.44,2.37,2.37,0,0,1,2.43-2.46,2.12,2.12,0,0,1,.94.2l0-2.9c0-1.83-.93-3.08-2.65-3.1a4.75,4.75,0,0,0-3.42,1.45Zm6,6.29A1.36,1.36,0,0,0,75.67,62,1.33,1.33,0,0,0,77,63.5c.6,0,1.19-.49,1.2-1.6a3,3,0,0,0-.12-.85A1.65,1.65,0,0,0,77,60.62Z" style="fill:#fff"/><path d="M90.57,60.77l0-3.48c0-2.74-1.51-3.37-2.64-3.38a2.28,2.28,0,0,0-2.4,1.74l2.62.45-.42,1c-1.33.18-1.78.84-1.8,2.2v.83a2.2,2.2,0,0,1,1.19-.32,2.05,2.05,0,0,1,2,2.35,2.38,2.38,0,0,1-2.57,2.46c-1.82,0-2.92-1.25-2.89-3.63l0-1.47a2.58,2.58,0,0,1,1.88-2.72v-.05l-2.4-.39c.21-1.66,1.43-3.72,5-3.68,1.74,0,4.83.67,4.79,4.29l-.08,6.83L91,64.65h-.53C90.55,62.79,90.57,61.52,90.57,60.77Zm-4.82,1.3c0,.89.34,1.5,1.14,1.51a1.28,1.28,0,0,0,1.21-1.4,1.21,1.21,0,0,0-1.21-1.37,1.36,1.36,0,0,0-1,.46A3.85,3.85,0,0,0,85.75,62.07Z" style="fill:#fff"/><path d="M89.83,46.35a3.15,3.15,0,0,1,.5,0c0-.11,0-.22,0-.36a1.81,1.81,0,0,1,1.9-1.77A1.66,1.66,0,0,1,94,46,1.68,1.68,0,0,1,92.8,47.6a3.87,3.87,0,0,1,.94,2.64,4.51,4.51,0,0,1-.38,1.68,11.88,11.88,0,0,0-7.55-2.16A3.8,3.8,0,0,1,89.83,46.35Zm3,4.27A3.29,3.29,0,0,0,89.59,48a2.6,2.6,0,0,0-2.28.94A12.16,12.16,0,0,1,92.82,50.62ZM93,46.08a.87.87,0,0,0-.88-.92.88.88,0,0,0-.89.88.89.89,0,1,0,1.77,0Z" style="fill:#fff"/><path d="M100.63,57.65a2.29,2.29,0,0,1-2.41-2.29,2.55,2.55,0,0,1,2.71-2.49c.86,0,3,.37,3,3.46l-.06,5.4c0,2.16-.2,2.87-2,2.85l-1.6,0a28.3,28.3,0,0,0-5.93-6.4L95.13,57A26.87,26.87,0,0,1,101,63.19c.44,0,.5-.19.51-1.18l0-4.51A2.61,2.61,0,0,1,100.63,57.65Zm1.35-2.2c0-.77-.37-1.52-1.2-1.53a1.37,1.37,0,0,0,.08,2.74,1.45,1.45,0,0,0,.92-.32A2.46,2.46,0,0,0,102,55.45Z" style="fill:#fff"/><path d="M34.47,90.58l.71,22.47c.3,9.33-5.54,12-13.49,12.28-8.93.29-13.82-2.88-14-8.48v-.49a7,7,0,0,1,5.45-7.16V109c-3.94-1.34-5.72-3.63-5.88-8.42l0-.65a9.07,9.07,0,0,1,9.2-9.47,6.69,6.69,0,0,1,7.11,6.43c.14,4.3-2.79,6.75-5.95,6.85a5.54,5.54,0,0,1-3.77-1.1c.08,2.68,1.83,4.17,5.4,4.05l2.76-.08.13,4.05-3.41.11c-2.67.09-4.25,1.44-4.15,4.84l0,1.14c.15,4.54,3.43,5.58,7.4,5.45s6.53-1.75,6.36-7L28,103.86c-.08-2.27-.16-4.87-.5-10.46l6.16-2.8ZM16.85,101a3.28,3.28,0,0,0,3.46-3.68c-.07-2-1.18-3.78-3.45-3.71s-3.11,1.89-3,4.16S15.23,101,16.85,101Z" style="stroke:#000;stroke-miterlimit:3;stroke-width:7.5532049665338725px"/><path d="M24.27,71.41c7.22-.23,11.77,4.82,12,10.91a13.05,13.05,0,0,1-.9,5c-6.87-4.25-13.26-6-22.42-5.38C13.52,75.65,17.94,71.61,24.27,71.41Zm9.32,12.13c-.54-4.13-5.43-7.3-9.81-7.16-2.92.09-5.24,1.06-6.56,3.05A36,36,0,0,1,33.59,83.54Z" style="stroke:#000;stroke-miterlimit:3;stroke-width:7.5532049665338725px"/><path d="M18.58,84a6.5,6.5,0,0,0,4.07-2.41,5,5,0,0,1-5-4.71,5.37,5.37,0,0,1,5.43-5.53,5,5,0,0,1,5.36,5.11,8.13,8.13,0,0,1-2.81,6.1l.09.16c5.07-1.3,6.88-5.67,7.12-10.95l6.49-.21c-.73,5.22-3.11,9.28-7.58,11.86-3,1.8-7.07,2.5-13.14,3.18Zm4.31-10a2.41,2.41,0,0,0-2.51,2.6,2.94,2.94,0,0,0,3.17,2.82c1.54,0,2.15-1.45,2.1-2.83A2.6,2.6,0,0,0,22.89,74Z" style="stroke:#000;stroke-miterlimit:3;stroke-width:7.5532049665338725px"/><path d="M53.81,108.88l-.2-6.25a6.42,6.42,0,0,1-3,.75c-3.49.11-7.05-2.13-7.19-6.35-.15-4.79,3.5-7.58,7.63-7.71,2.6-.09,9,.84,9.34,10l.35,11.11a39.33,39.33,0,0,1,10.85,6.72l-.46-14.68c-.08-2.27-.16-4.87-.5-10.46l6.16-2.8.81,0,1.08,33.58-7,.23A26.73,26.73,0,0,0,61,114.58a5.52,5.52,0,0,1,.12,1.21,8.26,8.26,0,0,1-8.17,8.55,7.65,7.65,0,0,1-8.28-7.7,7.57,7.57,0,0,1,7.46-7.79A13.94,13.94,0,0,1,53.81,108.88ZM54.53,96a3.51,3.51,0,0,0-3.69-3.7A3.87,3.87,0,0,0,47,96.43a3.71,3.71,0,0,0,4,3.85,4.79,4.79,0,0,0,3-1.31A6.65,6.65,0,0,0,54.53,96Zm-1.67,16.29a4.55,4.55,0,0,0-4.3,5c.07,2.19,1.41,3.53,2.95,3.48,2.27-.07,3.25-2.54,3.17-5a7.07,7.07,0,0,0-.76-3.39A2.57,2.57,0,0,0,52.86,112.32Z" style="stroke:#000;stroke-miterlimit:3;stroke-width:7.5532049665338725px"/><path d="M34.47,90.58l.71,22.47c.3,9.33-5.54,12-13.49,12.28-8.93.29-13.82-2.88-14-8.48v-.49a7,7,0,0,1,5.45-7.16V109c-3.94-1.34-5.72-3.63-5.88-8.42l0-.65a9.07,9.07,0,0,1,9.2-9.47,6.69,6.69,0,0,1,7.11,6.43c.14,4.3-2.79,6.75-5.95,6.85a5.54,5.54,0,0,1-3.77-1.1c.08,2.68,1.83,4.17,5.4,4.05l2.76-.08.13,4.05-3.41.11c-2.67.09-4.25,1.44-4.15,4.84l0,1.14c.15,4.54,3.43,5.58,7.4,5.45s6.53-1.75,6.36-7L28,103.86c-.08-2.27-.16-4.87-.5-10.46l6.16-2.8ZM16.85,101a3.28,3.28,0,0,0,3.46-3.68c-.07-2-1.18-3.78-3.45-3.71s-3.11,1.89-3,4.16S15.23,101,16.85,101Z" style="fill:#fff100"/><path d="M24.27,71.41c7.22-.23,11.77,4.82,12,10.91a13.05,13.05,0,0,1-.9,5c-6.87-4.25-13.26-6-22.42-5.38C13.52,75.65,17.94,71.61,24.27,71.41Zm9.32,12.13c-.54-4.13-5.43-7.3-9.81-7.16-2.92.09-5.24,1.06-6.56,3.05A36,36,0,0,1,33.59,83.54Z" style="fill:#fff100"/><path d="M18.58,84a6.5,6.5,0,0,0,4.07-2.41,5,5,0,0,1-5-4.71,5.37,5.37,0,0,1,5.43-5.53,5,5,0,0,1,5.36,5.11,8.13,8.13,0,0,1-2.81,6.1l.09.16c5.07-1.3,6.88-5.67,7.12-10.95l6.49-.21c-.73,5.22-3.11,9.28-7.58,11.86-3,1.8-7.07,2.5-13.14,3.18Zm4.31-10a2.41,2.41,0,0,0-2.51,2.6,2.94,2.94,0,0,0,3.17,2.82c1.54,0,2.15-1.45,2.1-2.83A2.6,2.6,0,0,0,22.89,74Z" style="fill:#fff100"/><path d="M53.81,108.88l-.2-6.25a6.42,6.42,0,0,1-3,.75c-3.49.11-7.05-2.13-7.19-6.35-.15-4.79,3.5-7.58,7.63-7.71,2.6-.09,9,.84,9.34,10l.35,11.11a39.33,39.33,0,0,1,10.85,6.72l-.46-14.68c-.08-2.27-.16-4.87-.5-10.46l6.16-2.8.81,0,1.08,33.58-7,.23A26.73,26.73,0,0,0,61,114.58a5.52,5.52,0,0,1,.12,1.21,8.26,8.26,0,0,1-8.17,8.55,7.65,7.65,0,0,1-8.28-7.7,7.57,7.57,0,0,1,7.46-7.79A13.94,13.94,0,0,1,53.81,108.88ZM54.53,96a3.51,3.51,0,0,0-3.69-3.7A3.87,3.87,0,0,0,47,96.43a3.71,3.71,0,0,0,4,3.85,4.79,4.79,0,0,0,3-1.31A6.65,6.65,0,0,0,54.53,96Zm-1.67,16.29a4.55,4.55,0,0,0-4.3,5c.07,2.19,1.41,3.53,2.95,3.48,2.27-.07,3.25-2.54,3.17-5a7.07,7.07,0,0,0-.76-3.39A2.57,2.57,0,0,0,52.86,112.32Z" style="fill:#fff100"/></g></g></svg>