<svg xmlns="http://www.w3.org/2000/svg" viewBox="0 0 100.2 17.47"><defs><style>.cls-1{fill:#231f20;}.cls-2{fill:#fff;}</style></defs><title>rating</title><g id="Layer_2" data-name="Layer 2"><g id="Layer_1-2" data-name="Layer 1"><rect class="cls-1" width="17.47" height="17.47"/><path class="cls-2" d="M4.12,7.94H5.26c1.11,0,1.67.47,1.67,1.41v2c0,.93-.56,1.4-1.67,1.4H3.74c-1.11,0-1.67-.47-1.67-1.4V10.19h2v.89c0,.16.09.25.28.25H4.7c.18,0,.28-.09.28-.25V9.61c0-.16-.1-.25-.28-.25H2.17V5.46H6.82V6.88H4.12Z"/><path class="cls-2" d="M7.72,12.74V10.88h2v1.86Z"/><path class="cls-2" d="M15.39,6.87v4.47c0,.93-.55,1.4-1.66,1.4H12.22c-1.12,0-1.67-.47-1.67-1.4V6.87c0-.94.55-1.41,1.67-1.41h1.51C14.84,5.46,15.39,5.93,15.39,6.87Zm-2,4.21V7.13c0-.17-.1-.25-.29-.25h-.3c-.19,0-.29.08-.29.25v4c0,.16.1.25.29.25h.3C13.31,11.33,13.41,11.24,13.41,11.08Z"/><rect class="cls-2" x="17.97" y="0.5" width="81.74" height="16.47"/><path class="cls-1" d="M99.2,1V16.47H18.47V1H99.2m1-1H17.47V17.47H100.2V0Z"/><polygon class="cls-1" points="27.87 4.06 29.29 6.94 32.46 7.4 30.16 9.64 30.71 12.8 27.87 11.3 25.03 12.8 25.57 9.64 23.27 7.4 26.45 6.94 27.87 4.06"/><polygon class="cls-1" points="43.01 4.06 44.43 6.94 47.6 7.4 45.31 9.64 45.85 12.8 43.01 11.3 40.17 12.8 40.72 9.64 38.42 7.4 41.59 6.94 43.01 4.06"/><polygon class="cls-1" points="58.16 4.06 59.57 6.94 62.75 7.4 60.45 9.64 60.99 12.8 58.16 11.3 55.32 12.8 55.86 9.64 53.56 7.4 56.74 6.94 58.16 4.06"/><polygon class="cls-1" points="73.3 4.06 74.72 6.94 77.89 7.4 75.59 9.64 76.14 12.8 73.3 11.3 70.46 12.8 71 9.64 68.7 7.4 71.88 6.94 73.3 4.06"/><polygon class="cls-1" points="88.44 4.06 89.86 6.94 93.03 7.4 90.74 9.64 91.28 12.8 88.44 11.3 85.6 12.8 86.15 9.64 83.85 7.4 87.02 6.94 88.44 4.06"/></g></g></svg>