<svg xmlns="http://www.w3.org/2000/svg" width="121.61" height="44.35" viewBox="0 0 121.61 44.35"><title>ribbon-th</title><g id="Layer_2" data-name="Layer 2"><g id="Layer_1-2" data-name="Layer 1"><path d="M31.45,37.26Q28.85,26.61,26.24,16C17.39,18.19,8.67,20.72,0,23.56c4.49,2.35,8.93,4.76,13.33,7.27C11.13,35.31,9,39.8,7,44.35,15.06,41.7,23.2,39.34,31.45,37.26Z" style="fill:#d45555"/><path d="M12.24,12.88l6.21,21.7q6.53,1.19,13,2.68Q28.85,26.61,26.24,16,19.28,14.25,12.24,12.88Z" style="fill:#b54949"/><path d="M95,28.63,94.29,6.71c9.13-.21,18.2-.1,27.32.32Q116,12.22,110.7,17.6q5,5.58,9.74,11.33C111.93,28.53,103.46,28.43,95,28.63Z" style="fill:#d45555"/><path d="M107,0q-.1,11.3-.2,22.57-6,2.89-11.81,6.06L94.3,6.71Q100.56,3.22,107,0Z" style="fill:#b54949"/><path d="M106.77,22.57a327.52,327.52,0,0,0-88.32,12l-6.21-21.7A349.38,349.38,0,0,1,107,0Q106.87,11.3,106.77,22.57Z" style="fill:#f06060"/><path d="M38.9,8.16a2.07,2.07,0,0,1-.54,1.48A2,2,0,0,1,39.14,11l.64,4-1.24.2-.47-3a2.07,2.07,0,0,0-1.55-.45.93.93,0,0,0-.8,1.19,1.45,1.45,0,0,0,.09.36,1.2,1.2,0,0,1,.57-.26,1.09,1.09,0,0,1,1.27,1.06,1.26,1.26,0,0,1-1.13,1.52c-1,.16-1.68-.39-1.88-1.64l-.07-.44a1.94,1.94,0,0,1,1.76-2.38,3.13,3.13,0,0,1,1.61.22v-.1a2.08,2.08,0,0,0-.37-.91c-.22.17-.45.32-.65.46l-.4-.15v0a5.35,5.35,0,0,0,.63-.63,1.32,1.32,0,0,0-.89-.13A2.62,2.62,0,0,0,34.54,11l-.49-.45a3.47,3.47,0,0,1,2.23-1.33,3.4,3.4,0,0,1,1.31,0,2,2,0,0,0,.13-.93Zm-3.06,6.22c.07.47.31.76.73.69a.67.67,0,0,0,.51-.84.64.64,0,0,0-.75-.62.76.76,0,0,0-.52.34A2.9,2.9,0,0,0,35.84,14.38Z" style="fill:#fff"/><path d="M38,7.9l-.79-2.55,1.25-.2.05,2.46L38,7.9Z" style="fill:#fff"/><path d="M40,9.62A3.39,3.39,0,0,1,42.15,8.3c1.28-.2,2.63.26,2.87,1.75l.39,2.49a1.56,1.56,0,0,1-1.35,1.92,1.3,1.3,0,0,1-1.59-1,1.27,1.27,0,0,1,1.06-1.52,1.1,1.1,0,0,1,.51,0l-.24-1.53c-.16-1-.77-1.54-1.68-1.4a2.57,2.57,0,0,0-1.67,1.08Zm3.72,2.78a.73.73,0,0,0-.58.87.71.71,0,0,0,.82.65c.32-.05.59-.37.5-.95a1.63,1.63,0,0,0-.15-.44A.86.86,0,0,0,43.68,12.4Z" style="fill:#fff"/><path d="M48.16,9.86a1.49,1.49,0,0,1-.53.17,1.17,1.17,0,0,1-1.44-1,1.33,1.33,0,0,1,1.16-1.57c1-.15,1.76.34,2,1.68l.5,3.17a6.07,6.07,0,0,1,1.69-1.73l-.19-1.2c-.07-.41-.14-.88-.33-1.88l1-.65.15,0,.5,3.18L53,10a1.37,1.37,0,0,1,1.65,1.19A1.53,1.53,0,0,1,53.34,13c-.87.14-1.53-.34-1.7-1.42a1.84,1.84,0,0,1,0-.27A5.87,5.87,0,0,0,50,13.39l-1.24.19Zm0-1.11c-.09-.57-.38-.77-.77-.71a.7.7,0,0,0-.54.86.68.68,0,0,0,.81.61.72.72,0,0,0,.5-.28A1.92,1.92,0,0,0,48.15,8.75Zm4.64,2a3.26,3.26,0,0,0,0,.67c.08.48.27,1,.7.91s.48-.57.42-.92a.8.8,0,0,0-.88-.73A1.32,1.32,0,0,0,52.79,10.71Z" style="fill:#fff"/><path d="M56,8.79a1.23,1.23,0,0,1-1.44-1,1.37,1.37,0,0,1,1.2-1.62c.46-.07,1.64,0,1.9,1.6l.58,3.65.26,0c1.08-.17,1.45-.3,1.28-1.4l-.3-1.85c-.06-.41-.14-.88-.33-1.88l1-.65.15,0L61,9.84c.24,1.54-.45,1.87-2,2.11l-2.89.46v-.69l.82-.13-.48-3A1.12,1.12,0,0,1,56,8.79Zm.53-1.48a.66.66,0,0,0-.75-.62.72.72,0,0,0-.59.86.69.69,0,0,0,.8.64.82.82,0,0,0,.52-.32A1.31,1.31,0,0,0,56.49,7.31Z" style="fill:#fff"/><path d="M60.81,15.21l-.17-1.08a.64.64,0,0,1-.31.11.88.88,0,0,1-1-.76,1,1,0,0,1,.87-1.13,1,1,0,0,1,1.13.91l.29,1.83Zm-.11-1.92c0-.25-.2-.48-.5-.43a.47.47,0,0,0-.42.56.43.43,0,0,0,.52.36.6.6,0,0,0,.39-.25A.48.48,0,0,0,60.7,13.29Z" style="fill:#fff"/><path d="M67.37,6.85a1.87,1.87,0,1,0-3.67.72A5.28,5.28,0,0,0,64.24,9h.05a4.24,4.24,0,0,1,.25-2,1.33,1.33,0,0,1,1-.74,1.18,1.18,0,0,1,1.39,1,1.24,1.24,0,0,1-1,1.48,1.48,1.48,0,0,1-.55,0A6.73,6.73,0,0,0,65.27,11l-1.24.2a5,5,0,0,0-.77-1.63,5.27,5.27,0,0,1-.83-1.86c-.26-1.61.94-2.74,2.74-3,2.2-.35,3.21.57,3.44,2l.59,3.69-1.24.2Zm-2.28.89a.59.59,0,0,0,.68.43.68.68,0,0,0,.59-.81.63.63,0,0,0-.72-.56A.76.76,0,0,0,65.09,7.74Z" style="fill:#fff"/><path d="M75.28,5.6a1.88,1.88,0,1,0-3.68.71,5.5,5.5,0,0,0,.54,1.4h.06a4.09,4.09,0,0,1,.24-1.95,1.36,1.36,0,0,1,1-.75,1.19,1.19,0,0,1,1.39,1,1.24,1.24,0,0,1-1,1.48,1.29,1.29,0,0,1-.55,0,6.73,6.73,0,0,0-.08,2.26l-1.24.2a5.24,5.24,0,0,0-.77-1.63,5.19,5.19,0,0,1-.83-1.86c-.26-1.61.94-2.74,2.74-3,2.2-.35,3.22.56,3.44,2l.59,3.7-1.24.2ZM73,6.48a.57.57,0,0,0,.68.43.68.68,0,0,0,.59-.81.63.63,0,0,0-.72-.56A.77.77,0,0,0,73,6.48Z" style="fill:#fff"/><path d="M82.69,8.19l-.47-3a2.07,2.07,0,0,0-1.55-.45A.93.93,0,0,0,79.87,6a1.35,1.35,0,0,0,.09.36,1.24,1.24,0,0,1,.57-.26,1.11,1.11,0,0,1,1.28,1.06,1.27,1.27,0,0,1-1.14,1.52C79.71,8.8,79,8.25,78.79,7l-.07-.44a2,2,0,0,1,1.77-2.38,3,3,0,0,1,1.6.23V4.3c-.16-1-.77-1.54-1.68-1.39A2.62,2.62,0,0,0,78.69,4l-.49-.45a3.44,3.44,0,0,1,2.23-1.32C81.71,2,83.06,2.47,83.29,4l.65,4ZM80,7.36c.07.47.31.76.74.69a.68.68,0,0,0,.51-.84.65.65,0,0,0-.76-.62.76.76,0,0,0-.52.34A2.9,2.9,0,0,0,80,7.36Z" style="fill:#fff"/><path d="M35.72,22.36A3.39,3.39,0,0,1,37.91,21c1.28-.2,2.63.26,2.87,1.75l.39,2.49a1.57,1.57,0,0,1-1.35,1.93,1.3,1.3,0,0,1-1.59-1.05,1.27,1.27,0,0,1,1.06-1.52,1.09,1.09,0,0,1,.51,0l-.24-1.53c-.16-1-.77-1.54-1.68-1.4a2.56,2.56,0,0,0-1.67,1.08Zm3.72,2.78a.73.73,0,0,0-.58.87.72.72,0,0,0,.83.65c.32-.05.58-.37.49-.95a1.63,1.63,0,0,0-.15-.44A.86.86,0,0,0,39.44,25.14Z" style="fill:#fff"/><path d="M38,17.56a2.34,2.34,0,0,1,.92,0l-.17-1.08.66-.43.12,0,.33,2.06a2,2,0,0,1,.55,1.14,2.38,2.38,0,0,1,0,.92,6.33,6.33,0,0,0-4.18-.46A2,2,0,0,1,38,17.56Zm2,2a1.78,1.78,0,0,0-1.94-1.07,1.41,1.41,0,0,0-1.12.7A6.65,6.65,0,0,1,40,19.54Z" style="fill:#fff"/><path d="M49.26,25.57l-1.24.2-.59-3.68a1.81,1.81,0,0,0-2.21-1.6,1.7,1.7,0,0,0-1.59,2.16,4,4,0,0,0,.53,1.27c.23.42.51.87.76,1.38h0a4.58,4.58,0,0,1,.64-1.37A1.12,1.12,0,0,1,44.46,23a1.16,1.16,0,0,1,1.06-1.35,1.21,1.21,0,0,1,1.45,1,2.89,2.89,0,0,1-.58,1.81,6.7,6.7,0,0,0-.78,1.67l-1.32.21a5.55,5.55,0,0,0-1-1.53,4.1,4.1,0,0,1-.95-1.91c-.25-1.61,1-2.74,2.79-3,2.23-.36,3.27.56,3.5,2Zm-3-3a.62.62,0,0,0-.71-.49.65.65,0,0,0-.57.73.73.73,0,0,0,.9.59A1.06,1.06,0,0,0,46.3,22.6Z" style="fill:#fff"/><path d="M45.88,16.31a2.15,2.15,0,0,1,.92,0l-.17-1.08.66-.44.12,0,.33,2.06A2,2,0,0,1,48.29,18a2.38,2.38,0,0,1,0,.92,6.33,6.33,0,0,0-4.18-.46A2,2,0,0,1,45.88,16.31Zm2,2a1.78,1.78,0,0,0-1.94-1.07,1.44,1.44,0,0,0-1.12.71A6.53,6.53,0,0,1,47.85,18.29Z" style="fill:#fff"/><path d="M51.84,14.59c.86-.14,1.64.32,2.06.26a1,1,0,0,0,.59-.43l.38.42a1.49,1.49,0,0,1-1.15.84c-.78.13-1.47-.26-2.21-.14a.45.45,0,0,0-.4.57c0,.05,0,.09,0,.13,3-.39,3,.6,3.2,1.75l.68,4.3a1.57,1.57,0,0,1,.62-.27,1.18,1.18,0,0,1,1.38,1,1.35,1.35,0,0,1-1.16,1.59,1.65,1.65,0,0,1-2-1.59l-.78-4.93c-.2-1.23-.41-1.46-2.65-1.18A1.78,1.78,0,0,1,51.84,14.59Zm3.23,8.75c.09.57.36.78.79.72a.72.72,0,0,0,.53-.88.69.69,0,0,0-.82-.64.72.72,0,0,0-.51.34A1.19,1.19,0,0,0,55.07,23.34Z" style="fill:#fff"/><path d="M57.6,18.91a3.69,3.69,0,0,1,2.3-1.36,2.24,2.24,0,0,1,2.84,1.74l.32,2.06c.27,1.68-.7,2.27-2.13,2.5s-2.42-.25-2.61-1.44l-.18-1.13a1.61,1.61,0,0,1,1.33-2,1.19,1.19,0,0,1,1.46,1A1.16,1.16,0,0,1,60,21.73a1.57,1.57,0,0,1-.57,0l.1.58a1.18,1.18,0,0,0,2.33-.37l-.36-2.29c-.16-1-.74-1.53-1.66-1.39a2.72,2.72,0,0,0-1.77,1.11Zm2.23,2.39a.65.65,0,0,0,.53-.82c-.07-.44-.32-.74-.76-.67s-.48.45-.42.86a1.52,1.52,0,0,0,.19.54A.73.73,0,0,0,59.83,21.3Z" style="fill:#fff"/><path d="M66.35,22.85a5.12,5.12,0,0,0-.91-1.53,4.53,4.53,0,0,1-1-1.91,2.4,2.4,0,0,1,2-2.77c.13,0,.15,0,.92.42h0c.55-.58.61-.67.69-.68a2.12,2.12,0,0,1,2.61,1.92l.6,3.77-1.25.2-.62-3.92c-.22-1.38-1-1.39-1-1.38a10.26,10.26,0,0,0-.88.93h-.06c-.7-.38-1.1-.62-1.14-.61a1.65,1.65,0,0,0-.64,1.76,4.66,4.66,0,0,0,.63,1.51A12.4,12.4,0,0,1,67,21.74h0a4.12,4.12,0,0,1,.64-1.31,1.11,1.11,0,0,1-1.14-.94,1.17,1.17,0,0,1,1.06-1.35,1.21,1.21,0,0,1,1.45,1A2.91,2.91,0,0,1,68.42,21a7.14,7.14,0,0,0-.8,1.67Zm2-3.76a.6.6,0,0,0-.7-.48.62.62,0,0,0-.56.72.73.73,0,0,0,.88.59A1.08,1.08,0,0,0,68.33,19.09Z" style="fill:#fff"/><path d="M76.9,21.18l-.48-3a2.07,2.07,0,0,0-1.55-.45.93.93,0,0,0-.8,1.19,2.35,2.35,0,0,0,.09.36,1.24,1.24,0,0,1,.57-.26A1.11,1.11,0,0,1,76,20.11a1.27,1.27,0,0,1-1.14,1.52c-1,.16-1.68-.39-1.88-1.64l-.06-.44a1.94,1.94,0,0,1,1.76-2.38,3.16,3.16,0,0,1,1.61.22l0-.1c-.16-1-.77-1.54-1.67-1.39A2.62,2.62,0,0,0,72.89,17l-.49-.45a3.49,3.49,0,0,1,2.23-1.33c1.28-.2,2.63.26,2.87,1.75l.64,4Zm-2.71-.83c.07.47.31.76.74.69a.68.68,0,0,0,.51-.84.65.65,0,0,0-.76-.62.72.72,0,0,0-.51.34A2,2,0,0,0,74.19,20.35Z" style="fill:#fff"/><path d="M83.75,20.19c-.13-1-.24-1.65-.3-2.05l-.29-1.84c-.23-1.44-1.09-1.63-1.69-1.54a1.25,1.25,0,0,0-1.09,1.12l1.4,0-.13.6c-.57.21-.66.54-.55,1.26l.42,2.67-1.24.2-.4-2.54a1.27,1.27,0,0,1,.67-1.52v0H79.21a2.31,2.31,0,0,1,2.27-2.41A2.24,2.24,0,0,1,84.37,16l.58,3.6-.93.6Z" style="fill:#fff"/></g></g></svg>