<?xml version="1.0" encoding="iso-8859-1"?>
<!-- Generator: Adobe Illustrator 19.0.0, SVG Export Plug-In . SVG Version: 6.00 Build 0)  -->
<svg version="1.1" id="Capa_1" xmlns="http://www.w3.org/2000/svg" xmlns:xlink="http://www.w3.org/1999/xlink" x="0px" y="0px"
	 viewBox="0 0 512.002 512.002" style="enable-background:new 0 0 512.002 512.002;" xml:space="preserve">
<path style="fill:#FF5A59;" d="M195.003,384.774c-113.938,0-172.88-74.606-193.039-106.861c-4.382-7.011-1.117-16.261,6.678-19.018
	c16.729-5.916,44.558-18.502,67.324-42.191c46.319-48.199,98.976-48.272,119.037-25.824c20.061-22.448,72.718-22.375,119.037,25.824
	c22.766,23.689,50.594,36.275,67.324,42.191c7.794,2.756,11.059,12.007,6.678,19.018
	C367.883,310.168,308.941,384.774,195.003,384.774z"/>
<path style="fill:#CE3A4C;" d="M381.364,258.895c-16.729-5.917-44.558-18.502-67.323-42.191
	c-31.879-33.173-66.76-43.548-91.95-39.475c19.993,3.121,43.111,15.184,64.739,39.475c21.092,23.689,46.874,36.275,62.373,42.191
	c7.221,2.757,10.246,12.007,6.187,19.018c-18.145,31.338-70.213,102.643-169.967,106.675c3.151,0.118,6.341,0.186,9.581,0.186
	c113.938,0,172.88-74.606,193.038-106.861C392.424,270.902,389.158,261.652,381.364,258.895z"/>
<path style="fill:#FF8383;" d="M389.967,270.133c-45.67,17.661-125.063,41.273-194.964-18.402
	c-69.9,59.675-149.294,36.063-194.964,18.402c0.38-4.901,3.523-9.448,8.601-11.241c16.733-5.916,44.558-18.499,67.322-42.191
	c46.324-48.196,98.979-48.266,119.041-25.82c20.062-22.447,72.717-22.376,119.041,25.82c22.764,23.692,50.589,36.275,67.322,42.191
	C386.444,260.685,389.587,265.233,389.967,270.133z"/>
<path style="fill:#FF5A59;" d="M352.705,282.422c13.904-3.649,26.507-8.129,37.245-12.282c-0.357-4.686-3.121-8.63-7.107-10.613
	c-3.231-1.612-39.417-12.244-68.803-42.822c-23.28-24.219-59.029-45.199-91.944-39.474c19.992,3.123,43.107,15.185,64.733,39.474
	c21.092,23.689,46.874,36.275,62.373,42.191c7.221,2.757,10.246,12.007,6.187,19.018
	C354.566,279.337,353.67,280.844,352.705,282.422z"/>
<path style="fill:#CE3A4C;" d="M195.003,251.731c-23.143,19.758-47.326,30.38-70.982,35.116
	c18.215,11.588,43.293,18.748,70.982,18.748s52.767-7.161,70.982-18.748C242.329,282.111,218.146,271.489,195.003,251.731z"/>
<path style="fill:#EBEAE6;" d="M479.114,18.307H332.293c-18.163,0-32.887,14.724-32.887,32.887v63.535
	c0,18.163,14.724,32.887,32.887,32.887h10.08c-3.417,12.758-12.426,23.865-25.437,29.479c10.443,4.246,22.489,4.572,33.745-0.041
	c13.298-5.45,22.542-16.583,26.102-29.438h102.332c18.163,0,32.887-14.724,32.887-32.887V51.194
	C512.001,33.03,497.277,18.307,479.114,18.307z"/>
<path style="fill:#C9C5B5;" d="M479.114,18.306h-23.583c18.163,0,32.887,14.724,32.887,32.887v63.535
	c0,18.163-14.724,32.887-32.887,32.887h23.583c18.163,0,32.887-14.724,32.887-32.887V51.194
	C512.001,33.03,497.277,18.306,479.114,18.306z"/>
<path style="fill:#FFCCAA;" d="M63.654,493.695h87.674V237.152c0-37.001-29.995-66.997-66.997-66.997h-9.397
	c-6.23,0-11.281,5.05-11.281,11.281v312.259H63.654z"/>
<path style="fill:#F2A077;" d="M84.331,170.155h-9.397c-1.615,0-3.147,0.345-4.536,0.956c31.649,5.347,55.762,32.87,55.762,66.04
	v256.544h25.168V237.151C151.328,200.15,121.333,170.155,84.331,170.155z"/>
<g>
	<path style="fill:#D7875F;" d="M151.328,423.976h-43.837c-4.142,0-7.5,3.357-7.5,7.5s3.358,7.5,7.5,7.5h43.837V423.976z"/>
	<path style="fill:#D7875F;" d="M99.991,318.155c0,4.143,3.358,7.5,7.5,7.5h43.837v-15h-43.837
		C103.349,310.655,99.991,314.013,99.991,318.155z"/>
</g>
<path style="fill:#D2F5FF;" d="M71.768,245.998h-3.936c-2.307,0-4.178-1.87-4.178-4.178v-82.983c0-2.307,1.87-4.178,4.178-4.178
	h3.933c15.004,0,27.168,12.163,27.168,27.168v37.006C98.932,233.836,86.77,245.998,71.768,245.998z"/>
<g>
</g>
<g>
</g>
<g>
</g>
<g>
</g>
<g>
</g>
<g>
</g>
<g>
</g>
<g>
</g>
<g>
</g>
<g>
</g>
<g>
</g>
<g>
</g>
<g>
</g>
<g>
</g>
<g>
</g>
</svg>
