<?xml version="1.0" encoding="utf-8"?>
<!-- Generator: Adobe Illustrator 23.0.1, SVG Export Plug-In . SVG Version: 6.00 Build 0)  -->
<svg version="1.1" id="Capa_1" xmlns="http://www.w3.org/2000/svg" xmlns:xlink="http://www.w3.org/1999/xlink" x="0px" y="0px"
	 viewBox="0 0 437.5 511.6" style="enable-background:new 0 0 437.5 511.6;" xml:space="preserve">
<style type="text/css">
	.st0{fill:#FFFFFF;}
</style>
<g>
	<path class="st0" d="M418.8,182.4C407.6,151.2,402,130,402,118.8V36.5c0-10.1-3.6-18.7-10.7-25.8C384.1,3.6,375.5,0,365.4,0H182.7
		c-10.1,0-18.7,3.6-25.8,10.7c-7.1,7.1-10.7,15.8-10.7,25.8v82.2c0,1.9-0.4,3.9-1.3,6.1s-2.2,4.4-4,6.7c-1.8,2.3-3.5,4.4-5.1,6.4
		s-3.8,4.3-6.4,6.9c-2.7,2.6-4.7,4.5-6.1,5.9c-1.4,1.3-3.5,3.1-6.1,5.4c-2.7,2.3-4.3,3.6-4.9,4c-14.1,12.4-26.4,21.9-36.8,28.5
		c-4,2.5-9.9,5.6-17.7,9.4c-7.8,3.8-14.7,7.3-20.6,10.6c-5.9,3.2-11.9,7.1-18,11.6C13,224.7,8.3,230,5,236c-3.3,6-5,12.6-5,19.8
		c0,23.8,6.4,43.4,19.3,59C32.1,330.3,50.1,338,73.1,338c14.1,0,26.3-2.1,36.5-6.3v106.8c0,19.8,7.2,36.9,21.7,51.4
		c14.5,14.5,31.5,21.7,51.1,21.7c20,0,37.2-7.2,51.7-21.5c14.5-14.4,21.7-31.6,21.7-51.5v-48.3c12.4-1.3,23.7-4.9,34-10.6
		c4,0.6,8.1,0.9,12.3,0.9c19.4,0,36.4-5.8,50.8-17.4l1.4,0.3c26.6,0.2,47.3-8.1,62.1-24.8c14.8-16.7,22.1-38.6,22.1-65.7
		C438.5,248.8,432,218.6,418.8,182.4z M334.3,42c3.6-3.6,7.9-5.4,12.8-5.4s9.2,1.8,12.9,5.4c3.6,3.6,5.4,7.9,5.4,12.8
		c0,4.9-1.8,9.2-5.4,12.8c-3.6,3.6-7.9,5.4-12.9,5.4c-4.9,0-9.2-1.8-12.8-5.4c-3.6-3.6-5.4-7.9-5.4-12.8S330.7,45.6,334.3,42z
		 M390.3,312.8c-7.8,9.2-19.8,13.8-36,13.8c-6.1,0-11.4-0.4-16-1.1c-3,5.7-8,10.2-15,13.6c-6.9,3.3-13.9,5-21,5
		c-7,0-13.6-1.7-19.7-5.1c-9.5,10.1-20.8,15.1-34,15.1c-10.9,0-20.7-3.3-29.4-10v94.5c0,9.9-3.6,18.5-10.9,25.7
		c-7.2,7.2-15.8,10.9-25.7,10.9c-9.7,0-18.2-3.7-25.6-11.1c-7.3-7.4-11-15.9-11-25.4V274.1c-3.8,0-8.4,1.4-13.8,4.3
		c-5.4,2.9-10.7,6-15.7,9.4c-5,3.4-11.5,6.6-19.4,9.4c-7.9,2.9-15.9,4.3-24.1,4.3c-12.8,0-22-4.2-27.8-12.7
		c-5.8-8.5-8.7-19.5-8.7-33c0-1.5,1.1-3.3,3.3-5.3c2.2-2,5.1-4,8.7-6.1c3.6-2.1,7-4,10.1-5.7c3.1-1.7,6.6-3.5,10.3-5.3
		c3.7-1.8,5.9-2.8,6.4-3c8.8-4.6,15.2-8.2,19.4-10.9c12.2-7.6,26-18.3,41.4-32c1-0.8,2.3-1.9,4-3.4c6.3-5.5,11.4-10.2,15.4-14
		c4-3.8,8.4-8.6,13.1-14.3c4.8-5.7,8.3-11.7,10.6-17.8c2.3-6.2,3.4-12.6,3.4-19.3v-9.1h182.7v9.1c0,13.7,3,29.6,9.1,47.7
		c6.1,18.1,12.2,36.5,18.3,55.4c6.1,18.8,9.1,36.3,9.1,52.2C402,290.6,398.1,303.5,390.3,312.8z"/>
</g>
</svg>
