<?xml version="1.0" encoding="utf-8"?>
<!-- Generator: Adobe Illustrator 23.0.1, SVG Export Plug-In . SVG Version: 6.00 Build 0)  -->
<svg version="1.1" id="Capa_1" xmlns="http://www.w3.org/2000/svg" xmlns:xlink="http://www.w3.org/1999/xlink" x="0px" y="0px"
	 viewBox="0 0 376.6 490.7" style="enable-background:new 0 0 376.6 490.7;" xml:space="preserve">
<style type="text/css">
	.st0{fill:#FFCC80;}
	.st1{fill:#FFB74D;}
</style>
<path class="st0" d="M376.5,311.1l0.4-176.3c0.2-68.7-55.4-124.6-124.1-124.7l0,0C213,10,174.7,25.7,146.5,53.8L12.1,187.6
	c-5.5,5.5-8.6,12.9-8.6,20.7l0,0.1c0,16.1,13,29.3,29.2,29.3c8,0,16-1.8,23.2-5.4l72.1-35.8l-0.6,259.2c0,17.2,13.9,31.1,31,31.2
	c17.2,0,31.1-13.9,31.2-31l0.3-103.7c0,17.2,13.9,31.1,31,31.2s31.1-13.9,31.2-31l0.1-20.7c0,17.2,13.9,31.1,31,31.2
	c17.2,0,31.1-13.9,31.2-31l0.1-20.7c0,17.2,13.9,31.1,31,31.2C362.5,342.2,376.4,328.3,376.5,311.1z"/>
<g>
	<path class="st1" d="M189.7,352l1.7-106.7c5.9,0.1,10.6,4.9,10.5,10.8L200,375.8C193.3,369.7,189.5,361.1,189.7,352z"/>
	<path class="st1" d="M254,331.6l1.3-85.3c5.9,0.1,10.6,4.9,10.5,10.8l-1.5,98.3C257.6,349.4,253.8,340.7,254,331.6z"/>
	<path class="st1" d="M318.3,311.3l1-64c5.9,0.1,10.6,4.9,10.5,10.8l-1.2,77C321.9,329.1,318.2,320.4,318.3,311.3z"/>
</g>
</svg>
