<?xml version="1.0" encoding="utf-8"?>
<!-- Generator: Adobe Illustrator 23.0.1, SVG Export Plug-In . SVG Version: 6.00 Build 0)  -->
<svg version="1.1" id="Capa_1" xmlns="http://www.w3.org/2000/svg" xmlns:xlink="http://www.w3.org/1999/xlink" x="0px" y="0px"
	 viewBox="0 0 252 252" style="enable-background:new 0 0 252 252;" xml:space="preserve">
<style type="text/css">
	.st0{fill:#3A9960;}
</style>
<g>
	<path class="st0" d="M180.6,74.6l-83.8,83.8l-25.5-25.5c-3.5-3.5-9.2-3.5-12.7,0s-3.5,9.2,0,12.7l31.9,31.9
		c1.8,1.8,4.1,2.6,6.4,2.6c2.3,0,4.6-0.9,6.4-2.6l90.1-90.1c3.5-3.5,3.5-9.2,0-12.7C189.9,71.1,184.1,71.1,180.6,74.6z"/>
	<path class="st0" d="M126,0C56.5,0,0,56.5,0,126s56.5,126,126,126s126-56.5,126-126S195.5,0,126,0z M126,234
		c-59.6,0-108-48.4-108-108S66.4,18,126,18s108,48.4,108,108S185.6,234,126,234z"/>
</g>
</svg>
