<svg xmlns="http://www.w3.org/2000/svg" xmlns:xlink="http://www.w3.org/1999/xlink" viewBox="0 0 180 62.68"><defs><style>.cls-1{isolation:isolate;}.cls-2{mix-blend-mode:multiply;}.cls-3,.cls-46{fill:#fff;}.cls-3{opacity:0;}.cls-4{fill:#fcfcfc;opacity:0.03;}.cls-5{fill:#f9f9f9;opacity:0.06;}.cls-6{fill:#f6f6f6;opacity:0.09;}.cls-7{fill:#f3f3f3;opacity:0.12;}.cls-8{fill:#f0f0f0;opacity:0.15;}.cls-9{fill:#ededed;opacity:0.18;}.cls-10{fill:#eaeaea;opacity:0.21;}.cls-11{fill:#e7e7e7;opacity:0.24;}.cls-12{fill:#e4e4e4;opacity:0.26;}.cls-13{fill:#e1e1e1;opacity:0.29;}.cls-14{fill:#dedede;opacity:0.32;}.cls-15{fill:#dbdbdb;opacity:0.35;}.cls-16{fill:#d8d8d8;opacity:0.38;}.cls-17{fill:#d5d5d5;opacity:0.41;}.cls-18{fill:#d2d2d2;opacity:0.44;}.cls-19{fill:#cfcfcf;opacity:0.47;}.cls-20{fill:#ccc;}.cls-20,.cls-44{opacity:0.5;}.cls-21{fill:#c9c9c9;opacity:0.53;}.cls-22{fill:#c6c6c6;opacity:0.56;}.cls-23{fill:#c3c3c3;opacity:0.59;}.cls-24{fill:silver;opacity:0.62;}.cls-25{fill:#bdbdbd;opacity:0.65;}.cls-26{fill:#bababa;opacity:0.68;}.cls-27{fill:#b7b7b7;opacity:0.71;}.cls-28{fill:#b4b4b4;opacity:0.74;}.cls-29{fill:#b1b1b1;opacity:0.76;}.cls-30{fill:#aeaeae;opacity:0.79;}.cls-31{fill:#ababab;opacity:0.82;}.cls-32{fill:#a8a8a8;opacity:0.85;}.cls-33{fill:#a5a5a5;opacity:0.88;}.cls-34{fill:#a2a2a2;opacity:0.91;}.cls-35{fill:#9f9f9f;opacity:0.94;}.cls-36{fill:#9c9c9c;opacity:0.97;}.cls-37{fill:#999;}.cls-38{fill:url(#linear-gradient);}.cls-39{fill:url(#linear-gradient-2);}.cls-40,.cls-46{font-size:18.17px;font-family:AzoSans-Black, Azo Sans;font-weight:800;}.cls-40{fill:#93143e;}.cls-41{letter-spacing:-0.05em;}.cls-42{letter-spacing:-0.02em;}.cls-43{letter-spacing:-0.03em;}.cls-44{mix-blend-mode:screen;fill:url(#linear-gradient-3);}.cls-45{fill:#f90047;}.cls-47{letter-spacing:0em;}.cls-48{letter-spacing:-0.03em;}.cls-49{opacity:0.82;mix-blend-mode:overlay;}.cls-50{fill:url(#radial-gradient);}</style><linearGradient id="linear-gradient" x1="90" y1="53.38" x2="90" y2="1.9" gradientUnits="userSpaceOnUse"><stop offset="0" stop-color="#7f0015"/><stop offset="1" stop-color="#bf001a"/></linearGradient><linearGradient id="linear-gradient-2" x1="90" y1="51.72" x2="90" y2="3.56" gradientUnits="userSpaceOnUse"><stop offset="0" stop-color="#bf007a"/><stop offset="1" stop-color="#bf0005"/></linearGradient><linearGradient id="linear-gradient-3" x1="8.87" y1="26.81" x2="157.85" y2="26.81" gradientUnits="userSpaceOnUse"><stop offset="0" stop-color="#bf007a"/><stop offset="1" stop-color="#ff0007"/></linearGradient><radialGradient id="radial-gradient" cx="48.26" cy="0.25" r="11.11" gradientTransform="translate(-156.02 25.36) scale(5 2.33)" gradientUnits="userSpaceOnUse"><stop offset="0" stop-color="#fff"/><stop offset="0.15" stop-color="#fffffe" stop-opacity="0.99"/><stop offset="0.28" stop-color="#fffef9" stop-opacity="0.95"/><stop offset="0.4" stop-color="#fffdf2" stop-opacity="0.88"/><stop offset="0.52" stop-color="#fffce8" stop-opacity="0.78"/><stop offset="0.63" stop-color="#fffada" stop-opacity="0.66"/><stop offset="0.74" stop-color="#fff8ca" stop-opacity="0.5"/><stop offset="0.85" stop-color="#fff5b7" stop-opacity="0.32"/><stop offset="0.95" stop-color="#fff2a1" stop-opacity="0.12"/><stop offset="1" stop-color="#fff094" stop-opacity="0"/></radialGradient></defs><title>click-to-win</title><g class="cls-1"><g id="Layer_2" data-name="Layer 2"><g id="Layer_1-2" data-name="Layer 1"><g class="cls-2"><path class="cls-3" d="M13.9,62.68C6.23,62.68,0,57.09,0,50.22V14C0,7.15,6.23,1.57,13.9,1.57H166.1C173.77,1.57,180,7.15,180,14v36.2c0,6.87-6.23,12.46-13.9,12.46Z"/><path class="cls-4" d="M13.9,62.39C6.41,62.39.31,56.93.31,50.22V14C.31,7.31,6.41,1.85,13.9,1.85H166.1c7.49,0,13.59,5.46,13.59,12.17v36.2c0,6.71-6.1,12.17-13.59,12.17Z"/><path class="cls-5" d="M13.9,62.11C6.58,62.11.63,56.78.63,50.22V14c0-6.56,6-11.89,13.27-11.89H166.1c7.32,0,13.27,5.33,13.27,11.89v36.2c0,6.56-6,11.89-13.27,11.89Z"/><path class="cls-6" d="M13.9,61.83c-7.15,0-13-5.21-13-11.61V14c0-6.4,5.81-11.61,13-11.61H166.1c7.15,0,13,5.21,13,11.61v36.2c0,6.4-5.81,11.61-13,11.61Z"/><path class="cls-7" d="M13.9,61.55c-7,0-12.65-5.08-12.65-11.33V14C1.25,7.77,6.93,2.69,13.9,2.69H166.1c7,0,12.65,5.08,12.65,11.33v36.2c0,6.25-5.68,11.33-12.65,11.33Z"/><path class="cls-8" d="M13.9,61.27c-6.8,0-12.33-5-12.33-11.05V14C1.57,7.93,7.1,3,13.9,3H166.1c6.8,0,12.33,5,12.33,11v36.2c0,6.09-5.53,11.05-12.33,11.05Z"/><path class="cls-9" d="M13.9,61c-6.63,0-12-4.83-12-10.77V14c0-5.93,5.39-10.77,12-10.77H166.1c6.63,0,12,4.84,12,10.77v36.2c0,5.94-5.39,10.77-12,10.77Z"/><path class="cls-10" d="M13.9,60.71C7.45,60.71,2.2,56,2.2,50.22V14C2.2,8.24,7.45,3.54,13.9,3.54H166.1c6.45,0,11.7,4.7,11.7,10.48v36.2c0,5.78-5.25,10.49-11.7,10.49Z"/><path class="cls-11" d="M13.9,60.43c-6.28,0-11.39-4.58-11.39-10.21V14c0-5.62,5.11-10.2,11.39-10.2H166.1c6.28,0,11.39,4.58,11.39,10.2v36.2c0,5.63-5.11,10.21-11.39,10.21Z"/><path class="cls-12" d="M13.9,60.15c-6.11,0-11.08-4.46-11.08-9.93V14c0-5.47,5-9.92,11.08-9.92H166.1c6.11,0,11.08,4.45,11.08,9.92v36.2c0,5.47-5,9.93-11.08,9.93Z"/><path class="cls-13" d="M13.9,59.86C8,59.86,3.14,55.54,3.14,50.22V14C3.14,8.71,8,4.38,13.9,4.38H166.1c5.94,0,10.76,4.33,10.76,9.64v36.2c0,5.32-4.82,9.64-10.76,9.64Z"/><path class="cls-14" d="M13.9,59.58c-5.76,0-10.45-4.2-10.45-9.36V14c0-5.16,4.69-9.36,10.45-9.36H166.1c5.76,0,10.45,4.2,10.45,9.36v36.2c0,5.16-4.69,9.36-10.45,9.36Z"/><path class="cls-15" d="M13.9,59.3c-5.59,0-10.14-4.07-10.14-9.08V14c0-5,4.55-9.08,10.14-9.08H166.1c5.59,0,10.14,4.08,10.14,9.08v36.2c0,5-4.55,9.08-10.14,9.08Z"/><path class="cls-16" d="M13.9,59c-5.42,0-9.82-4-9.82-8.8V14c0-4.85,4.4-8.8,9.82-8.8H166.1c5.42,0,9.82,4,9.82,8.8v36.2c0,4.85-4.4,8.8-9.82,8.8Z"/><path class="cls-17" d="M13.9,58.74c-5.24,0-9.51-3.82-9.51-8.52V14c0-4.69,4.27-8.52,9.51-8.52H166.1c5.24,0,9.51,3.83,9.51,8.52v36.2c0,4.7-4.27,8.52-9.51,8.52Z"/><path class="cls-18" d="M13.9,58.46c-5.07,0-9.2-3.7-9.2-8.24V14c0-4.54,4.13-8.24,9.2-8.24H166.1c5.07,0,9.2,3.7,9.2,8.24v36.2c0,4.54-4.13,8.24-9.2,8.24Z"/><path class="cls-19" d="M13.9,58.18C9,58.18,5,54.61,5,50.22V14C5,9.64,9,6.07,13.9,6.07H166.1c4.9,0,8.88,3.57,8.88,8v36.2c0,4.39-4,8-8.88,8Z"/><path class="cls-20" d="M13.9,57.9c-4.72,0-8.57-3.45-8.57-7.68V14c0-4.23,3.85-7.67,8.57-7.67H166.1c4.72,0,8.57,3.44,8.57,7.67v36.2c0,4.23-3.85,7.68-8.57,7.68Z"/><path class="cls-21" d="M13.9,57.62c-4.55,0-8.25-3.32-8.25-7.4V14c0-4.07,3.7-7.39,8.25-7.39H166.1c4.55,0,8.25,3.32,8.25,7.39v36.2c0,4.08-3.7,7.4-8.25,7.4Z"/><path class="cls-22" d="M13.9,57.33C9.52,57.33,6,54.14,6,50.22V14C6,10.1,9.52,6.91,13.9,6.91H166.1c4.38,0,7.94,3.19,7.94,7.11v36.2c0,3.92-3.56,7.11-7.94,7.11Z"/><path class="cls-23" d="M13.9,57.05c-4.2,0-7.63-3.06-7.63-6.83V14c0-3.76,3.43-6.83,7.63-6.83H166.1c4.2,0,7.63,3.07,7.63,6.83v36.2c0,3.77-3.43,6.83-7.63,6.83Z"/><path class="cls-24" d="M13.9,56.77c-4,0-7.31-2.94-7.31-6.55V14c0-3.61,3.28-6.55,7.31-6.55H166.1c4,0,7.31,2.94,7.31,6.55v36.2c0,3.61-3.28,6.55-7.31,6.55Z"/><path class="cls-25" d="M13.9,56.49c-3.86,0-7-2.81-7-6.27V14c0-3.45,3.14-6.27,7-6.27H166.1c3.86,0,7,2.82,7,6.27v36.2c0,3.46-3.14,6.27-7,6.27Z"/><path class="cls-26" d="M13.9,56.21c-3.69,0-6.69-2.69-6.69-6V14c0-3.3,3-6,6.69-6H166.1c3.69,0,6.69,2.69,6.69,6v36.2c0,3.3-3,6-6.69,6Z"/><path class="cls-27" d="M13.9,55.93c-3.51,0-6.37-2.56-6.37-5.71V14c0-3.14,2.86-5.71,6.37-5.71H166.1c3.51,0,6.37,2.57,6.37,5.71v36.2c0,3.15-2.86,5.71-6.37,5.71Z"/><path class="cls-28" d="M13.9,55.65c-3.34,0-6.06-2.44-6.06-5.43V14c0-3,2.72-5.42,6.06-5.42H166.1c3.34,0,6.06,2.43,6.06,5.42v36.2c0,3-2.72,5.43-6.06,5.43Z"/><path class="cls-29" d="M13.9,55.37c-3.17,0-5.74-2.31-5.74-5.15V14c0-2.83,2.57-5.14,5.74-5.14H166.1c3.17,0,5.74,2.31,5.74,5.14v36.2c0,2.84-2.57,5.15-5.74,5.15Z"/><path class="cls-30" d="M13.9,55.09a5.18,5.18,0,0,1-5.43-4.87V14A5.18,5.18,0,0,1,13.9,9.16H166.1A5.18,5.18,0,0,1,171.53,14v36.2a5.18,5.18,0,0,1-5.43,4.87Z"/><path class="cls-31" d="M13.9,54.8a4.88,4.88,0,0,1-5.12-4.58V14A4.88,4.88,0,0,1,13.9,9.44H166.1A4.88,4.88,0,0,1,171.22,14v36.2a4.88,4.88,0,0,1-5.12,4.58Z"/><path class="cls-32" d="M13.9,54.52a4.57,4.57,0,0,1-4.8-4.3V14a4.57,4.57,0,0,1,4.8-4.3H166.1a4.57,4.57,0,0,1,4.8,4.3v36.2a4.57,4.57,0,0,1-4.8,4.3Z"/><path class="cls-33" d="M13.9,54.24a4.28,4.28,0,0,1-4.49-4V14a4.29,4.29,0,0,1,4.49-4H166.1a4.29,4.29,0,0,1,4.49,4v36.2a4.28,4.28,0,0,1-4.49,4Z"/><path class="cls-34" d="M13.9,54a4,4,0,0,1-4.18-3.74V14a4,4,0,0,1,4.18-3.74H166.1A4,4,0,0,1,170.28,14v36.2A4,4,0,0,1,166.1,54Z"/><path class="cls-35" d="M13.9,53.68A3.68,3.68,0,0,1,10,50.22V14a3.68,3.68,0,0,1,3.86-3.46H166.1A3.68,3.68,0,0,1,170,14v36.2a3.68,3.68,0,0,1-3.86,3.46Z"/><path class="cls-36" d="M13.9,53.4a3.39,3.39,0,0,1-3.55-3.18V14a3.39,3.39,0,0,1,3.55-3.18H166.1A3.39,3.39,0,0,1,169.65,14v36.2a3.39,3.39,0,0,1-3.55,3.18Z"/><path class="cls-37" d="M169.34,50.22a3.1,3.1,0,0,1-3.24,2.9H13.9a3.1,3.1,0,0,1-3.24-2.9V14a3.09,3.09,0,0,1,3.24-2.89H166.1A3.09,3.09,0,0,1,169.34,14Z"/></g><rect class="cls-38" x="6.81" y="1.9" width="166.38" height="51.48" rx="25.74"/><rect class="cls-39" x="8.47" y="3.56" width="163.06" height="48.15" rx="24.08"/><text class="cls-40" transform="translate(23.81 34.54) scale(1.03 1)">CLICK<tspan class="cls-41" x="54.13" y="0"> </tspan><tspan class="cls-42" x="57.58" y="0">T</tspan><tspan x="69.54" y="0">O</tspan><tspan class="cls-43" x="84.76" y="0"> </tspan><tspan x="88.5" y="0">WIN</tspan></text><path class="cls-44" d="M157.85,5.94,24.36,50.27S5.1,43.71,9.54,20.56C11,13,18.14,5.7,25.56,3.89c4.13-1,9.19-.33,13.46-.33H142.34c2.44,0,5,.2,7.41,0A13.79,13.79,0,0,1,157.85,5.94Z"/><path class="cls-45" d="M29.54,3.37l122.62.34s7.16,2.51,10.15,5c0,0-5.66-3.54-10.84-3.54H27.77s-4.84-.7-11,3.54A18.59,18.59,0,0,1,29.54,3.37Z"/><text class="cls-46" transform="translate(22.78 33.51) scale(1.03 1)">CLICK<tspan class="cls-41" x="54.13" y="0"> </tspan><tspan class="cls-42" x="57.58" y="0">T</tspan><tspan class="cls-47" x="69.54" y="0">O</tspan><tspan class="cls-48" x="84.76" y="0"> </tspan><tspan x="88.5" y="0">WIN</tspan></text><g class="cls-49"><ellipse class="cls-50" cx="85.05" cy="25.94" rx="55.5" ry="25.94"/></g></g></g></g></svg>