<svg xmlns="http://www.w3.org/2000/svg" xmlns:xlink="http://www.w3.org/1999/xlink" viewBox="0 0 246 47.67"><defs><style>.cls-1{isolation:isolate;}.cls-2{fill:url(#linear-gradient);}.cls-3{fill:url(#linear-gradient-2);}.cls-4{opacity:0.5;mix-blend-mode:screen;fill:url(#linear-gradient-3);}.cls-5{fill:#f90047;}.cls-6{opacity:0.82;mix-blend-mode:overlay;}.cls-7{fill:url(#radial-gradient);}</style><linearGradient id="linear-gradient" x1="123.06" y1="45.19" x2="123.06" y2="1.51" gradientUnits="userSpaceOnUse"><stop offset="0" stop-color="#7f0015"/><stop offset="1" stop-color="#bf001a"/></linearGradient><linearGradient id="linear-gradient-2" x1="123.06" y1="45.19" x2="123.06" y2="1.51" gradientUnits="userSpaceOnUse"><stop offset="0" stop-color="#bf007a"/><stop offset="1" stop-color="#bf0005"/></linearGradient><linearGradient id="linear-gradient-3" y1="23.23" x2="231.02" y2="23.23" gradientUnits="userSpaceOnUse"><stop offset="0" stop-color="#bf007a"/><stop offset="1" stop-color="#ff0007"/></linearGradient><radialGradient id="radial-gradient" cx="-2038.46" cy="-448.96" r="11.78" gradientTransform="translate(8707.7 932.31) scale(4.21 2.02)" gradientUnits="userSpaceOnUse"><stop offset="0" stop-color="#fff"/><stop offset="0.15" stop-color="#fffffe" stop-opacity="0.99"/><stop offset="0.28" stop-color="#fffef9" stop-opacity="0.95"/><stop offset="0.4" stop-color="#fffdf2" stop-opacity="0.88"/><stop offset="0.52" stop-color="#fffce8" stop-opacity="0.78"/><stop offset="0.63" stop-color="#fffada" stop-opacity="0.66"/><stop offset="0.74" stop-color="#fff8ca" stop-opacity="0.5"/><stop offset="0.85" stop-color="#fff5b7" stop-opacity="0.32"/><stop offset="0.95" stop-color="#fff2a1" stop-opacity="0.12"/><stop offset="1" stop-color="#fff094" stop-opacity="0"/></radialGradient></defs><title>cta-btn-bg-sm</title><g class="cls-1"><g id="Layer_2" data-name="Layer 2"><g id="Layer_1-2" data-name="Layer 1"><rect class="cls-2" x="0.12" y="1.51" width="245.88" height="43.68" rx="20.88"/><rect class="cls-3" x="0.12" y="1.51" width="245.88" height="43.68" rx="20.88"/><path class="cls-4" d="M231,3.7,24,45.19S-5.86,39.05,1,17.38c2.24-7,13.34-13.9,24.84-15.59,6.4-.94,14.26-.31,20.87-.31H207c3.79,0,7.72.18,11.5,0A33,33,0,0,1,231,3.7Z"/><path class="cls-5" d="M29.18,3l192.18.29s11.21,2.17,15.9,4.33c0,0-8.86-3-17-3H26.41A44.3,44.3,0,0,0,9.09,7.59S17,2.9,29.18,3Z"/><g class="cls-6"><ellipse class="cls-7" cx="121.5" cy="23.84" rx="49.62" ry="23.84"/></g></g></g></g></svg>