<svg xmlns="http://www.w3.org/2000/svg" xmlns:xlink="http://www.w3.org/1999/xlink" viewBox="0 0 239 59.53"><defs><style>.cls-1{isolation:isolate;}.cls-2{fill:url(#linear-gradient);}.cls-3{fill:url(#linear-gradient-2);}.cls-4{opacity:0.5;mix-blend-mode:screen;fill:url(#linear-gradient-3);}.cls-5{opacity:0.82;mix-blend-mode:overlay;}.cls-6{fill:url(#radial-gradient);}.cls-7{fill:#f90047;}</style><linearGradient id="linear-gradient" x1="119.5" y1="59.53" x2="119.5" gradientUnits="userSpaceOnUse"><stop offset="0" stop-color="#7f0015"/><stop offset="1" stop-color="#bf001a"/></linearGradient><linearGradient id="linear-gradient-2" x1="119.5" y1="57.61" x2="119.5" y2="1.92" gradientUnits="userSpaceOnUse"><stop offset="0" stop-color="#bf007a"/><stop offset="1" stop-color="#bf0005"/></linearGradient><linearGradient id="linear-gradient-3" x1="2.97" y1="28.8" x2="216.97" y2="28.8" gradientUnits="userSpaceOnUse"><stop offset="0" stop-color="#bf007a"/><stop offset="1" stop-color="#ff0007"/></linearGradient><radialGradient id="radial-gradient" cx="-2182.34" cy="4.86" r="12.85" gradientTransform="translate(6607.3 19.97) scale(2.97 2.02)" gradientUnits="userSpaceOnUse"><stop offset="0" stop-color="#fff"/><stop offset="0.15" stop-color="#fffffe" stop-opacity="0.99"/><stop offset="0.28" stop-color="#fffef9" stop-opacity="0.95"/><stop offset="0.4" stop-color="#fffdf2" stop-opacity="0.88"/><stop offset="0.52" stop-color="#fffce8" stop-opacity="0.78"/><stop offset="0.63" stop-color="#fffada" stop-opacity="0.66"/><stop offset="0.74" stop-color="#fff8ca" stop-opacity="0.5"/><stop offset="0.85" stop-color="#fff5b7" stop-opacity="0.32"/><stop offset="0.95" stop-color="#fff2a1" stop-opacity="0.12"/><stop offset="1" stop-color="#fff094" stop-opacity="0"/></radialGradient></defs><title>cta-btn-bg-2</title><g class="cls-1"><g id="Layer_2" data-name="Layer 2"><g id="Layer_1-2" data-name="Layer 1"><path class="cls-2" d="M37,59.53C16.55,59.53,0,46.2,0,29.77H0C0,13.33,16.55,0,37,0H202c20.42,0,37,13.33,37,29.77h0c0,16.43-16.55,29.76-37,29.76Z"/><path class="cls-3" d="M236.61,29.77c0,15.31-15.56,27.84-34.58,27.84H37c-19,0-34.58-12.53-34.58-27.84h0C2.39,14.45,18,1.92,37,1.92H202c19,0,34.58,12.53,34.58,27.85Z"/><path class="cls-4" d="M217,4.67,25.21,55.94S-2.46,48.35,3.92,21.58C6,12.87,16.28,4.39,26.93,2.3c5.93-1.16,13.21-.38,19.34-.38H194.68c3.51,0,7.15.23,10.65,0A23.73,23.73,0,0,1,217,4.67Z"/><g class="cls-5"><ellipse class="cls-6" cx="117.79" cy="29.8" rx="38.21" ry="26"/></g><path class="cls-7" d="M32.66,1.71l176.13.38S219.07,5,223.37,7.9c0,0-8.13-4.1-15.58-4.1H30.11S23.16,3,14.24,7.9A29.65,29.65,0,0,1,32.66,1.71Z"/></g></g></g></svg>