<svg xmlns="http://www.w3.org/2000/svg" xmlns:xlink="http://www.w3.org/1999/xlink" viewBox="0 0 180 61.11"><defs><style>.cls-1{isolation:isolate;}.cls-2{mix-blend-mode:multiply;}.cls-3{fill:#fff;opacity:0;}.cls-4{fill:#fcfcfc;opacity:0.03;}.cls-5{fill:#f9f9f9;opacity:0.06;}.cls-6{fill:#f6f6f6;opacity:0.09;}.cls-7{fill:#f3f3f3;opacity:0.12;}.cls-8{fill:#f0f0f0;opacity:0.15;}.cls-9{fill:#ededed;opacity:0.18;}.cls-10{fill:#eaeaea;opacity:0.21;}.cls-11{fill:#e7e7e7;opacity:0.24;}.cls-12{fill:#e4e4e4;opacity:0.26;}.cls-13{fill:#e1e1e1;opacity:0.29;}.cls-14{fill:#dedede;opacity:0.32;}.cls-15{fill:#dbdbdb;opacity:0.35;}.cls-16{fill:#d8d8d8;opacity:0.38;}.cls-17{fill:#d5d5d5;opacity:0.41;}.cls-18{fill:#d2d2d2;opacity:0.44;}.cls-19{fill:#cfcfcf;opacity:0.47;}.cls-20{fill:#ccc;}.cls-20,.cls-40{opacity:0.5;}.cls-21{fill:#c9c9c9;opacity:0.53;}.cls-22{fill:#c6c6c6;opacity:0.56;}.cls-23{fill:#c3c3c3;opacity:0.59;}.cls-24{fill:silver;opacity:0.62;}.cls-25{fill:#bdbdbd;opacity:0.65;}.cls-26{fill:#bababa;opacity:0.68;}.cls-27{fill:#b7b7b7;opacity:0.71;}.cls-28{fill:#b4b4b4;opacity:0.74;}.cls-29{fill:#b1b1b1;opacity:0.76;}.cls-30{fill:#aeaeae;opacity:0.79;}.cls-31{fill:#ababab;opacity:0.82;}.cls-32{fill:#a8a8a8;opacity:0.85;}.cls-33{fill:#a5a5a5;opacity:0.88;}.cls-34{fill:#a2a2a2;opacity:0.91;}.cls-35{fill:#9f9f9f;opacity:0.94;}.cls-36{fill:#9c9c9c;opacity:0.97;}.cls-37{fill:#999;}.cls-38{fill:url(#linear-gradient);}.cls-39{fill:url(#linear-gradient-2);}.cls-40{mix-blend-mode:screen;fill:url(#linear-gradient-3);}.cls-41{fill:#f90047;}</style><linearGradient id="linear-gradient" x1="90" y1="51.81" x2="90" y2="0.33" gradientUnits="userSpaceOnUse"><stop offset="0" stop-color="#7f0015"/><stop offset="1" stop-color="#bf001a"/></linearGradient><linearGradient id="linear-gradient-2" x1="90" y1="50.15" x2="90" y2="1.99" gradientUnits="userSpaceOnUse"><stop offset="0" stop-color="#bf007a"/><stop offset="1" stop-color="#bf0005"/></linearGradient><linearGradient id="linear-gradient-3" x1="8.87" y1="25.24" x2="157.85" y2="25.24" gradientUnits="userSpaceOnUse"><stop offset="0" stop-color="#bf007a"/><stop offset="1" stop-color="#ff0007"/></linearGradient></defs><title>cta-btn</title><g class="cls-1"><g id="Layer_2" data-name="Layer 2"><g id="Layer_1-2" data-name="Layer 1"><g class="cls-2"><path class="cls-3" d="M13.9,61.11C6.23,61.11,0,55.52,0,48.65V12.45C0,5.59,6.23,0,13.9,0H166.1C173.77,0,180,5.59,180,12.45v36.2c0,6.87-6.23,12.46-13.9,12.46Z"/><path class="cls-4" d="M13.9,60.83C6.41,60.83.31,55.37.31,48.65V12.45C.31,5.74,6.41.28,13.9.28H166.1c7.49,0,13.59,5.46,13.59,12.17v36.2c0,6.72-6.1,12.18-13.59,12.18Z"/><path class="cls-5" d="M13.9,60.54C6.58,60.54.63,55.21.63,48.65V12.45C.63,5.9,6.58.56,13.9.56H166.1c7.32,0,13.27,5.34,13.27,11.89v36.2c0,6.56-6,11.89-13.27,11.89Z"/><path class="cls-6" d="M13.9,60.26c-7.15,0-13-5.2-13-11.61V12.45C.94,6.05,6.75.84,13.9.84H166.1c7.15,0,13,5.21,13,11.61v36.2c0,6.41-5.81,11.61-13,11.61Z"/><path class="cls-7" d="M13.9,60c-7,0-12.65-5.08-12.65-11.33V12.45C1.25,6.21,6.93,1.12,13.9,1.12H166.1c7,0,12.65,5.09,12.65,11.33v36.2c0,6.25-5.68,11.33-12.65,11.33Z"/><path class="cls-8" d="M13.9,59.7c-6.8,0-12.33-5-12.33-11.05V12.45c0-6.09,5.53-11,12.33-11H166.1c6.8,0,12.33,5,12.33,11v36.2c0,6.1-5.53,11.05-12.33,11.05Z"/><path class="cls-9" d="M13.9,59.42c-6.63,0-12-4.83-12-10.77V12.45c0-5.93,5.39-10.76,12-10.76H166.1c6.63,0,12,4.83,12,10.76v36.2c0,5.94-5.39,10.77-12,10.77Z"/><path class="cls-10" d="M13.9,59.14c-6.45,0-11.7-4.71-11.7-10.49V12.45C2.2,6.67,7.45,2,13.9,2H166.1c6.45,0,11.7,4.7,11.7,10.48v36.2c0,5.78-5.25,10.49-11.7,10.49Z"/><path class="cls-11" d="M13.9,58.86c-6.28,0-11.39-4.58-11.39-10.21V12.45c0-5.62,5.11-10.2,11.39-10.2H166.1c6.28,0,11.39,4.58,11.39,10.2v36.2c0,5.63-5.11,10.21-11.39,10.21Z"/><path class="cls-12" d="M13.9,58.58c-6.11,0-11.08-4.46-11.08-9.93V12.45c0-5.47,5-9.92,11.08-9.92H166.1c6.11,0,11.08,4.45,11.08,9.92v36.2c0,5.47-5,9.93-11.08,9.93Z"/><path class="cls-13" d="M13.9,58.3C8,58.3,3.14,54,3.14,48.65V12.45C3.14,7.14,8,2.81,13.9,2.81H166.1c5.94,0,10.76,4.33,10.76,9.64v36.2c0,5.32-4.82,9.65-10.76,9.65Z"/><path class="cls-14" d="M13.9,58C8.14,58,3.45,53.81,3.45,48.65V12.45c0-5.16,4.69-9.36,10.45-9.36H166.1c5.76,0,10.45,4.2,10.45,9.36v36.2c0,5.16-4.69,9.37-10.45,9.37Z"/><path class="cls-15" d="M13.9,57.73c-5.59,0-10.14-4.07-10.14-9.08V12.45c0-5,4.55-9.08,10.14-9.08H166.1c5.59,0,10.14,4.08,10.14,9.08v36.2c0,5-4.55,9.08-10.14,9.08Z"/><path class="cls-16" d="M13.9,57.45c-5.42,0-9.82-4-9.82-8.8V12.45c0-4.85,4.4-8.8,9.82-8.8H166.1c5.42,0,9.82,4,9.82,8.8v36.2c0,4.85-4.4,8.8-9.82,8.8Z"/><path class="cls-17" d="M13.9,57.17c-5.24,0-9.51-3.82-9.51-8.52V12.45c0-4.69,4.27-8.51,9.51-8.51H166.1c5.24,0,9.51,3.82,9.51,8.51v36.2c0,4.7-4.27,8.52-9.51,8.52Z"/><path class="cls-18" d="M13.9,56.89c-5.07,0-9.2-3.7-9.2-8.24V12.45c0-4.54,4.13-8.23,9.2-8.23H166.1c5.07,0,9.2,3.69,9.2,8.23v36.2c0,4.54-4.13,8.24-9.2,8.24Z"/><path class="cls-19" d="M13.9,56.61C9,56.61,5,53,5,48.65V12.45C5,8.07,9,4.5,13.9,4.5H166.1c4.9,0,8.88,3.57,8.88,8v36.2c0,4.39-4,8-8.88,8Z"/><path class="cls-20" d="M13.9,56.33c-4.72,0-8.57-3.45-8.57-7.68V12.45c0-4.23,3.85-7.67,8.57-7.67H166.1c4.72,0,8.57,3.44,8.57,7.67v36.2c0,4.23-3.85,7.68-8.57,7.68Z"/><path class="cls-21" d="M13.9,56.05c-4.55,0-8.25-3.32-8.25-7.4V12.45c0-4.07,3.7-7.39,8.25-7.39H166.1c4.55,0,8.25,3.32,8.25,7.39v36.2c0,4.08-3.7,7.4-8.25,7.4Z"/><path class="cls-22" d="M13.9,55.77C9.52,55.77,6,52.57,6,48.65V12.45C6,8.53,9.52,5.34,13.9,5.34H166.1c4.38,0,7.94,3.19,7.94,7.11v36.2c0,3.92-3.56,7.12-7.94,7.12Z"/><path class="cls-23" d="M13.9,55.49c-4.2,0-7.63-3.07-7.63-6.84V12.45c0-3.76,3.43-6.83,7.63-6.83H166.1c4.2,0,7.63,3.07,7.63,6.83v36.2c0,3.77-3.43,6.84-7.63,6.84Z"/><path class="cls-24" d="M13.9,55.2c-4,0-7.31-2.94-7.31-6.55V12.45c0-3.61,3.28-6.55,7.31-6.55H166.1c4,0,7.31,2.94,7.31,6.55v36.2c0,3.61-3.28,6.55-7.31,6.55Z"/><path class="cls-25" d="M13.9,54.92c-3.86,0-7-2.81-7-6.27V12.45C6.9,9,10,6.18,13.9,6.18H166.1c3.86,0,7,2.82,7,6.27v36.2c0,3.46-3.14,6.27-7,6.27Z"/><path class="cls-26" d="M13.9,54.64c-3.69,0-6.69-2.69-6.69-6V12.45c0-3.3,3-6,6.69-6H166.1c3.69,0,6.69,2.68,6.69,6v36.2c0,3.3-3,6-6.69,6Z"/><path class="cls-27" d="M13.9,54.36c-3.51,0-6.37-2.56-6.37-5.71V12.45c0-3.14,2.86-5.7,6.37-5.7H166.1c3.51,0,6.37,2.56,6.37,5.7v36.2c0,3.15-2.86,5.71-6.37,5.71Z"/><path class="cls-28" d="M13.9,54.08c-3.34,0-6.06-2.44-6.06-5.43V12.45c0-3,2.72-5.42,6.06-5.42H166.1c3.34,0,6.06,2.43,6.06,5.42v36.2c0,3-2.72,5.43-6.06,5.43Z"/><path class="cls-29" d="M13.9,53.8c-3.17,0-5.74-2.31-5.74-5.15V12.45c0-2.83,2.57-5.14,5.74-5.14H166.1c3.17,0,5.74,2.31,5.74,5.14v36.2c0,2.84-2.57,5.15-5.74,5.15Z"/><path class="cls-30" d="M13.9,53.52a5.18,5.18,0,0,1-5.43-4.87V12.45A5.18,5.18,0,0,1,13.9,7.59H166.1a5.18,5.18,0,0,1,5.43,4.86v36.2a5.18,5.18,0,0,1-5.43,4.87Z"/><path class="cls-31" d="M13.9,53.24a4.88,4.88,0,0,1-5.12-4.59V12.45A4.88,4.88,0,0,1,13.9,7.87H166.1a4.88,4.88,0,0,1,5.12,4.58v36.2a4.88,4.88,0,0,1-5.12,4.59Z"/><path class="cls-32" d="M13.9,53a4.58,4.58,0,0,1-4.8-4.31V12.45a4.57,4.57,0,0,1,4.8-4.3H166.1a4.57,4.57,0,0,1,4.8,4.3v36.2A4.58,4.58,0,0,1,166.1,53Z"/><path class="cls-33" d="M13.9,52.67a4.28,4.28,0,0,1-4.49-4V12.45a4.29,4.29,0,0,1,4.49-4H166.1a4.29,4.29,0,0,1,4.49,4v36.2a4.28,4.28,0,0,1-4.49,4Z"/><path class="cls-34" d="M13.9,52.39a4,4,0,0,1-4.18-3.74V12.45A4,4,0,0,1,13.9,8.71H166.1a4,4,0,0,1,4.18,3.74v36.2a4,4,0,0,1-4.18,3.74Z"/><path class="cls-35" d="M13.9,52.11A3.68,3.68,0,0,1,10,48.65V12.45A3.68,3.68,0,0,1,13.9,9H166.1A3.68,3.68,0,0,1,170,12.45v36.2a3.68,3.68,0,0,1-3.86,3.46Z"/><path class="cls-36" d="M13.9,51.83a3.39,3.39,0,0,1-3.55-3.18V12.45A3.39,3.39,0,0,1,13.9,9.28H166.1a3.39,3.39,0,0,1,3.55,3.17v36.2a3.39,3.39,0,0,1-3.55,3.18Z"/><path class="cls-37" d="M169.34,48.65a3.09,3.09,0,0,1-3.24,2.9H13.9a3.09,3.09,0,0,1-3.24-2.9V12.45A3.09,3.09,0,0,1,13.9,9.56H166.1a3.09,3.09,0,0,1,3.24,2.89Z"/></g><rect class="cls-38" x="6.81" y="0.33" width="166.38" height="51.48" rx="25.74"/><rect class="cls-39" x="8.47" y="1.99" width="163.06" height="48.15" rx="24.08"/><path class="cls-40" d="M157.85,4.37,24.36,48.7S5.1,42.14,9.54,19c1.44-7.53,8.6-14.86,16-16.67C29.69,1.32,34.75,2,39,2H142.34c2.44,0,5,.2,7.41,0A13.79,13.79,0,0,1,157.85,4.37Z"/><path class="cls-41" d="M29.54,1.81l122.62.33s7.16,2.51,10.15,5c0,0-5.66-3.54-10.84-3.54H27.77s-4.84-.7-11,3.54A18.55,18.55,0,0,1,29.54,1.81Z"/></g></g></g></svg>