<svg xmlns="http://www.w3.org/2000/svg" viewBox="0 0 106.86 228.89"><defs><style>.cls-1,.cls-2{fill:none;stroke:#fff;stroke-miterlimit:10;stroke-width:0.97px;}.cls-2{stroke-dasharray:1.94 1.94;}</style></defs><title>dotted-line-2</title><g id="Layer_2" data-name="Layer 2"><g id="Layer_1-2" data-name="Layer 1"><path class="cls-1" d="M68.7.41l-.81.53"/><path class="cls-2" d="M66.29,2C57.94,7.84,41.62,21,57.22,27.21c6.62,2.63,14.45-2.39,13.17-9.2C68.75,9.26,60,2.6,51,1.43,38.21-.24,19,8.48,16.15,21.27c-1.64,7.25,2.45,14.61,7.64,20.16a30.83,30.83,0,0,0,10.55,7.76c10.2,4.2,19.35-2.15,27.45-7.46,17.35-11.38,45.95-1.56,44.53,20.69-.44,7-3.83,13.54-8.35,19.06-5.24,6.4-12.11,13.18-19.91,16.73-13,5.93-30.52-1.47-42.2,7.66-7.7,6-8.19,16.59-12.56,24.52C17.38,141.1,9.37,150.77,3.41,161.5c-2.9,5.22-4.3,11.83-1.08,16.9,3.34,5.27,10.34,7.94,14.81,12.3,11.21,10.92,13.62,37.77,34.33,37.71"/><path class="cls-1" d="M52.45,228.38l1-.06"/></g></g></svg>