<svg xmlns="http://www.w3.org/2000/svg" viewBox="0 0 165.38 161.63"><defs><style>.cls-1{fill:none;stroke:#fff;stroke-miterlimit:10;stroke-width:1.05px;stroke-dasharray:2.1;}</style></defs><title>dotted-line-1</title><g id="Layer_2" data-name="Layer 2"><g id="Layer_1-2" data-name="Layer 1"><path class="cls-1" d="M.14,30.31c19,5.26,38.76,9.88,58.67,10.86,14,.68,45.79-3.65,40.31-22.72C97.16,11.64,90.83,6.54,84,3.28A24.06,24.06,0,0,0,74,.53c-3.52,0-7.21,1.29-9.12,4-1.56,2.21-1.75,5-1.46,7.62.66,5.92,3.54,11.44,6.87,16.56,2.65,4.08,5.7,8.07,9.87,10.91S89.79,44,94.81,42.76c6.13-1.51,10.24-6.66,13.52-11.64,12.83-19.44,38-12.11,49.33,5.17C169.29,54,165,77.61,157.7,96c-9,22.83-28.6,41.2-51.72,52.63-9.16,4.53-68.31,26-59.49-.5"/></g></g></svg>