<svg xmlns="http://www.w3.org/2000/svg" xmlns:xlink="http://www.w3.org/1999/xlink" viewBox="0 0 40.66 57.39"><defs><style>.cls-1{fill:url(#radial-gradient);}.cls-2{fill:url(#radial-gradient-2);}.cls-3{fill:url(#radial-gradient-3);}.cls-4{fill:url(#linear-gradient);}.cls-5{fill:url(#radial-gradient-4);}.cls-6{mask:url(#mask);}.cls-7{fill:url(#radial-gradient-5);}.cls-8{fill:#ea1351;}</style><radialGradient id="radial-gradient" cx="-1193.95" cy="-24.49" r="56.67" gradientTransform="translate(-538.08 35.76) rotate(180) scale(0.46)" gradientUnits="userSpaceOnUse"><stop offset="0.56"/><stop offset="1" stop-color="#fff"/></radialGradient><radialGradient id="radial-gradient-2" cx="-1176.41" cy="-33.06" r="129.98" gradientTransform="translate(-575.5 38.11) rotate(180) scale(0.49)" gradientUnits="userSpaceOnUse"><stop offset="0" stop-color="#e9140e"/><stop offset="0.16" stop-color="#e5140e"/><stop offset="0.33" stop-color="#d8130c"/><stop offset="0.5" stop-color="#c3120a"/><stop offset="0.68" stop-color="#a51106"/><stop offset="0.74" stop-color="#9a1005"/><stop offset="1" stop-color="#700000"/></radialGradient><radialGradient id="radial-gradient-3" cx="-1194.91" cy="-23.5" r="88.25" gradientTransform="translate(-575.5 38.11) rotate(180) scale(0.49)" gradientUnits="userSpaceOnUse"><stop offset="0" stop-color="#e9140e"/><stop offset="0.26" stop-color="#e6140e"/><stop offset="0.47" stop-color="#db130c"/><stop offset="0.67" stop-color="#ca120a"/><stop offset="0.86" stop-color="#b21108"/><stop offset="1" stop-color="#9a1005"/></radialGradient><linearGradient id="linear-gradient" x1="-825.72" y1="-369.32" x2="-811.37" y2="-396.23" gradientTransform="translate(-798.33 -345.49) rotate(180)" gradientUnits="userSpaceOnUse"><stop offset="0" stop-color="#e9140e"/><stop offset="1" stop-color="#9a1005"/></linearGradient><radialGradient id="radial-gradient-4" cx="-1215.49" cy="2.15" r="28.06" gradientTransform="translate(-575.5 38.11) rotate(180) scale(0.49)" gradientUnits="userSpaceOnUse"><stop offset="0.65" stop-color="#fff"/><stop offset="0.88" stop-color="#dfdfdf"/><stop offset="1" stop-color="#898c91"/></radialGradient><mask id="mask" x="8.17" y="23.79" width="25.91" height="25.91" maskUnits="userSpaceOnUse"><path class="cls-1" d="M8.17,36.74a13,13,0,1,1,13,13A13,13,0,0,1,8.17,36.74Z"/></mask><radialGradient id="radial-gradient-5" cx="-1186.67" cy="-15.69" r="56.49" gradientTransform="translate(-538.08 35.76) rotate(180) scale(0.46)" gradientUnits="userSpaceOnUse"><stop offset="0.36" stop-color="#fff"/><stop offset="0.78" stop-color="#c8ccd6"/><stop offset="1" stop-color="#afb5c3"/></radialGradient></defs><title>pin-point</title><g id="Layer_2" data-name="Layer 2"><g id="Layer_1-2" data-name="Layer 1"><path class="cls-2" d="M20.24,0l.32.31c.12.12,14,17,18.58,29a20,20,0,0,1,1.32,4.84c0,.1,0,.19,0,.29.07.52.11,1,.13,1.44s0,.78,0,1.15A20.33,20.33,0,1,1,0,37.05c0-.21,0-.43,0-.65a14.25,14.25,0,0,1,.41-3.49c0-.06,0-.12,0-.18l0-.13A21.17,21.17,0,0,1,1.25,30v0s0,0,0-.06C5.68,18.1,19.82.52,20,.34L20.24,0Z"/><path class="cls-3" d="M.4,37.05a19.94,19.94,0,1,0,39.87,0c0-.38,0-.76,0-1.14s-.06-.89-.12-1.39h0a2.7,2.7,0,0,0,0-.28,19.46,19.46,0,0,0-1.29-4.76C34.24,17.75,20.49.81,20.28.6c0,0-14.2,17.56-18.63,29.47a.32.32,0,0,1,0,.09,19.39,19.39,0,0,0-.74,2.53c0,.1-.05.2-.07.3a14.19,14.19,0,0,0-.4,3.41C.4,36.62.4,36.84.4,37.05Z"/><path class="cls-4" d="M5.38,37.05a15,15,0,1,1,15,15A15,15,0,0,1,5.38,37.05Z"/><path class="cls-5" d="M6.58,37.05A13.76,13.76,0,1,1,20.33,50.81,13.76,13.76,0,0,1,6.58,37.05Z"/><g class="cls-6"><path class="cls-7" d="M8.17,36.74a13,13,0,1,1,13,13A13,13,0,0,1,8.17,36.74Z"/></g><circle class="cls-8" cx="20.33" cy="36.92" r="8.77"/></g></g></svg>