<svg xmlns="http://www.w3.org/2000/svg" viewBox="0 0 17.42 17.12"><defs><style>.cls-1{fill:#e39934;}</style></defs><title>bottom-left</title><g id="Layer_2" data-name="Layer 2"><g id="Layer_1-2" data-name="Layer 1"><path class="cls-1" d="M.86,0H.31V8.75H2.87V11H0v6.1H5.93V14.23H8.38v2.71h9v-.57H8.93V14.23h3V11h-3V8.18h-3V5.38H2.87v2.8h-2ZM3.42,8.75h2V11h-2Zm2,2.84v2.07h-2V11.59Zm0,5H.56v-5H2.87v2.64H5.38Zm.55-2.89V11.59H8.38v2.07Zm5.4-2.07v2.07H8.93V11.59ZM8.38,8.75V11H5.93V8.75ZM3.42,6h2V8.18h-2Z"/></g></g></svg>