<svg xmlns="http://www.w3.org/2000/svg" xmlns:xlink="http://www.w3.org/1999/xlink" width="105.772" height="105.772" viewBox="0 0 105.772 105.772"><defs><linearGradient id="a" x1="0.5" y1="0.471" x2="0.5" y2="1" gradientUnits="objectBoundingBox"><stop offset="0" stop-color="#00a59c"/><stop offset="1" stop-color="#00716c"/></linearGradient><filter id="b" x="0" y="0" width="105.772" height="105.772" filterUnits="userSpaceOnUse"><feOffset dy="2" input="SourceAlpha"/><feGaussianBlur stdDeviation="3" result="c"/><feFlood flood-color="#694901" flood-opacity="0.467"/><feComposite operator="in" in2="c"/><feComposite in="SourceGraphic"/></filter></defs><g transform="translate(9 7)"><g transform="matrix(1, 0, 0, 1, -9, -7)" filter="url(#b)"><rect width="87.772" height="87.772" rx="8.239" transform="translate(9 7)" fill="url(#a)"/></g><g transform="translate(20.748 8.317)"><path d="M-484.655-213.213a23.164,23.164,0,0,0-23.025-23.249h-.114a23.166,23.166,0,0,0-23.136,23.025,23.175,23.175,0,0,0,18.522,22.784l-.041,8.392-4.964-.024-.044,9.01,4.965.024-.025,5.156,9.01.043.025-5.155,4.964.024.044-9.01-4.965-.024.041-8.394A23.175,23.175,0,0,0-484.655-213.213Zm-37.265-.181a14.144,14.144,0,0,1,14.126-14.059h.07a14.144,14.144,0,0,1,14.059,14.2A14.144,14.144,0,0,1-507.791-199.2h-.069A14.144,14.144,0,0,1-521.92-213.394Z" transform="translate(530.93 236.463)" fill="#fff"/></g></g></svg>