<svg xmlns="http://www.w3.org/2000/svg" xmlns:xlink="http://www.w3.org/1999/xlink" width="105.772" height="105.772" viewBox="0 0 105.772 105.772"><defs><linearGradient id="a" x1="0.5" y1="0.471" x2="0.5" y2="1" gradientUnits="objectBoundingBox"><stop offset="0" stop-color="#00a59c"/><stop offset="1" stop-color="#00716c"/></linearGradient><filter id="b" x="0" y="0" width="105.772" height="105.772" filterUnits="userSpaceOnUse"><feOffset dy="2" input="SourceAlpha"/><feGaussianBlur stdDeviation="3" result="c"/><feFlood flood-color="#694901" flood-opacity="0.467"/><feComposite operator="in" in2="c"/><feComposite in="SourceGraphic"/></filter></defs><g transform="translate(9 7)"><g transform="matrix(1, 0, 0, 1, -9, -7)" filter="url(#b)"><rect width="87.772" height="87.772" rx="8.239" transform="translate(9 7)" fill="url(#a)"/></g><path d="M-390.236-228.529v5.406h5.816L-393.649-214a22.971,22.971,0,0,0-12.852-3.966h-.115a22.988,22.988,0,0,0-16.278,6.7,22.988,22.988,0,0,0-6.857,16.327,22.988,22.988,0,0,0,6.7,16.394,22.986,22.986,0,0,0,16.328,6.857h.115a22.987,22.987,0,0,0,16.278-6.7,22.985,22.985,0,0,0,6.857-16.328,22.968,22.968,0,0,0-3.835-12.88l8.994-8.893v5.283h5.406v-17.325Zm-6.436,43.741a14.053,14.053,0,0,1-10.01,4.089,14.032,14.032,0,0,1-9.97-4.186,14.039,14.039,0,0,1-4.09-10.01,14.039,14.039,0,0,1,4.186-9.97,14.04,14.04,0,0,1,9.94-4.09h.07a14.032,14.032,0,0,1,9.97,4.186,14.039,14.039,0,0,1,4.09,10.01A14.039,14.039,0,0,1-396.672-184.788Z" transform="translate(444.751 243.846)" fill="#fcfcfc"/></g></svg>