<svg xmlns="http://www.w3.org/2000/svg" viewBox="0 0 17.12 17.42"><defs><style>.cls-1{fill:#e39934;}</style></defs><title>top-left</title><g id="Layer_2" data-name="Layer 2"><g id="Layer_1-2" data-name="Layer 1"><path class="cls-1" d="M17.12.86V.31H8.37V2.87H6.1V0H0V5.93H2.89V8.38H.18v9H.75V8.93H2.89v3H6.1v-3H8.94v-3h2.81V2.87H8.94v-2ZM8.37,3.42v2H6.1v-2Zm-2.84,2H3.47v-2H5.53Zm-5,0V.56h5V2.87H2.89V5.38Zm2.9.55H5.53V8.38H3.47Zm2.06,5.4H3.47V8.93H5.53ZM8.37,8.38H6.1V5.93H8.37Zm2.8-5v2H8.94v-2Z"/></g></g></svg>