<svg xmlns="http://www.w3.org/2000/svg" viewBox="0 0 63 63">
  <defs>
    <style>
      .cls-1, .cls-3 {
        fill: none;
      }

      .cls-1 {
        stroke: #000;
        stroke-width: 6px;
      }

      .cls-2 {
        stroke: none;
      }
    </style>
  </defs>
  <g id="Group_144" data-name="Group 144" transform="translate(604 -1153)">
    <g id="Rectangle_51" data-name="Rectangle 51" class="cls-1" transform="translate(-604 1153)">
      <rect class="cls-2" width="63" height="63" rx="14"/>
      <rect class="cls-3" x="3" y="3" width="57" height="57" rx="11"/>
    </g>
    <g id="Group_143" data-name="Group 143" transform="translate(-585.204 1167.676)">
      <path id="Path_57" data-name="Path 57" d="M4.655,20.081c.431,2.973,3.3,4.738,7.313,4.738,3.875,0,6.563-1.9,6.563-4.592,0-2.329-1.619-3.729-5.773-4.585L9.32,14.925C2.9,13.6-.109,10.585-.109,5.9c0-5.674,4.95-9.463,11.931-9.463,7.094,0,11.792,3.869,11.931,9.6H18.279c-.252-3.013-2.8-4.844-6.49-4.844C8.239,1.195,5.7,2.887,5.7,5.568c0,2.19,1.613,3.583,5.594,4.413l3.471.71c6.775,1.4,9.569,4.134,9.569,8.886,0,6.132-4.838,10-12.542,10-7.419,0-12.33-3.617-12.615-9.5Z" transform="translate(0.826 3.563)"/>
    </g>
  </g>
</svg>
