<svg xmlns="http://www.w3.org/2000/svg" viewBox="0 0 17.12 17.42"><defs><style>.cls-1{fill:#e39934;}</style></defs><title>bottom-right</title><g id="Layer_2" data-name="Layer 2"><g id="Layer_1-2" data-name="Layer 1"><path class="cls-1" d="M0,16.56v.55H8.75V14.56H11v2.86h6.1V11.49H14.23V9.05h2.71V0h-.57V8.49H14.23V5.54H11v3H8.18v3H5.38v3.07h2.8v2ZM8.75,14V12H11v2Zm2.84-2h2.07v2H11.59Zm5,0v4.83h-5V14.56h2.64V12Zm-2.89-.55H11.59V9.05h2.07Zm-2.07-5.4h2.07v2.4H11.59Zm-2.84,3H11v2.44H8.75ZM6,14V12H8.18v2Z"/></g></g></svg>