<svg xmlns="http://www.w3.org/2000/svg" viewBox="0 0 106.12 12.22"><defs><style>.cls-1{isolation:isolate;font-size:10.68px;font-family:PingFangSC-Medium-GBpc-EUC-H, PingFang SC;}.cls-1,.cls-2{fill:#fff;}</style></defs><title>ed-choice-zh</title><g id="Layer_2" data-name="Layer 2"><g id="Layer_1-2" data-name="Layer 1"><text class="cls-1" transform="translate(0 9.74)">编辑首选</text><path class="cls-2" d="M51.22,0l1.7,3.4,3.7.5-2.7,2.6.6,3.7-3.3-1.7-3.3,1.7.6-3.7-2.7-2.6,3.7-.5Z"/><path class="cls-2" d="M63.62,0l1.7,3.4,3.7.5-2.7,2.6.6,3.7-3.3-1.7-3.3,1.7.6-3.7-2.7-2.6,3.7-.5Z"/><path class="cls-2" d="M76,0l1.7,3.4,3.7.5-2.7,2.6.6,3.7L76,8.5l-3.3,1.7.6-3.7-2.7-2.6,3.7-.5Z"/><path class="cls-2" d="M88.42,0l1.7,3.4,3.7.5-2.7,2.6.6,3.7-3.3-1.7-3.3,1.7.6-3.7L83,3.9l3.7-.5Z"/><path class="cls-2" d="M100.72,0l1.7,3.4,3.7.5-2.7,2.6.7,3.7-3.3-1.7-3.3,1.7.6-3.7-2.7-2.6,3.7-.5Z"/></g></g></svg>