<?xml version="1.0" encoding="utf-8"?>
<!-- Generator: Adobe Illustrator 23.0.1, SVG Export Plug-In . SVG Version: 6.00 Build 0)  -->
<svg version="1.1" id="Layer_1" xmlns="http://www.w3.org/2000/svg" xmlns:xlink="http://www.w3.org/1999/xlink" x="0px" y="0px"
	 viewBox="0 0 139 13" style="enable-background:new 0 0 139 13;" xml:space="preserve">
<style type="text/css">
	.st0{enable-background:new    ;}
	.st1{fill:#FFFFFF;}
</style>
<g class="st0">
	<path class="st1" d="M5.1,6.2h-2v2.4h2.3V10h-4V1.2h3.8v1.5H3.1v2h2V6.2z"/>
	<path class="st1" d="M6.5,1.4C7,1.3,7.6,1.2,8.3,1.2c1.1,0,1.9,0.3,2.4,0.8c0.8,0.7,1.1,1.8,1.1,3.5c0,1.8-0.5,3-1.2,3.7
		c-0.6,0.6-1.5,0.8-2.7,0.8c-0.5,0-1.1-0.1-1.4-0.1V1.4z M8.2,8.6c0.1,0,0.2,0,0.3,0c0.8,0,1.5-0.8,1.5-3.2c0-1.8-0.5-2.9-1.5-2.9
		c-0.1,0-0.2,0-0.3,0V8.6z"/>
	<path class="st1" d="M14.6,1.2V10h-1.7V1.2H14.6z"/>
	<path class="st1" d="M17.1,2.8h-1.5V1.2h4.8v1.6h-1.6V10h-1.7V2.8z"/>
	<path class="st1" d="M26.2,5.5c0,3.3-1.2,4.6-2.8,4.6c-2,0-2.8-2.1-2.8-4.5c0-2.4,0.9-4.5,2.9-4.5C25.7,1.1,26.2,3.5,26.2,5.5z
		 M22.4,5.6c0,2,0.4,3,1.1,3c0.7,0,1-1.3,1-3.1c0-1.5-0.2-2.9-1-2.9C22.8,2.6,22.4,3.7,22.4,5.6z"/>
	<path class="st1" d="M27.3,1.4c0.5-0.1,1.2-0.2,1.9-0.2c0.9,0,1.8,0.1,2.3,0.7c0.5,0.5,0.7,1.1,0.7,1.8c0,0.9-0.5,1.8-1.4,2.2v0
		c0.6,0.2,0.9,0.8,1.1,1.7c0.2,1,0.4,2.1,0.6,2.4h-1.8c-0.1-0.2-0.3-1.1-0.4-2.1c-0.2-1.1-0.4-1.4-1-1.4H29V10h-1.7V1.4z M29,5.2
		h0.3c0.7,0,1.2-0.6,1.2-1.4c0-0.7-0.3-1.3-1.1-1.3c-0.1,0-0.3,0-0.4,0.1V5.2z"/>
	<path class="st1" d="M33.2,8.3c0.4,0.2,0.9,0.3,1.4,0.3c0.8,0,1.2-0.4,1.2-1c0-0.6-0.4-0.9-1.1-1.4c-1.2-0.7-1.7-1.7-1.7-2.4
		c0-1.4,0.9-2.6,2.8-2.6c0.6,0,1.1,0.2,1.4,0.3L37,2.9c-0.2-0.2-0.6-0.3-1.1-0.3c-0.7,0-1.1,0.4-1.1,0.9c0,0.5,0.3,0.8,1.2,1.4
		c1.2,0.7,1.6,1.6,1.6,2.5c0,1.6-1.2,2.7-2.9,2.7c-0.7,0-1.4-0.2-1.7-0.4L33.2,8.3z"/>
	<path class="st1" d="M40.2,1.1c-0.4,1.2-0.9,2.3-1.5,3.3l-0.9,0.1c0.4-1.1,0.7-2.3,0.9-3.3L40.2,1.1z"/>
	<path class="st1" d="M46.7,9.9c-0.2,0.1-0.7,0.2-1.3,0.2c-2.2,0-3.3-1.8-3.3-4.3c0-3.3,1.8-4.6,3.5-4.6c0.6,0,1,0.1,1.2,0.2
		l-0.3,1.4c-0.2-0.1-0.4-0.2-0.8-0.2c-1,0-1.8,0.8-1.8,3c0,2.1,0.8,2.9,1.8,2.9c0.3,0,0.6-0.1,0.8-0.1L46.7,9.9z"/>
	<path class="st1" d="M49.4,1.2v3.5h1.8V1.2h1.7V10h-1.7V6.3h-1.8V10h-1.7V1.2H49.4z"/>
	<path class="st1" d="M59.5,5.5c0,3.3-1.2,4.6-2.8,4.6c-2,0-2.8-2.1-2.8-4.5c0-2.4,0.9-4.5,2.9-4.5C58.9,1.1,59.5,3.5,59.5,5.5z
		 M55.7,5.6c0,2,0.4,3,1.1,3c0.7,0,1-1.3,1-3.1c0-1.5-0.2-2.9-1-2.9C56.1,2.6,55.7,3.7,55.7,5.6z"/>
	<path class="st1" d="M62.3,1.2V10h-1.7V1.2H62.3z"/>
	<path class="st1" d="M68,9.9c-0.2,0.1-0.7,0.2-1.3,0.2c-2.2,0-3.3-1.8-3.3-4.3c0-3.3,1.8-4.6,3.5-4.6c0.6,0,1,0.1,1.2,0.2l-0.3,1.4
		c-0.2-0.1-0.4-0.2-0.8-0.2c-1,0-1.8,0.8-1.8,3c0,2.1,0.8,2.9,1.8,2.9c0.3,0,0.6-0.1,0.8-0.1L68,9.9z"/>
	<path class="st1" d="M72.7,6.2h-2v2.4h2.3V10h-4V1.2h3.8v1.5h-2.1v2h2V6.2z"/>
</g>
<g transform="translate(2)">
	<path class="st1" d="M82.1,0.8l1.7,3.4l3.7,0.5l-2.7,2.6l0.6,3.7l-3.3-1.7L78.8,11l0.6-3.7l-2.7-2.6l3.7-0.5L82.1,0.8z"/>
	<path class="st1" d="M94.5,0.8l1.7,3.4l3.7,0.5l-2.7,2.6l0.6,3.7l-3.3-1.7L91.2,11l0.6-3.7l-2.7-2.6l3.7-0.5L94.5,0.8z"/>
	<path class="st1" d="M106.9,0.8l1.7,3.4l3.7,0.5l-2.7,2.6l0.6,3.7l-3.3-1.7l-3.3,1.7l0.6-3.7l-2.7-2.6l3.7-0.5L106.9,0.8z"/>
	<path class="st1" d="M119.3,0.8l1.7,3.4l3.7,0.5L122,7.3l0.6,3.7l-3.3-1.7L116,11l0.6-3.7l-2.7-2.6l3.7-0.5L119.3,0.8z"/>
	<path class="st1" d="M131.6,0.8l1.7,3.4l3.7,0.5l-2.7,2.6L135,11l-3.3-1.7l-3.3,1.7l0.6-3.7l-2.7-2.6l3.7-0.5L131.6,0.8z"/>
</g>
</svg>
