<svg xmlns="http://www.w3.org/2000/svg" width="139.007" height="13" viewBox="0 0 139.007 13"><g transform="translate(-18.99 -2.757)"><text transform="translate(55.99 12.757)" fill="#fff" font-size="13" font-family="MyriadPro-BoldCond, Myriad Pro" font-weight="700"><tspan x="-36.348" y="0">EDITORS’ CHOICE</tspan></text><g transform="translate(2)"><path d="M101.121,3.586l1.659,3.362,3.71.539L103.806,10.1l.634,3.695-3.318-1.744L97.8,13.8l.634-3.695L95.752,7.486l3.71-.539Z" fill="#fff"/><path d="M113.5,3.586l1.659,3.362,3.71.539L116.183,10.1l.634,3.695L113.5,12.053,110.18,13.8l.634-3.695-2.684-2.617,3.71-.539Z" fill="#fff"/><path d="M125.875,3.586l1.659,3.362,3.71.539L128.559,10.1l.634,3.695-3.318-1.744L122.557,13.8l.634-3.695-2.684-2.617,3.71-.539Z" fill="#fff"/><path d="M138.252,3.586l1.659,3.362,3.71.539L140.936,10.1l.634,3.695-3.318-1.744L134.934,13.8l.634-3.695-2.684-2.617,3.71-.539Z" fill="#fff"/><path d="M150.629,3.586l1.659,3.362,3.71.539L153.313,10.1l.634,3.695-3.318-1.744L147.31,13.8l.634-3.695L145.26,7.486l3.71-.539Z" fill="#fff"/></g></g></svg>