<?xml version="1.0" encoding="utf-8"?>
<!-- Generator: Adobe Illustrator 23.0.1, SVG Export Plug-In . SVG Version: 6.00 Build 0)  -->
<svg version="1.1" id="Layer_1" xmlns="http://www.w3.org/2000/svg" xmlns:xlink="http://www.w3.org/1999/xlink" x="0px" y="0px"
	 viewBox="0 0 106.1 12.2" style="enable-background:new 0 0 106.1 12.2;" xml:space="preserve">
<style type="text/css">
	.st0{enable-background:new    ;}
	.st1{fill:#FFFFFF;}
</style>
<title>ed-choice-zh</title>
<g>
	<g id="Layer_1-2">
		<g class="st0">
			<path class="st1" d="M2.9,1.3C2.5,2.6,2,3.6,1.5,4.4c0.4,0,0.7-0.1,1.1-0.2c0.2-0.3,0.3-0.7,0.5-1.1L4,3.5C3.2,5.1,2.5,6.2,1.9,7
				C2.5,6.8,3,6.7,3.6,6.5v0.9C2.6,7.7,1.7,7.9,0.8,8L0.5,7.1C0.7,7.1,0.8,7,1,6.9c0.3-0.3,0.7-0.9,1.2-1.7c-0.5,0.1-1,0.2-1.5,0.2
				L0.4,4.4c0.2-0.1,0.3-0.2,0.4-0.4c0.5-0.9,0.9-2,1.2-3.1L2.9,1.3z M3.2,9.4c-0.7,0.4-1.6,0.7-2.5,0.9l-0.1-1
				c1-0.2,1.9-0.5,2.6-0.9V9.4z M8.7,10.8L8.4,10l0.4,0c0.1,0,0.2-0.1,0.2-0.3V8.5H8.4v2.1H7.7V8.5H7.1v2.1H6.4V8.5H5.8v2.3H4.9V6.7
				c-0.2,1.6-0.6,3-1.3,4.2l-0.7-0.6c0.8-1.4,1.2-3.3,1.2-5.5V2h2.4C6.4,1.7,6.2,1.4,6.1,1.1l1-0.2C7.3,1.2,7.4,1.6,7.5,2h2.4v2.9
				H5.1l0,0.7h4.9V10c0,0.5-0.3,0.8-0.8,0.8H8.7z M5.1,2.9V4H9V2.9H5.1z M6.4,7.7V6.5H5.8v1.2H6.4z M7.1,7.7h0.6V6.5H7.1V7.7z
				 M8.4,7.7h0.7V6.5H8.4V7.7z"/>
			<path class="st1" d="M14.1,4v1.5h1.1v0.9h-1.1v1.2c0.4-0.1,0.9-0.2,1.2-0.3v0.9c-0.4,0.1-0.8,0.2-1.2,0.3v2.3h-1V8.7
				c-0.6,0.1-1.2,0.2-1.9,0.3l-0.1-1c0.7-0.1,1.4-0.2,2-0.3V6.4h-1.6l-0.2-0.9c0.3-0.6,0.5-1.3,0.7-2.1h-0.8v-1h1
				c0.1-0.4,0.2-0.9,0.3-1.4l1,0.1c-0.1,0.4-0.2,0.9-0.3,1.3h2.1v1H13c-0.2,0.8-0.4,1.5-0.7,2.1h0.8V4H14.1z M15.3,5.1V4.2h5.6v0.9
				h-0.7v3.6c0.3,0,0.6-0.1,0.8-0.1v0.9l-0.8,0.1v1.3h-1V9.7c-1.2,0.2-2.6,0.3-4,0.5L15,9.2c0.3,0,0.6-0.1,1-0.1V5.1H15.3z
				 M20.3,1.3v2.4h-4.4V1.3H20.3z M19.4,2.1h-2.4V3h2.4V2.1z M17,5.1v0.7h2.2V5.1H17z M19.2,7.4V6.7H17v0.7H19.2z M19.2,8.8V8.2H17
				v0.9C17.7,9,18.5,8.9,19.2,8.8z"/>
			<path class="st1" d="M30.3,10.9h-1v-0.4h-5.3v0.4h-1V4.2H26c0.1-0.3,0.1-0.6,0.1-0.9h-4.2v-1h2.6c-0.1-0.4-0.3-0.7-0.5-1l1-0.4
				c0.2,0.4,0.4,0.9,0.6,1.4h2.2c0.2-0.4,0.4-0.9,0.6-1.4l1,0.4c-0.1,0.4-0.3,0.7-0.5,1.1h2.6v1h-4.3c-0.1,0.3-0.1,0.6-0.2,0.9h3.3
				V10.9z M29.3,6V5.1h-5.3V6H29.3z M29.3,7.7V6.8h-5.3v0.9H29.3z M29.3,9.5V8.6h-5.3v0.9H29.3z"/>
			<path class="st1" d="M37.7,10.6c-0.7,0-1.3-0.1-1.7-0.2c-0.4-0.1-0.8-0.4-1.1-0.7c-0.1-0.2-0.3-0.3-0.4-0.3
				c-0.2,0-0.6,0.5-1.2,1.5l-0.7-0.7c0.5-0.9,1-1.4,1.5-1.6v-3h-1.4V4.6H35v4c0,0,0.1,0.1,0.1,0.2c0.3,0.3,0.5,0.5,0.8,0.6
				c0.3,0.1,0.8,0.2,1.4,0.3c0.6,0,1.3,0,2.1,0c0.5,0,1.1,0,1.6,0c0.5,0,1,0,1.2-0.1l-0.3,1h-2.5C39,10.7,38.4,10.6,37.7,10.6z
				 M35.3,2.8l-0.7,0.7c-0.4-0.5-1-1.1-1.8-1.7l0.7-0.7C34.2,1.7,34.8,2.2,35.3,2.8z M39.6,0.9v1.3h2.1v1h-2.1v1.3H42v1h-1.7v2.6
				c0,0.2,0.1,0.3,0.3,0.3h0.2c0.1,0,0.2,0,0.3-0.1c0.1-0.1,0.1-0.5,0.2-1.2l0.9,0.3C42.1,8.3,42,8.8,41.8,9
				c-0.1,0.1-0.4,0.2-0.8,0.2h-0.8c-0.3,0-0.6-0.1-0.7-0.2c-0.2-0.2-0.2-0.4-0.2-0.7V5.5h-0.9c0,0.7-0.1,1.3-0.3,1.8
				c-0.3,0.8-0.9,1.5-1.9,2l-0.7-0.8c0.8-0.4,1.4-0.9,1.7-1.5c0.2-0.4,0.3-0.9,0.3-1.5h-1.6v-1h2.8V3.2H37c-0.2,0.4-0.4,0.7-0.6,1
				l-0.9-0.5c0.6-0.8,1-1.7,1.2-2.6l1,0.2c-0.1,0.3-0.2,0.6-0.3,0.9h1.1V0.9H39.6z"/>
		</g>
		<path class="st1" d="M51.2,0l1.7,3.4l3.7,0.5l-2.7,2.6l0.6,3.7l-3.3-1.7l-3.3,1.7l0.6-3.7l-2.7-2.6l3.7-0.5L51.2,0z"/>
		<path class="st1" d="M63.6,0l1.7,3.4L69,3.9l-2.7,2.6l0.6,3.7l-3.3-1.7l-3.3,1.7l0.6-3.7l-2.7-2.6l3.7-0.5L63.6,0z"/>
		<path class="st1" d="M76,0l1.7,3.4l3.7,0.5l-2.7,2.6l0.6,3.7L76,8.5l-3.3,1.7l0.6-3.7l-2.7-2.6l3.7-0.5L76,0z"/>
		<path class="st1" d="M88.4,0l1.7,3.4l3.7,0.5l-2.7,2.6l0.6,3.7l-3.3-1.7l-3.3,1.7l0.6-3.7L83,3.9l3.7-0.5L88.4,0z"/>
		<path class="st1" d="M100.7,0l1.7,3.4l3.7,0.5l-2.7,2.6l0.7,3.7l-3.3-1.7l-3.3,1.7l0.6-3.7l-2.7-2.6l3.7-0.5L100.7,0z"/>
	</g>
</g>
</svg>
