<?xml version="1.0" encoding="utf-8"?>
<!-- Generator: Adobe Illustrator 23.0.1, SVG Export Plug-In . SVG Version: 6.00 Build 0)  -->
<svg version="1.1" id="Layer_1" xmlns="http://www.w3.org/2000/svg" xmlns:xlink="http://www.w3.org/1999/xlink" x="0px" y="0px"
	 viewBox="0 0 139 13" style="enable-background:new 0 0 139 13;" xml:space="preserve">
<style type="text/css">
	.st0{fill:#FFFFFF;}
	.st1{font-family:'MyriadPro-BoldCond';}
	.st2{font-size:13px;}
</style>
<text transform="matrix(1 0 0 1 0.652 10)" class="st0 st1 st2">EDITORS’ CHOICE</text>
<g transform="translate(2)">
	<path class="st0" d="M82.1,0.8l1.7,3.4l3.7,0.5l-2.7,2.6l0.6,3.7l-3.3-1.7L78.8,11l0.6-3.7l-2.7-2.6l3.7-0.5L82.1,0.8z"/>
	<path class="st0" d="M94.5,0.8l1.7,3.4l3.7,0.5l-2.7,2.6l0.6,3.7l-3.3-1.7L91.2,11l0.6-3.7l-2.7-2.6l3.7-0.5L94.5,0.8z"/>
	<path class="st0" d="M106.9,0.8l1.7,3.4l3.7,0.5l-2.7,2.6l0.6,3.7l-3.3-1.7l-3.3,1.7l0.6-3.7l-2.7-2.6l3.7-0.5L106.9,0.8z"/>
	<path class="st0" d="M119.3,0.8l1.7,3.4l3.7,0.5L122,7.3l0.6,3.7l-3.3-1.7L116,11l0.6-3.7l-2.7-2.6l3.7-0.5L119.3,0.8z"/>
	<path class="st0" d="M131.6,0.8l1.7,3.4l3.7,0.5l-2.7,2.6L135,11l-3.3-1.7l-3.3,1.7l0.6-3.7l-2.7-2.6l3.7-0.5L131.6,0.8z"/>
</g>
</svg>
