<svg xmlns="http://www.w3.org/2000/svg" width="15.697" height="23.205" viewBox="0 0 15.697 23.205"><path d="M-515.234-228.577a7.857,7.857,0,0,0-7.81-7.886h-.039a7.858,7.858,0,0,0-7.848,7.81,7.861,7.861,0,0,0,6.283,7.728l-.014,2.847-1.684-.008-.015,3.056,1.684.008-.009,1.749,3.056.015.009-1.748,1.684.008.015-3.056-1.684-.008.014-2.847A7.861,7.861,0,0,0-515.234-228.577Zm-12.64-.061a4.8,4.8,0,0,1,4.791-4.769h.024a4.8,4.8,0,0,1,4.769,4.815,4.8,4.8,0,0,1-4.792,4.769h-.023A4.8,4.8,0,0,1-527.874-228.638Z" transform="translate(530.93 236.463)" fill="#fff"/></svg>