<?xml version="1.0" encoding="utf-8"?>
<!-- Generator: Adobe Illustrator 23.0.1, SVG Export Plug-In . SVG Version: 6.00 Build 0)  -->
<svg version="1.1" id="Layer_1" xmlns="http://www.w3.org/2000/svg" xmlns:xlink="http://www.w3.org/1999/xlink" x="0px" y="0px"
	 viewBox="0 0 106.5 13.1" style="enable-background:new 0 0 106.5 13.1;" xml:space="preserve">
<style type="text/css">
	.st0{enable-background:new    ;}
	.st1{fill:#4267B2;}
	.st2{fill:#231F20;}
	.st3{fill:#FFFFFF;}
	.st4{fill:#32363B;}
</style>
<g class="st0">
	<path class="st1" d="M18.2,10.1h-1.4V4.7l-1.7,0.5V4L18,3h0.2V10.1z"/>
	<path class="st1" d="M25.3,10.1h-4.9v-1l2.3-2.5c0.3-0.3,0.5-0.6,0.7-0.9s0.2-0.5,0.2-0.7c0-0.3-0.1-0.6-0.2-0.7
		C23.3,4.1,23.1,4,22.8,4c-0.3,0-0.6,0.1-0.8,0.3c-0.2,0.2-0.3,0.5-0.3,0.9h-1.4c0-0.4,0.1-0.8,0.3-1.2s0.5-0.6,0.9-0.8
		c0.4-0.2,0.8-0.3,1.3-0.3c0.7,0,1.3,0.2,1.7,0.5s0.6,0.8,0.6,1.5c0,0.4-0.1,0.7-0.3,1.1s-0.5,0.8-0.9,1.3L22.3,9h3.1V10.1z"/>
	<path class="st1" d="M31,7.2c0,1-0.2,1.7-0.6,2.3s-1,0.8-1.8,0.8c-0.8,0-1.4-0.3-1.8-0.8s-0.6-1.2-0.6-2.2V5.9c0-1,0.2-1.7,0.6-2.3
		s1-0.8,1.8-0.8s1.4,0.3,1.8,0.8C30.8,4.2,31,4.9,31,5.8V7.2z M29.6,5.7c0-0.6-0.1-1-0.2-1.3S28.9,4,28.6,4c-0.3,0-0.6,0.1-0.7,0.4
		s-0.2,0.7-0.3,1.2v1.7c0,0.6,0.1,1,0.2,1.3c0.2,0.3,0.4,0.4,0.8,0.4c0.3,0,0.6-0.1,0.7-0.4s0.2-0.7,0.2-1.2V5.7z"/>
	<path class="st1" d="M34.3,7.2l-0.8,0.8v2h-1.5V3h1.5v3.2l0.6-0.9L36,3h1.8l-2.5,3.2l2.6,4h-1.7L34.3,7.2z"/>
</g>
<g class="st0">
	<path class="st2" d="M44.5,9.3h3.4v0.8h-4.3V3h0.9V9.3z"/>
	<path class="st2" d="M48.8,3.4c0-0.1,0-0.3,0.1-0.4s0.2-0.2,0.4-0.2s0.3,0.1,0.4,0.2s0.1,0.2,0.1,0.4s0,0.3-0.1,0.4
		s-0.2,0.1-0.4,0.1s-0.3,0-0.4-0.1S48.8,3.6,48.8,3.4z M49.8,10.1h-0.9V4.8h0.9V10.1z"/>
	<path class="st2" d="M52.7,7.6l-0.6,0.6v1.9h-0.9V2.6h0.9v4.5l0.5-0.6l1.6-1.7h1.1L53.3,7l2.3,3.1h-1.1L52.7,7.6z"/>
	<path class="st2" d="M58.5,10.2c-0.7,0-1.3-0.2-1.7-0.7c-0.4-0.5-0.7-1.1-0.7-1.9V7.4c0-0.5,0.1-1,0.3-1.4c0.2-0.4,0.5-0.7,0.8-1
		c0.4-0.2,0.8-0.3,1.2-0.3c0.7,0,1.2,0.2,1.6,0.7s0.6,1.1,0.6,1.9v0.4H57c0,0.5,0.2,0.9,0.5,1.3c0.3,0.3,0.7,0.5,1.1,0.5
		c0.3,0,0.6-0.1,0.8-0.2S59.8,9,60,8.7l0.6,0.4C60.1,9.9,59.4,10.2,58.5,10.2z M58.4,5.5c-0.4,0-0.7,0.1-0.9,0.4
		C57.2,6.1,57.1,6.5,57,7h2.6V6.9c0-0.5-0.2-0.8-0.4-1.1C59.1,5.6,58.8,5.5,58.4,5.5z"/>
	<path class="st2" d="M65.3,3.5v1.3h1v0.7h-1v3.3c0,0.2,0,0.4,0.1,0.5c0.1,0.1,0.2,0.2,0.4,0.2c0.1,0,0.2,0,0.4-0.1v0.7
		c-0.2,0.1-0.5,0.1-0.7,0.1c-0.4,0-0.7-0.1-0.9-0.4s-0.3-0.6-0.3-1V5.5h-1V4.8h1V3.5H65.3z"/>
	<path class="st2" d="M68.3,5.5c0.4-0.5,0.9-0.7,1.6-0.7c1.1,0,1.7,0.6,1.7,1.9v3.5h-0.9V6.6c0-0.4-0.1-0.7-0.3-0.8
		c-0.2-0.2-0.4-0.3-0.8-0.3c-0.3,0-0.6,0.1-0.8,0.2s-0.4,0.4-0.5,0.6v3.8h-0.9V2.6h0.9V5.5z"/>
	<path class="st2" d="M72.9,3.4c0-0.1,0-0.3,0.1-0.4c0.1-0.1,0.2-0.2,0.4-0.2s0.3,0.1,0.4,0.2s0.1,0.2,0.1,0.4s0,0.3-0.1,0.4
		s-0.2,0.1-0.4,0.1s-0.3,0-0.4-0.1C72.9,3.7,72.9,3.6,72.9,3.4z M73.8,10.1h-0.9V4.8h0.9V10.1z"/>
	<path class="st2" d="M78.4,8.7c0-0.2-0.1-0.4-0.3-0.6c-0.2-0.1-0.5-0.3-1-0.3c-0.5-0.1-0.8-0.2-1.1-0.4c-0.3-0.1-0.5-0.3-0.6-0.5
		c-0.1-0.2-0.2-0.4-0.2-0.7c0-0.4,0.2-0.8,0.5-1.1c0.4-0.3,0.8-0.4,1.4-0.4c0.6,0,1.1,0.2,1.5,0.5c0.4,0.3,0.6,0.7,0.6,1.2h-0.9
		c0-0.2-0.1-0.5-0.3-0.6c-0.2-0.2-0.5-0.3-0.8-0.3c-0.3,0-0.6,0.1-0.8,0.2S76.2,6,76.2,6.2c0,0.2,0.1,0.4,0.3,0.5s0.5,0.2,0.9,0.3
		c0.5,0.1,0.8,0.2,1.1,0.4s0.5,0.3,0.6,0.5c0.1,0.2,0.2,0.4,0.2,0.7c0,0.5-0.2,0.9-0.6,1.1c-0.4,0.3-0.9,0.4-1.5,0.4
		c-0.4,0-0.8-0.1-1.1-0.2s-0.6-0.4-0.8-0.6c-0.2-0.3-0.3-0.6-0.3-0.9H76c0,0.3,0.1,0.5,0.4,0.7c0.2,0.2,0.5,0.3,0.9,0.3
		c0.3,0,0.6-0.1,0.8-0.2C78.3,9.1,78.4,8.9,78.4,8.7z"/>
	<path class="st2" d="M87.4,7.5c0,0.8-0.2,1.5-0.6,1.9s-0.9,0.7-1.5,0.7c-0.6,0-1.1-0.2-1.5-0.6v2.5h-0.9V4.8h0.8l0,0.6
		c0.4-0.5,0.9-0.7,1.5-0.7c0.6,0,1.1,0.2,1.5,0.7C87.2,5.9,87.4,6.6,87.4,7.5L87.4,7.5z M86.5,7.4c0-0.6-0.1-1.1-0.4-1.4
		s-0.6-0.5-1-0.5c-0.5,0-1,0.2-1.2,0.7v2.5c0.3,0.5,0.7,0.7,1.2,0.7c0.4,0,0.8-0.2,1-0.5C86.4,8.6,86.5,8.1,86.5,7.4z"/>
	<path class="st2" d="M91.8,10.1c-0.1-0.1-0.1-0.3-0.1-0.6c-0.4,0.4-0.9,0.7-1.5,0.7c-0.5,0-0.9-0.1-1.3-0.4
		c-0.3-0.3-0.5-0.7-0.5-1.1c0-0.5,0.2-1,0.6-1.3c0.4-0.3,1-0.5,1.8-0.5h0.9V6.5c0-0.3-0.1-0.6-0.3-0.8c-0.2-0.2-0.5-0.3-0.8-0.3
		c-0.3,0-0.6,0.1-0.8,0.2S89.4,6,89.4,6.3h-0.9c0-0.3,0.1-0.5,0.3-0.8c0.2-0.2,0.4-0.4,0.8-0.6c0.3-0.1,0.7-0.2,1.1-0.2
		c0.6,0,1.1,0.2,1.4,0.5c0.3,0.3,0.5,0.7,0.5,1.3v2.4c0,0.5,0.1,0.9,0.2,1.2v0.1H91.8z M90.3,9.4c0.3,0,0.6-0.1,0.8-0.2
		s0.4-0.3,0.6-0.6V7.5h-0.7c-1.1,0-1.7,0.3-1.7,1c0,0.3,0.1,0.5,0.3,0.7S90,9.4,90.3,9.4z"/>
	<path class="st2" d="M93.8,7.4c0-0.8,0.2-1.5,0.6-2c0.4-0.5,0.9-0.7,1.5-0.7c0.6,0,1.1,0.2,1.5,0.7l0-0.6h0.8V10
		c0,0.7-0.2,1.2-0.6,1.6c-0.4,0.4-1,0.6-1.6,0.6c-0.4,0-0.8-0.1-1.1-0.2s-0.6-0.4-0.8-0.7l0.5-0.5c0.4,0.5,0.9,0.7,1.4,0.7
		c0.4,0,0.8-0.1,1-0.4c0.2-0.2,0.4-0.6,0.4-1V9.6c-0.4,0.4-0.9,0.6-1.5,0.6c-0.6,0-1.1-0.2-1.5-0.7C94,8.9,93.8,8.3,93.8,7.4z
		 M94.7,7.5c0,0.6,0.1,1.1,0.4,1.4c0.2,0.3,0.6,0.5,1,0.5c0.6,0,1-0.3,1.3-0.8V6.2c-0.3-0.5-0.7-0.8-1.2-0.8c-0.4,0-0.8,0.2-1,0.5
		S94.7,6.8,94.7,7.5z"/>
	<path class="st2" d="M101.8,10.2c-0.7,0-1.3-0.2-1.7-0.7c-0.4-0.5-0.7-1.1-0.7-1.9V7.4c0-0.5,0.1-1,0.3-1.4c0.2-0.4,0.5-0.7,0.8-1
		c0.4-0.2,0.7-0.3,1.2-0.3c0.7,0,1.2,0.2,1.6,0.7s0.6,1.1,0.6,1.9v0.4h-3.6c0,0.5,0.2,0.9,0.5,1.3c0.3,0.3,0.7,0.5,1.1,0.5
		c0.3,0,0.6-0.1,0.8-0.2s0.4-0.3,0.6-0.5l0.6,0.4C103.3,9.9,102.7,10.2,101.8,10.2z M101.7,5.5c-0.4,0-0.7,0.1-0.9,0.4
		c-0.2,0.3-0.4,0.6-0.5,1.1h2.6V6.9c0-0.5-0.1-0.8-0.4-1.1C102.3,5.6,102,5.5,101.7,5.5z"/>
</g>
<path class="st3" d="M11.5,8l-0.4,0.1l0.2,0.3c0.1,0.1,0.2,0.3,0.2,0.5c0,0.4-0.3,0.7-0.7,0.8l-0.4,0.1l0.2,0.3
	c0.1,0.1,0.1,0.2,0.1,0.4c0,0.4-0.3,0.8-0.7,0.8H5.5c-0.4,0-0.7-0.1-1-0.4c-0.1-0.1-0.2-0.1-0.3-0.2H4.1V6.5l0.5-0.4l1.6-3
	c0.1-0.2,0.2-0.5,0.2-0.8L6.3,0.6c0.1-0.1,0.2-0.1,0.4-0.1c0.7,0,1.3,1.1,1.3,2c0,0.1,0,0.3,0,0.4L7.6,4.7h3.5
	c0.2,0,0.4,0.1,0.6,0.3c0.1,0.1,0.2,0.3,0.2,0.5S11.8,6,11.6,6.1l-0.3,0.2l0.4,0.2c0.4,0.2,0.5,0.7,0.3,1.1C11.8,7.8,11.7,8,11.5,8
	L11.5,8z"/>
<path class="st1" d="M0.3,5.6h3.6l0,0v6.2l0,0l0,0H0.3l0,0l0,0V5.6L0.3,5.6L0.3,5.6z"/>
<path class="st4" d="M12.6,7.3c0-0.4-0.1-0.7-0.4-0.9c0.2-0.2,0.3-0.5,0.3-0.8s-0.1-0.7-0.4-0.9c-0.3-0.3-0.6-0.4-1-0.4H8.2L8.4,3
	c0-0.2,0-0.3,0-0.5C8.5,1.4,7.7,0,6.6,0C6.3,0,6.1,0.1,5.8,0.3L5.7,0.4l0.1,2c0,0.1,0,0.2,0,0.2c0,0.1-0.1,0.2-0.1,0.2L4.2,5.7
	L4.1,5.8c0-0.3-0.3-0.5-0.5-0.5h-3C0.2,5.3,0,5.5,0,5.8v5.7C0,11.8,0.2,12,0.5,12h3C3.8,12,4,11.8,4,11.5v-0.3l0,0
	c0.4,0.3,0.8,0.5,1.3,0.5l0,0H10l0,0c0.7,0,1.3-0.6,1.3-1.3c0-0.1,0-0.2,0-0.3C11.7,9.9,12,9.5,12,8.9c0-0.2,0-0.4-0.1-0.5
	C12.3,8.2,12.6,7.7,12.6,7.3z M3.6,11.6L3.6,11.6H0.5l0,0V5.8l0,0h3l0,0C3.6,5.8,3.6,11.6,3.6,11.6z M11.5,8l-0.4,0.1l0.2,0.3
	c0.1,0.1,0.2,0.3,0.2,0.5c0,0.4-0.3,0.7-0.7,0.8l-0.4,0.1l0.2,0.3c0.1,0.1,0.1,0.2,0.1,0.4c0,0.4-0.3,0.8-0.7,0.8H5.5
	c-0.4,0-0.7-0.1-1-0.4c-0.1-0.1-0.2-0.1-0.3-0.2H4.1V6.5l0.5-0.4l1.6-3c0.1-0.2,0.2-0.5,0.2-0.8L6.3,0.6c0.1-0.1,0.2-0.1,0.4-0.1
	c0.7,0,1.3,1.1,1.3,2c0,0.1,0,0.3,0,0.4L7.6,4.7h3.5c0.2,0,0.4,0.1,0.6,0.3c0.1,0.1,0.2,0.3,0.2,0.5S11.8,6,11.6,6.1l-0.3,0.2
	l0.4,0.2c0.4,0.2,0.5,0.7,0.3,1.1C11.8,7.8,11.7,8,11.5,8L11.5,8z"/>
</svg>
