<?xml version="1.0" encoding="utf-8"?>
<!-- Generator: Adobe Illustrator 23.0.1, SVG Export Plug-In . SVG Version: 6.00 Build 0)  -->
<svg version="1.1" id="Layer_1" xmlns="http://www.w3.org/2000/svg" xmlns:xlink="http://www.w3.org/1999/xlink" x="0px" y="0px"
	 viewBox="0 0 101.9 13.1" style="enable-background:new 0 0 101.9 13.1;" xml:space="preserve">
<style type="text/css">
	.st0{fill:#4267B2;}
	.st1{font-family:'Roboto-Bold';}
	.st2{font-size:10px;}
	.st3{fill:#231F20;}
	.st4{font-family:'Roboto-Regular';}
	.st5{fill:#FFFFFF;}
	.st6{fill:#32363B;}
</style>
<text transform="matrix(1 0 0 1 14.25 10.0959)" class="st0 st1 st2">120K</text>
<text transform="matrix(1 0 0 1 37.8096 10.0959)" class="st3 st4 st2"> Like this page</text>
<path class="st5" d="M11.5,8l-0.4,0.1l0.2,0.3c0.1,0.1,0.2,0.3,0.2,0.5c0,0.4-0.3,0.7-0.7,0.8l-0.4,0.1l0.2,0.3
	c0.1,0.1,0.1,0.2,0.1,0.4c0,0.4-0.3,0.8-0.7,0.8H5.5c-0.4,0-0.7-0.1-1-0.4c-0.1-0.1-0.2-0.1-0.3-0.2l-0.1,0V6.5l0.5-0.4l1.6-3
	c0.1-0.2,0.2-0.5,0.2-0.8L6.3,0.6c0.1-0.1,0.2-0.1,0.4-0.1c0.7,0,1.3,1.1,1.3,2c0,0.1,0,0.3,0,0.4L7.6,4.7h3.5
	c0.2,0,0.4,0.1,0.6,0.3c0.1,0.1,0.2,0.3,0.2,0.5c0,0.2-0.1,0.5-0.3,0.6l-0.3,0.2l0.4,0.2c0.4,0.2,0.5,0.7,0.3,1.1
	C11.8,7.8,11.7,8,11.5,8L11.5,8z"/>
<path class="st0" d="M0.3,5.6h3.6c0,0,0,0,0,0v6.2c0,0,0,0,0,0c0,0,0,0,0,0H0.3c0,0,0,0,0,0c0,0,0,0,0,0L0.3,5.6
	C0.3,5.6,0.3,5.6,0.3,5.6C0.3,5.6,0.3,5.6,0.3,5.6z"/>
<path class="st6" d="M12.6,7.3c0-0.4-0.1-0.7-0.4-0.9c0.2-0.2,0.3-0.5,0.3-0.8c0-0.3-0.1-0.7-0.4-0.9c-0.3-0.3-0.6-0.4-1-0.4H8.2
	L8.4,3c0-0.2,0-0.3,0-0.5C8.5,1.4,7.7,0,6.6,0C6.3,0,6.1,0.1,5.8,0.3L5.7,0.4l0.1,2c0,0.1,0,0.2,0,0.2c0,0.1-0.1,0.2-0.1,0.2
	L4.2,5.7L4.1,5.8c0-0.3-0.3-0.5-0.5-0.5h-3C0.2,5.3,0,5.5,0,5.8v5.7c0,0.3,0.2,0.5,0.5,0.5h3c0.3,0,0.5-0.2,0.5-0.5v-0.3l0,0
	c0.4,0.3,0.8,0.5,1.3,0.5l0,0H10h0c0.7,0,1.3-0.6,1.3-1.3c0-0.1,0-0.2,0-0.3C11.7,9.9,12,9.5,12,8.9c0-0.2,0-0.4-0.1-0.5
	C12.3,8.2,12.6,7.7,12.6,7.3z M3.6,11.6C3.6,11.6,3.6,11.6,3.6,11.6l-3.1,0c0,0,0,0,0,0V5.8c0,0,0,0,0,0h3c0,0,0,0,0,0
	C3.6,5.8,3.6,11.6,3.6,11.6z M11.5,8l-0.4,0.1l0.2,0.3c0.1,0.1,0.2,0.3,0.2,0.5c0,0.4-0.3,0.7-0.7,0.8l-0.4,0.1l0.2,0.3
	c0.1,0.1,0.1,0.2,0.1,0.4c0,0.4-0.3,0.8-0.7,0.8H5.5c-0.4,0-0.7-0.1-1-0.4c-0.1-0.1-0.2-0.1-0.3-0.2l-0.1,0V6.5l0.5-0.4l1.6-3
	c0.1-0.2,0.2-0.5,0.2-0.8L6.3,0.6c0.1-0.1,0.2-0.1,0.4-0.1c0.7,0,1.3,1.1,1.3,2c0,0.1,0,0.3,0,0.4L7.6,4.7h3.5
	c0.2,0,0.4,0.1,0.6,0.3c0.1,0.1,0.2,0.3,0.2,0.5c0,0.2-0.1,0.5-0.3,0.6l-0.3,0.2l0.4,0.2c0.4,0.2,0.5,0.7,0.3,1.1
	C11.8,7.8,11.7,8,11.5,8L11.5,8z"/>
</svg>
