<svg xmlns="http://www.w3.org/2000/svg" viewBox="0 0 91.81 12.81"><defs><style>.cls-1,.cls-2{isolation:isolate;font-size:10px;}.cls-1,.cls-4{fill:#4267b2;}.cls-1{font-family:Roboto-Bold, Roboto;font-weight:700;}.cls-2{fill:#231f20;font-family:PingFangSC-Medium-GBpc-EUC-H, PingFang SC;}.cls-3{fill:#fff;}.cls-5{fill:#32363b;}</style></defs><title>likes-zh</title><g id="Layer_2" data-name="Layer 2"><g id="Layer_1-2" data-name="Layer 1"><text class="cls-1" transform="translate(14.25 10.1)">120K</text><text class="cls-2" transform="translate(41.81 10.1)">赞这个页面</text><path class="cls-3" d="M11.5,8l-.4.1.2.3a.76.76,0,0,1,.2.5.85.85,0,0,1-.7.8l-.4.1.2.3c.1.1.1.2.1.4a.77.77,0,0,1-.7.8H5.5a1.28,1.28,0,0,1-1-.4c-.1-.1-.2-.1-.3-.2H4.1V6.5l.5-.4,1.6-3a1.88,1.88,0,0,0,.2-.8L6.3.6c.1-.1.2-.1.4-.1C7.4.5,8,1.6,8,2.5v.4L7.6,4.7h3.5a.86.86,0,0,1,.6.3.76.76,0,0,1,.2.5.71.71,0,0,1-.3.6l-.3.2.4.2A.8.8,0,0,1,12,7.6c-.2.2-.3.4-.5.4Z"/><path class="cls-4" d="M.3,5.6H3.9v6.2H.3V5.6Z"/><path class="cls-5" d="M12.6,7.3a1,1,0,0,0-.4-.9,1.14,1.14,0,0,0,.3-.8,1.09,1.09,0,0,0-.4-.9,1.28,1.28,0,0,0-1-.4H8.2L8.4,3V2.5C8.5,1.4,7.7,0,6.6,0a1.33,1.33,0,0,0-.8.3L5.7.4l.1,2v.2a.35.35,0,0,1-.1.2L4.2,5.7l-.1.1a.54.54,0,0,0-.5-.5H.6c-.4,0-.6.2-.6.5v5.7a.47.47,0,0,0,.5.5h3a.47.47,0,0,0,.5-.5v-.3H4a2.11,2.11,0,0,0,1.3.5H10a1.32,1.32,0,0,0,1.3-1.3v-.3A1.27,1.27,0,0,0,12,8.9a.75.75,0,0,0-.1-.5A1.36,1.36,0,0,0,12.6,7.3Zm-9,4.3H.5V5.8h3C3.6,5.8,3.6,11.6,3.6,11.6ZM11.5,8l-.4.1.2.3a.76.76,0,0,1,.2.5.85.85,0,0,1-.7.8l-.4.1.2.3c.1.1.1.2.1.4a.77.77,0,0,1-.7.8H5.5a1.28,1.28,0,0,1-1-.4c-.1-.1-.2-.1-.3-.2H4.1V6.5l.5-.4,1.6-3a1.88,1.88,0,0,0,.2-.8L6.3.6c.1-.1.2-.1.4-.1C7.4.5,8,1.6,8,2.5v.4L7.6,4.7h3.5a.86.86,0,0,1,.6.3.76.76,0,0,1,.2.5.71.71,0,0,1-.3.6l-.3.2.4.2A.8.8,0,0,1,12,7.6c-.2.2-.3.4-.5.4Z"/></g></g></svg>