<svg xmlns="http://www.w3.org/2000/svg" width="101.939" height="13.096" viewBox="0 0 101.939 13.096"><g transform="translate(-200.023 -2.584)"><text transform="translate(257.962 12.68)" fill="#4267b2" font-size="10" font-family="Roboto-Bold, Roboto" font-weight="700"><tspan x="-43.689" y="0">120K</tspan><tspan y="0" xml:space="preserve" fill="#231f20" font-family="Roboto-Regular, Roboto" font-weight="400"> Like this page</tspan></text><path d="M211.513,10.619l-.362.113.228.3a.777.777,0,0,1,.16.474.787.787,0,0,1-.659.779l-.363.061.17.326a.774.774,0,0,1,.088.362.789.789,0,0,1-.739.787l-4.557,0a1.7,1.7,0,0,1-.968-.354,1.044,1.044,0,0,0-.253-.166l-.1-.045V9.049l.475-.406,1.6-2.973a1.318,1.318,0,0,0,.188-.787L206.3,3.215a.734.734,0,0,1,.364-.1c.693,0,1.286,1.107,1.286,2.012a2.486,2.486,0,0,1-.029.376l-.278,1.8h3.476a.859.859,0,0,1,.6.254.761.761,0,0,1,.229.542.782.782,0,0,1-.314.624l-.323.245.353.2a.79.79,0,0,1-.153,1.443Z" fill="#fff"/><path d="M.017,0h3.57A.015.015,0,0,1,3.6.015V6.208a.017.017,0,0,1-.017.017H.017A.017.017,0,0,1,0,6.208V.017A.017.017,0,0,1,.017,0Z" transform="translate(200.29 8.221)" fill="#4267b2"/><path d="M212.6,9.864a1.327,1.327,0,0,0-.4-.946,1.317,1.317,0,0,0,.282-.807,1.3,1.3,0,0,0-.385-.922,1.394,1.394,0,0,0-.981-.412h-2.853l.183-1.19a3.038,3.038,0,0,0,.035-.457c0-1.177-.795-2.546-1.82-2.546a1.273,1.273,0,0,0-.813.295l-.1.088.148,1.956a.778.778,0,0,1-.019.246.816.816,0,0,1-.1.228L204.213,8.3l-.059.05a.549.549,0,0,0-.543-.469h-3.039a.55.55,0,0,0-.549.549v5.732a.55.55,0,0,0,.549.549h3.039a.549.549,0,0,0,.549-.549v-.289l0,0a2.214,2.214,0,0,0,1.314.482h0l4.565,0h.015a1.324,1.324,0,0,0,1.251-1.321,1.343,1.343,0,0,0-.037-.311,1.32,1.32,0,0,0,.8-1.217,1.3,1.3,0,0,0-.1-.514A1.319,1.319,0,0,0,212.6,9.864Zm-8.976,4.3a.016.016,0,0,1-.015.015h-3.039a.016.016,0,0,1-.014-.015V8.432a.015.015,0,0,1,.014-.015h3.039a.015.015,0,0,1,.015.015v5.732Zm7.887-3.545-.362.113.228.3a.777.777,0,0,1,.16.474.787.787,0,0,1-.659.779l-.363.061.17.326a.774.774,0,0,1,.088.362.789.789,0,0,1-.739.787l-4.557,0a1.7,1.7,0,0,1-.968-.354,1.044,1.044,0,0,0-.253-.166l-.1-.045V9.049l.475-.406,1.6-2.973a1.318,1.318,0,0,0,.188-.787L206.3,3.215a.734.734,0,0,1,.364-.1c.693,0,1.286,1.107,1.286,2.012a2.486,2.486,0,0,1-.029.376l-.278,1.8h3.476a.859.859,0,0,1,.6.254.761.761,0,0,1,.229.542.782.782,0,0,1-.314.624l-.323.245.353.2a.79.79,0,0,1-.153,1.443Z" fill="#32363b"/></g></svg>