<?xml version="1.0" encoding="utf-8"?>
<!-- Generator: Adobe Illustrator 23.0.1, SVG Export Plug-In . SVG Version: 6.00 Build 0)  -->
<svg version="1.1" id="Layer_1" xmlns="http://www.w3.org/2000/svg" xmlns:xlink="http://www.w3.org/1999/xlink" x="0px" y="0px"
	 viewBox="0 0 91.8 12.8" style="enable-background:new 0 0 91.8 12.8;" xml:space="preserve">
<style type="text/css">
	.st0{enable-background:new    ;}
	.st1{fill:#4267B2;}
	.st2{fill:#231F20;}
	.st3{fill:#FFFFFF;}
	.st4{fill:#32363B;}
</style>
<title>likes-zh</title>
<g>
	<g id="Layer_1-2">
		<g class="st0">
			<path class="st1" d="M18.2,10.1h-1.4V4.7l-1.7,0.5V4L18,3h0.2V10.1z"/>
			<path class="st1" d="M25.3,10.1h-4.9v-1l2.3-2.5c0.3-0.3,0.5-0.6,0.7-0.9s0.2-0.5,0.2-0.7c0-0.3-0.1-0.6-0.2-0.7
				C23.3,4.1,23.1,4,22.8,4c-0.3,0-0.6,0.1-0.8,0.3c-0.2,0.2-0.3,0.5-0.3,0.9h-1.4c0-0.4,0.1-0.8,0.3-1.2s0.5-0.6,0.9-0.8
				c0.4-0.2,0.8-0.3,1.3-0.3c0.7,0,1.3,0.2,1.7,0.5s0.6,0.8,0.6,1.5c0,0.4-0.1,0.7-0.3,1.1s-0.5,0.8-0.9,1.3L22.3,9h3.1V10.1z"/>
			<path class="st1" d="M31,7.2c0,1-0.2,1.7-0.6,2.3s-1,0.8-1.8,0.8c-0.8,0-1.4-0.3-1.8-0.8s-0.6-1.2-0.6-2.2V5.9
				c0-1,0.2-1.7,0.6-2.3s1-0.8,1.8-0.8s1.4,0.3,1.8,0.8C30.8,4.2,31,4.9,31,5.9V7.2z M29.6,5.7c0-0.6-0.1-1-0.2-1.3S28.9,4,28.6,4
				c-0.3,0-0.6,0.1-0.7,0.4s-0.2,0.7-0.3,1.2v1.7c0,0.6,0.1,1,0.2,1.3c0.2,0.3,0.4,0.4,0.8,0.4c0.3,0,0.6-0.1,0.7-0.4
				s0.2-0.7,0.2-1.2V5.7z"/>
			<path class="st1" d="M34.3,7.2l-0.8,0.8v2h-1.5V3h1.5v3.2l0.6-0.9L36,3h1.8l-2.5,3.2l2.6,3.9h-1.7L34.3,7.2z"/>
		</g>
		<g class="st0">
			<path class="st2" d="M43,3.9l-0.5-0.6c0.4-0.3,0.6-0.7,0.7-1.2L44,2.2c0,0.2-0.1,0.3-0.1,0.4h0.5V1.9h0.9v0.7h1.1v0.7h-1.1v0.5
				h1.3v0.8h-0.9v0.8c0.3-0.1,0.6-0.2,0.9-0.3l0.1,0.7C46,6,45.5,6.2,44.9,6.4l-0.3-0.7c0.1-0.1,0.2-0.2,0.2-0.3V4.6h-0.6
				c-0.1,0.5-0.1,0.9-0.3,1.2c-0.2,0.3-0.5,0.6-1,0.9L42.3,6c0.4-0.2,0.7-0.4,0.8-0.6c0.1-0.2,0.2-0.4,0.2-0.8h-0.9V3.9h1.9V3.3
				h-0.9C43.3,3.5,43.2,3.7,43,3.9z M47.5,7.9c-0.1,0.9-0.6,1.6-1.3,2.1c-0.6,0.5-1.7,0.9-3.3,1.1l-0.4-0.9c1.4-0.2,2.3-0.5,2.9-0.9
				c0.6-0.4,1-0.9,1.1-1.6L47.5,7.9z M50.1,9.4h-0.9V7.4h-4.7v2.1h-0.9v-3h6.5V9.4z M46.6,3.3C47,3,47.2,2.5,47.3,2l0.7,0.1
				c0,0.2-0.1,0.3-0.1,0.5h0.7V1.9h0.8v0.7h1.3v0.7h-1.3v0.5h1.6v0.8h-1.3v0.7c0,0.1,0,0.2,0.1,0.2h0.3c0.1,0,0.2,0,0.2,0
				c0.1,0,0.1-0.2,0.1-0.6l0.7,0.2C51.2,5.7,51.1,6,51,6.1c-0.1,0.1-0.3,0.1-0.6,0.1h-0.7c-0.2,0-0.4-0.1-0.5-0.2S49,5.7,49,5.5V4.6
				h-0.4c-0.1,0.4-0.2,0.7-0.3,1c-0.2,0.3-0.5,0.6-1,0.8l-0.5-0.7c0.4-0.1,0.6-0.3,0.8-0.5c0.1-0.1,0.2-0.3,0.2-0.6h-1V3.9h0.3
				L46.6,3.3z M51.3,10.4l-0.5,0.8c-1.2-0.5-2.5-0.9-3.8-1.1l0.5-0.7C48.8,9.6,50.1,9.9,51.3,10.4z M47.2,3.9h1.4V3.3h-1
				C47.5,3.5,47.3,3.7,47.2,3.9z"/>
			<path class="st2" d="M57.1,10.9c-0.6,0-1.2-0.1-1.6-0.2c-0.4-0.1-0.7-0.4-1-0.7c-0.1-0.2-0.2-0.2-0.4-0.2c-0.2,0-0.6,0.5-1.1,1.3
				l-0.7-0.6c0.5-0.8,0.9-1.3,1.3-1.5V6.2h-1.3V5.3h2.2v3.8c0,0,0.1,0.1,0.1,0.1c0.2,0.3,0.5,0.5,0.7,0.6c0.3,0.1,0.7,0.2,1.3,0.2
				c0.6,0,1.2,0,2,0c0.5,0,1,0,1.5,0c0.5,0,0.9,0,1.2,0L61.2,11h-2.3C58.4,11,57.8,10.9,57.1,10.9z M54.9,3.6l-0.7,0.7
				c-0.4-0.5-0.9-1-1.7-1.6L53.2,2C53.8,2.5,54.4,3,54.9,3.6z M57.7,3.3c-0.1-0.4-0.3-0.9-0.4-1.2l1-0.2c0.1,0.4,0.3,0.9,0.4,1.4
				h2.4v0.9h-0.8c-0.3,1-0.7,1.9-1.2,2.7c0.7,0.6,1.4,1.3,2,1.9l-0.7,0.7c-0.5-0.6-1.1-1.2-1.8-1.9c-0.8,0.9-1.7,1.5-2.9,1.9
				l-0.5-0.9c1.1-0.4,2-0.9,2.7-1.7c-0.7-0.6-1.4-1.1-2.1-1.7l0.6-0.6c0.7,0.5,1.4,1.1,2.1,1.6c0.4-0.6,0.7-1.3,0.9-2.1h-4V3.3H57.7
				z"/>
			<path class="st2" d="M67.2,1.9c0.8,1.3,2.2,2.5,4.3,3.5l-0.6,0.9c-1.8-0.9-3.2-2.1-4.1-3.5c-1.1,1.5-2.4,2.7-4.1,3.5l-0.6-0.9
				c1.8-0.9,3.3-2.1,4.3-3.6H67.2z M67.3,4.9v6.2h-1V4.9H67.3z"/>
			<path class="st2" d="M80,8.9h-1V5h-4.5v3.9h-1V4h2.5c0.1-0.3,0.1-0.6,0.2-0.9h-3.9V2.2h8.9v0.9h-3.9c-0.1,0.3-0.1,0.6-0.2,0.9H80
				V8.9z M77.3,5.4V7c-0.1,1.1-0.4,2-1.1,2.7c-0.6,0.6-1.7,1.1-3.2,1.4l-0.5-0.8c1.5-0.3,2.4-0.7,3-1.2c0.5-0.5,0.8-1.2,0.8-2V5.4
				H77.3z M81,10.3l-0.6,0.9c-1.1-0.7-2.3-1.2-3.4-1.6l0.5-0.8C78.8,9.2,80,9.7,81,10.3z"/>
			<path class="st2" d="M91.3,2.2v0.9h-3.9c-0.1,0.4-0.2,0.7-0.3,1h3.8v7h-0.9v-0.4h-6.1v0.4h-0.9v-7h3.2c0.1-0.3,0.2-0.7,0.3-1h-4
				V2.2H91.3z M84.9,9.9V5.1h-1.1v4.8H84.9z M87.8,6.1v-1h-2.1v1H87.8z M87.8,8v-1h-2.1v1H87.8z M87.8,9.9V8.8h-2.1v1.1H87.8z
				 M89.9,9.9V5.1h-1.2v4.8H89.9z"/>
		</g>
		<path class="st3" d="M11.5,8l-0.4,0.1l0.2,0.3c0.1,0.1,0.2,0.3,0.2,0.5c0,0.4-0.3,0.7-0.7,0.8l-0.4,0.1l0.2,0.3
			c0.1,0.1,0.1,0.2,0.1,0.4c0,0.4-0.3,0.8-0.7,0.8H5.5c-0.4,0-0.7-0.1-1-0.4c-0.1-0.1-0.2-0.1-0.3-0.2H4.1V6.5l0.5-0.4l1.6-3
			c0.1-0.2,0.2-0.5,0.2-0.8L6.3,0.6c0.1-0.1,0.2-0.1,0.4-0.1c0.7,0,1.3,1.1,1.3,2v0.4L7.6,4.7h3.5c0.2,0,0.4,0.1,0.6,0.3
			c0.1,0.1,0.2,0.3,0.2,0.5c0,0.2-0.1,0.5-0.3,0.6l-0.3,0.2l0.4,0.2c0.4,0.2,0.5,0.7,0.3,1.1c0,0,0,0,0,0C11.8,7.8,11.7,8,11.5,8z"
			/>
		<path class="st1" d="M0.3,5.6h3.6v6.2H0.3V5.6z"/>
		<path class="st4" d="M12.6,7.3c0-0.3-0.1-0.7-0.4-0.9c0.2-0.2,0.3-0.5,0.3-0.8c0-0.3-0.1-0.7-0.4-0.9c-0.3-0.3-0.6-0.4-1-0.4H8.2
			L8.4,3V2.5C8.5,1.4,7.7,0,6.6,0C6.3,0,6,0.1,5.8,0.3L5.7,0.4l0.1,2v0.2c0,0.1,0,0.1-0.1,0.2L4.2,5.7L4.1,5.8
			c0-0.3-0.2-0.5-0.5-0.5h-3C0.2,5.3,0,5.5,0,5.8v5.7C0,11.8,0.2,12,0.4,12c0,0,0,0,0.1,0h3C3.8,12,4,11.8,4,11.6c0,0,0,0,0-0.1
			v-0.3l0,0c0.4,0.3,0.8,0.5,1.3,0.5H10c0.7,0,1.3-0.6,1.3-1.3v-0.3C11.8,9.9,12,9.4,12,8.9c0-0.2,0-0.4-0.1-0.5
			C12.3,8.2,12.6,7.8,12.6,7.3z M3.6,11.6H0.5V5.8h3C3.6,5.8,3.6,11.6,3.6,11.6z M11.5,8l-0.4,0.1l0.2,0.3c0.1,0.1,0.2,0.3,0.2,0.5
			c0,0.4-0.3,0.7-0.7,0.8l-0.4,0.1l0.2,0.3c0.1,0.1,0.1,0.2,0.1,0.4c0,0.4-0.3,0.8-0.7,0.8H5.5c-0.4,0-0.7-0.1-1-0.4
			c-0.1-0.1-0.2-0.1-0.3-0.2H4.1V6.5l0.5-0.4l1.6-3c0.1-0.2,0.2-0.5,0.2-0.8L6.3,0.6c0.1-0.1,0.2-0.1,0.4-0.1c0.7,0,1.3,1.1,1.3,2
			v0.4L7.6,4.7h3.5c0.2,0,0.4,0.1,0.6,0.3c0.1,0.1,0.2,0.3,0.2,0.5c0,0.2-0.1,0.5-0.3,0.6l-0.3,0.2l0.4,0.2c0.4,0.2,0.5,0.7,0.3,1.1
			c0,0,0,0,0,0C11.8,7.8,11.7,8,11.5,8z"/>
	</g>
</g>
</svg>
