<svg xmlns="http://www.w3.org/2000/svg" width="19.28" height="19.28" viewBox="0 0 19.28 19.28"><g transform="translate(-5.088 -5.195)"><path d="M-416.348-228.529v1.834h1.973l-3.13,3.1a7.791,7.791,0,0,0-4.359-1.345h-.039a7.8,7.8,0,0,0-5.522,2.272,7.8,7.8,0,0,0-2.326,5.538,7.8,7.8,0,0,0,2.272,5.561,7.8,7.8,0,0,0,5.538,2.326h.039a7.8,7.8,0,0,0,5.522-2.272,7.8,7.8,0,0,0,2.326-5.538,7.79,7.79,0,0,0-1.3-4.369l3.051-3.016v1.792h1.834v-5.877Zm-2.183,14.837a4.767,4.767,0,0,1-3.4,1.387,4.76,4.76,0,0,1-3.382-1.42,4.762,4.762,0,0,1-1.387-3.4,4.762,4.762,0,0,1,1.42-3.382,4.762,4.762,0,0,1,3.372-1.387h.024a4.759,4.759,0,0,1,3.382,1.42,4.762,4.762,0,0,1,1.387,3.4A4.762,4.762,0,0,1-418.531-213.692Z" transform="translate(434.839 233.725)" fill="#fcfcfc"/></g></svg>