<svg xmlns="http://www.w3.org/2000/svg" viewBox="0 0 17.42 17.12"><defs><style>.cls-1{fill:#e39934;}</style></defs><title>top-right</title><g id="Layer_2" data-name="Layer 2"><g id="Layer_1-2" data-name="Layer 1"><path class="cls-1" d="M16.56,17.12h.55V8.37H14.56V6.1h2.86V0H11.49V2.89H9.05V.18H0V.75H8.49V2.89H5.54V6.1h3V8.94h3v2.81h3.07V8.94h2ZM14,8.37H12V6.1h2ZM12,5.53V3.47h2V5.53Zm0-5h4.83v5H14.56V2.89H12Zm-.55,2.9V5.53H9.05V3.47ZM6.09,5.53V3.47h2.4V5.53Zm3,2.84V6.1h2.44V8.37ZM14,11.17H12V8.94h2Z"/></g></g></svg>