<svg xmlns="http://www.w3.org/2000/svg" xmlns:xlink="http://www.w3.org/1999/xlink" viewBox="0 0 186.85 42.21"><defs><style>.cls-1{fill:none;}.cls-2{isolation:isolate;}.cls-3{fill:#ca2828;}.cls-4{clip-path:url(#clip-path);}.cls-5{fill:#cc2828;}.cls-6{fill:#f33;}.cls-7{clip-path:url(#clip-path-2);}.cls-8{clip-path:url(#clip-path-3);}.cls-9{clip-path:url(#clip-path-4);}.cls-10{clip-path:url(#clip-path-5);}.cls-11{clip-path:url(#clip-path-6);}.cls-12{clip-path:url(#clip-path-7);}.cls-13{clip-path:url(#clip-path-8);}.cls-14{clip-path:url(#clip-path-9);}.cls-15{clip-path:url(#clip-path-10);}.cls-16{clip-path:url(#clip-path-11);}.cls-17{clip-path:url(#clip-path-12);}.cls-18{fill:#fff;}</style><clipPath id="clip-path"><path class="cls-1" d="M40.49,18.53,41,23a9.92,9.92,0,0,1,.07,1.23l-.53-4.42A9.92,9.92,0,0,0,40.49,18.53Z"/></clipPath><clipPath id="clip-path-2"><path class="cls-1" d="M72.43,19.12a8.75,8.75,0,0,0-1.75,5.3L70.15,20a8.76,8.76,0,0,1,1.74-5.29C72.05,16,72.78,17.84,72.43,19.12Z"/></clipPath><clipPath id="clip-path-3"><path class="cls-1" d="M70.72,28.26l-.53-4.41a10.08,10.08,0,0,1-.07-1.24L70.65,27A9.92,9.92,0,0,0,70.72,28.26Z"/></clipPath><clipPath id="clip-path-4"><path class="cls-1" d="M114.53,20a8.73,8.73,0,0,0-1.39,4.78l-.53-4.42A8.79,8.79,0,0,1,114,15.59C114.15,16.91,114.83,18.7,114.53,20Z"/></clipPath><clipPath id="clip-path-5"><path class="cls-1" d="M70.72,28.26l-.53-4.41a8.79,8.79,0,0,0,.77,2.7L71.49,31A8.85,8.85,0,0,1,70.72,28.26Z"/></clipPath><clipPath id="clip-path-6"><path class="cls-1" d="M86.35,31.49l.53,4.42c-1.09,3.51-4.17,5.63-8.42,5.59l-.53-4.41C82.18,37.12,85.26,35,86.35,31.49Z"/></clipPath><clipPath id="clip-path-7"><path class="cls-1" d="M129.27,25.65l.53,4.41a8.56,8.56,0,0,1-9,8.85l-.53-4.42A8.56,8.56,0,0,0,129.27,25.65Z"/></clipPath><clipPath id="clip-path-8"><path class="cls-1" d="M172.24,19a8.92,8.92,0,0,0-2.77,6.59c-.18-1.47-.36-3-.53-4.42a8.85,8.85,0,0,1,2.77-6.58C171.87,15.92,172.08,17.69,172.24,19Z"/></clipPath><clipPath id="clip-path-9"><path class="cls-1" d="M169.47,25.6a5.61,5.61,0,0,0,0,.58L169,21.76a5.51,5.51,0,0,1,0-.58c.08.74.17,1.47.26,2.21l.11.86.1.83C169.42,25.24,169.46,25.44,169.47,25.6Z"/></clipPath><clipPath id="clip-path-10"><path class="cls-1" d="M130.85,34.75l-.53-4.41a8,8,0,0,0,2.29,4.89,8.69,8.69,0,0,0,6.23,2.37l.54,4.42a8.7,8.7,0,0,1-6.24-2.37A8,8,0,0,1,130.85,34.75Z"/></clipPath><clipPath id="clip-path-11"><path class="cls-1" d="M151.38,32l.54,4.42c-1.1,3.5-4.17,5.63-8.42,5.59L143,37.63C147.21,37.67,150.29,35.55,151.38,32Z"/></clipPath><clipPath id="clip-path-12"><path class="cls-1" d="M170.93,32.21l.53,4.42c-1.29,3.58-4.45,5.62-8.91,5.58L162,37.79C166.48,37.83,169.64,35.8,170.93,32.21Z"/></clipPath></defs><title>banner-headline-ar_2</title><g id="Layer_2" data-name="Layer 2"><g id="Layer_1-2" data-name="Layer 1"><g class="cls-2"><polygon class="cls-3" points="1.67 11.03 2.21 15.45 0.53 15.44 0 11.02 1.67 11.03"/><polygon class="cls-3" points="13.37 0.11 13.9 4.53 13.79 15.19 13.26 10.78 13.37 0.11"/><polygon class="cls-3" points="13.26 10.78 13.79 15.19 10.74 15.17 10.21 10.75 13.26 10.78"/><polygon class="cls-3" points="10.12 20.43 10.65 24.85 8.24 24.84 7.71 20.42 10.12 20.43"/><polygon class="cls-3" points="10.21 10.75 10.74 15.17 10.65 24.85 10.12 20.43 10.21 10.75"/><polygon class="cls-3" points="23.14 14.25 23.67 18.67 23.61 24.96 23.08 20.55 23.14 14.25"/><polygon class="cls-3" points="23.08 20.55 23.61 24.96 19.35 24.92 18.82 20.5 23.08 20.55"/><g class="cls-2"><g class="cls-4"><g class="cls-2"><path class="cls-5" d="M40.49,18.53,41,23a9.92,9.92,0,0,1,.07,1.23l-.53-4.42a9.92,9.92,0,0,0-.07-1.23"/></g></g></g><polygon class="cls-3" points="7.71 20.42 8.24 24.84 8.14 35.25 7.61 30.83 7.71 20.42"/><polygon class="cls-6" points="13.37 0.11 13.26 10.78 10.21 10.75 10.12 20.43 7.71 20.42 7.61 30.83 1.49 30.78 1.67 11.03 0 11.02 0.1 0 13.37 0.11"/><polygon class="cls-3" points="7.61 30.83 8.14 35.25 2.02 35.2 1.49 30.78 7.61 30.83"/><polygon class="cls-3" points="18.82 20.5 19.35 24.92 19.25 35.34 18.71 30.93 18.82 20.5"/><path class="cls-6" d="M23.08,20.55l-4.26,0-.1,10.42L7.61,30.84l.1-10.42h2.41l.09-9.68,3,0h1.58a11.4,11.4,0,0,1,6.73,2.09,10,10,0,0,1,1.57,1.37Z"/><polygon class="cls-3" points="18.71 30.93 19.25 35.34 8.14 35.25 7.61 30.84 18.71 30.93"/><polygon class="cls-3" points="20.05 30.94 20.58 35.35 19.25 35.34 18.71 30.93 20.05 30.94"/><polygon class="cls-3" points="25.37 30.98 25.9 35.4 20.58 35.35 20.05 30.94 25.37 30.98"/><polygon class="cls-3" points="25.37 30.98 25.9 35.4 20.58 35.35 20.05 30.94 25.37 30.98"/><polygon class="cls-3" points="40.56 19.76 41.09 24.18 40.99 35.52 40.46 31.11 40.56 19.76"/><polygon class="cls-3" points="40.46 31.11 40.99 35.52 36.37 35.49 35.84 31.07 40.46 31.11"/><polygon class="cls-3" points="35.84 31.07 36.37 35.49 36.32 41.15 35.79 36.73 35.84 31.07"/><path class="cls-6" d="M31.76,11A9,9,0,0,1,38,13.44a8.61,8.61,0,0,1,2.54,6.32l-.1,11.35-4.62,0-.05,5.66-10.48-.08L25.37,31l-5.32,0H18.72l.1-10.42,4.26,0,.06-6.3,0-3.36,8.51.07Z"/><polygon class="cls-3" points="35.79 36.73 36.32 41.15 25.84 41.06 25.31 36.65 35.79 36.73"/></g><g class="cls-2"><polygon class="cls-3" points="60.96 5.63 61.49 10.04 61.44 15.59 60.91 11.17 60.96 5.63"/><polygon class="cls-3" points="60.91 11.17 61.44 15.59 59.46 15.57 58.92 11.16 60.91 11.17"/><polygon class="cls-3" points="46.38 15.92 46.91 20.34 46.01 20.33 45.48 15.92 46.38 15.92"/><polygon class="cls-3" points="58.92 11.16 59.46 15.57 59.37 25.26 58.84 20.85 58.92 11.16"/><polygon class="cls-3" points="58.84 20.85 59.37 25.26 56.96 25.24 56.42 20.83 58.84 20.85"/><g class="cls-2"><g class="cls-7"><g class="cls-2"><path class="cls-5" d="M71.89,14.71l.54,4.41a8.75,8.75,0,0,0-1.75,5.3L70.15,20a8.76,8.76,0,0,1,1.74-5.29"/></g></g></g><polygon class="cls-3" points="70.15 20 70.68 24.42 70.65 27.03 70.12 22.61 70.15 20"/><polygon class="cls-3" points="84.96 11.41 85.49 15.83 85.4 25.48 84.87 21.07 84.96 11.41"/><polygon class="cls-3" points="84.87 21.07 85.4 25.48 83 25.46 82.47 21.05 84.87 21.07"/><g class="cls-2"><g class="cls-8"><g class="cls-2"><path class="cls-5" d="M70.12,22.61,70.65,27a9.92,9.92,0,0,0,.07,1.23l-.53-4.41a10.08,10.08,0,0,1-.07-1.24"/></g></g></g><polygon class="cls-3" points="97.83 21.17 98.36 25.59 94.11 25.56 93.57 21.14 97.83 21.17"/><polygon class="cls-3" points="97.89 14.88 98.42 19.29 98.36 25.59 97.83 21.17 97.89 14.88"/><g class="cls-2"><g class="cls-9"><g class="cls-2"><path class="cls-5" d="M114,15.59l.54,4.41a8.73,8.73,0,0,0-1.39,4.78l-.53-4.42A8.79,8.79,0,0,1,114,15.59"/></g></g></g><polygon class="cls-3" points="112.59 21.29 113.12 25.71 108.84 25.68 108.31 21.26 112.59 21.29"/><polygon class="cls-3" points="112.61 20.36 113.14 24.78 113.12 25.71 112.59 21.29 112.61 20.36"/><g class="cls-2"><g class="cls-10"><g class="cls-2"><path class="cls-5" d="M71,26.55,71.49,31a8.85,8.85,0,0,1-.77-2.71l-.53-4.41a8.79,8.79,0,0,0,.77,2.7"/></g></g></g><polygon class="cls-3" points="70.96 26.55 71.49 30.97 70.62 30.96 70.09 26.55 70.96 26.55"/><polygon class="cls-3" points="56.33 31.24 56.86 35.65 41.66 35.53 41.12 31.11 56.33 31.24"/><path class="cls-6" d="M61,5.63l-.05,5.54h-2l-.09,9.69-2.42,0-.09,10.41-15.21-.13.38-3.8a18.83,18.83,0,0,1,4.88-11.39h-.9l.1-10.43Z"/><polygon class="cls-3" points="56.42 20.83 56.96 25.24 56.86 35.65 56.33 31.24 56.42 20.83"/><polygon class="cls-3" points="70.05 31.35 70.58 35.77 56.86 35.66 56.33 31.24 70.05 31.35"/><polygon class="cls-3" points="70.09 26.55 70.62 30.96 70.58 35.77 70.05 31.35 70.09 26.55"/><path class="cls-6" d="M63.66,11.2a11.35,11.35,0,0,1,6.62,2.08,9,9,0,0,1,1.61,1.43A8.76,8.76,0,0,0,70.15,20l0,2.61A9.18,9.18,0,0,0,71,26.55h-.87l0,4.8-13.72-.11.09-10.41,2.42,0,.09-9.69h2l2.64,0Z"/><polygon class="cls-3" points="129.4 11.78 129.93 16.2 129.8 30.06 129.27 25.65 129.4 11.78"/><polygon class="cls-3" points="82.47 21.05 83 25.46 82.9 35.88 82.37 31.46 82.47 21.05"/><polygon class="cls-3" points="86.35 31.49 86.88 35.91 82.9 35.88 82.37 31.46 86.35 31.49"/><polygon class="cls-3" points="93.47 31.55 94 35.97 86.88 35.91 86.35 31.49 93.47 31.55"/><polygon class="cls-3" points="93.57 21.14 94.11 25.56 94 35.97 93.47 31.55 93.57 21.14"/><path class="cls-6" d="M89.59,11.41a11.74,11.74,0,0,1,6.74,2.09,10,10,0,0,1,1.56,1.37l-.06,6.3-4.26,0-.11,10.41-7.11-.06-4,0,.1-10.41,2.4,0L85,11.41Z"/><path class="cls-6" d="M106.52,11.59a9,9,0,0,1,6.25,2.48A8.06,8.06,0,0,1,114,15.59a8.79,8.79,0,0,0-1.38,4.77l0,.93-4.28,0-.11,10.42-14.74-.13.11-10.41,4.26,0,.06-6.3,0-3.35,8.52.07Z"/><polygon class="cls-3" points="108.2 31.68 108.73 36.09 94 35.97 93.47 31.55 108.2 31.68"/><polygon class="cls-3" points="108.31 21.26 108.84 25.68 108.73 36.09 108.2 31.68 108.31 21.26"/><polygon class="cls-3" points="112.5 31.72 113.03 36.13 108.73 36.09 108.2 31.68 112.5 31.72"/><polygon class="cls-3" points="77.93 37.09 78.46 41.5 70.52 41.44 69.99 37.02 77.93 37.09"/><g class="cls-2"><g class="cls-11"><g class="cls-2"><path class="cls-5" d="M86.35,31.49l.53,4.42c-1.09,3.51-4.17,5.63-8.42,5.59l-.53-4.41c4.25,0,7.33-2.09,8.42-5.6"/></g></g></g><path class="cls-6" d="M85,11.41l-.09,9.66-2.4,0-.1,10.41,4,0c-1.09,3.51-4.17,5.63-8.42,5.6L70,37l.06-5.68,0-4.8H71a9.18,9.18,0,0,1-.84-3.94l0-2.61a8.76,8.76,0,0,1,1.74-5.29,8.87,8.87,0,0,1,7.29-3.35Z"/><polygon class="cls-3" points="120.24 34.49 120.77 38.91 113 38.84 112.47 34.43 120.24 34.49"/><path class="cls-6" d="M129.4,11.78l-.13,13.87a8.56,8.56,0,0,1-9,8.84l-7.77-.06,0-2.71-4.3,0,.11-10.42,4.28,0,0-.93A8.79,8.79,0,0,1,114,15.59a7.78,7.78,0,0,1,1.25-1.49,9.09,9.09,0,0,1,6.39-2.39Z"/><g class="cls-2"><g class="cls-12"><g class="cls-2"><path class="cls-5" d="M129.27,25.65l.53,4.41a8.56,8.56,0,0,1-9,8.85l-.53-4.42a8.56,8.56,0,0,0,9-8.84"/></g></g></g></g><g class="cls-2"><polygon class="cls-3" points="183.12 6.66 183.65 11.07 183.6 16.65 183.07 12.23 183.12 6.66"/><polygon class="cls-3" points="171.73 12.14 172.26 16.55 172.24 19.02 171.71 14.6 171.73 12.14"/><g class="cls-2"><g class="cls-13"><g class="cls-2"><path class="cls-5" d="M171.71,14.6l.53,4.41a8.92,8.92,0,0,0-2.77,6.59,5.61,5.61,0,0,0,0,.58L169,21.76a5.51,5.51,0,0,1,0-.58,8.85,8.85,0,0,1,2.77-6.58"/></g></g></g><g class="cls-2"><g class="cls-14"><g class="cls-2"><path class="cls-5" d="M171.71,14.6l.53,4.41a8.92,8.92,0,0,0-2.77,6.59,5.61,5.61,0,0,0,0,.58L169,21.76a5.51,5.51,0,0,1,0-.58,8.85,8.85,0,0,1,2.77-6.58"/></g></g></g><polygon class="cls-3" points="168.95 21.76 169.48 26.18 165.17 26.15 164.64 21.73 168.95 21.76"/><polygon class="cls-3" points="140.81 16.53 141.34 20.95 141.24 31.56 140.71 27.14 140.81 16.53"/><polygon class="cls-3" points="161.14 27.43 161.67 31.84 158.68 31.82 158.15 27.41 161.14 27.43"/><polygon class="cls-3" points="161.25 15.13 161.78 19.55 161.67 31.84 161.14 27.43 161.25 15.13"/><polygon class="cls-3" points="158.11 32.09 158.64 36.51 151.92 36.46 151.38 32.04 158.11 32.09"/><polygon class="cls-3" points="158.15 27.41 158.68 31.82 158.64 36.51 158.11 32.09 158.15 27.41"/><polygon class="cls-3" points="164.64 21.73 165.17 26.15 165.07 36.56 164.54 32.15 164.64 21.73"/><polygon class="cls-3" points="171.72 32.21 172.25 36.63 165.07 36.56 164.54 32.15 171.72 32.21"/><polygon class="cls-3" points="171.72 32.21 172.25 36.63 171.46 36.63 170.93 32.21 171.72 32.21"/><g class="cls-2"><g class="cls-15"><g class="cls-2"><path class="cls-5" d="M138.84,37.6l.54,4.42a8.7,8.7,0,0,1-6.24-2.37,8,8,0,0,1-2.29-4.9l-.53-4.41a8,8,0,0,0,2.29,4.89,8.69,8.69,0,0,0,6.23,2.37"/></g></g></g><polygon class="cls-3" points="138.94 37.6 139.47 42.02 139.38 42.02 138.84 37.6 138.94 37.6"/><polygon class="cls-3" points="186.32 12.26 186.85 16.68 186.66 36.75 186.13 32.33 186.32 12.26"/><polygon class="cls-3" points="186.13 32.33 186.66 36.75 172.25 36.63 171.72 32.21 186.13 32.33"/><path class="cls-6" d="M183.12,6.65l-.05,5.58,3.25,0-.19,20.07-14.42-.12-7.17-.06.1-10.42,4.31,0a5.51,5.51,0,0,1,0-.58,8.85,8.85,0,0,1,2.77-6.58,10.58,10.58,0,0,1,.89-.74l.07-7.3Z"/><polygon class="cls-3" points="142.97 37.63 143.5 42.05 139.47 42.02 138.94 37.6 142.97 37.63"/><path class="cls-6" d="M154.32,12a9.15,9.15,0,0,1,6.32,2.48,7.57,7.57,0,0,1,.61.66l-.11,12.3-3,0,0,4.68L151.38,32c-1.09,3.51-4.17,5.63-8.41,5.59l-4,0h-.09a8.69,8.69,0,0,1-6.23-2.37,8.37,8.37,0,0,1-2.37-6.31l.12-12.48,10.45.09-.1,10.61h.66l.13-15.27Z"/><g class="cls-2"><g class="cls-16"><g class="cls-2"><path class="cls-5" d="M151.38,32l.54,4.42c-1.1,3.5-4.17,5.63-8.42,5.59L143,37.63c4.24,0,7.32-2.08,8.41-5.59"/></g></g></g><polygon class="cls-3" points="162.02 37.8 162.55 42.21 158.59 42.17 158.06 37.75 162.02 37.8"/><g class="cls-2"><g class="cls-17"><g class="cls-2"><path class="cls-5" d="M170.93,32.21l.53,4.42c-1.29,3.58-4.45,5.62-8.91,5.58L162,37.79c4.46,0,7.62-2,8.91-5.58"/></g></g></g><path class="cls-6" d="M171.73,12.14l0,2.46a8.85,8.85,0,0,0-2.77,6.58,5.51,5.51,0,0,0,0,.58l-4.31,0-.1,10.42,7.17.06h-.78c-1.29,3.59-4.45,5.62-8.91,5.58l-4,0,.05-5.66,0-4.68,3,0,.11-12.3,0-3.09Z"/></g><path class="cls-18" d="M3.75,5.94V4.55H10V5.94Zm0,2.67V7.25H10V8.61ZM8.88,28.42H5.43V9.68H8.88Z"/><path class="cls-18" d="M19.18,25V22.88a3.77,3.77,0,0,0-1.07-3A4.22,4.22,0,0,0,16.6,19,10.35,10.35,0,0,0,14,18.7V15.25h1.13a7.93,7.93,0,0,1,4.73,1.4c1.89,1.3,2.84,3.36,2.84,6.2V25h.18v3.45H11.55V25Z"/><path class="cls-18" d="M33.88,25V20.85c0-1.42-.6-2.12-1.82-2.12H26.92V15.28h5a5.11,5.11,0,0,1,5.45,5.25v7.89H22.66V25ZM29.3,30.6h3.48v3.51H29.3Z"/><path class="cls-18" d="M57.66,28.42H45.39c.73-8.06,5.49-12.7,12.27-13.14ZM49.28,9.68h3.51v3.46H49.28ZM49.83,25h4.38V19.52A8.24,8.24,0,0,0,49.83,25ZM54.21,9.68h3.45v3.46H54.21Z"/><path class="cls-18" d="M67.9,25V22.88a3.77,3.77,0,0,0-1.07-3A4.22,4.22,0,0,0,65.32,19a10.35,10.35,0,0,0-2.64-.29V15.25h1.13a7.93,7.93,0,0,1,4.73,1.4c1.88,1.3,2.84,3.36,2.84,6.2v5.57H60.27V25Z"/><path class="cls-18" d="M74,34.11V30.6h4.76c.66,0,1.1-.15,1.27-.47a1.28,1.28,0,0,0,.2-.72v-1h-.78A5.1,5.1,0,0,1,74,23.14V20.53a5.11,5.11,0,0,1,5.45-5.25h4.27V29c0,3.31-1.89,5.14-5.28,5.14Zm6.23-15.38h-.89c-1.25,0-1.89.7-1.89,2.12v2c0,1.42.64,2.15,1.89,2.15h.89Z"/><path class="cls-18" d="M93.94,25V22.88a3.77,3.77,0,0,0-1.07-3A4.22,4.22,0,0,0,91.36,19a10.35,10.35,0,0,0-2.64-.29V15.25h1.13a7.93,7.93,0,0,1,4.73,1.4c1.88,1.3,2.84,3.36,2.84,6.2V25h.18v3.45H86.31V25Z"/><path class="cls-18" d="M108.64,25V20.85c0-1.42-.6-2.12-1.82-2.12h-5.14V15.28h5a5.11,5.11,0,0,1,5.45,5.25V25h.18v3.45H97.42V25Z"/><path class="cls-18" d="M116.45,28.42h-4.3V25h4.3V20.53a5.09,5.09,0,0,1,5.45-5.25h4.26V25.7a5.11,5.11,0,0,1-5.45,5.45h-4.26Zm3.45-.75h.87c1.27,0,1.88-.7,1.88-2.12V18.73h-.87c-1.27,0-1.88.7-1.88,2.12Z"/><path class="cls-18" d="M160,28.42H148.75V29c0,3.31-1.88,5.14-5.28,5.14h-4c-3.39,0-5.28-1.83-5.28-5.14V20h3.45v9.46c.15,1,.44,1.19,1.51,1.19h4.67a1.63,1.63,0,0,0,1.34-.47,1.66,1.66,0,0,0,.14-.72V15.28h9.31A5.13,5.13,0,0,1,160,20.53ZM156.53,25V20.85c0-1.42-.61-2.12-1.89-2.12h-5.89V25Z"/><path class="cls-18" d="M162.06,30.71h.43c1.72,0,2.56-.81,2.56-2.38v-13h3.45V25h.17v3.45h-.17c-.18,4.44-2.81,5.69-6,5.69h-.46Z"/><path class="cls-18" d="M183.09,15.28V28.42H168.5V25h6a2.9,2.9,0,0,0-.52-.58,5.62,5.62,0,0,1-1.19-3.51,5.34,5.34,0,0,1,2.81-5,7.27,7.27,0,0,1,3.37-.64Zm-3.45,9.26V18.73h-.87c-1.66,0-2.5.7-2.5,2.09C176.27,22.53,177.4,23.75,179.64,24.54ZM176.39,9.68h3.45v3.46h-3.45Z"/></g></g></svg>