<svg xmlns="http://www.w3.org/2000/svg" xmlns:xlink="http://www.w3.org/1999/xlink" viewBox="0 0 186.86 42.21"><defs><style>.cls-1{fill:none;}.cls-2{isolation:isolate;}.cls-3{fill:#ca2828;}.cls-4{clip-path:url(#clip-path);}.cls-5{fill:#cc2828;}.cls-6{fill:#f33;}.cls-7{clip-path:url(#clip-path-2);}.cls-8{clip-path:url(#clip-path-3);}.cls-9{clip-path:url(#clip-path-4);}.cls-10{clip-path:url(#clip-path-5);}.cls-11{clip-path:url(#clip-path-6);}.cls-12{clip-path:url(#clip-path-7);}.cls-13{clip-path:url(#clip-path-8);}.cls-14{clip-path:url(#clip-path-9);}.cls-15{clip-path:url(#clip-path-10);}.cls-16{clip-path:url(#clip-path-11);}.cls-17{fill:#fff;}</style><clipPath id="clip-path"><path class="cls-1" d="M40.5,18.53,41,23a9.92,9.92,0,0,1,.07,1.23l-.53-4.42A9.92,9.92,0,0,0,40.5,18.53Z"/></clipPath><clipPath id="clip-path-2"><path class="cls-1" d="M72.43,19.13a8.79,8.79,0,0,0-1.74,5.3L70.16,20a8.72,8.72,0,0,1,1.74-5.3C72.06,16,72.78,17.84,72.43,19.13Z"/></clipPath><clipPath id="clip-path-3"><path class="cls-1" d="M70.73,28.27l-.53-4.42a10.08,10.08,0,0,1-.07-1.24L70.66,27A10.08,10.08,0,0,0,70.73,28.27Z"/></clipPath><clipPath id="clip-path-4"><path class="cls-1" d="M114.53,20a8.86,8.86,0,0,0-1.39,4.78l-.53-4.42A8.8,8.8,0,0,1,114,15.59C114.16,16.91,114.84,18.7,114.53,20Z"/></clipPath><clipPath id="clip-path-5"><path class="cls-1" d="M70.73,28.27l-.53-4.42a9.07,9.07,0,0,0,.76,2.7L71.49,31A9.07,9.07,0,0,1,70.73,28.27Z"/></clipPath><clipPath id="clip-path-6"><path class="cls-1" d="M86.36,31.49l.53,4.42c-1.1,3.51-4.17,5.63-8.42,5.59l-.53-4.41C82.19,37.12,85.26,35,86.36,31.49Z"/></clipPath><clipPath id="clip-path-7"><path class="cls-1" d="M129.28,25.65l.53,4.41a8.56,8.56,0,0,1-9,8.85l-.53-4.42A8.56,8.56,0,0,0,129.28,25.65Z"/></clipPath><clipPath id="clip-path-8"><path class="cls-1" d="M169.94,16.94l.53,4.42a9.36,9.36,0,0,0-1,4.24c0,.19,0,.39,0,.59L169,21.77c0-.19,0-.39,0-.59A9.36,9.36,0,0,1,169.94,16.94Z"/></clipPath><clipPath id="clip-path-9"><path class="cls-1" d="M130.86,34.77l-.54-4.42a8,8,0,0,0,2.3,4.89,8.74,8.74,0,0,0,6.23,2.36l.53,4.42a8.74,8.74,0,0,1-6.23-2.36A8.05,8.05,0,0,1,130.86,34.77Z"/></clipPath><clipPath id="clip-path-10"><path class="cls-1" d="M151.39,32l.53,4.42c-1.09,3.5-4.17,5.63-8.41,5.6L143,37.64C147.22,37.67,150.3,35.55,151.39,32Z"/></clipPath><clipPath id="clip-path-11"><path class="cls-1" d="M170.94,32.21l.53,4.42c-1.29,3.58-4.45,5.62-8.91,5.58L162,37.79C166.49,37.84,169.65,35.8,170.94,32.21Z"/></clipPath></defs><title>banner-headline-ar_1</title><g id="Layer_2" data-name="Layer 2"><g id="Layer_1-2" data-name="Layer 1"><g class="cls-2"><polygon class="cls-3" points="1.68 11.04 2.21 15.46 0.53 15.44 0 11.02 1.68 11.04"/><polygon class="cls-3" points="13.38 0.11 13.91 4.53 13.8 15.19 13.27 10.78 13.38 0.11"/><polygon class="cls-3" points="13.27 10.78 13.8 15.19 10.75 15.17 10.22 10.75 13.27 10.78"/><polygon class="cls-3" points="10.12 20.44 10.65 24.86 8.25 24.84 7.72 20.42 10.12 20.44"/><polygon class="cls-3" points="10.22 10.75 10.75 15.17 10.65 24.86 10.12 20.44 10.22 10.75"/><polygon class="cls-3" points="23.15 14.26 23.68 18.68 23.62 24.96 23.09 20.55 23.15 14.26"/><polygon class="cls-3" points="23.09 20.55 23.62 24.96 19.36 24.93 18.82 20.51 23.09 20.55"/><g class="cls-2"><g class="cls-4"><g class="cls-2"><path class="cls-5" d="M40.5,18.53,41,23a9.92,9.92,0,0,1,.07,1.23l-.53-4.42a9.92,9.92,0,0,0-.07-1.23"/></g></g></g><polygon class="cls-3" points="7.72 20.42 8.25 24.84 8.15 35.25 7.62 30.83 7.72 20.42"/><polygon class="cls-6" points="13.38 0.11 13.27 10.78 10.22 10.75 10.12 20.44 7.72 20.42 7.62 30.83 1.5 30.78 1.68 11.04 0 11.02 0.11 0 13.38 0.11"/><polygon class="cls-3" points="7.62 30.83 8.15 35.25 2.03 35.2 1.5 30.78 7.62 30.83"/><polygon class="cls-3" points="18.82 20.51 19.36 24.93 19.25 35.34 18.72 30.93 18.82 20.51"/><path class="cls-6" d="M23.09,20.55l-4.26,0-.11,10.42-11.1-.09.1-10.42,2.4,0,.1-9.69,3,0h1.58a11.45,11.45,0,0,1,6.73,2.09,9.64,9.64,0,0,1,1.57,1.38Z"/><polygon class="cls-3" points="18.72 30.93 19.25 35.34 8.15 35.25 7.62 30.84 18.72 30.93"/><polygon class="cls-3" points="20.1 30.94 20.63 35.36 19.25 35.34 18.72 30.93 20.1 30.94"/><polygon class="cls-3" points="25.37 30.98 25.9 35.4 20.63 35.36 20.1 30.94 25.37 30.98"/><polygon class="cls-3" points="25.37 30.98 25.9 35.4 20.63 35.36 20.1 30.94 25.37 30.98"/><polygon class="cls-3" points="40.56 19.76 41.1 24.18 40.99 35.52 40.46 31.11 40.56 19.76"/><polygon class="cls-3" points="40.46 31.11 40.99 35.52 36.38 35.49 35.85 31.07 40.46 31.11"/><polygon class="cls-3" points="35.85 31.07 36.38 35.49 36.32 41.16 35.79 36.74 35.85 31.07"/><path class="cls-6" d="M31.77,11A9,9,0,0,1,38,13.45a8.57,8.57,0,0,1,2.54,6.31l-.11,11.35-4.61,0-.06,5.67-10.47-.09L25.37,31l-5.27,0H18.72l.11-10.42,4.26,0,.06-6.29,0-3.37,8.51.07Z"/><polygon class="cls-3" points="35.79 36.74 36.32 41.16 25.85 41.06 25.32 36.65 35.79 36.74"/></g><g class="cls-2"><polygon class="cls-3" points="60.92 11.18 61.45 15.59 59.46 15.57 58.92 11.16 60.92 11.18"/><polygon class="cls-3" points="60.97 5.63 61.5 10.04 61.45 15.59 60.92 11.18 60.97 5.63"/><polygon class="cls-3" points="46.39 15.92 46.92 20.34 46.02 20.33 45.49 15.92 46.39 15.92"/><polygon class="cls-3" points="58.92 11.16 59.46 15.57 59.37 25.26 58.84 20.85 58.92 11.16"/><polygon class="cls-3" points="58.84 20.85 59.37 25.26 56.97 25.24 56.43 20.83 58.84 20.85"/><g class="cls-2"><g class="cls-7"><g class="cls-2"><path class="cls-5" d="M71.9,14.71l.53,4.42a8.79,8.79,0,0,0-1.74,5.3L70.16,20a8.72,8.72,0,0,1,1.74-5.3"/></g></g></g><polygon class="cls-3" points="70.16 20.01 70.69 24.43 70.66 27.03 70.13 22.61 70.16 20.01"/><polygon class="cls-3" points="84.97 11.41 85.5 15.83 85.41 25.48 84.88 21.07 84.97 11.41"/><polygon class="cls-3" points="84.88 21.07 85.41 25.48 83.01 25.46 82.48 21.05 84.88 21.07"/><g class="cls-2"><g class="cls-8"><g class="cls-2"><path class="cls-5" d="M70.13,22.61,70.66,27a10.08,10.08,0,0,0,.07,1.24l-.53-4.42a10.08,10.08,0,0,1-.07-1.24"/></g></g></g><polygon class="cls-3" points="97.84 21.17 98.37 25.59 94.11 25.56 93.58 21.14 97.84 21.17"/><polygon class="cls-3" points="97.9 14.88 98.43 19.3 98.37 25.59 97.84 21.17 97.9 14.88"/><g class="cls-2"><g class="cls-9"><g class="cls-2"><path class="cls-5" d="M114,15.59l.53,4.41a8.86,8.86,0,0,0-1.39,4.78l-.53-4.42A8.8,8.8,0,0,1,114,15.59"/></g></g></g><polygon class="cls-3" points="112.6 21.29 113.13 25.71 108.84 25.68 108.31 21.26 112.6 21.29"/><polygon class="cls-3" points="112.61 20.36 113.14 24.78 113.13 25.71 112.6 21.29 112.61 20.36"/><g class="cls-2"><g class="cls-10"><g class="cls-2"><path class="cls-5" d="M71,26.55,71.49,31a9.07,9.07,0,0,1-.76-2.7l-.53-4.42a9.07,9.07,0,0,0,.76,2.7"/></g></g></g><polygon class="cls-3" points="70.96 26.55 71.49 30.97 70.63 30.96 70.1 26.55 70.96 26.55"/><polygon class="cls-3" points="56.43 20.83 56.97 25.24 56.86 35.66 56.33 31.24 56.43 20.83"/><polygon class="cls-3" points="60.73 31.28 61.26 35.7 56.86 35.66 56.33 31.24 60.73 31.28"/><path class="cls-6" d="M61,5.63l0,5.55-2,0-.09,9.69-2.41,0-.1,10.41,4.39,0-19.59-.16.38-3.8a18.86,18.86,0,0,1,4.88-11.4h-.9l.09-10.43Z"/><polygon class="cls-3" points="60.73 31.28 61.26 35.7 41.66 35.53 41.13 31.12 60.73 31.28"/><polygon class="cls-3" points="70.1 26.55 70.63 30.96 70.58 35.78 70.05 31.36 70.1 26.55"/><polygon class="cls-3" points="70.05 31.36 70.58 35.78 61.26 35.7 60.73 31.28 70.05 31.36"/><path class="cls-6" d="M63.67,11.21a11.33,11.33,0,0,1,6.62,2.08,9.76,9.76,0,0,1,1.61,1.42A8.72,8.72,0,0,0,70.16,20l0,2.6A9.17,9.17,0,0,0,71,26.55H70.1l0,4.81-9.33-.08-4.39,0,.1-10.41,2.41,0,.09-9.69,2,0,2.64,0Z"/><polygon class="cls-3" points="129.41 11.78 129.94 16.2 129.81 30.06 129.28 25.65 129.41 11.78"/><polygon class="cls-3" points="82.48 21.05 83.01 25.46 82.9 35.88 82.37 31.46 82.48 21.05"/><polygon class="cls-3" points="86.36 31.49 86.89 35.91 82.9 35.88 82.37 31.46 86.36 31.49"/><polygon class="cls-3" points="93.47 31.55 94 35.97 86.89 35.91 86.36 31.49 93.47 31.55"/><path class="cls-6" d="M89.74,11.43a11.27,11.27,0,0,1,6.6,2.08,10,10,0,0,1,1.56,1.37l-.06,6.29-4.26,0-.11,10.41-7.11-.06-4,0,.11-10.41,2.4,0L85,11.41h4.77Z"/><polygon class="cls-3" points="93.58 21.14 94.11 25.56 94 35.97 93.47 31.55 93.58 21.14"/><path class="cls-6" d="M106.52,11.59a9.09,9.09,0,0,1,6.26,2.48A8.06,8.06,0,0,1,114,15.59a8.8,8.8,0,0,0-1.39,4.77v.93l-4.29,0-.1,10.42-14.74-.13.11-10.41,4.26,0,.06-6.29,0-3.36,8.52.07Z"/><polygon class="cls-3" points="108.21 31.68 108.74 36.09 94 35.97 93.47 31.55 108.21 31.68"/><polygon class="cls-3" points="108.31 21.26 108.84 25.68 108.74 36.09 108.21 31.68 108.31 21.26"/><polygon class="cls-3" points="112.51 31.72 113.04 36.13 108.74 36.09 108.21 31.68 112.51 31.72"/><polygon class="cls-3" points="77.94 37.09 78.47 41.5 70.53 41.44 70 37.02 77.94 37.09"/><g class="cls-2"><g class="cls-11"><g class="cls-2"><path class="cls-5" d="M86.36,31.49l.53,4.42c-1.1,3.51-4.17,5.63-8.42,5.59l-.53-4.41c4.25,0,7.32-2.09,8.42-5.6"/></g></g></g><path class="cls-6" d="M85,11.41l-.09,9.66-2.4,0-.11,10.41,4,0c-1.1,3.51-4.17,5.63-8.42,5.6L70,37l0-5.67,0-4.81H71a9.17,9.17,0,0,1-.83-3.94l0-2.6a8.72,8.72,0,0,1,1.74-5.3,8.87,8.87,0,0,1,7.29-3.35Z"/><polygon class="cls-3" points="120.25 34.49 120.78 38.91 113.01 38.84 112.48 34.43 120.25 34.49"/><path class="cls-6" d="M129.41,11.78l-.13,13.87a8.56,8.56,0,0,1-9,8.84l-7.77-.06,0-2.71-4.3,0,.1-10.42,4.29,0v-.93A8.8,8.8,0,0,1,114,15.59a8.1,8.1,0,0,1,1.25-1.49,9.06,9.06,0,0,1,6.39-2.38Z"/><g class="cls-2"><g class="cls-12"><g class="cls-2"><path class="cls-5" d="M129.28,25.65l.53,4.41a8.56,8.56,0,0,1-9,8.85l-.53-4.42a8.56,8.56,0,0,0,9-8.84"/></g></g></g></g><g class="cls-2"><polygon class="cls-3" points="185.42 6.67 185.95 11.09 185.9 16.67 185.37 12.25 185.42 6.67"/><polygon class="cls-3" points="169.99 12.12 170.52 16.54 170.47 21.36 169.94 16.94 169.99 12.12"/><polygon class="cls-3" points="168.95 21.77 169.48 26.19 165.18 26.15 164.65 21.73 168.95 21.77"/><g class="cls-2"><g class="cls-13"><g class="cls-2"><path class="cls-5" d="M169.94,16.94l.53,4.42a9.36,9.36,0,0,0-1,4.24c0,.19,0,.39,0,.59L169,21.77c0-.19,0-.39,0-.59a9.36,9.36,0,0,1,1-4.24"/></g></g></g><polygon class="cls-3" points="140.81 16.53 141.34 20.95 141.24 31.56 140.71 27.14 140.81 16.53"/><polygon class="cls-3" points="161.15 27.43 161.68 31.84 158.69 31.82 158.16 27.41 161.15 27.43"/><polygon class="cls-3" points="161.26 15.13 161.79 19.54 161.68 31.84 161.15 27.43 161.26 15.13"/><polygon class="cls-3" points="158.12 32.1 158.65 36.52 151.93 36.46 151.39 32.04 158.12 32.1"/><polygon class="cls-3" points="158.16 27.41 158.69 31.82 158.65 36.52 158.12 32.1 158.16 27.41"/><polygon class="cls-3" points="164.65 21.73 165.18 26.15 165.08 36.56 164.55 32.15 164.65 21.73"/><polygon class="cls-3" points="171.72 32.21 172.25 36.63 165.08 36.56 164.55 32.15 171.72 32.21"/><polygon class="cls-3" points="171.72 32.21 172.25 36.63 171.47 36.63 170.94 32.21 171.72 32.21"/><g class="cls-2"><g class="cls-14"><g class="cls-2"><path class="cls-5" d="M138.85,37.6l.53,4.42a8.74,8.74,0,0,1-6.23-2.36,8.05,8.05,0,0,1-2.29-4.89l-.54-4.42a8,8,0,0,0,2.3,4.89,8.74,8.74,0,0,0,6.23,2.36"/></g></g></g><polygon class="cls-3" points="138.94 37.6 139.47 42.02 139.38 42.02 138.85 37.6 138.94 37.6"/><polygon class="cls-3" points="186.33 12.26 186.86 16.68 186.67 36.75 186.14 32.33 186.33 12.26"/><polygon class="cls-3" points="186.14 32.33 186.67 36.75 172.25 36.63 171.72 32.21 186.14 32.33"/><path class="cls-6" d="M185.42,6.67l0,5.58h1l-.19,20.07-14.42-.12-7.17-.06.1-10.42,4.3,0c0-.19,0-.39,0-.59a9.36,9.36,0,0,1,1-4.24l.05-4.82,0-5.58,10.49.09Z"/><polygon class="cls-3" points="142.97 37.64 143.51 42.06 139.47 42.02 138.94 37.6 142.97 37.64"/><path class="cls-6" d="M154.33,12a9.15,9.15,0,0,1,6.32,2.48,7.57,7.57,0,0,1,.61.66l-.11,12.3-3,0,0,4.69L151.39,32c-1.09,3.51-4.17,5.63-8.41,5.6l-4,0h-.09a8.74,8.74,0,0,1-6.23-2.36,8.38,8.38,0,0,1-2.37-6.32l.12-12.48,10.44.09-.1,10.61h.67l.13-15.26Z"/><g class="cls-2"><g class="cls-15"><g class="cls-2"><path class="cls-5" d="M151.39,32l.53,4.42c-1.09,3.5-4.17,5.63-8.41,5.6L143,37.64c4.24,0,7.32-2.09,8.41-5.6"/></g></g></g><polygon class="cls-3" points="162.03 37.8 162.56 42.21 158.6 42.17 158.07 37.75 162.03 37.8"/><g class="cls-2"><g class="cls-16"><g class="cls-2"><path class="cls-5" d="M170.94,32.21l.53,4.42c-1.29,3.58-4.45,5.62-8.91,5.58L162,37.79c4.46.05,7.62-2,8.91-5.58"/></g></g></g><path class="cls-6" d="M170,12.12l-.05,4.82a9.36,9.36,0,0,0-1,4.24c0,.2,0,.4,0,.59l-4.3,0-.1,10.42,7.17.06h-.78c-1.29,3.59-4.45,5.63-8.91,5.58l-4,0,.05-5.65,0-4.69,3,0,.11-12.3,0-3.09Z"/></g><path class="cls-17" d="M3.76,5.94V4.55H10V5.94Zm0,2.67V7.25H10V8.61ZM8.89,28.42H5.44V9.69H8.89Z"/><path class="cls-17" d="M19.19,25V22.88a3.78,3.78,0,0,0-1.07-3A4,4,0,0,0,16.61,19,10,10,0,0,0,14,18.71V15.25H15.1a7.93,7.93,0,0,1,4.73,1.4c1.88,1.3,2.84,3.36,2.84,6.2V25h.17v3.45H11.56V25Z"/><path class="cls-17" d="M33.89,25V20.85c0-1.42-.61-2.11-1.82-2.11H26.93V15.28h5a5.11,5.11,0,0,1,5.45,5.25v7.89H22.67V25ZM29.31,30.6h3.48v3.51H29.31Z"/><path class="cls-17" d="M57.67,28.42H45.4c.73-8.06,5.48-12.7,12.27-13.14ZM49.29,9.69H52.8v3.45H49.29ZM49.84,25h4.38V19.52A8.27,8.27,0,0,0,49.84,25ZM54.22,9.69h3.45v3.45H54.22Z"/><path class="cls-17" d="M67.91,25V22.88a3.78,3.78,0,0,0-1.07-3A4,4,0,0,0,65.33,19a10,10,0,0,0-2.64-.29V15.25h1.13a8,8,0,0,1,4.73,1.4c1.88,1.3,2.84,3.36,2.84,6.2v5.57H60.28V25Z"/><path class="cls-17" d="M74,34.11V30.6h4.75c.67,0,1.11-.15,1.28-.46a1.34,1.34,0,0,0,.2-.73v-1h-.78A5.09,5.09,0,0,1,74,23.15V20.53a5.11,5.11,0,0,1,5.45-5.25h4.26V29c0,3.3-1.88,5.13-5.28,5.13Zm6.23-15.37h-.9c-1.24,0-1.88.69-1.88,2.11v2c0,1.42.64,2.14,1.88,2.14h.9Z"/><path class="cls-17" d="M94,25V22.88a3.78,3.78,0,0,0-1.07-3A4,4,0,0,0,91.37,19a10,10,0,0,0-2.64-.29V15.25h1.13a8,8,0,0,1,4.73,1.4c1.88,1.3,2.84,3.36,2.84,6.2V25h.17v3.45H86.32V25Z"/><path class="cls-17" d="M108.65,25V20.85c0-1.42-.61-2.11-1.82-2.11h-5.14V15.28h5a5.11,5.11,0,0,1,5.45,5.25V25h.18v3.45H97.43V25Z"/><path class="cls-17" d="M116.45,28.42h-4.29V25h4.29V20.53a5.1,5.1,0,0,1,5.46-5.25h4.26V25.7a5.12,5.12,0,0,1-5.45,5.45h-4.27Zm3.45-.75h.88c1.27,0,1.88-.7,1.88-2.12V18.74h-.87c-1.28,0-1.89.69-1.89,2.11Z"/><path class="cls-17" d="M160.05,28.42H148.76V29c0,3.3-1.88,5.13-5.28,5.13h-4c-3.4,0-5.28-1.83-5.28-5.13V20h3.45v9.46c.15,1,.44,1.19,1.51,1.19h4.67a1.63,1.63,0,0,0,1.33-.46,1.59,1.59,0,0,0,.15-.73V15.28h9.31a5.13,5.13,0,0,1,5.46,5.25ZM156.54,25V20.85c0-1.42-.61-2.11-1.89-2.11h-5.89V25Z"/><path class="cls-17" d="M162.07,30.72h.43c1.71,0,2.55-.82,2.55-2.38V15.28h3.46V25h.17v3.45h-.17c-.18,4.44-2.82,5.69-6,5.69h-.46Z"/><path class="cls-17" d="M183.1,15.28V28.42H168.51V25h6a3.25,3.25,0,0,0-.52-.58,5.58,5.58,0,0,1-1.19-3.51,5.35,5.35,0,0,1,2.81-5,7.4,7.4,0,0,1,3.37-.64Zm-9.34-5.59h3.48v3.45h-3.48Zm5.88,14.85v-5.8h-.87c-1.65,0-2.49.69-2.49,2.08C176.28,22.54,177.41,23.75,179.64,24.54Zm-1-14.85h3.48v3.45h-3.48Z"/></g></g></svg>