<svg xmlns="http://www.w3.org/2000/svg" viewBox="0 0 31.69 30.59"><defs><style>.cls-1{fill:#ff4c41;}.cls-2{fill:none;stroke:#fff;stroke-miterlimit:10;stroke-width:2px;}.cls-3{fill:#fff;}</style></defs><title>star-sm-2</title><g id="Layer_2" data-name="Layer 2"><g id="Layer_1-2" data-name="Layer 1"><path class="cls-1" d="M30.69,15.3c0,1.51-2.19,2.64-2.63,4s.62,3.65-.23,4.82-3.29.78-4.46,1.63-1.57,3.32-3,3.77-3.08-1.32-4.56-1.32S12.63,30,11.29,29.52s-1.8-2.92-3-3.77-3.61-.45-4.47-1.63.24-3.41-.22-4.82S1,16.81,1,15.3s2.2-2.65,2.64-4S3,7.64,3.86,6.47,7.15,5.7,8.33,4.84s1.57-3.32,3-3.77S14.36,2.4,15.85,2.4,19.07.63,20.41,1.07s1.8,2.93,3,3.77,3.6.45,4.46,1.63-.23,3.41.23,4.82S30.69,13.79,30.69,15.3Z"/><path class="cls-2" d="M30.69,15.3c0,1.51-2.19,2.64-2.63,4s.62,3.65-.23,4.82-3.29.78-4.46,1.63-1.57,3.32-3,3.77-3.08-1.32-4.56-1.32S12.63,30,11.29,29.52s-1.8-2.92-3-3.77-3.61-.45-4.47-1.63.24-3.41-.22-4.82S1,16.81,1,15.3s2.2-2.65,2.64-4S3,7.64,3.86,6.47,7.15,5.7,8.33,4.84s1.57-3.32,3-3.77S14.36,2.4,15.85,2.4,19.07.63,20.41,1.07s1.8,2.93,3,3.77,3.6.45,4.46,1.63-.23,3.41.23,4.82S30.69,13.79,30.69,15.3Z"/><path class="cls-3" d="M9.18,16.47v-.69a1.25,1.25,0,0,0-.36-1,1.42,1.42,0,0,0-.49-.28,3.91,3.91,0,0,0-.88-.09V13.26h.38a2.59,2.59,0,0,1,1.56.46,2.32,2.32,0,0,1,.94,2v.7h.06v1.14H6.66V16.47Z"/><path class="cls-3" d="M10.33,16.47h2.41v-3.2h1.14v4.34H10.33Zm.79,1.86h1.14v1.16H11.12Zm1.62,0h1.14v1.16H12.74Z"/><path class="cls-3" d="M18.7,16.47v-.69a1.25,1.25,0,0,0-.36-1,1.37,1.37,0,0,0-.5-.28A3.81,3.81,0,0,0,17,14.4V13.26h.38a2.59,2.59,0,0,1,1.56.46,2.32,2.32,0,0,1,.94,2v.7h.06v1.14H16.18V16.47Z"/><path class="cls-3" d="M23.56,16.47V15.11c0-.47-.2-.7-.61-.7H21.26V13.27h1.66A1.69,1.69,0,0,1,24.72,15v2.61H19.85V16.47ZM22,18.33h1.15v1.16H22Z"/></g></g></svg>