<?xml version="1.0" encoding="UTF-8" standalone="no"?>
<!DOCTYPE svg PUBLIC "-//W3C//DTD SVG 1.1//EN" "http://www.w3.org/Graphics/SVG/1.1/DTD/svg11.dtd">
<svg width="100%" height="100%" viewBox="0 0 62 103" version="1.1" xmlns="http://www.w3.org/2000/svg" xmlns:xlink="http://www.w3.org/1999/xlink" xml:space="preserve" style="fill-rule:evenodd;clip-rule:evenodd;stroke-linejoin:round;stroke-miterlimit:1.41421;">
    <g transform="matrix(1,0,0,1,-518.266,-325.33)">
        <path d="M555.552,417.902C555.552,421.437 552.659,424.33 549.124,424.33C545.588,424.33 542.695,421.437 542.695,417.902C542.695,414.366 545.588,411.473 549.124,411.473C552.659,411.473 555.552,414.366 555.552,417.902ZM572.267,405.045C572.267,406.411 571.061,407.616 569.695,407.616L528.552,407.616C527.186,407.616 525.981,406.411 525.981,405.045L525.981,348.473C525.981,347.107 527.186,345.902 528.552,345.902L569.695,345.902C571.061,345.902 572.267,347.107 572.267,348.473L572.267,405.045ZM556.838,336.902C556.838,337.625 556.275,338.187 555.552,338.187L542.695,338.187C541.972,338.187 541.409,337.625 541.409,336.902C541.409,336.178 541.972,335.616 542.695,335.616L555.552,335.616C556.275,335.616 556.838,336.178 556.838,336.902ZM579.981,335.616C579.981,329.991 575.32,325.33 569.695,325.33L528.552,325.33C522.927,325.33 518.266,329.991 518.266,335.616L518.266,417.902C518.266,423.527 522.927,428.187 528.552,428.187L569.695,428.187C575.32,428.187 579.981,423.527 579.981,417.902L579.981,335.616Z" style="fill:rgb(17,17,17);fill-rule:nonzero;"/>
    </g>
</svg>
