<svg xmlns="http://www.w3.org/2000/svg" viewBox="0 0 156.31 129.01"><title>headline</title><g id="Layer_2" data-name="Layer 2"><g id="Layer_1-2" data-name="Layer 1"><path d="M1.1,23.23A30.19,30.19,0,0,1,3.32,17a1.27,1.27,0,0,1-1.12-.61c-.12-.24-.11-.38.24-.48A5.69,5.69,0,0,0,4,15.21a6.31,6.31,0,0,1,1.48-.7,2.53,2.53,0,0,1,2.89,1.14,3.63,3.63,0,0,1,.62,1.65C9.31,20,7.1,23.91,3.53,25.68a1.72,1.72,0,0,1-.54.18c-.55.07-.91-.17-1.41-.66A1.61,1.61,0,0,1,1,24.35,4.43,4.43,0,0,1,1.1,23.23Zm3.52-6.57a3.06,3.06,0,0,1-.24,1.81,27.49,27.49,0,0,0-1.95,5.6,1.8,1.8,0,0,0,0,.5c0,.15.11.17.27.08,3.56-1.94,5.16-5.77,4.89-7.79a1.85,1.85,0,0,0-.33-.9.76.76,0,0,0-.68-.29A8.68,8.68,0,0,0,4.62,16.66Z" stroke="#000" stroke-miterlimit="3" stroke-width="2"/><path d="M16,13.49A2.78,2.78,0,0,1,17.93,16a8.82,8.82,0,0,1-.55,4.05c-.87,2.26-2.34,4.24-4.3,4.51a3,3,0,0,1-1.16,0,3.18,3.18,0,0,1-2.46-3C9,18,11.73,14.42,13.57,13.48a3,3,0,0,1,1-.31A1.9,1.9,0,0,1,16,13.49Zm-.25,6.21a9,9,0,0,0,.61-4.13c-.11-.81-.36-1.33-.73-1.42C14.85,14,13,15.37,11.78,18A7.61,7.61,0,0,0,11.07,22c.17,1.19.68,1.79,1.33,1.7C13.45,23.58,14.85,22.07,15.76,19.7Z" stroke="#000" stroke-miterlimit="3" stroke-width="2"/><path d="M23.75,22.88c-.08.34-.24.45-.52.26a1.43,1.43,0,0,1-.55-1,3,3,0,0,1,0-.85,25.86,25.86,0,0,1,.71-2.55A40,40,0,0,1,23,12.52c0-.42.2-.48.49-.36a2.33,2.33,0,0,1,1.06,1.94c.09.94.05,1.66.15,2.89,1.31-1.86,3.1-4.14,4.25-5.51.26-.33.51-.31.61-.05A2.65,2.65,0,0,1,28.89,14c-1.7,2.11-2.76,3.44-4.07,5.29A30,30,0,0,0,23.75,22.88Z" stroke="#000" stroke-miterlimit="3" stroke-width="2"/><path d="M35.3,10.86a2.78,2.78,0,0,1,1.92,2.52,8.66,8.66,0,0,1-.56,4c-.86,2.27-2.34,4.25-4.29,4.52a3.53,3.53,0,0,1-1.17-.05A3.21,3.21,0,0,1,28.74,19c-.49-3.58,2.28-7.16,4.12-8.11a3.15,3.15,0,0,1,1-.3A1.84,1.84,0,0,1,35.3,10.86ZM35,17.07a8.85,8.85,0,0,0,.61-4.13c-.11-.82-.35-1.34-.73-1.43-.78-.17-2.63,1.23-3.86,3.8a7.59,7.59,0,0,0-.7,4.07c.16,1.19.68,1.8,1.32,1.71C32.73,21,34.14,19.44,35,17.07Z" stroke="#000" stroke-miterlimit="3" stroke-width="2"/><path d="M39,20.9A2.14,2.14,0,0,1,37.36,19a5,5,0,0,1,0-1c.2-1.92,1.69-5.35,2.9-7.9.19-.38.47-.36.71-.09a1.4,1.4,0,0,1,.33.74,3.75,3.75,0,0,1-.3,1.73c-.61,1.63-1.89,4.38-2.11,6.21a3.7,3.7,0,0,0,0,.81c.08.56.36.76.74.71.86-.11,1.8-1.61,2.53-3.72.67-1.9,2.07-5.47,2.79-7,.17-.39.45-.36.7-.08a1.43,1.43,0,0,1,.26.67,3.6,3.6,0,0,1-.17,1.51,57.19,57.19,0,0,1-2.87,7.23A3.91,3.91,0,0,1,40,21,2.59,2.59,0,0,1,39,20.9Z" stroke="#000" stroke-miterlimit="3" stroke-width="2"/><path d="M48.63,17.56A47.68,47.68,0,0,1,51.37,10a1.32,1.32,0,0,1-.77-.77c-.08-.22,0-.33.33-.38a13.74,13.74,0,0,0,2.5-.58A9.74,9.74,0,0,1,55,7.88a1.48,1.48,0,0,1,1.65.7c.11.18.05.38-.3.43a18.46,18.46,0,0,0-3.27.91c-.43,1-.93,2.27-1.53,3.84.31-.09.55-.14.8-.2,1-.2,1.47.1,1.69.62.1.23.09.38-.28.47a20.45,20.45,0,0,0-2.85.86c-.46,1.31-.81,2.43-1.23,3.78a.38.38,0,0,1-.57.2,1.11,1.11,0,0,1-.51-.86A3.45,3.45,0,0,1,48.63,17.56Z" stroke="#000" stroke-miterlimit="3" stroke-width="2"/><path d="M54.77,17a46.51,46.51,0,0,1,2.81-7.79,1.46,1.46,0,0,1-.79-.75c-.09-.24.09-.36.34-.4a16.26,16.26,0,0,0,2.62-.6A11.27,11.27,0,0,1,61.22,7a1.32,1.32,0,0,1,1.55.69c.09.17,0,.34-.33.39a13.94,13.94,0,0,0-2.52.67c-.25.09-.41.14-.66.21-.45.93-1,2.44-1.64,4a8.75,8.75,0,0,1,.87-.21c.93-.16,1.42.08,1.68.6.11.21.1.38-.29.44a13.47,13.47,0,0,0-2.88.84c-.35,1-.61,1.71-.84,2.52a15.19,15.19,0,0,1,2.25-.72c.91-.16,1.42.05,1.7.58.12.22.09.37-.27.41a18,18,0,0,0-3.55,1.18c-.4.18-.67.22-.93-.08-.14-.15-.3-.41-.53-.69S54.67,17.45,54.77,17Z" stroke="#000" stroke-miterlimit="3" stroke-width="2"/><path d="M61,16.09a46.74,46.74,0,0,1,2.81-7.78A1.47,1.47,0,0,1,63,7.55c-.09-.23.09-.36.34-.39A16.51,16.51,0,0,0,66,6.56a9.86,9.86,0,0,1,1.47-.37A1.3,1.3,0,0,1,69,6.87c.1.18,0,.35-.32.39a13.74,13.74,0,0,0-2.52.68l-.67.21c-.44.92-1,2.44-1.63,4,.35-.1.64-.15.87-.2.93-.17,1.41.08,1.68.6.11.21.1.38-.29.43a13.52,13.52,0,0,0-2.88.85c-.35,1-.61,1.71-.85,2.52a14.3,14.3,0,0,1,2.26-.73c.91-.16,1.42.05,1.7.58.12.23.09.37-.27.42a18.34,18.34,0,0,0-3.56,1.18c-.39.17-.66.21-.93-.08s-.29-.41-.52-.69S60.92,16.59,61,16.09Z" stroke="#000" stroke-miterlimit="3" stroke-width="2"/><path d="M68.52,15.42a15.44,15.44,0,0,1,2.21-.69,1.5,1.5,0,0,1,1.76.59c.11.19.1.37-.29.42a19.18,19.18,0,0,0-3.49,1.15c-.48.19-.7.22-1-.09a4.16,4.16,0,0,1-.55-.66,1.33,1.33,0,0,1-.09-1.05,61.92,61.92,0,0,1,3.49-9.23c.22-.41.44-.31.65,0a1.65,1.65,0,0,1,.25.67,3.69,3.69,0,0,1-.34,1.85C70,11.25,69.18,13.3,68.52,15.42Z" stroke="#000" stroke-miterlimit="3" stroke-width="2"/><path d="M76.31,13.1a2.87,2.87,0,0,1,.52-.12,2.12,2.12,0,0,1,1.39.24,5.2,5.2,0,0,0,3,1,1.28,1.28,0,0,0,.87-.4.47.47,0,0,0-.12-.71c-1.35-.78-3.83-1.38-4.07-3.11-.32-2.31,2.06-4.69,3.49-5.54A3,3,0,0,1,82.61,4a1.62,1.62,0,0,1,1.09.22,3.2,3.2,0,0,1,1.1,1.33,2.36,2.36,0,0,1-.27,1.82,19.53,19.53,0,0,0-.89,2c-.12.29-.28.45-.65.16a1.31,1.31,0,0,1-.54-.86A3.43,3.43,0,0,1,83,6.8c.34-.69.7-1.5.44-1.64-.69-.37-4.07,2.63-3.89,4.6.1,1.12,2.56,1.78,3.29,2.16a1.13,1.13,0,0,1,.63.8A2.32,2.32,0,0,1,83,14.17a3.08,3.08,0,0,1-2.17,1.17,6,6,0,0,1-4.54-1.66C76,13.42,76.09,13.22,76.31,13.1Z" stroke="#000" stroke-miterlimit="3" stroke-width="2"/><path d="M89,12.38a10.5,10.5,0,0,1-.1-1.15l-1.17.29a14,14,0,0,1-1.81.36c-.34.86-.6,1.76-.9,2.51-.15.39-.45.36-.6.14a1.3,1.3,0,0,1-.29-.6,3.19,3.19,0,0,1,.11-1.19,9.45,9.45,0,0,1,.29-1,1.79,1.79,0,0,1-.59-.49c-.18-.31-.12-.42.33-.41h.62a31.34,31.34,0,0,1,4.44-7.75c.33-.36.59-.38.89-.07a2.68,2.68,0,0,1,.48.64,1.42,1.42,0,0,1,.22.58,1.76,1.76,0,0,1,0,.71,41,41,0,0,0-.54,4.93,1.32,1.32,0,0,1,.87.78c.12.26,0,.35-.3.34l-.61,0c0,.86,0,1.74.13,2.57,0,.31-.17.41-.49.31S89.11,13.36,89,12.38Zm.27-6.87a52.35,52.35,0,0,0-2.75,5.06l1-.25c.57-.15.93-.27,1.39-.35A27,27,0,0,1,89.23,5.51Z" stroke="#000" stroke-miterlimit="3" stroke-width="2"/><path d="M91.61,10.86a30.11,30.11,0,0,1,2.21-6.2,1.28,1.28,0,0,1-1.12-.61c-.12-.24-.1-.38.25-.48a6,6,0,0,0,1.51-.73,6.23,6.23,0,0,1,1.47-.7,2.55,2.55,0,0,1,2.89,1.14,3.63,3.63,0,0,1,.62,1.65c.38,2.73-1.84,6.62-5.4,8.38a1.77,1.77,0,0,1-.55.18,1.6,1.6,0,0,1-1.4-.66c-.37-.36-.54-.58-.57-.85A3.67,3.67,0,0,1,91.61,10.86Zm3.51-6.57a3.05,3.05,0,0,1-.24,1.81,27.49,27.49,0,0,0-1.95,5.6,1.7,1.7,0,0,0,0,.5q0,.23.27.09c3.55-1.94,5.16-5.78,4.88-7.8a1.79,1.79,0,0,0-.33-.9.76.76,0,0,0-.68-.29A8.68,8.68,0,0,0,95.12,4.29Z" stroke="#000" stroke-miterlimit="3" stroke-width="2"/><path d="M100.91,11.21a1.72,1.72,0,0,1,.19.51.89.89,0,0,1-.17.68.77.77,0,0,1-1.25-.08,1.24,1.24,0,0,1-.26-.59,1.07,1.07,0,0,1,.19-.77C99.93,10.53,100.59,10.67,100.91,11.21Zm-.34-8.06A3.45,3.45,0,0,1,103.1,1a2.24,2.24,0,0,1,1.25.18,2.25,2.25,0,0,1,1.22,1.72,3.79,3.79,0,0,1-.16,1.59,7.45,7.45,0,0,1-2.79,3.25,3.8,3.8,0,0,0-1.5,2.63c-.05.35-.29.4-.61.17a1.24,1.24,0,0,1-.44-.82,2,2,0,0,1,.06-.82A4.81,4.81,0,0,1,102,6.61a5.91,5.91,0,0,0,2-2.79,3.29,3.29,0,0,0,.13-1.32c-.06-.44-.28-.65-.58-.61-.8.11-1.77,1.61-2.35,3.36-.16.44-.35.47-.63.14a1.44,1.44,0,0,1-.31-.72A2.87,2.87,0,0,1,100.57,3.15Z" stroke="#000" stroke-miterlimit="3" stroke-width="2"/><path d="M2,45.81a62.42,62.42,0,0,1,4.2-12.15,8.65,8.65,0,0,1-1.15.27c-1.75.24-3-.22-3.43-1.23-.13-.34.07-.53.44-.58,2.34-.32,6.55-1.65,8.11-1.86,1.24-.17,2.42,0,3,1.07.17.31.11.64-.51.68a16.69,16.69,0,0,0-4.13.92c.16,1-.41,2.63-1.28,4.81-1.06,2.73-2.5,6.57-3.58,10.32-.15.51-.47.58-.89.26A1.82,1.82,0,0,1,2,46.91,3.7,3.7,0,0,1,2,45.81Z" stroke="#000" stroke-miterlimit="3" stroke-width="3"/><path d="M13.26,47.09a3.39,3.39,0,0,1-2.64-3,6.73,6.73,0,0,1,0-1.63c.32-3,2.67-8.49,4.58-12.54.3-.59.74-.57,1.13-.13a2.22,2.22,0,0,1,.52,1.16,5.8,5.8,0,0,1-.47,2.75c-1,2.58-3,7-3.34,9.85a6.21,6.21,0,0,0,0,1.29c.12.89.58,1.21,1.17,1.13,1.37-.19,2.86-2.56,4-5.91,1.07-3,3.28-8.68,4.42-11.19.27-.62.71-.57,1.1-.13a2.32,2.32,0,0,1,.42,1.07,5.46,5.46,0,0,1-.27,2.4,90.69,90.69,0,0,1-4.54,11.46,6.17,6.17,0,0,1-4.45,3.54A3.83,3.83,0,0,1,13.26,47.09Z" stroke="#000" stroke-miterlimit="3" stroke-width="3"/><path d="M30.46,44.67c-2-2-3.51-3.52-4.75-4.59-.49,1.42-1,3.05-1.51,5.15-.12.54-.41.63-.87.28a2,2,0,0,1-.71-1.35,5.68,5.68,0,0,1,0-1.37,53.75,53.75,0,0,1,3.91-11.68,2,2,0,0,1-1.74-.88c-.27-.35-.16-.59.39-.74a17.8,17.8,0,0,0,3-1.21A12.23,12.23,0,0,1,31,27.23,3.33,3.33,0,0,1,34.74,29a4.69,4.69,0,0,1-.18,4.83,13.41,13.41,0,0,1-6.5,5.23,20.9,20.9,0,0,1,2.87,3.11,3.14,3.14,0,0,1,.57,1.35,1.8,1.8,0,0,1-.14,1C31.13,45,30.84,45.06,30.46,44.67Zm-1.69-14a7.27,7.27,0,0,1-.62,3.1c-.54,1.45-1.06,2.67-1.42,3.57,5.19-2.11,7.34-6,6.4-7.71a.83.83,0,0,0-.94-.45,10.3,10.3,0,0,0-2.42,1Z" stroke="#000" stroke-miterlimit="3" stroke-width="3"/><path d="M39.1,39c-.21-1.56-.41-3.81-.48-6.13a66.79,66.79,0,0,0-3.59,11c-.12.57-.52.65-1,.3a2.59,2.59,0,0,1-.72-1.44A5.28,5.28,0,0,1,33.49,41a113.31,113.31,0,0,1,5-14.36c.27-.64.59-.68,1-.41a2.42,2.42,0,0,1,1.48,2,9,9,0,0,1,0,1.31,77.48,77.48,0,0,0,.3,8.19A120.57,120.57,0,0,1,46,25.52c.33-.62.67-.53,1-.06a2.38,2.38,0,0,1,.38,1,5.55,5.55,0,0,1-.59,3.08c-1.17,2.68-3.61,9.46-4.75,13.32-.11.35-.39.55-.88.37a2.7,2.7,0,0,1-1.78-2.33C39.29,40.13,39.19,39.6,39.1,39Z" stroke="#000" stroke-miterlimit="3" stroke-width="3"/><path d="M54.8,41.21c-.12.54-.37.71-.82.41a2.3,2.3,0,0,1-.87-1.55,4.38,4.38,0,0,1,0-1.35,34.62,34.62,0,0,1,1.11-4,65.39,65.39,0,0,1-.6-9.9c0-.66.31-.75.78-.57a3.65,3.65,0,0,1,1.68,3.09c.15,1.49.09,2.62.25,4.57,2.06-2.94,4.91-6.57,6.72-8.74.42-.53.81-.5,1-.08.3.78.3,2.18-1.1,4-2.69,3.36-4.37,5.46-6.44,8.4A51.68,51.68,0,0,0,54.8,41.21Z" stroke="#000" stroke-miterlimit="3" stroke-width="3"/><path d="M73.1,22.12a4.41,4.41,0,0,1,3.05,4,14,14,0,0,1-.87,6.43c-1.37,3.58-3.71,6.73-6.81,7.16a5,5,0,0,1-1.84-.08C64.19,39.09,63,37.2,62.72,35c-.78-5.68,3.59-11.36,6.51-12.86a4.84,4.84,0,0,1,1.58-.49A3,3,0,0,1,73.1,22.12ZM72.7,32a14,14,0,0,0,1-6.55c-.18-1.3-.57-2.12-1.17-2.26-1.24-.27-4.17,1.95-6.11,6a12,12,0,0,0-1.11,6.46c.26,1.89,1.08,2.84,2.1,2.7C69.05,38.12,71.27,35.73,72.7,32Z" stroke="#000" stroke-miterlimit="3" stroke-width="3"/><path d="M79,38a3.41,3.41,0,0,1-2.64-3,7.37,7.37,0,0,1,0-1.64c.32-3,2.67-8.49,4.58-12.54.3-.59.75-.57,1.14-.13a2.2,2.2,0,0,1,.51,1.17,5.82,5.82,0,0,1-.47,2.75c-1,2.57-3,6.94-3.33,9.84a5.66,5.66,0,0,0,0,1.29c.12.89.58,1.21,1.17,1.13,1.37-.19,2.86-2.56,4-5.9,1.06-3,3.27-8.68,4.41-11.2.27-.61.72-.56,1.11-.12a2.46,2.46,0,0,1,.42,1.06,5.65,5.65,0,0,1-.28,2.4,90.1,90.1,0,0,1-4.54,11.46,6.22,6.22,0,0,1-4.44,3.55A4.25,4.25,0,0,1,79,38Z" stroke="#000" stroke-miterlimit="3" stroke-width="3"/><path d="M96.22,35.61c-2-2-3.5-3.52-4.75-4.58-.49,1.41-1,3-1.51,5.14-.12.54-.41.64-.87.29a2,2,0,0,1-.71-1.36,5.25,5.25,0,0,1,0-1.37,53.81,53.81,0,0,1,3.9-11.68,2,2,0,0,1-1.74-.88c-.26-.35-.16-.58.39-.74a19.19,19.19,0,0,0,3-1.2,11.62,11.62,0,0,1,2.87-1.06,3.34,3.34,0,0,1,3.73,1.77,4.68,4.68,0,0,1-.19,4.82A13.37,13.37,0,0,1,93.82,30a20.56,20.56,0,0,1,2.88,3.12,3,3,0,0,1,.56,1.35,1.72,1.72,0,0,1-.14.95C96.89,35.91,96.6,36,96.22,35.61Zm-1.69-14a7.2,7.2,0,0,1-.61,3.1c-.54,1.45-1.06,2.67-1.43,3.57,5.19-2.11,7.34-6,6.4-7.71A.81.81,0,0,0,98,20.1a9.5,9.5,0,0,0-2.42,1Z" stroke="#000" stroke-miterlimit="3" stroke-width="3"/><path d="M9.8,76.19a2.48,2.48,0,0,1-.63,1.39A3.55,3.55,0,0,1,8,78.45a3.83,3.83,0,0,1-1.42.33,3.14,3.14,0,0,1-1.34-.24,2,2,0,0,1-.93-.81,2,2,0,0,1-.22-1.43c0-.48.12-1.15.24-2s.26-1.81.41-2.86.33-2.16.51-3.33.36-2.29.52-3.39.3-2.11.43-3.06.22-1.71.26-2.32c.19-1.12.36-2,.5-2.7A11.76,11.76,0,0,1,7.4,55a3.53,3.53,0,0,1,.52-1,3.89,3.89,0,0,1,.68-.66,8.07,8.07,0,0,1,1.69-1,9.73,9.73,0,0,1,1.61-.52c.54-.13,1.09-.25,1.66-.36a11.13,11.13,0,0,0,1.85-.56,4.5,4.5,0,0,0,.74-.17l.63-.18a4.64,4.64,0,0,1,.65-.11,3.4,3.4,0,0,1,.76,0,2.07,2.07,0,0,1,1.24.67A2.45,2.45,0,0,1,20,52.42,4.38,4.38,0,0,1,19.88,54a6.58,6.58,0,0,1-.62,1.7,7.07,7.07,0,0,1-1.1,1.55,6.2,6.2,0,0,1-1.52,1.19,6.89,6.89,0,0,1-1.72.63,1.48,1.48,0,0,1-.76,0,.64.64,0,0,1-.26-.16s-.09,0-.19.26a2.88,2.88,0,0,0-.29,1,3,3,0,0,1-.28,1,.14.14,0,0,0,0,.06,6.57,6.57,0,0,1-.7,2l-.4.62,2.75-.67A1.77,1.77,0,0,1,16,63.2a2,2,0,0,1,.81.71,1.57,1.57,0,0,1,.24.92.94.94,0,0,1-.48.76,1.52,1.52,0,0,0-.55.58,3.58,3.58,0,0,0-.17.49,3.46,3.46,0,0,1-.18.47,1.33,1.33,0,0,1-.54.51,7.19,7.19,0,0,1-1.32.59,25.62,25.62,0,0,1-2.48.69c-.07.33-.16.73-.28,1.19s-.24.93-.36,1.43-.24,1-.35,1.45-.19.87-.26,1.2a.86.86,0,0,1,0,.27c0,.14,0,.31,0,.51s0,.4-.06.62A2.65,2.65,0,0,1,9.8,76.19Z" stroke="#000" stroke-miterlimit="3" stroke-width="3"/><path d="M24.12,74.6a1.72,1.72,0,0,1-.55,1.14,3.06,3.06,0,0,1-1.2.68,5.25,5.25,0,0,1-1.51.24,5.08,5.08,0,0,1-1.49-.18,2.82,2.82,0,0,1-1.15-.61,1.34,1.34,0,0,1-.45-1.07A6.65,6.65,0,0,1,17.68,73c0-.81.14-1.76.3-2.86s.36-2.29.62-3.57.55-2.58.88-3.91.69-2.62,1.07-3.88.8-2.43,1.23-3.49a20.48,20.48,0,0,1,1.34-2.73,5.24,5.24,0,0,1,1.35-1.62,10.36,10.36,0,0,1,1.14-.64c.48-.24,1-.47,1.51-.7s1.05-.42,1.55-.6.91-.3,1.22-.39a5.62,5.62,0,0,1,3-.07,4.12,4.12,0,0,1,2,1.29A5.58,5.58,0,0,1,36,52.09a10.5,10.5,0,0,1,.3,2.9,13.3,13.3,0,0,1-.5,3.16,13.9,13.9,0,0,1-1.28,3.09,12.38,12.38,0,0,1-2,2.65,9,9,0,0,1-2.67,1.83l.39.49c.33.39.73.81,1.19,1.26s.92.91,1.38,1.39A16.94,16.94,0,0,1,34.1,70.3a7,7,0,0,1,.9,1.38A2.32,2.32,0,0,1,35.24,73,1.62,1.62,0,0,1,34.52,74a2.76,2.76,0,0,1-.94.55,1.28,1.28,0,0,1-.65,0,3.2,3.2,0,0,1-.57-.31,1.84,1.84,0,0,0-.75-.3,2.93,2.93,0,0,1-1.27.3,2.13,2.13,0,0,1-.95-.25,2.71,2.71,0,0,1-.74-.61,14.81,14.81,0,0,1-1.3-1.84c-.2-.35-.4-.68-.61-1a10.31,10.31,0,0,0-.68-1,6.81,6.81,0,0,0-.88-.91c-.16.6-.28,1.14-.36,1.61s-.17.93-.25,1.37-.16.89-.26,1.36-.21,1-.35,1.59ZM28,55.31c-.21.7-.35,1.19-.43,1.48s-.14.55-.2.77-.12.48-.2.78-.2.8-.39,1.49c0,.17,0,.34,0,.5a4.32,4.32,0,0,1,0,.5l.38-.5.5-.33,1-.71a3.38,3.38,0,0,0,.76-.75,4,4,0,0,0,.56-1A8,8,0,0,0,30.29,56a1.8,1.8,0,0,1,0-.65,3.57,3.57,0,0,0,.07-.63,1.2,1.2,0,0,0-.12-.55,1,1,0,0,0-.6-.37,1,1,0,0,0-.6.24,3.76,3.76,0,0,0-.48.5l-.36.52C28.12,55.22,28,55.3,28,55.31Z" stroke="#000" stroke-miterlimit="3" stroke-width="3"/><path d="M41.72,49.36a7.42,7.42,0,0,1,2.83-1.92,5.53,5.53,0,0,1,3.19-.3,2.9,2.9,0,0,1,1.3-1,3.81,3.81,0,0,1,1.61-.25,4.34,4.34,0,0,1,1.68.45,5.2,5.2,0,0,1,1.5,1.08,4.31,4.31,0,0,0,.36.62c.18.28.35.59.53.93A9.89,9.89,0,0,1,56,52.8a21.69,21.69,0,0,1,.1,4.57A28.93,28.93,0,0,1,55.34,62a30.6,30.6,0,0,1-1.29,4,21.5,21.5,0,0,1-1.58,3.09,11.18,11.18,0,0,1-2.24,2.66,8.49,8.49,0,0,1-1.9,1.42,7.18,7.18,0,0,1-1.53.58,10.58,10.58,0,0,1-1.8.32A7.8,7.8,0,0,1,43.19,74a5.41,5.41,0,0,1-1.61-.49,6.48,6.48,0,0,1-2.66-1.63,7.5,7.5,0,0,1-1.58-2.47,10.82,10.82,0,0,1-.7-3,20.57,20.57,0,0,1,0-3.33,28.54,28.54,0,0,1,.46-3.34c.21-1.09.46-2.12.73-3.08.16-.54.38-1.14.65-1.81s.59-1.34.94-2,.71-1.3,1.1-1.91A11.39,11.39,0,0,1,41.72,49.36ZM46,69a16.05,16.05,0,0,0,1.48-3.38,23,23,0,0,0,.91-4,24.72,24.72,0,0,0,.24-4.21,19.39,19.39,0,0,0-.45-3.88c-.19.33-.37.64-.53.94s-.32.6-.47.9q-.72,1.37-1.44,2.88c-.49,1-.93,2-1.32,3.1a24.22,24.22,0,0,0-.94,3.19,12.85,12.85,0,0,0-.31,3.18.16.16,0,0,1,0,.1.16.16,0,0,0,0,.1l.11.34a2.63,2.63,0,0,0,.21.45,4,4,0,0,0,.37.61,3.34,3.34,0,0,0,.5.56,1.42,1.42,0,0,0,.57.34c.19-.2.38-.38.57-.56A2.77,2.77,0,0,0,46,69Z" stroke="#000" stroke-miterlimit="3" stroke-width="3"/><path d="M82.43,43.91l-.09.4a2.64,2.64,0,0,1-.13.37h.13a9.45,9.45,0,0,0-.78,1.63c-.22.6-.42,1.22-.61,1.85s-.38,1.24-.55,1.86-.36,1.18-.54,1.7c-.5,1.38-1,2.76-1.38,4.13s-.88,2.73-1.36,4.08-1,2.69-1.58,4a25.67,25.67,0,0,1-2.08,3.8A3.57,3.57,0,0,1,72.17,69a4.31,4.31,0,0,1-1.67.57,3.75,3.75,0,0,1-1.72-.2,2.83,2.83,0,0,1-1.41-1.09l-.94-1.91c-.24.28-.52.61-.83,1s-.63.83-1,1.25a8.89,8.89,0,0,1-1.07,1.13,2.8,2.8,0,0,1-1.12.64,7.59,7.59,0,0,1-1.08.13,3.57,3.57,0,0,1-1-.1A2.45,2.45,0,0,1,59.4,70a2.39,2.39,0,0,1-.69-1,37.89,37.89,0,0,1-.87-4.91q-.27-2.39-.36-4.62t-.12-4.35c0-1.41,0-2.79-.07-4.14a8.63,8.63,0,0,1,.48-2.62,5.07,5.07,0,0,1,1-1.7A3.08,3.08,0,0,1,60,45.8a2.09,2.09,0,0,1,1.19-.12,1.58,1.58,0,0,1,.9.52,1.56,1.56,0,0,1,.34,1c.12.76.21,1.39.27,1.88s.1.95.12,1.35.06.8.1,1.18.11.84.2,1.36a5.63,5.63,0,0,1,.06.75q0,.49.06.93a3.27,3.27,0,0,0,.13.69c.06.18.14.2.25.08.12-.38.23-.7.32-1s.2-.53.31-.8a9.27,9.27,0,0,1,.44-.92l.73-1.34a2.79,2.79,0,0,1,.81-.71,1.21,1.21,0,0,1,.67-.12,3.82,3.82,0,0,1,.75.15,4.47,4.47,0,0,0,1,.16,1.67,1.67,0,0,1,.64.69l.22.15a.65.65,0,0,1,.18.15q0,.12.21.48l.35.78c.12.27.24.54.34.79l.19.51c.29-1.53.56-2.86.81-4s.48-2.11.69-2.92.4-1.45.57-1.94a5.9,5.9,0,0,1,.49-1.14,1,1,0,0,1,.39-.31l.31,0a2.73,2.73,0,0,0,.39-.07,2.19,2.19,0,0,0,.69-.48,5.83,5.83,0,0,1,1.77-1.34A5,5,0,0,1,79,41.68a3.74,3.74,0,0,1,2,.43,3.36,3.36,0,0,1,1.44,1.71ZM73.38,67.63s0,0,0,0a1,1,0,0,0,0-.15Z" stroke="#000" stroke-miterlimit="3" stroke-width="3"/><path d="M82.78,50.21c.09-.55.23-1.15.4-1.79a13.48,13.48,0,0,1,.62-1.89,12,12,0,0,1,.86-1.72,5.23,5.23,0,0,1,1.1-1.29,2.52,2.52,0,0,1,1.33-.6,2.61,2.61,0,0,1,1.6.36c.53.93,1,1.72,1.32,2.36a15.22,15.22,0,0,1,.87,1.85c.23.59.44,1.2.63,1.84s.39,1.42.62,2.34c.13-.52.27-1.06.44-1.63s.34-1.14.5-1.71.33-1.14.48-1.71a10.37,10.37,0,0,0,.3-1.64,5.25,5.25,0,0,1,.9-2.18,6.43,6.43,0,0,1,1.54-1.54,6.22,6.22,0,0,1,1.8-.87,4.59,4.59,0,0,1,1.63-.23,1.4,1.4,0,0,1,1,.42,1,1,0,0,1,0,1.06.84.84,0,0,0,0,.66,8.64,8.64,0,0,1,.25.93,5.78,5.78,0,0,1,.14,1.23,4.12,4.12,0,0,1-.29,1.49,21.7,21.7,0,0,0-.83,2.87c-.27,1.16-.54,2.4-.8,3.7s-.52,2.63-.79,4-.53,2.58-.79,3.7a26.26,26.26,0,0,1-.84,2.86,2.91,2.91,0,0,1-.91,1.46c-.38.31-.72.55-1,.73a3.73,3.73,0,0,1-.8.4,3.59,3.59,0,0,1-.83.18c-.3,0-.66,0-1.09.07a1.09,1.09,0,0,1-.91-.52,7.4,7.4,0,0,1-.82-1.4,14.85,14.85,0,0,1-.71-1.9q-.33-1-.6-2l-.51-1.72a3.74,3.74,0,0,0-.43-1c-.27,1.64-.5,2.91-.69,3.8a21.12,21.12,0,0,1-.52,2,5.72,5.72,0,0,1-.46,1.11c-.15.26-.32.59-.52,1a2.31,2.31,0,0,1-.62,1.13,4.2,4.2,0,0,1-1.09.83,4.33,4.33,0,0,1-1.26.45,3.28,3.28,0,0,1-1.16,0,1.21,1.21,0,0,1-.78-.43,1,1,0,0,1-.1-.93,31.35,31.35,0,0,1,.09-3.48c.09-1.4.23-2.86.41-4.39s.37-3,.59-4.5S82.56,51.28,82.78,50.21Z" stroke="#000" stroke-miterlimit="3" stroke-width="3"/><path d="M108.32,60.41a62.28,62.28,0,0,1,4.19-12.15,9.88,9.88,0,0,1-1.14.27c-1.75.24-3-.22-3.43-1.23-.13-.34.06-.53.44-.59,2.34-.32,6.55-1.64,8.11-1.85,1.24-.17,2.41,0,3,1.07.18.3.12.64-.51.67a17.25,17.25,0,0,0-4.12.93c.16,1-.41,2.63-1.29,4.81-1.05,2.73-2.49,6.57-3.57,10.31-.15.52-.47.59-.9.27a1.89,1.89,0,0,1-.77-1.41A4.09,4.09,0,0,1,108.32,60.41Z" stroke="#000" stroke-miterlimit="3" stroke-width="3"/><path d="M127,43.93a4.41,4.41,0,0,1,3,4,13.75,13.75,0,0,1-.87,6.43c-1.37,3.59-3.71,6.74-6.8,7.16a5.21,5.21,0,0,1-1.85-.07c-2.43-.55-3.6-2.44-3.91-4.68-.78-5.68,3.6-11.36,6.52-12.85a4.65,4.65,0,0,1,1.57-.5A3,3,0,0,1,127,43.93Zm-.4,9.85a14,14,0,0,0,1-6.55c-.18-1.29-.57-2.12-1.16-2.26-1.24-.26-4.18,2-6.11,6a11.93,11.93,0,0,0-1.11,6.46c.26,1.89,1.07,2.84,2.1,2.7C123,59.93,125.18,57.54,126.61,53.78Z" stroke="#000" stroke-miterlimit="3" stroke-width="3"/><path d="M144.46,55.57a15.59,15.59,0,0,1-.16-1.81l-1.86.45a26.85,26.85,0,0,1-2.86.58c-.55,1.37-1,2.79-1.43,4-.24.61-.71.57-1,.22a2,2,0,0,1-.46-1,4.88,4.88,0,0,1,.18-1.89,14.88,14.88,0,0,1,.44-1.52,2.74,2.74,0,0,1-.93-.78c-.28-.48-.2-.65.52-.64.38,0,.6,0,1,0,1.54-3.8,4.54-9.51,7-12.3.53-.56.94-.59,1.41-.11a4.27,4.27,0,0,1,.77,1,2.32,2.32,0,0,1,.35.91,3.25,3.25,0,0,1-.06,1.14,63.35,63.35,0,0,0-.85,7.82A2.06,2.06,0,0,1,148,52.9c.2.41,0,.54-.47.53l-1,0c0,1.36.08,2.76.21,4.08.06.49-.27.64-.79.49S144.7,57.13,144.46,55.57Zm.42-10.89a76.46,76.46,0,0,0-4.35,8c.53-.13,1.06-.25,1.56-.41.9-.23,1.48-.42,2.2-.54A44,44,0,0,1,144.88,44.68Z" stroke="#000" stroke-miterlimit="3" stroke-width="3"/><path d="M21.25,126.26a14.48,14.48,0,0,1-5.25,0,10.51,10.51,0,0,1-4.1-1.65,6.17,6.17,0,0,1-2.29-3,5.44,5.44,0,0,1,.14-3.86,3.14,3.14,0,0,1,1.33-1.56,4.91,4.91,0,0,1,1.94-.61,12.51,12.51,0,0,1,2.3,0l2.43.14a15.82,15.82,0,0,0,2.3,0,4.26,4.26,0,0,0,1.91-.6A13.07,13.07,0,0,0,25,113.21a3,3,0,0,0,1.07-1.61,1.58,1.58,0,0,0-.41-1.34,7.07,7.07,0,0,0-1.37-1.16c-.55-.38-1.16-.74-1.81-1.1a11.52,11.52,0,0,1-1.67-1.12,16,16,0,0,1-5-4.12,10.5,10.5,0,0,1-2.12-6.2,17.53,17.53,0,0,1,.35-4.79,15.34,15.34,0,0,1,1.4-3.9,14.21,14.21,0,0,1,2.14-3.05,17.47,17.47,0,0,1,2.55-2.29c.92-.65,1.88-1.28,2.88-1.88a19,19,0,0,1,3.27-1.58,20.35,20.35,0,0,1,3.88-1,23.74,23.74,0,0,1,4.65-.25,6.6,6.6,0,0,1,2.79.69q1.22.61,2.43,1.29a4,4,0,0,1,1.5,1.9,3.19,3.19,0,0,1,0,1.91A3.7,3.7,0,0,1,38.86,86,4.51,4.51,0,0,1,39,87.25a2.16,2.16,0,0,1-.48,1.21,4.28,4.28,0,0,1-1.42,1.13,12.23,12.23,0,0,1-2.64,1,27.34,27.34,0,0,0-3.65.42,5.93,5.93,0,0,0-2.4.92,2.63,2.63,0,0,0-1.09,1.69,5.86,5.86,0,0,0,.3,2.8,2.75,2.75,0,0,0,1.12,1.36c.6.44,1.3.91,2.1,1.4s1.64,1,2.53,1.67a12.54,12.54,0,0,1,2.42,2.25,10.21,10.21,0,0,1,1.71,3.08A10.51,10.51,0,0,1,38,110.3,17.2,17.2,0,0,1,36.92,115,15.3,15.3,0,0,1,34,119.78a19.37,19.37,0,0,1-5.11,4.08A21.4,21.4,0,0,1,21.25,126.26Z" stroke="#000" stroke-miterlimit="3" stroke-width="5"/><path d="M58.16,76.91c.15.28.32.58.49.91a4.07,4.07,0,0,1,.39,1,2,2,0,0,1,0,1,1.92,1.92,0,0,1-.55.92s0,.1-.08.18a15.94,15.94,0,0,1,.88,4.82c0,1.53,0,3-.11,4.45q.84-2,1.83-4.24c.66-1.47,1.37-2.92,2.15-4.34a41.32,41.32,0,0,1,2.54-4,19.41,19.41,0,0,1,3-3.4,8.45,8.45,0,0,1,2.44-1.26,8.21,8.21,0,0,1,2.88-.48,4.14,4.14,0,0,1,2.44.79,3.25,3.25,0,0,1,1.17,2.53q-.07,11-.55,20.5A139,139,0,0,1,75,114.53l0,.11h-.06a3.75,3.75,0,0,1-1,1.88A6.24,6.24,0,0,1,72,117.89a9.88,9.88,0,0,1-2.37.74,6.92,6.92,0,0,1-2.3.07,3.82,3.82,0,0,1-1.81-.74,2,2,0,0,1-.79-1.63l-.12-1.28V115c0-.91,0-1.51,0-1.83s0-.56,0-.72v-.65q0-.39.12-1.59a8.43,8.43,0,0,1,.11-1c.06-.48.11-1,.15-1.51s.09-1,.13-1.51a10.85,10.85,0,0,0,.07-1.11,29.29,29.29,0,0,1-1.56,2.69,8.22,8.22,0,0,1-1.18,1.43,4.88,4.88,0,0,1-1.08.76c-.35.19-.75.38-1.21.59-.21.07-.55.16-1,.28a9.1,9.1,0,0,1-1.4.25,6.06,6.06,0,0,1-1.35,0,1,1,0,0,1-.85-.5,12.7,12.7,0,0,0-.78-1.38c-.17-.22-.29-.38-.37-.46a1.22,1.22,0,0,1-.24-.3,6.65,6.65,0,0,1-.39-1c-.13,1.48-.28,2.79-.44,3.94s-.33,2.16-.51,3a18.14,18.14,0,0,1-1.47,4.41,3.74,3.74,0,0,1-1.14,1.73,7.21,7.21,0,0,1-2.07,1.3,9.14,9.14,0,0,1-2.49.65,8.08,8.08,0,0,1-2.42-.06,4,4,0,0,1-1.89-.86,2.7,2.7,0,0,1-.88-1.87,33,33,0,0,1,.15-4.83c.19-2.06.42-4.27.72-6.61s.61-4.64.94-6.87.61-4.11.85-5.6c.17-1,.39-2.12.66-3.38s.61-2.51,1-3.79.8-2.48,1.24-3.65a17.5,17.5,0,0,1,1.43-3,7.08,7.08,0,0,1,2.08-3.27,9,9,0,0,1,3-1.73,8.77,8.77,0,0,1,3.11-.46A7.62,7.62,0,0,1,58.16,76.91Z" stroke="#000" stroke-miterlimit="3" stroke-width="5"/><path d="M98.32,74.41q-1.09,6.27-2.06,11.35c-.64,3.38-1.22,6.5-1.75,9.34s-1,5.47-1.47,7.87-.87,4.7-1.24,6.89a6.58,6.58,0,0,1-.89,3.52,7.05,7.05,0,0,1-2,2.07,7.42,7.42,0,0,1-2.27,1,16.51,16.51,0,0,1-1.69.38,10.12,10.12,0,0,1-3.82,0,2.73,2.73,0,0,1-1.79-1.3,4.29,4.29,0,0,1-.33-2.4c.11-1,.29-2.07.53-3.3q.74-3.3,1.5-7.68c.52-2.92,1.07-5.89,1.67-8.91s1.21-5.91,1.84-8.68a61.44,61.44,0,0,1,2-7,5.57,5.57,0,0,1,1.36-2.3,7.45,7.45,0,0,1,1.5-1,9.7,9.7,0,0,0,1.35-.77,3,3,0,0,0,.94-1.76,3.19,3.19,0,0,1,1.7-2.15A4,4,0,0,1,96,69.2a3.17,3.17,0,0,1,2.12,1.5A4.7,4.7,0,0,1,98.32,74.41Z" stroke="#000" stroke-miterlimit="3" stroke-width="5"/><path d="M100.79,111.48a5.25,5.25,0,0,0-.87-1.62c-.29-.3-.53-.57-.73-.82a2.08,2.08,0,0,1-.42-1,6.66,6.66,0,0,1,.14-2c.22-1.38.53-3.11.91-5.21s.84-4.31,1.36-6.64,1.09-4.69,1.7-7,1.26-4.49,1.93-6.41c.43-1.49.83-2.81,1.19-4,.27-1,.54-1.92.8-2.72a10.71,10.71,0,0,0,.39-1.26,3.94,3.94,0,0,1,1.19-2.19,11.31,11.31,0,0,1,2.54-2,13.68,13.68,0,0,1,3.22-1.31,8.9,8.9,0,0,1,3.21-.31,4.15,4.15,0,0,1,2.45,1.07,3.8,3.8,0,0,1,1,2.81A36.83,36.83,0,0,1,119.46,78q-1,3.63-2.46,7.65t-3.09,8.51q-1.68,4.5-3.22,9.71c0,.16.08.27.28.36a10.21,10.21,0,0,0,2-.72c.83-.37,1.7-.73,2.61-1.06a13.59,13.59,0,0,1,2.74-.69,3.77,3.77,0,0,1,2.41.4,2,2,0,0,0,.72,1.5l1.26,1a3,3,0,0,1,.94,1.33,3.87,3.87,0,0,1-.2,2.42,5.19,5.19,0,0,1-1.45,2.33,8.06,8.06,0,0,1-2.09,1.36,9.57,9.57,0,0,1-2.15.66c-.7.11-1.25.2-1.65.25s-1,.21-1.56.3-1.14.19-1.82.28l-2.4.3-3.27.37c-.58.12-1.16.22-1.75.3a4.2,4.2,0,0,1-1.7-.11,3.49,3.49,0,0,1-1.53-.91A5.55,5.55,0,0,1,100.79,111.48Z" stroke="#000" stroke-miterlimit="3" stroke-width="5"/><path d="M149.82,62a3.17,3.17,0,0,1,3.27,1.15,4.44,4.44,0,0,1,.63,3.36A8.45,8.45,0,0,1,152,70.39,7.42,7.42,0,0,1,148,73l-2.25,1a10.73,10.73,0,0,0-1.57.83,5.06,5.06,0,0,0-1.05.91,3.51,3.51,0,0,0-.66,1.13c-.41.88-.78,1.72-1.12,2.51a8,8,0,0,0-.61,2.5l-.05,1.24a4.53,4.53,0,0,0,2.6-.05c1-.26,1.92-.52,2.76-.77a6.39,6.39,0,0,1,2.09-.32c.55,0,.75.48.61,1.33a14,14,0,0,1-1.31,3.77,7,7,0,0,1-3.14,3.13c-.93.32-1.56.54-1.89.68l-.78.31a5,5,0,0,1-.65.17l-1.53.29c-.2.48-.46,1.19-.8,2.14s-.64,1.87-.91,2.79a12.68,12.68,0,0,0-.49,2.37c-.06.67.08,1,.41.93,1.08,0,2-.08,2.74-.13s1.44-.11,2.1-.2a18,18,0,0,0,2.05-.4c.71-.17,1.59-.4,2.63-.7.7.13,1.12.36,1.27.67a2.52,2.52,0,0,1,.26,1,3.12,3.12,0,0,0,.19,1c.12.32.51.55,1.16.68.35.07.49.38.44.92a4.94,4.94,0,0,1-.67,1.87,11.75,11.75,0,0,1-1.59,2.13,8.93,8.93,0,0,1-2.26,1.77c-1.24.5-2.4.94-3.47,1.29a29.5,29.5,0,0,1-3.22.86,28.83,28.83,0,0,1-3.45.51c-1.22.11-2.59.18-4.12.2a14.16,14.16,0,0,1-1.49-.16,7.32,7.32,0,0,1-1.66-.47,4,4,0,0,1-1.4-1,2.84,2.84,0,0,1-.69-1.76,55.33,55.33,0,0,1-.54-8.18,54.46,54.46,0,0,1,.66-7.85A70.28,70.28,0,0,1,128.35,84q1.14-4,2.65-8.51a5.34,5.34,0,0,0,.25-2.06c0-.74-.1-1.47-.16-2.17a7.06,7.06,0,0,1,.08-1.92,1.84,1.84,0,0,1,1-1.32,68.79,68.79,0,0,1,9.1-4.34A22.78,22.78,0,0,1,149.82,62Z" stroke="#000" stroke-miterlimit="3" stroke-width="5"/><path d="M2.08,45.92a62.25,62.25,0,0,1,4.2-12.16A8.65,8.65,0,0,1,5.13,34c-1.75.24-3-.22-3.43-1.23-.13-.34.06-.53.44-.58,2.34-.32,6.55-1.64,8.11-1.86,1.24-.17,2.42,0,3,1.08.18.3.11.64-.51.67A16.3,16.3,0,0,0,8.59,33c.16,1-.4,2.63-1.28,4.81-1,2.72-2.5,6.57-3.58,10.31-.14.51-.46.59-.89.26A1.81,1.81,0,0,1,2.07,47,3.7,3.7,0,0,1,2.08,45.92Z" fill="#fff"/><path d="M13.31,47.2a3.41,3.41,0,0,1-2.64-3,6.82,6.82,0,0,1,0-1.64C11,39.48,13.31,34,15.22,30c.3-.59.74-.57,1.13-.13A2.21,2.21,0,0,1,16.87,31a5.82,5.82,0,0,1-.47,2.75c-1,2.57-3,6.94-3.34,9.84a6.21,6.21,0,0,0,0,1.29c.12.89.58,1.21,1.17,1.13,1.37-.19,2.86-2.56,4-5.9,1.06-3,3.27-8.68,4.41-11.2.27-.61.71-.56,1.1-.12a2.24,2.24,0,0,1,.42,1.06,5.45,5.45,0,0,1-.27,2.4,90.1,90.1,0,0,1-4.54,11.46,6.21,6.21,0,0,1-4.45,3.55A4.21,4.21,0,0,1,13.31,47.2Z" fill="#fff"/><path d="M30.51,44.78c-2-2-3.51-3.53-4.75-4.59-.49,1.41-1,3-1.51,5.15-.12.53-.41.63-.87.28a2,2,0,0,1-.71-1.36,5.68,5.68,0,0,1,0-1.37,54.48,54.48,0,0,1,3.91-11.68,2,2,0,0,1-1.74-.88c-.27-.35-.16-.58.39-.74a18.68,18.68,0,0,0,3-1.2,11.84,11.84,0,0,1,2.88-1.06,3.32,3.32,0,0,1,3.72,1.77,4.68,4.68,0,0,1-.18,4.82,13.41,13.41,0,0,1-6.5,5.23A20.4,20.4,0,0,1,31,42.27a3,3,0,0,1,.57,1.35,1.81,1.81,0,0,1-.14,1C31.18,45.07,30.89,45.16,30.51,44.78Zm-1.69-14a7.36,7.36,0,0,1-.61,3.1c-.55,1.45-1.06,2.67-1.43,3.58,5.19-2.12,7.34-6,6.4-7.72a.82.82,0,0,0-.94-.44,9.5,9.5,0,0,0-2.42,1Z" fill="#fff"/><path d="M39.15,39.06c-.21-1.56-.41-3.81-.48-6.14a66.59,66.59,0,0,0-3.59,11c-.12.56-.52.64-.95.29a2.56,2.56,0,0,1-.72-1.44,5.28,5.28,0,0,1,.13-1.66,112.63,112.63,0,0,1,5-14.35c.27-.64.59-.69,1-.42a2.42,2.42,0,0,1,1.48,2,9,9,0,0,1,0,1.31,80.17,80.17,0,0,0,.3,8.19,120.57,120.57,0,0,1,4.66-12.19c.33-.62.67-.53,1-.06a2.37,2.37,0,0,1,.38,1,5.52,5.52,0,0,1-.59,3.07C45.74,32.34,43.3,39.12,42.16,43a.6.6,0,0,1-.88.37A2.7,2.7,0,0,1,39.51,41C39.34,40.24,39.24,39.7,39.15,39.06Z" fill="#fff"/><path d="M54.85,41.31c-.12.54-.37.71-.82.42a2.32,2.32,0,0,1-.87-1.56,4.31,4.31,0,0,1,0-1.34,34.1,34.1,0,0,1,1.11-4,64.1,64.1,0,0,1-.59-9.9c0-.67.3-.76.77-.58a3.67,3.67,0,0,1,1.68,3.09c.16,1.49.09,2.62.25,4.57,2.06-2.94,4.91-6.57,6.72-8.74.43-.52.81-.49,1-.08.3.78.3,2.18-1.1,4-2.69,3.36-4.37,5.46-6.44,8.41A51,51,0,0,0,54.85,41.31Z" fill="#fff"/><path d="M73.15,22.22a4.4,4.4,0,0,1,3,4,14,14,0,0,1-.87,6.43c-1.37,3.59-3.71,6.74-6.81,7.16a5.16,5.16,0,0,1-1.84-.07c-2.44-.54-3.6-2.44-3.91-4.68-.78-5.68,3.59-11.35,6.51-12.85a4.53,4.53,0,0,1,1.58-.49A2.94,2.94,0,0,1,73.15,22.22Zm-.4,9.85a14,14,0,0,0,1-6.55c-.18-1.29-.57-2.12-1.16-2.25-1.25-.27-4.18,1.94-6.12,6a12.12,12.12,0,0,0-1.11,6.46c.26,1.89,1.08,2.85,2.1,2.71C69.1,38.22,71.32,35.83,72.75,32.07Z" fill="#fff"/><path d="M79.07,38.14a3.39,3.39,0,0,1-2.64-3,7.37,7.37,0,0,1,0-1.64c.32-3,2.67-8.49,4.58-12.53.31-.59.75-.57,1.14-.13A2.17,2.17,0,0,1,82.63,22a5.8,5.8,0,0,1-.47,2.75c-1,2.58-3,6.94-3.33,9.84a6.39,6.39,0,0,0,0,1.3c.12.88.58,1.2,1.17,1.12,1.38-.19,2.86-2.56,4-5.9,1.06-3,3.27-8.68,4.41-11.19.27-.62.72-.57,1.11-.13a2.45,2.45,0,0,1,.42,1.07,5.59,5.59,0,0,1-.28,2.39,91.46,91.46,0,0,1-4.53,11.46,6.2,6.2,0,0,1-4.45,3.55A4.06,4.06,0,0,1,79.07,38.14Z" fill="#fff"/><path d="M96.27,35.72c-2-2-3.5-3.52-4.75-4.59-.49,1.42-1,3.05-1.51,5.15-.12.54-.41.63-.87.28a2,2,0,0,1-.71-1.35,5.33,5.33,0,0,1,0-1.38,53.58,53.58,0,0,1,3.9-11.67,2,2,0,0,1-1.74-.89c-.26-.34-.16-.58.4-.74a18.5,18.5,0,0,0,3-1.2,12.16,12.16,0,0,1,2.87-1A3.35,3.35,0,0,1,100.56,20a4.69,4.69,0,0,1-.19,4.83,13.44,13.44,0,0,1-6.49,5.23,21.45,21.45,0,0,1,2.87,3.11,3.22,3.22,0,0,1,.57,1.35,1.82,1.82,0,0,1-.15.95C96.94,36,96.65,36.1,96.27,35.72Zm-1.69-14a7.25,7.25,0,0,1-.61,3.1c-.54,1.44-1.06,2.67-1.43,3.57,5.19-2.12,7.34-6,6.4-7.71A.82.82,0,0,0,98,20.2a10.25,10.25,0,0,0-2.41,1Z" fill="#fff"/><path d="M9.85,76.29a2.45,2.45,0,0,1-.63,1.39A3.72,3.72,0,0,1,8,78.56a3.82,3.82,0,0,1-1.42.32,3,3,0,0,1-1.34-.23,2.15,2.15,0,0,1-.93-.81,2,2,0,0,1-.22-1.44c0-.48.12-1.14.24-2s.26-1.8.41-2.86.33-2.16.51-3.32.36-2.3.52-3.39.3-2.12.43-3.06.22-1.72.26-2.33c.19-1.12.36-2,.5-2.69a10.21,10.21,0,0,1,.46-1.63A3.21,3.21,0,0,1,8,54.17a3.89,3.89,0,0,1,.68-.66,7.67,7.67,0,0,1,1.69-1A9.78,9.78,0,0,1,12,51.94c.54-.13,1.09-.25,1.66-.36A10.26,10.26,0,0,0,15.46,51a4.54,4.54,0,0,0,.74-.16,6.29,6.29,0,0,1,.63-.19,4.63,4.63,0,0,1,.65-.1,2.89,2.89,0,0,1,.76,0,2.11,2.11,0,0,1,1.24.66A2.4,2.4,0,0,1,20,52.52a4.36,4.36,0,0,1-.09,1.59,7,7,0,0,1-1.72,3.25,6.49,6.49,0,0,1-1.52,1.2,7.31,7.31,0,0,1-1.71.62,1.46,1.46,0,0,1-.76,0A.73.73,0,0,1,14,59s-.09,0-.19.25a2.71,2.71,0,0,0-.28,1,3.53,3.53,0,0,1-.28,1,.11.11,0,0,0,0,.07,6.51,6.51,0,0,1-.7,2,6.19,6.19,0,0,0-.39.62l2.74-.67a1.72,1.72,0,0,1,1.19.11,1.83,1.83,0,0,1,.81.71,1.55,1.55,0,0,1,.24.92.93.93,0,0,1-.48.75,1.78,1.78,0,0,0-.55.58,4.11,4.11,0,0,0-.17.49,2.34,2.34,0,0,1-.18.48,1.33,1.33,0,0,1-.54.51,7.29,7.29,0,0,1-1.32.58,25.17,25.17,0,0,1-2.48.7c-.07.33-.16.72-.28,1.18s-.24.93-.36,1.44-.24,1-.35,1.45-.19.86-.26,1.19a.92.92,0,0,1,0,.28c0,.14,0,.31,0,.5s0,.41-.06.62A2.2,2.2,0,0,1,9.85,76.29Z" fill="#fff"/><path d="M24.17,74.71a1.76,1.76,0,0,1-.55,1.14,3.06,3.06,0,0,1-1.2.68,5.25,5.25,0,0,1-1.51.24,5.08,5.08,0,0,1-1.49-.18A2.83,2.83,0,0,1,18.27,76a1.32,1.32,0,0,1-.45-1.07,6.57,6.57,0,0,1-.09-1.8c0-.82.14-1.77.3-2.87s.37-2.28.62-3.56.55-2.59.88-3.91.69-2.62,1.08-3.89.79-2.43,1.22-3.49a20.48,20.48,0,0,1,1.34-2.73A5.24,5.24,0,0,1,24.52,51a10.36,10.36,0,0,1,1.14-.64c.48-.24,1-.47,1.51-.69s1-.42,1.55-.6.91-.31,1.22-.39a5.65,5.65,0,0,1,3-.07,4.12,4.12,0,0,1,2,1.28,5.57,5.57,0,0,1,1.14,2.28,10.43,10.43,0,0,1,.3,2.89,12.81,12.81,0,0,1-.5,3.16,13.78,13.78,0,0,1-1.28,3.1,12.08,12.08,0,0,1-2,2.64,8.8,8.8,0,0,1-2.67,1.84l.39.49c.33.38.73.8,1.19,1.25L32.87,69c.47.48.89,1,1.28,1.44a7.07,7.07,0,0,1,.9,1.39,2.29,2.29,0,0,1,.24,1.27,1.57,1.57,0,0,1-.72,1.08,2.46,2.46,0,0,1-.94.55,1.09,1.09,0,0,1-.65,0,2.29,2.29,0,0,1-.57-.31,2.17,2.17,0,0,0-.75-.3,2.8,2.8,0,0,1-1.27.3,2.13,2.13,0,0,1-.95-.25,2.54,2.54,0,0,1-.74-.61,9.1,9.1,0,0,1-.61-.78,9,9,0,0,1-.69-1c-.2-.35-.4-.69-.61-1s-.43-.64-.68-1a7.46,7.46,0,0,0-.88-.91c-.16.6-.28,1.14-.36,1.61s-.17.93-.25,1.38-.16.89-.26,1.35-.21,1-.35,1.6ZM28,55.42c-.21.69-.35,1.18-.43,1.47s-.14.55-.2.77-.12.49-.2.79-.2.79-.39,1.48c0,.18,0,.34,0,.5a4.63,4.63,0,0,1,0,.51l.38-.51.5-.32c.35-.27.68-.5,1-.72a3.65,3.65,0,0,0,.77-.75,4.48,4.48,0,0,0,.55-1,8.18,8.18,0,0,0,.38-1.52,2,2,0,0,1,0-.65,3.58,3.58,0,0,0,.07-.64,1.09,1.09,0,0,0-.12-.55,1,1,0,0,0-.6-.37,1,1,0,0,0-.6.25,3.24,3.24,0,0,0-.48.5l-.36.51C28.17,55.32,28.09,55.41,28,55.42Z" fill="#fff"/><path d="M41.78,49.46a7.5,7.5,0,0,1,2.83-1.92,5.48,5.48,0,0,1,3.18-.29,2.9,2.9,0,0,1,1.3-1,3.82,3.82,0,0,1,1.61-.26,4.34,4.34,0,0,1,1.68.45,5.61,5.61,0,0,1,1.5,1.08,4.88,4.88,0,0,0,.36.63c.18.28.35.58.53.93a9.83,9.83,0,0,1,1.29,3.88,21.61,21.61,0,0,1,.1,4.56,27.51,27.51,0,0,1-.77,4.62,30.77,30.77,0,0,1-1.29,4,21.94,21.94,0,0,1-1.58,3.08,11.18,11.18,0,0,1-2.24,2.66,8.53,8.53,0,0,1-1.9,1.43,7.76,7.76,0,0,1-1.53.58,10.58,10.58,0,0,1-1.8.31,7.8,7.8,0,0,1-1.81-.06,5.71,5.71,0,0,1-1.61-.48A6.56,6.56,0,0,1,39,72a7.4,7.4,0,0,1-1.58-2.47,10.49,10.49,0,0,1-.69-3,19.59,19.59,0,0,1,0-3.34,28.08,28.08,0,0,1,.46-3.33c.21-1.09.46-2.12.73-3.08.17-.54.38-1.15.66-1.82s.58-1.34.93-2A20.7,20.7,0,0,1,40.57,51,11.36,11.36,0,0,1,41.78,49.46Zm4.31,19.62a15.77,15.77,0,0,0,1.48-3.38,23,23,0,0,0,.91-4,25.93,25.93,0,0,0,.25-4.21,20.23,20.23,0,0,0-.46-3.89c-.19.33-.37.64-.53.95s-.32.6-.47.9c-.48.9-1,1.86-1.44,2.87s-.93,2-1.32,3.1a24.68,24.68,0,0,0-.94,3.19,12.93,12.93,0,0,0-.31,3.19.17.17,0,0,1,0,.1.14.14,0,0,0,0,.09l.11.34a3.73,3.73,0,0,0,.21.46,4.52,4.52,0,0,0,.37.61,3.78,3.78,0,0,0,.5.56,1.36,1.36,0,0,0,.58.33l.56-.56A2.72,2.72,0,0,0,46.09,69.08Z" fill="#fff"/><path d="M82.48,44l-.09.4c0,.13-.08.25-.13.37l.13,0a9.22,9.22,0,0,0-.78,1.64c-.22.6-.42,1.21-.61,1.84s-.38,1.25-.55,1.87-.36,1.18-.54,1.7c-.5,1.38-1,2.75-1.38,4.12s-.88,2.73-1.36,4.09-1,2.68-1.58,4a25.27,25.27,0,0,1-2.08,3.81,3.68,3.68,0,0,1-1.28,1.23,4.43,4.43,0,0,1-1.68.58,3.88,3.88,0,0,1-1.72-.2,2.91,2.91,0,0,1-1.41-1.1l-.94-1.9c-.24.27-.52.61-.82,1s-.64.82-1,1.24a8.27,8.27,0,0,1-1.07,1.13,2.63,2.63,0,0,1-1.12.64,7.59,7.59,0,0,1-1.08.13,3.57,3.57,0,0,1-1-.09,2.56,2.56,0,0,1-.91-.44,2.35,2.35,0,0,1-.7-1,41.48,41.48,0,0,1-.87-4.9c-.17-1.59-.3-3.13-.36-4.63s-.11-2.94-.12-4.35,0-2.78-.07-4.13a8.64,8.64,0,0,1,.48-2.63,5.35,5.35,0,0,1,1-1.7A3.19,3.19,0,0,1,60,45.9a2.2,2.2,0,0,1,1.2-.11,1.59,1.59,0,0,1,.89.52,1.56,1.56,0,0,1,.34,1c.12.75.21,1.38.27,1.88s.1.95.12,1.35.06.8.1,1.18.11.83.2,1.36a5.63,5.63,0,0,1,.06.75c0,.33,0,.64.06.92a3.14,3.14,0,0,0,.13.69c.06.18.14.21.25.08.12-.38.23-.7.32-1s.2-.53.31-.8a9.2,9.2,0,0,1,.44-.91c.18-.34.42-.79.73-1.35a2.72,2.72,0,0,1,.81-.7,1.22,1.22,0,0,1,.67-.13,3.89,3.89,0,0,1,.75.16,5.07,5.07,0,0,0,1,.16,1.68,1.68,0,0,1,.65.68l.21.15a.9.9,0,0,1,.18.15c0,.08.1.25.21.49l.35.77c.12.28.24.54.34.79l.19.51q.43-2.28.81-4c.25-1.15.48-2.12.69-2.92s.4-1.45.57-2a6.05,6.05,0,0,1,.49-1.13c.17-.19.3-.3.39-.31a3,3,0,0,1,.31,0,1.7,1.7,0,0,0,.39-.07,1.93,1.93,0,0,0,.69-.48A6,6,0,0,1,77,42.36,5.1,5.1,0,0,1,79,41.78a3.84,3.84,0,0,1,2,.44,3.25,3.25,0,0,1,1.44,1.7Zm-9,23.71s0,0,0,0a.82.82,0,0,0,0-.14Z" fill="#fff"/><path d="M82.83,50.32c.09-.55.23-1.15.4-1.8a16.05,16.05,0,0,1,.62-1.89,12.42,12.42,0,0,1,.86-1.71,5.29,5.29,0,0,1,1.1-1.3,2.68,2.68,0,0,1,1.33-.6,2.61,2.61,0,0,1,1.6.36c.54.94,1,1.72,1.32,2.36a16,16,0,0,1,.87,1.85c.23.59.44,1.21.63,1.85s.39,1.42.62,2.33c.13-.51.27-1.05.44-1.62l.51-1.72c.16-.57.32-1.14.47-1.71a11.35,11.35,0,0,0,.31-1.63,5.1,5.1,0,0,1,.89-2.19,6.39,6.39,0,0,1,1.54-1.53,6,6,0,0,1,1.8-.88,4.56,4.56,0,0,1,1.63-.22,1.43,1.43,0,0,1,1,.42,1,1,0,0,1,0,1.06.89.89,0,0,0,0,.66,7.52,7.52,0,0,1,.25.93,5.6,5.6,0,0,1,.14,1.22,4.08,4.08,0,0,1-.29,1.49,22.16,22.16,0,0,0-.83,2.87c-.27,1.17-.54,2.4-.8,3.71s-.52,2.63-.79,4-.53,2.58-.79,3.7a25,25,0,0,1-.84,2.86A2.86,2.86,0,0,1,96,64.62c-.38.31-.72.56-1,.74a4.26,4.26,0,0,1-.8.4,4.2,4.2,0,0,1-.83.17c-.3,0-.66.06-1.09.07a1.08,1.08,0,0,1-.91-.51,7.51,7.51,0,0,1-.82-1.41,14.3,14.3,0,0,1-.71-1.9l-.6-2c-.18-.64-.35-1.21-.51-1.72a4.06,4.06,0,0,0-.43-1c-.27,1.65-.5,2.92-.69,3.8s-.36,1.57-.52,2.06a6.32,6.32,0,0,1-.46,1.11c-.15.25-.32.59-.52,1a2.34,2.34,0,0,1-.62,1.14,4.43,4.43,0,0,1-1.09.83,4.61,4.61,0,0,1-1.26.44,3.28,3.28,0,0,1-1.16,0,1.24,1.24,0,0,1-.78-.42,1,1,0,0,1-.1-.94A31.35,31.35,0,0,1,81.18,63c.09-1.39.23-2.86.41-4.39s.37-3,.59-4.49S82.61,51.38,82.83,50.32Z" fill="#fff"/><path d="M108.37,60.52a61.58,61.58,0,0,1,4.2-12.16,8.65,8.65,0,0,1-1.15.27c-1.75.24-3-.22-3.43-1.23-.13-.34.06-.53.44-.58,2.34-.32,6.55-1.64,8.11-1.86,1.24-.17,2.42,0,3,1.07.18.31.12.65-.51.68a16.72,16.72,0,0,0-4.12.92c.16,1-.41,2.64-1.29,4.82-1,2.72-2.49,6.57-3.57,10.31-.15.51-.47.58-.89.26a1.81,1.81,0,0,1-.77-1.4A3.7,3.7,0,0,1,108.37,60.52Z" fill="#fff"/><path d="M127.06,44a4.4,4.4,0,0,1,3,4,13.73,13.73,0,0,1-.87,6.43c-1.37,3.59-3.7,6.74-6.8,7.17a5,5,0,0,1-1.85-.08c-2.43-.54-3.6-2.44-3.91-4.67-.78-5.68,3.6-11.36,6.52-12.86a4.86,4.86,0,0,1,1.57-.49A2.94,2.94,0,0,1,127.06,44Zm-.4,9.84a14,14,0,0,0,1-6.55c-.18-1.29-.57-2.12-1.16-2.25-1.24-.27-4.18,1.94-6.11,6a12.06,12.06,0,0,0-1.11,6.47c.26,1.88,1.07,2.84,2.1,2.7C123,60,125.23,57.65,126.66,53.88Z" fill="#fff"/><path d="M144.51,55.68a16,16,0,0,1-.16-1.82l-1.86.45a24.84,24.84,0,0,1-2.86.59c-.55,1.36-1,2.79-1.42,4-.25.61-.72.56-1,.21a2,2,0,0,1-.46-1,4.9,4.9,0,0,1,.18-1.89,13,13,0,0,1,.45-1.52,2.55,2.55,0,0,1-.93-.77c-.29-.48-.2-.66.51-.65.38,0,.6,0,1,0,1.54-3.8,4.54-9.51,7-12.29.53-.57.94-.6,1.41-.11a4.51,4.51,0,0,1,.78,1,2.34,2.34,0,0,1,.34.92,3,3,0,0,1-.06,1.13,65.59,65.59,0,0,0-.85,7.82A2.08,2.08,0,0,1,148,53c.2.41,0,.55-.47.53l-1,0c0,1.37.08,2.76.21,4.09.06.48-.27.64-.78.49S144.76,57.23,144.51,55.68Zm.42-10.9a78.55,78.55,0,0,0-4.35,8c.53-.13,1.06-.26,1.56-.41.9-.23,1.48-.42,2.2-.55A44.11,44.11,0,0,1,144.93,44.78Z" fill="#fff"/><path d="M21.3,126.36a14.26,14.26,0,0,1-5.25,0,10.51,10.51,0,0,1-4.1-1.65,6.19,6.19,0,0,1-2.29-3,5.47,5.47,0,0,1,.14-3.87,3.19,3.19,0,0,1,1.33-1.56,5.13,5.13,0,0,1,1.94-.6,12.48,12.48,0,0,1,2.3,0c.81.06,1.62.11,2.43.14a17.44,17.44,0,0,0,2.3,0,4.26,4.26,0,0,0,1.91-.6,13.42,13.42,0,0,0,3.06-1.88,3,3,0,0,0,1.07-1.61,1.59,1.59,0,0,0-.41-1.35,6.78,6.78,0,0,0-1.37-1.16c-.55-.37-1.16-.74-1.81-1.1A10.76,10.76,0,0,1,20.88,107a16,16,0,0,1-5-4.11,10.52,10.52,0,0,1-2.12-6.2,17.57,17.57,0,0,1,.35-4.8,15.34,15.34,0,0,1,1.4-3.9,13.9,13.9,0,0,1,2.14-3,16.91,16.91,0,0,1,2.55-2.29q1.38-1,2.88-1.89a19.37,19.37,0,0,1,3.27-1.57,19.63,19.63,0,0,1,3.88-1,22.29,22.29,0,0,1,4.65-.25,6.6,6.6,0,0,1,2.79.68q1.21.62,2.43,1.29a4,4,0,0,1,1.5,1.91,3.19,3.19,0,0,1,0,1.91,3.58,3.58,0,0,1-1,1.57,3.54,3.54,0,0,1-1.68.85A4.55,4.55,0,0,1,39,87.35a2.18,2.18,0,0,1-.48,1.22,4.39,4.39,0,0,1-1.42,1.12,12.23,12.23,0,0,1-2.64,1,27.34,27.34,0,0,0-3.65.42,6.08,6.08,0,0,0-2.4.92,2.69,2.69,0,0,0-1.09,1.7,6.08,6.08,0,0,0,.3,2.79,2.75,2.75,0,0,0,1.12,1.36c.6.45,1.3.91,2.1,1.4s1.64,1,2.53,1.67a12.29,12.29,0,0,1,2.42,2.26,10.16,10.16,0,0,1,1.71,3.07,10.53,10.53,0,0,1,.52,4.15A17.37,17.37,0,0,1,37,115.08a15.41,15.41,0,0,1-2.91,4.81A19.18,19.18,0,0,1,29,124,21,21,0,0,1,21.3,126.36Z" fill="#fff100"/><path d="M58.21,77c.15.28.32.59.49.92a4.17,4.17,0,0,1,.39,1,2.08,2.08,0,0,1,0,1,1.94,1.94,0,0,1-.55.91s0,.1-.08.18a16,16,0,0,1,.89,4.83c0,1.53,0,3-.12,4.45.56-1.35,1.17-2.77,1.83-4.24s1.38-2.92,2.15-4.34a42.7,42.7,0,0,1,2.54-4.06,19,19,0,0,1,3-3.39,8.72,8.72,0,0,1,2.44-1.27,8.21,8.21,0,0,1,2.88-.48,4.18,4.18,0,0,1,2.44.79,3.27,3.27,0,0,1,1.17,2.54q-.08,11-.55,20.49A137.28,137.28,0,0,1,75,114.64l0,.11H75a3.72,3.72,0,0,1-1,1.87A6.24,6.24,0,0,1,72.09,118a9.9,9.9,0,0,1-2.37.75,6.9,6.9,0,0,1-2.3.06,4,4,0,0,1-1.81-.73,2,2,0,0,1-.79-1.63l-.12-1.28v-.11q0-1.35,0-1.83c0-.31,0-.55,0-.72s0-.38,0-.65,0-.79.12-1.58a8.37,8.37,0,0,1,.11-1.06c.06-.48.11-1,.15-1.51s.09-1,.13-1.5.07-.85.08-1.11c-.63,1.17-1.15,2.07-1.57,2.69a8.1,8.1,0,0,1-1.18,1.42,5.31,5.31,0,0,1-1.08.77l-1.21.59c-.21.07-.55.16-1,.28a9.09,9.09,0,0,1-1.4.24,5.52,5.52,0,0,1-1.35,0,1,1,0,0,1-.85-.5,12.7,12.7,0,0,0-.78-1.38,4,4,0,0,0-.37-.45,1.28,1.28,0,0,1-.24-.31,8.41,8.41,0,0,1-.39-1c-.13,1.48-.28,2.79-.44,3.93s-.33,2.17-.51,3.05a17.24,17.24,0,0,1-.65,2.42,18,18,0,0,1-.82,2,3.71,3.71,0,0,1-1.14,1.73,7,7,0,0,1-2.07,1.29,8.81,8.81,0,0,1-2.49.66,8.08,8.08,0,0,1-2.42-.06,4,4,0,0,1-1.89-.87,2.68,2.68,0,0,1-.88-1.87,32.84,32.84,0,0,1,.15-4.82q.29-3.1.72-6.62t.94-6.87c.32-2.24.61-4.1.85-5.6.17-1,.39-2.12.66-3.37s.61-2.52,1-3.79.8-2.49,1.24-3.65a17.62,17.62,0,0,1,1.43-3,7,7,0,0,1,2.08-3.26,9.06,9.06,0,0,1,3-1.74,8.54,8.54,0,0,1,3.11-.45A7.63,7.63,0,0,1,58.21,77Z" fill="#fff100"/><path d="M98.37,74.51q-1.09,6.28-2.06,11.36t-1.75,9.34q-.78,4.26-1.47,7.87c-.45,2.4-.87,4.69-1.24,6.88a6.58,6.58,0,0,1-.89,3.52,6.82,6.82,0,0,1-2,2.07,7.7,7.7,0,0,1-2.27,1A15.82,15.82,0,0,1,85,117a10.12,10.12,0,0,1-3.82,0,2.69,2.69,0,0,1-1.78-1.3,4.07,4.07,0,0,1-.33-2.39c.11-1,.28-2.08.52-3.31q.74-3.3,1.5-7.67c.52-2.92,1.07-5.89,1.67-8.91S84,87.46,84.61,84.7a61.08,61.08,0,0,1,2-7,5.42,5.42,0,0,1,1.37-2.29,7.07,7.07,0,0,1,1.49-1,9.7,9.7,0,0,0,1.35-.77,2.87,2.87,0,0,0,.94-1.76,3.17,3.17,0,0,1,1.7-2.14,4,4,0,0,1,2.63-.45,3.16,3.16,0,0,1,2.12,1.51A4.67,4.67,0,0,1,98.37,74.51Z" fill="#fff100"/><path d="M100.84,111.59A5.13,5.13,0,0,0,100,110c-.29-.3-.53-.58-.73-.83a2.15,2.15,0,0,1-.42-1,6.66,6.66,0,0,1,.14-2c.22-1.38.53-3.12.91-5.21s.84-4.31,1.36-6.65,1.09-4.68,1.7-7,1.26-4.49,1.93-6.42c.43-1.48.83-2.81,1.19-4,.27-1,.54-1.92.8-2.72a11.13,11.13,0,0,0,.39-1.27,3.94,3.94,0,0,1,1.19-2.18,10.75,10.75,0,0,1,2.54-2,13.29,13.29,0,0,1,3.22-1.32,8.7,8.7,0,0,1,3.22-.3,4.09,4.09,0,0,1,2.44,1.07,3.74,3.74,0,0,1,1,2.81,37,37,0,0,1-1.35,7.15c-.69,2.42-1.51,5-2.46,7.64s-2,5.52-3.09,8.52-2.2,6.24-3.21,9.71c0,.15.07.27.27.35a10.76,10.76,0,0,0,2-.71c.83-.38,1.7-.73,2.61-1.07a12.92,12.92,0,0,1,2.74-.68,3.65,3.65,0,0,1,2.41.4,2.07,2.07,0,0,0,.72,1.5l1.26,1a3,3,0,0,1,.94,1.34,3.84,3.84,0,0,1-.2,2.41,5.22,5.22,0,0,1-1.45,2.34,8.28,8.28,0,0,1-2.09,1.35,8.64,8.64,0,0,1-2.15.66l-1.65.26-1.56.3c-.53.09-1.14.18-1.82.27s-1.48.2-2.4.31l-3.27.36c-.58.12-1.16.22-1.75.3a4.2,4.2,0,0,1-1.7-.1,3.59,3.59,0,0,1-1.53-.91A5.64,5.64,0,0,1,100.84,111.59Z" fill="#fff100"/><path d="M149.87,62.14c1.55-.17,2.64.21,3.27,1.15a4.51,4.51,0,0,1,.64,3.37A8.67,8.67,0,0,1,152,70.5a7.48,7.48,0,0,1-3.94,2.62l-2.25,1a10.7,10.7,0,0,0-1.57.84,4.75,4.75,0,0,0-1.05.9,3.62,3.62,0,0,0-.66,1.13c-.4.88-.78,1.72-1.12,2.52a7.84,7.84,0,0,0-.61,2.5l-.05,1.24a4.62,4.62,0,0,0,2.6,0l2.76-.77a6.17,6.17,0,0,1,2.09-.32c.55,0,.75.48.61,1.32a14.1,14.1,0,0,1-1.31,3.78,7.1,7.1,0,0,1-3.13,3.12c-.94.32-1.57.55-1.9.69l-.78.3a5,5,0,0,1-.65.17q-.37.09-1.53.3c-.2.48-.46,1.19-.8,2.13s-.64,1.88-.91,2.8a12.37,12.37,0,0,0-.49,2.37c-.06.66.08,1,.41.92,1.08,0,2-.08,2.74-.12s1.44-.12,2.1-.21a20.6,20.6,0,0,0,2.06-.39c.7-.17,1.58-.41,2.62-.7.7.13,1.12.35,1.27.67a2.47,2.47,0,0,1,.26,1,3.07,3.07,0,0,0,.19,1c.12.32.51.55,1.16.69.35.06.49.37.44.92a5,5,0,0,1-.67,1.86,11.75,11.75,0,0,1-1.59,2.13,8.51,8.51,0,0,1-2.26,1.77c-1.24.51-2.39.94-3.47,1.29a27.46,27.46,0,0,1-3.22.87,31.23,31.23,0,0,1-3.44.5c-1.23.11-2.6.18-4.13.2a11.91,11.91,0,0,1-1.49-.16,6.84,6.84,0,0,1-1.66-.47,3.82,3.82,0,0,1-1.4-1,2.87,2.87,0,0,1-.69-1.76,55.37,55.37,0,0,1-.54-8.19,54.32,54.32,0,0,1,.66-7.84,70,70,0,0,1,1.74-7.94c.76-2.69,1.64-5.52,2.65-8.51a5.31,5.31,0,0,0,.25-2.06c0-.74-.1-1.46-.16-2.16a7,7,0,0,1,.08-1.92,1.81,1.81,0,0,1,1-1.32,68.09,68.09,0,0,1,9.09-4.34A22.64,22.64,0,0,1,149.87,62.14Z" fill="#fff100"/><path d="M1.16,23.33a30.11,30.11,0,0,1,2.21-6.2,1.28,1.28,0,0,1-1.12-.61c-.12-.24-.11-.38.24-.48A5.69,5.69,0,0,0,4,15.31a7,7,0,0,1,1.48-.7,2.55,2.55,0,0,1,2.89,1.14A3.63,3.63,0,0,1,9,17.4c.38,2.73-1.84,6.61-5.41,8.38A1.72,1.72,0,0,1,3,26c-.55.08-.91-.17-1.41-.66s-.53-.58-.56-.85A3.67,3.67,0,0,1,1.16,23.33Zm3.51-6.57a3.05,3.05,0,0,1-.24,1.81,27.49,27.49,0,0,0-1.95,5.6,2.3,2.3,0,0,0,0,.5q0,.22.27.09C6.29,22.82,7.9,19,7.62,17a1.89,1.89,0,0,0-.33-.9.76.76,0,0,0-.68-.29A8.68,8.68,0,0,0,4.67,16.76Z" fill="#fff"/><path d="M16.06,13.6A2.75,2.75,0,0,1,18,16.12a8.69,8.69,0,0,1-.55,4.05c-.87,2.26-2.34,4.25-4.29,4.51A3.06,3.06,0,0,1,12,24.63a3.19,3.19,0,0,1-2.46-2.94c-.49-3.59,2.27-7.16,4.12-8.11a3.09,3.09,0,0,1,1-.31A1.86,1.86,0,0,1,16.06,13.6Zm-.25,6.2a8.83,8.83,0,0,0,.61-4.13c-.11-.81-.36-1.33-.73-1.42-.79-.17-2.64,1.23-3.86,3.8a7.5,7.5,0,0,0-.7,4.07c.16,1.19.67,1.8,1.32,1.71C13.5,23.68,14.9,22.18,15.81,19.8Z" fill="#fff"/><path d="M23.8,23c-.08.34-.23.45-.52.27a1.48,1.48,0,0,1-.55-1,3,3,0,0,1,0-.85,22.33,22.33,0,0,1,.7-2.56,39.88,39.88,0,0,1-.37-6.24c0-.42.2-.48.49-.36a2.31,2.31,0,0,1,1.06,2c.1.94.05,1.65.15,2.88C26.08,15.24,27.88,13,29,11.58c.27-.33.51-.31.62-.05a2.68,2.68,0,0,1-.7,2.52c-1.7,2.12-2.76,3.44-4.06,5.29A32.17,32.17,0,0,0,23.8,23Z" fill="#fff"/><path d="M35.35,11a2.79,2.79,0,0,1,1.92,2.52,8.84,8.84,0,0,1-.55,4.06c-.87,2.26-2.35,4.24-4.3,4.51a3.19,3.19,0,0,1-3.63-3c-.49-3.58,2.28-7.16,4.12-8.1a2.91,2.91,0,0,1,1-.31A1.86,1.86,0,0,1,35.35,11Zm-.26,6.21A8.72,8.72,0,0,0,35.7,13c-.11-.82-.35-1.34-.73-1.42-.78-.17-2.63,1.22-3.85,3.79a7.54,7.54,0,0,0-.71,4.08c.16,1.19.68,1.79,1.32,1.7C32.79,21.05,34.19,19.54,35.09,17.17Z" fill="#fff"/><path d="M39.07,21a2.14,2.14,0,0,1-1.66-1.92,5,5,0,0,1,0-1c.21-1.92,1.69-5.35,2.9-7.9.19-.37.47-.36.71-.08a1.33,1.33,0,0,1,.33.73,3.8,3.8,0,0,1-.3,1.74c-.61,1.62-1.89,4.37-2.11,6.2a3.7,3.7,0,0,0,0,.81c.08.56.36.77.74.72.86-.12,1.8-1.62,2.53-3.72.68-1.91,2.08-5.47,2.79-7.06.17-.39.45-.36.7-.08a1.61,1.61,0,0,1,.27.67,3.53,3.53,0,0,1-.18,1.52,57.69,57.69,0,0,1-2.87,7.22,3.92,3.92,0,0,1-2.8,2.23A2.45,2.45,0,0,1,39.07,21Z" fill="#fff"/><path d="M48.68,17.66a47.27,47.27,0,0,1,2.74-7.56,1.34,1.34,0,0,1-.76-.78c-.08-.22,0-.33.33-.38a13.62,13.62,0,0,0,2.49-.58A9.74,9.74,0,0,1,55,8a1.47,1.47,0,0,1,1.65.71c.12.17.06.37-.3.42A18.46,18.46,0,0,0,53.1,10c-.43,1-.93,2.27-1.53,3.84.32-.09.55-.14.8-.19,1-.2,1.47.09,1.7.61.1.23.08.39-.28.47a21.56,21.56,0,0,0-2.86.86c-.46,1.31-.81,2.43-1.23,3.78-.07.24-.3.32-.56.2a1.11,1.11,0,0,1-.52-.86A4.23,4.23,0,0,1,48.68,17.66Z" fill="#fff"/><path d="M54.83,17.05a46,46,0,0,1,2.81-7.79,1.45,1.45,0,0,1-.8-.75c-.08-.23.09-.36.34-.4a16.28,16.28,0,0,0,2.62-.59,10.34,10.34,0,0,1,1.47-.38,1.32,1.32,0,0,1,1.55.69c.09.18,0,.35-.33.39A14.81,14.81,0,0,0,60,8.89a5.6,5.6,0,0,1-.66.21c-.45.93-1,2.45-1.64,4,.35-.1.64-.16.88-.21.93-.16,1.41.09,1.67.6.11.21.1.39-.29.44a13.23,13.23,0,0,0-2.87.84c-.36,1-.62,1.71-.85,2.52a15.19,15.19,0,0,1,2.25-.72c.91-.16,1.43.05,1.71.58.11.23.08.37-.28.42a17,17,0,0,0-3.55,1.18c-.39.17-.67.21-.93-.09-.14-.15-.3-.4-.53-.68S54.72,17.55,54.83,17.05Z" fill="#fff"/><path d="M61.07,16.2a46.51,46.51,0,0,1,2.81-7.79,1.47,1.47,0,0,1-.79-.76c-.09-.23.09-.35.34-.39a16.26,16.26,0,0,0,2.62-.6,11.27,11.27,0,0,1,1.47-.37A1.31,1.31,0,0,1,69.07,7c.09.18,0,.35-.33.4A13.94,13.94,0,0,0,66.22,8l-.66.21c-.45.93-1,2.44-1.64,4,.35-.1.64-.15.87-.2.93-.16,1.42.08,1.68.6.11.21.1.38-.29.44a13.47,13.47,0,0,0-2.88.84c-.35,1-.61,1.71-.84,2.52a14.09,14.09,0,0,1,2.25-.72c.91-.16,1.42,0,1.7.58.12.22.09.37-.27.41a18.34,18.34,0,0,0-3.56,1.18c-.39.18-.66.21-.92-.08s-.3-.41-.53-.69S61,16.7,61.07,16.2Z" fill="#fff"/><path d="M68.57,15.52a14.45,14.45,0,0,1,2.21-.68,1.48,1.48,0,0,1,1.76.58c.11.2.1.37-.29.42A19.26,19.26,0,0,0,68.76,17c-.48.18-.7.21-1-.09a3.81,3.81,0,0,1-.56-.67,1.31,1.31,0,0,1-.09-1A61.5,61.5,0,0,1,70.62,6c.22-.41.44-.32.65,0a1.64,1.64,0,0,1,.25.68,3.75,3.75,0,0,1-.33,1.84C70.08,11.35,69.23,13.4,68.57,15.52Z" fill="#fff"/><path d="M76.37,13.21a2,2,0,0,1,.52-.13,2.16,2.16,0,0,1,1.38.25,5.22,5.22,0,0,0,3,1,1.31,1.31,0,0,0,.86-.39.46.46,0,0,0-.12-.71c-1.35-.79-3.83-1.38-4.07-3.11C77.58,7.82,80,5.44,81.4,4.58a3.17,3.17,0,0,1,1.27-.47,1.6,1.6,0,0,1,1.08.22,3.15,3.15,0,0,1,1.1,1.34,2.34,2.34,0,0,1-.27,1.81,19.53,19.53,0,0,0-.89,2c-.11.3-.28.46-.65.16a1.24,1.24,0,0,1-.53-.86,3.28,3.28,0,0,1,.54-1.87c.33-.69.69-1.5.43-1.63-.69-.38-4.07,2.62-3.89,4.59C79.7,11,82.15,11.64,82.88,12a1.14,1.14,0,0,1,.63.8A2.32,2.32,0,0,1,83,14.27a3.05,3.05,0,0,1-2.17,1.18,6,6,0,0,1-4.54-1.67C76.05,13.53,76.14,13.32,76.37,13.21Z" fill="#fff"/><path d="M89,12.48a10.07,10.07,0,0,1-.1-1.14l-1.17.28a16.09,16.09,0,0,1-1.8.37c-.35.86-.61,1.76-.9,2.51-.16.38-.46.35-.61.13a1.3,1.3,0,0,1-.29-.6,3,3,0,0,1,.12-1.19,7.19,7.19,0,0,1,.28-1,1.68,1.68,0,0,1-.59-.49c-.18-.3-.12-.41.33-.41.24,0,.38,0,.62,0a31.34,31.34,0,0,1,4.44-7.75c.33-.36.59-.38.89-.07a2.62,2.62,0,0,1,.48.64,1.42,1.42,0,0,1,.22.58,1.76,1.76,0,0,1,0,.71A41.15,41.15,0,0,0,90.35,10a1.32,1.32,0,0,1,.87.78c.12.26,0,.34-.3.33l-.61,0c0,.86,0,1.74.13,2.58,0,.3-.17.4-.49.31S89.17,13.46,89,12.48Zm.28-6.87a49.37,49.37,0,0,0-2.75,5.06c.33-.07.67-.16,1-.25.57-.15.93-.27,1.39-.35A27,27,0,0,1,89.29,5.61Z" fill="#fff"/><path d="M91.66,11a30.71,30.71,0,0,1,2.21-6.2,1.28,1.28,0,0,1-1.12-.61c-.12-.24-.1-.38.25-.48a5.67,5.67,0,0,0,1.51-.73A6.65,6.65,0,0,1,96,2.24a2.55,2.55,0,0,1,2.89,1.15A3.53,3.53,0,0,1,99.5,5c.37,2.73-1.85,6.62-5.41,8.38a1.54,1.54,0,0,1-.55.18c-.54.08-.91-.17-1.4-.65a1.66,1.66,0,0,1-.57-.86A3.67,3.67,0,0,1,91.66,11Zm3.51-6.57a3.15,3.15,0,0,1-.23,1.82,27.41,27.41,0,0,0-2,5.59,1.7,1.7,0,0,0,0,.5c0,.16.11.18.27.09,3.56-1.94,5.16-5.77,4.88-7.8a1.7,1.7,0,0,0-.33-.9.75.75,0,0,0-.68-.29A8.9,8.9,0,0,0,95.17,4.39Z" fill="#fff"/><path d="M101,11.32a1.63,1.63,0,0,1,.19.51.87.87,0,0,1-.17.68.77.77,0,0,1-1.25-.09,1.24,1.24,0,0,1-.26-.59,1.12,1.12,0,0,1,.19-.77C100,10.64,100.64,10.77,101,11.32Zm-.34-8.07a3.47,3.47,0,0,1,2.53-2.13,2.44,2.44,0,0,1,1.25.18A2.24,2.24,0,0,1,105.62,3a3.78,3.78,0,0,1-.16,1.59,7.53,7.53,0,0,1-2.79,3.26,3.75,3.75,0,0,0-1.49,2.62c-.06.35-.3.4-.62.17a1.28,1.28,0,0,1-.44-.82,2,2,0,0,1,.06-.82,4.88,4.88,0,0,1,1.92-2.31,5.85,5.85,0,0,0,2-2.79,3.29,3.29,0,0,0,.13-1.32c-.06-.44-.28-.65-.58-.61-.8.11-1.77,1.61-2.34,3.37-.17.43-.35.46-.64.14a1.52,1.52,0,0,1-.31-.72A2.9,2.9,0,0,1,100.62,3.25Z" fill="#fff"/></g></g></svg>