<svg xmlns="http://www.w3.org/2000/svg" width="106.326" height="26" viewBox="0 0 106.326 26"><g transform="translate(-6)"><path d="M157.367,41.195H71.748v18h77.717Z" transform="translate(-45.041 -37.195)" fill="#2b2b2b" fill-rule="evenodd"/><path d="M78.254,59.085H48.014l13.275-26h30.24Z" transform="translate(-42.014 -33.085)" fill="#fff" fill-rule="evenodd"/><g transform="translate(51.634 9.192)"><path d="M127.985,58.448l-2.179-1.1-2.187,1.078.369-2.411-1.7-1.748,2.407-.393,1.137-2.158,1.117,2.168,2.4.413-1.717,1.733Z" transform="translate(-122.287 -51.72)" fill="#fb0"/><path d="M149.74,58.448l-2.178-1.1-2.187,1.078.37-2.411-1.7-1.748,2.407-.393,1.137-2.158,1.116,2.168,2.406.413-1.717,1.733Z" transform="translate(-133.312 -51.72)" fill="#fb0"/><path d="M171.5,58.448l-2.178-1.1-2.188,1.078.371-2.411-1.7-1.748,2.406-.393,1.136-2.158,1.117,2.168,2.4.413-1.717,1.733Z" transform="translate(-144.338 -51.72)" fill="#fb0"/><path d="M193.253,58.448l-2.178-1.1-2.188,1.078.37-2.411-1.7-1.748,2.406-.393L191.1,51.72l1.116,2.168,2.4.413L192.9,56.034Z" transform="translate(-155.363 -51.72)" fill="#fb0"/><path d="M215.007,58.448l-2.178-1.1-2.187,1.078.37-2.411-1.7-1.748,2.406-.393,1.136-2.158,1.118,2.168,2.4.413-1.716,1.733Z" transform="translate(-166.387 -51.72)" fill="#fb0"/></g><text transform="translate(28 18)" font-size="16" font-family="HelveticaNeue-CondensedBold, Helvetica Neue" font-weight="700"><tspan x="-9.6" y="0">5.0</tspan></text></g></svg>