<?xml version="1.0" encoding="utf-8"?>
<!-- Generator: Adobe Illustrator 23.0.2, SVG Export Plug-In . SVG Version: 6.00 Build 0)  -->
<svg version="1.1" id="Capa_1" xmlns="http://www.w3.org/2000/svg" xmlns:xlink="http://www.w3.org/1999/xlink" x="0px" y="0px"
	 viewBox="0 0 512 512" style="enable-background:new 0 0 512 512;" xml:space="preserve">
<style type="text/css">
	.st0{fill:#FFFFFF;}
</style>
<g>
	<g>
		<path class="st0" d="M426.6,11.5c-8.2,0-14.8,6.6-14.8,14.8v26.5C367.3,18.6,313.1,0,256,0C187.6,0,123.3,26.6,75,75
			C26.6,123.3,0,187.6,0,256c0,68.4,26.6,132.7,75,181c2.9,2.9,6.7,4.3,10.4,4.3s7.6-1.4,10.4-4.3c5.8-5.8,5.8-15.1,0-20.9
			C53.1,373.4,29.5,316.5,29.5,256C29.5,131.1,131.1,29.5,256,29.5c47.3,0,92.4,14.4,130.2,41.1h-18.7c-8.2,0-14.8,6.6-14.8,14.8
			s6.6,14.8,14.8,14.8h59.1c0.5,0,0.9,0,1.4-0.1c0,0,0,0,0,0c0.4,0,0.8-0.1,1.2-0.2c0.1,0,0.1,0,0.2,0c0.4-0.1,0.8-0.2,1.1-0.3
			c0.1,0,0.2,0,0.2-0.1c0.4-0.1,0.7-0.2,1.1-0.4c0.1,0,0.2-0.1,0.3-0.1c0.4-0.1,0.7-0.3,1-0.5c0.1,0,0.2-0.1,0.3-0.1
			c0.4-0.2,0.7-0.4,1-0.6c0.1,0,0.1-0.1,0.2-0.1c1.7-1.1,3.1-2.5,4.2-4.2c0-0.1,0.1-0.1,0.1-0.2c0.2-0.3,0.4-0.7,0.6-1
			c0-0.1,0.1-0.2,0.1-0.3c0.2-0.3,0.3-0.7,0.5-1c0-0.1,0.1-0.2,0.1-0.3c0.1-0.4,0.3-0.7,0.4-1.1c0-0.1,0-0.2,0.1-0.2
			c0.1-0.4,0.2-0.8,0.3-1.2c0-0.1,0-0.1,0-0.2c0.2-0.9,0.2-1.7,0.2-2.6V26.3C441.3,18.1,434.7,11.5,426.6,11.5z"/>
	</g>
</g>
<g>
	<g>
		<path class="st0" d="M169.6,256c13.2-4.8,22.1-17.4,22.1-31.7c0-18.6-15.1-33.7-33.7-33.7h-48.5c-8.2,0-14.8,6.6-14.8,14.8
			s6.6,14.8,14.8,14.8H158c2.3,0,4.2,1.9,4.2,4.2c0,1.9-1.3,3.6-3.2,4.1l-32.2,8.1c-9,2.2-15.3,10.3-15.3,19.6s6.3,17.3,15.3,19.6
			l32.2,8.1c1.9,0.5,3.2,2.1,3.2,4.1c0,2.3-1.9,4.2-4.2,4.2h-48.5c-8.2,0-14.8,6.6-14.8,14.8s6.6,14.8,14.8,14.8H158
			c18.6,0,33.7-15.1,33.7-33.7C191.8,273.4,182.8,260.8,169.6,256z"/>
	</g>
</g>
<g>
	<g>
		<path class="st0" d="M264.4,241.2H237v-10.5c0-5.8,4.7-10.5,10.5-10.5h42.2c8.2,0,14.8-6.6,14.8-14.8s-6.6-14.8-14.8-14.8h-42.2
			c-22.1,0-40.1,18-40.1,40.1v50.6c0,22.1,18,40.1,40.1,40.1h16.9c22.1,0,40.1-18,40.1-40.1S286.5,241.2,264.4,241.2z M264.4,291.8
			h-16.9c-5.8,0-10.5-4.7-10.5-10.5v-10.5h27.4c5.8,0,10.5,4.7,10.5,10.5S270.2,291.8,264.4,291.8z"/>
	</g>
</g>
<g>
	<g>
		<path class="st0" d="M377.2,190.6h-16.9c-22.1,0-40.1,18-40.1,40.1v50.6c0,22.1,18,40.1,40.1,40.1h16.9c22.1,0,40.1-18,40.1-40.1
			v-50.6C417.3,208.6,399.3,190.6,377.2,190.6z M387.7,281.3c0,5.8-4.7,10.5-10.5,10.5h-16.9c-5.8,0-10.5-4.7-10.5-10.5v-50.6
			c0-5.8,4.7-10.5,10.5-10.5h16.9c5.8,0,10.5,4.7,10.5,10.5V281.3z"/>
	</g>
</g>
<g>
	<g>
		<path class="st0" d="M261.8,482.4c-3.8,0.1-7.7,0.1-11.5,0c-8.2-0.2-14.9,6.2-15.1,14.4c-0.2,8.2,6.2,14.9,14.4,15.1
			c2.1,0.1,4.3,0.1,6.4,0.1c2.2,0,4.4,0,6.6-0.1c8.2-0.2,14.6-7,14.4-15.1C276.7,488.6,269.9,482.2,261.8,482.4z"/>
	</g>
</g>
<g>
	<g>
		<path class="st0" d="M504.9,195.9c-1-4.2-2.1-8.4-3.4-12.5c-2.3-7.8-10.5-12.3-18.4-10c-7.8,2.3-12.3,10.5-10,18.4
			c1.1,3.6,2.1,7.4,3,11.1c1.6,6.8,7.7,11.3,14.3,11.3c1.1,0,2.3-0.1,3.5-0.4C501.9,211.8,506.8,203.8,504.9,195.9z"/>
	</g>
</g>
<g>
	<g>
		<path class="st0" d="M147.8,455c-3.3-1.8-6.7-3.8-9.9-5.7c-7-4.3-16-2.1-20.3,4.9c-4.3,7-2.1,16,4.9,20.3
			c3.7,2.3,7.5,4.4,11.2,6.5c2.2,1.2,4.7,1.8,7.1,1.8c5.2,0,10.3-2.8,13-7.7C157.6,467.9,154.9,458.9,147.8,455z"/>
	</g>
</g>
<g>
	<g>
		<path class="st0" d="M203,476.2c-3.7-0.9-7.4-1.9-11.1-3c-7.8-2.3-16,2.2-18.3,10s2.2,16,10,18.3c4.1,1.2,8.4,2.3,12.5,3.4
			c1.2,0.3,2.3,0.4,3.5,0.4c6.7,0,12.7-4.6,14.4-11.3C215.8,486.1,210.9,478.1,203,476.2z"/>
	</g>
</g>
<g>
	<g>
		<path class="st0" d="M480.8,133.5c-2.1-3.8-4.3-7.6-6.5-11.2c-4.3-7-13.4-9.1-20.3-4.9c-7,4.3-9.1,13.4-4.9,20.3
			c2,3.2,3.9,6.6,5.8,9.9c2.7,4.9,7.7,7.7,13,7.7c2.4,0,4.8-0.6,7.1-1.8C482.1,149.6,484.7,140.6,480.8,133.5z"/>
	</g>
</g>
<g>
	<g>
		<path class="st0" d="M338.6,483.2c-2.3-7.8-10.5-12.3-18.3-10c-3.7,1.1-7.4,2.1-11.1,3c-7.9,1.9-12.8,9.9-10.9,17.8
			c1.6,6.8,7.7,11.3,14.3,11.3c1.1,0,2.3-0.1,3.5-0.4c4.2-1,8.4-2.1,12.5-3.4C336.4,499.3,340.9,491,338.6,483.2z"/>
	</g>
</g>
<g>
	<g>
		<path class="st0" d="M494,298c-7.9-1.9-15.9,3-17.8,10.9c-0.9,3.7-1.9,7.4-3,11.1c-2.3,7.8,2.2,16,10,18.3
			c1.4,0.4,2.8,0.6,4.2,0.6c6.4,0,12.3-4.2,14.2-10.6c1.2-4.1,2.3-8.4,3.3-12.5C506.9,307.9,502,299.9,494,298z"/>
	</g>
</g>
<g>
	<g>
		<path class="st0" d="M475.1,358.2c-7.2-3.9-16.1-1.3-20,5.9c-1.8,3.3-3.8,6.7-5.8,10c-4.3,7-2.1,16,4.9,20.3
			c2.4,1.5,5.1,2.2,7.7,2.2c5,0,9.8-2.5,12.6-7.1c2.3-3.7,4.4-7.5,6.5-11.2C484.9,371.1,482.2,362.1,475.1,358.2z"/>
	</g>
</g>
<g>
	<g>
		<path class="st0" d="M441.1,411.4c-5.9-5.6-15.3-5.4-20.9,0.5c-2.6,2.8-5.4,5.5-8.1,8.1c-5.9,5.6-6.1,15-0.5,20.9
			c2.9,3.1,6.8,4.6,10.7,4.6c3.7,0,7.3-1.4,10.2-4.1c3.1-3,6.2-6.1,9.2-9.2C447.2,426.4,447,417.1,441.1,411.4z"/>
	</g>
</g>
<g>
	<g>
		<path class="st0" d="M511.9,249.4c-0.2-8-6.8-14.4-14.8-14.4c-0.1,0-0.3,0-0.4,0c-8.2,0.2-14.6,7-14.4,15.1c0,1.9,0.1,3.9,0.1,5.9
			c0,1.9,0,3.8-0.1,5.6c-0.2,8.2,6.3,14.9,14.4,15.1c0.1,0,0.2,0,0.4,0c8,0,14.6-6.4,14.8-14.4c0-2.1,0.1-4.2,0.1-6.3
			C512,253.8,512,251.6,511.9,249.4z"/>
	</g>
</g>
<g>
	<g>
		<path class="st0" d="M394.5,454.1c-4.3-7-13.4-9.1-20.3-4.9c-3.2,2-6.6,3.9-9.9,5.7c-7.2,3.9-9.8,12.9-5.9,20
			c2.7,4.9,7.7,7.7,13,7.7c2.4,0,4.8-0.6,7.1-1.8c3.8-2.1,7.5-4.2,11.2-6.5C396.6,470.1,398.8,461,394.5,454.1z"/>
	</g>
</g>
</svg>
