<?xml version="1.0" encoding="utf-8"?>
<!-- Generator: Adobe Illustrator 23.0.2, SVG Export Plug-In . SVG Version: 6.00 Build 0)  -->
<svg version="1.1" id="Calque_3" xmlns="http://www.w3.org/2000/svg" xmlns:xlink="http://www.w3.org/1999/xlink" x="0px" y="0px"
	 viewBox="0 0 130 58" style="enable-background:new 0 0 130 58;" xml:space="preserve">
<style type="text/css">
	.st0{fill:#FFFFFF;}
</style>
<g>
	<g>
		<path class="st0" d="M12,12.9h-1.8L8.6,8.6L7,12.9H5.2l-3.1-8h2.5l1.6,4.6l1.6-4.6h1.6L11,9.5l1.6-4.6h2.5L12,12.9z"/>
		<path class="st0" d="M22.7,11.9c-0.8,0.8-1.8,1.1-3,1.1c-1.2,0-2.3-0.4-3.1-1.1c-0.8-0.8-1.2-1.8-1.2-3c0-1.3,0.4-2.3,1.2-3
			c0.8-0.8,1.8-1.1,3.1-1.1c1.2,0,2.3,0.4,3,1.1c0.8,0.8,1.2,1.8,1.2,3C23.9,10.1,23.5,11.1,22.7,11.9z M19.7,6.7
			c-0.6,0-1.1,0.2-1.4,0.6c-0.4,0.4-0.5,0.9-0.5,1.6s0.2,1.2,0.5,1.6c0.4,0.4,0.8,0.6,1.4,0.6c0.6,0,1.1-0.2,1.4-0.6
			c0.4-0.4,0.5-0.9,0.5-1.6s-0.2-1.2-0.5-1.6C20.7,6.9,20.2,6.7,19.7,6.7z"/>
		<path class="st0" d="M30.1,7c-1.3,0-2.1,0.7-2.1,1.8v4h-2.3v-8h2.2v0.9c0.4-0.7,1.2-1,2.2-1V7z"/>
		<path class="st0" d="M33.8,7.7l2.6-2.8h2.7l-3,3.4l3.2,4.6h-2.7L34.5,10l-0.7,0.8v2.1h-2.3v-12h2.3V7.7z"/>
		<path class="st0" d="M46.5,7.3l-2.2,0.1c0-0.6-0.4-1-1-1c-0.6,0-0.9,0.2-0.9,0.7c0,0.2,0.1,0.4,0.3,0.5c0.3,0.1,0.7,0.2,1.2,0.4
			c1.8,0.5,2.7,1,2.7,2.4c0,1.7-1.2,2.7-3.3,2.7c-2,0-3.2-0.9-3.4-2.6l2.3-0.1c0,0.7,0.4,1,1.2,1c0.6,0,1-0.3,1-0.7
			c0-0.5-0.3-0.6-1.5-0.9c-0.8-0.2-1.2-0.3-1.7-0.6c-0.7-0.4-1-0.9-1.1-1.9c0-1.5,1.2-2.5,3.2-2.5C45.2,4.7,46.3,5.8,46.5,7.3z"/>
		<path class="st0" d="M60.6,12.9h-1.8l-1.6-4.2l-1.6,4.2h-1.8l-3.1-8h2.5l1.6,4.6l1.6-4.6H58l1.7,4.6l1.6-4.6h2.5L60.6,12.9z"/>
		<path class="st0" d="M67.4,2.3c0,0.4-0.1,0.7-0.4,1c-0.5,0.5-1.4,0.5-1.9,0c-0.9-0.8-0.2-2.4,1-2.3C66.8,0.9,67.4,1.5,67.4,2.3z
			 M67.1,12.9h-2.3v-8h2.3V12.9z"/>
		<path class="st0" d="M72.1,6.8l0,3c0,0.8,0.5,1.2,1.2,1.2c0.2,0,0.4,0,0.7-0.1v2C73.6,13,73.2,13,72.8,13c-1.8,0-2.9-0.9-2.9-2.7
			l0-3.5h-1.5V4.9h1.5l0-2.6h2.3l0,2.6H74v1.9H72.1z"/>
		<path class="st0" d="M77.9,0.9v4.7c0.4-0.6,1.1-0.8,2-0.8C81.7,4.7,83,6,83,8v4.9h-2.3V8.4c0-1-0.5-1.6-1.4-1.6
			c-0.9,0-1.5,0.6-1.5,1.6v4.4h-2.3v-12H77.9z"/>
	</g>
	<g>
		<path class="st0" d="M48.5,53.8l-1.2,0.3c-1.7,0.5-3.4,0.3-5-0.6L35,49.8c-1.5-0.8-3.1-0.8-4.6,0l-7.3,3.8c-1.6,0.8-3.3,1-5,0.6
			l-1.3-0.4c-0.5-0.1-1,0.1-1.1,0.6c-0.1,0.5,0.1,1,0.6,1.1l1.3,0.4c2.1,0.6,4.3,0.3,6.3-0.7l7.3-3.8c1-0.5,2-0.5,3,0l7.3,3.8
			c1.3,0.7,2.7,1,4.1,1c0.8,0,1.5-0.1,2.3-0.3l1.2-0.3c0.5-0.1,0.8-0.6,0.6-1.1S49,53.7,48.5,53.8z"/>
		<path class="st0" d="M13.4,52.8l-2.8-0.8c-1.8-0.5-3-2.6-2.8-4.9L8,43l0-0.6l0.7-8.5c0,0,0,0,0,0c0-0.1,0-0.2,0-0.3c0,0,0,0,0-0.1
			c0-0.1,0-0.2,0-0.3c0,0,0,0,0-0.1c0-0.1,0-0.2,0.1-0.3c0,0,0,0,0-0.1c0-0.1,0-0.2,0.1-0.3c0.4-1.1,1.1-2,2-2.4
			C20.5,26,32.8,26,33,26h0c0,0,1.3,0,3.3,0.1c0.5,0,0.9-0.3,0.9-0.8c0-0.5-0.3-0.9-0.8-0.9c-2-0.1-3.3-0.2-3.4-0.2c0,0,0,0,0,0
			c-0.7,0-12.9,0.1-22.6,4.4c-1.2,0.5-2.2,1.6-2.8,2.8H5.1c-1.5,0-2.7,1.2-2.7,2.7v7.1c0,1.5,1.2,2.7,2.7,2.7h1.1l-0.3,3.3
			c-0.3,3.1,1.5,6,4.1,6.7l2.8,0.8c0.1,0,0.2,0,0.2,0c0.4,0,0.7-0.3,0.9-0.7C14.1,53.5,13.8,53,13.4,52.8z M6.3,42H5.1
			c-0.5,0-0.9-0.4-0.9-0.9v-7.1c0-0.5,0.4-0.9,0.9-0.9h1.9c0,0,0,0,0,0c0,0,0,0.1,0,0.1c0,0.1,0,0.2,0,0.4L6.3,42z"/>
		<path class="st0" d="M60.3,31.4h-2.5c-0.6-1.3-1.5-2.3-2.8-2.8C49.9,26.2,44,25.2,40,24.7c-0.5-0.1-0.9,0.3-1,0.8
			c-0.1,0.5,0.3,0.9,0.8,1c3.9,0.5,9.6,1.5,14.6,3.8c0.9,0.4,1.7,1.3,2.1,2.4c0,0,0,0.1,0,0.1c0,0.1,0,0.1,0.1,0.2c0,0,0,0.1,0,0.1
			c0,0.1,0,0.1,0,0.2c0,0,0,0,0,0c0,0.2,0.1,0.4,0.1,0.6l1.1,13.3c0.2,2.3-1,4.4-2.8,4.9l-3,0.8c-0.5,0.1-0.8,0.6-0.6,1.1
			c0.1,0.4,0.5,0.7,0.9,0.7c0.1,0,0.2,0,0.2,0l3-0.8c2.6-0.7,4.4-3.6,4.1-6.7l-0.3-3.3h1.1c1.5,0,2.7-1.2,2.7-2.7v-7.1
			C63,32.6,61.8,31.4,60.3,31.4z M61.2,41.1c0,0.5-0.4,0.9-0.9,0.9h-1.2l-0.7-8.3c0-0.1,0-0.3,0-0.4c0,0,0,0,0,0c0,0,0-0.1,0-0.1
			h1.9c0.5,0,0.9,0.4,0.9,0.9L61.2,41.1L61.2,41.1z"/>
		<path class="st0" d="M11.2,36.2l-0.6,7.7c0,0.5,0.3,0.9,0.8,1c0,0,0,0,0.1,0c0.5,0,0.8-0.4,0.9-0.8l0.6-7.7c0-0.5-0.3-0.9-0.8-1
			C11.7,35.3,11.3,35.7,11.2,36.2z"/>
		<path class="st0" d="M54.4,44.9C54.4,44.9,54.5,44.9,54.4,44.9c0.6,0,0.9-0.5,0.9-1l-0.6-7.7c0-0.5-0.5-0.9-1-0.8
			c-0.5,0-0.9,0.5-0.8,1l0.6,7.7C53.6,44.5,54,44.9,54.4,44.9z"/>
	</g>
	<g>
		<path class="st0" d="M79.5,35.9c1.1,0,2.1,0.4,2.8,1.1c0.8,0.7,1.1,1.7,1.1,2.9c0,1.2-0.4,2.2-1.1,2.9c-0.7,0.7-1.7,1.1-2.8,1.1
			c-1.1,0-2.1-0.4-2.9-1.1c-0.7-0.7-1.1-1.7-1.1-2.9c0-1.2,0.4-2.2,1.1-2.9C77.4,36.3,78.3,35.9,79.5,35.9z M79.5,37.1
			c-0.8,0-1.4,0.3-1.9,0.8c-0.5,0.5-0.7,1.2-0.7,2.1s0.2,1.6,0.7,2.1c0.5,0.5,1.1,0.8,1.9,0.8c0.8,0,1.4-0.3,1.9-0.8
			c0.5-0.5,0.8-1.2,0.8-2.1s-0.3-1.6-0.8-2.1C80.9,37.3,80.2,37.1,79.5,37.1z"/>
		<path class="st0" d="M89.2,37.3c-1.4,0-2.3,0.9-2.3,2.1v4.5h-1.3v-7.8h1.3v1.2c0.3-0.7,1.1-1.3,2.3-1.3V37.3z"/>
	</g>
	<g>
		<g>
			<path class="st0" d="M119.8,12.3h-7.7c-0.4,0-0.8,0.3-0.8,0.8c0,0.4,0.3,0.8,0.8,0.8h7.7c0.4,0,0.8-0.3,0.8-0.8
				C120.6,12.6,120.2,12.3,119.8,12.3z"/>
		</g>
	</g>
	<g>
		<g>
			<path class="st0" d="M125.2,12.3h-0.8c-0.4,0-0.8,0.3-0.8,0.8c0,0.4,0.3,0.8,0.8,0.8h0.8c0.4,0,0.8-0.3,0.8-0.8
				C125.9,12.6,125.6,12.3,125.2,12.3z"/>
		</g>
	</g>
	<g>
		<g>
			<path class="st0" d="M116.9,49.1H115c-1.2,0-2.1,0.9-2.1,2.1v0.4c0,1.2,0.9,2.1,2.1,2.1h1.9c1.2,0,2.1-0.9,2.1-2.1v-0.4
				C119,50,118.1,49.1,116.9,49.1z M117.5,51.6c0,0.3-0.3,0.6-0.6,0.6H115c-0.3,0-0.6-0.3-0.6-0.6v-0.4c0-0.3,0.3-0.6,0.6-0.6h1.9
				c0.3,0,0.6,0.3,0.6,0.6V51.6z"/>
		</g>
	</g>
	<g>
		<g>
			<path class="st0" d="M126.2,10h-20.5c-1.5,0-2.8,1.2-2.8,2.8v40.5c0,1.5,1.2,2.8,2.8,2.8h20.5c1.5,0,2.8-1.2,2.8-2.8V12.8
				C129,11.2,127.8,10,126.2,10z M127.5,53.2c0,0.7-0.6,1.2-1.2,1.2h-20.5c-0.7,0-1.2-0.6-1.2-1.2V12.8c0-0.7,0.6-1.2,1.2-1.2h20.5
				c0.7,0,1.2,0.6,1.2,1.2L127.5,53.2L127.5,53.2z"/>
		</g>
	</g>
	<g>
		<g>
			<path class="st0" d="M128.2,14.6h-24.5c-0.4,0-0.8,0.3-0.8,0.8v32.2c0,0.4,0.3,0.8,0.8,0.8h24.5c0.4,0,0.8-0.3,0.8-0.8V15.4
				C129,14.9,128.7,14.6,128.2,14.6z M127.5,46.8h-23V16.1h23V46.8z"/>
		</g>
	</g>
</g>
</svg>
