<?xml version="1.0" encoding="utf-8"?>
<!-- Generator: Adobe Illustrator 23.0.1, SVG Export Plug-In . SVG Version: 6.00 Build 0)  -->
<svg version="1.1" id="Capa_1" xmlns="http://www.w3.org/2000/svg" xmlns:xlink="http://www.w3.org/1999/xlink" x="0px" y="0px"
	 viewBox="0 0 444.8 444.8" style="enable-background:new 0 0 444.8 444.8;" xml:space="preserve">
<style type="text/css">
	.st0{fill:url(#SVGID_1_);}
</style>
<g>
	
		<linearGradient id="SVGID_1_" gradientUnits="userSpaceOnUse" x1="224.8467" y1="505.0428" x2="221.8467" y2="144.0428" gradientTransform="matrix(0 -1 -1 0 444.8185 444.8185)">
		<stop  offset="0" style="stop-color:#DA0A8F"/>
		<stop  offset="1" style="stop-color:#8B42DE"/>
	</linearGradient>
	<path class="st0" d="M233.1,0c-10.1,0-18.7,3.5-25.7,10.6L21.3,196.4c-7,7.4-10.6,16.1-10.6,26c0,10.1,3.5,18.7,10.6,25.7
		L207.4,434c6.8,7.2,15.4,10.8,25.7,10.8c10.1,0,18.8-3.6,26-10.9l21.4-21.1c7-7.4,10.6-16.1,10.6-26c0-10.1-3.5-18.7-10.6-25.7
		l-83.9-83.9h201c9.9,0,18.5-3.6,25.7-10.9c7.2-7.2,10.9-15.8,10.9-25.7v-36.5c0-9.9-3.6-18.5-10.9-25.7
		c-7.2-7.2-15.8-10.9-25.7-10.9h-201l83.9-83.9c7-7,10.6-15.6,10.6-25.7c0-9.9-3.5-18.6-10.6-26l-21.4-21.4C251.7,3.5,243,0,233.1,0
		z"/>
</g>
</svg>
