<?xml version="1.0" encoding="utf-8"?>
<!-- Generator: Adobe Illustrator 23.0.1, SVG Export Plug-In . SVG Version: 6.00 Build 0)  -->
<svg version="1.1" id="Capa_1" xmlns="http://www.w3.org/2000/svg" xmlns:xlink="http://www.w3.org/1999/xlink" x="0px" y="0px"
	 viewBox="0 0 444.8 444.8" style="enable-background:new 0 0 444.8 444.8;" xml:space="preserve">
<style type="text/css">
	.st0{fill:url(#SVGID_1_);}
</style>
<g>
	
		<linearGradient id="SVGID_1_" gradientUnits="userSpaceOnUse" x1="224.8467" y1="505.0428" x2="221.8467" y2="144.0428" gradientTransform="matrix(4.489659e-11 -1 1 4.489659e-11 -4.843751e-04 444.8185)">
		<stop  offset="0" style="stop-color:#DA0A8F"/>
		<stop  offset="1" style="stop-color:#8B42DE"/>
	</linearGradient>
	<path class="st0" d="M185.7,10.6L164.3,32c-7,7.4-10.6,16.1-10.6,26c0,10.1,3.5,18.7,10.6,25.7l83.9,83.9h-201
		c-9.9,0-18.5,3.6-25.7,10.9c-7.2,7.2-10.9,15.8-10.9,25.7v36.5c0,9.9,3.6,18.5,10.9,25.7c7.2,7.2,15.8,10.9,25.7,10.9h201
		l-83.9,83.9c-7,7-10.6,15.6-10.6,25.7c0,9.9,3.5,18.6,10.6,26l21.4,21.1c7.2,7.2,15.9,10.9,26,10.9c10.3,0,18.8-3.6,25.7-10.8
		l186.1-185.9c7-7,10.6-15.6,10.6-25.7c0-9.9-3.5-18.6-10.6-26L237.4,10.6c-7-7-15.6-10.6-25.7-10.6C201.8,0,193.1,3.5,185.7,10.6z"
		/>
</g>
</svg>
