<?xml version="1.0" encoding="utf-8"?>
<!-- Generator: Adobe Illustrator 23.0.1, SVG Export Plug-In . SVG Version: 6.00 Build 0)  -->
<svg version="1.1" id="Capa_1" xmlns="http://www.w3.org/2000/svg" xmlns:xlink="http://www.w3.org/1999/xlink" x="0px" y="0px"
	 viewBox="0 0 247.7 216.3" style="enable-background:new 0 0 247.7 216.3;" xml:space="preserve">
<style type="text/css">
	.st0{fill:#FFFFFF;}
	.st1{fill:#F5F6F7;}
</style>
<path class="st0" d="M229.8,18.9L229.8,18.9C205.8-5,167-5,143.1,18.9l-13.5,13.5c-3.2,3.2-8.4,3.2-11.7,0l-13.3-13.3
	c-23.9-23.9-62.7-23.9-86.7,0l0,0C-6,43.1-6,81.9,17.9,105.8l100,100c3.2,3.2,8.5,3.2,11.7,0l100.2-100.2
	C253.7,81.7,253.7,42.9,229.8,18.9z"/>
<path class="st0" d="M229.8,18.9L229.8,18.9C205.8-5,167-5,143.1,18.9l-13.5,13.5c-3.2,3.2-8.4,3.2-11.7,0l-13.3-13.3
	c-23.9-23.9-62.7-23.9-86.7,0l0,0C-6,43.1-6,81.9,17.9,105.8l100,100c3.2,3.2,8.5,3.2,11.7,0l100.2-100.2
	C253.7,81.7,253.7,42.9,229.8,18.9z"/>
<path class="st1" d="M50,105.8c-23.9-23.9-23.9-62.7,0-86.7l0,0c7.9-7.8,17.3-13.1,27.3-15.8C56.8-2.2,34,3.1,17.9,19.2l0,0
	C-6,43.1-6,81.9,17.9,105.8l100,100c3.2,3.2,8.5,3.2,11.7,0l10.2-10.2L50,105.8z"/>
</svg>
