<svg xmlns="http://www.w3.org/2000/svg" viewBox="0 0 512.002 512.002"><path d="M195.003 384.774c-113.938 0-172.88-74.606-193.039-106.861-4.382-7.011-1.117-16.261 6.678-19.018 16.729-5.916 44.558-18.502 67.324-42.191 46.319-48.199 98.976-48.272 119.037-25.824 20.061-22.448 72.718-22.375 119.037 25.824 22.766 23.689 50.594 36.275 67.324 42.191 7.794 2.756 11.059 12.007 6.678 19.018-20.159 32.255-79.101 106.861-193.039 106.861z" fill="#FF5A59"/><path d="M381.364 258.895c-16.729-5.917-44.558-18.502-67.323-42.191-31.879-33.173-66.76-43.548-91.95-39.475 19.993 3.121 43.111 15.184 64.739 39.475 21.092 23.689 46.874 36.275 62.373 42.191 7.221 2.757 10.246 12.007 6.187 19.018-18.145 31.338-70.213 102.643-169.967 106.675 3.151.118 6.341.186 9.581.186 113.938 0 172.88-74.606 193.038-106.861 4.382-7.011 1.116-16.261-6.678-19.018z" fill="#CE3A4C"/><path d="M389.967 270.133c-45.67 17.661-125.063 41.273-194.964-18.402-69.9 59.675-149.294 36.063-194.964 18.402.38-4.901 3.523-9.448 8.601-11.241 16.733-5.916 44.558-18.499 67.322-42.191 46.324-48.196 98.979-48.266 119.041-25.82 20.062-22.447 72.717-22.376 119.041 25.82 22.764 23.692 50.589 36.275 67.322 42.191 5.078 1.793 8.221 6.341 8.601 11.241z" fill="#FF8383"/><path d="M352.705 282.422c13.904-3.649 26.507-8.129 37.245-12.282-.357-4.686-3.121-8.63-7.107-10.613-3.231-1.612-39.417-12.244-68.803-42.822-23.28-24.219-59.029-45.199-91.944-39.474 19.992 3.123 43.107 15.185 64.733 39.474 21.092 23.689 46.874 36.275 62.373 42.191 7.221 2.757 10.246 12.007 6.187 19.018a214.614 214.614 0 0 1-2.684 4.508z" fill="#FF5A59"/><path d="M195.003 251.731c-23.143 19.758-47.326 30.38-70.982 35.116 18.215 11.588 43.293 18.748 70.982 18.748s52.767-7.161 70.982-18.748c-23.656-4.736-47.839-15.358-70.982-35.116z" fill="#CE3A4C"/><path d="M479.114 18.307H332.293c-18.163 0-32.887 14.724-32.887 32.887v63.535c0 18.163 14.724 32.887 32.887 32.887h10.08c-3.417 12.758-12.426 23.865-25.437 29.479 10.443 4.246 22.489 4.572 33.745-.041 13.298-5.45 22.542-16.583 26.102-29.438h102.332c18.163 0 32.887-14.724 32.887-32.887V51.194c-.001-18.164-14.725-32.887-32.888-32.887z" fill="#EBEAE6"/><path d="M479.114 18.306h-23.583c18.163 0 32.887 14.724 32.887 32.887v63.535c0 18.163-14.724 32.887-32.887 32.887h23.583c18.163 0 32.887-14.724 32.887-32.887V51.194c0-18.164-14.724-32.888-32.887-32.888z" fill="#C9C5B5"/><path d="M63.654 493.695h87.674V237.152c0-37.001-29.995-66.997-66.997-66.997h-9.397c-6.23 0-11.281 5.05-11.281 11.281v312.259h.001z" fill="#FFCCAA"/><path d="M84.331 170.155h-9.397c-1.615 0-3.147.345-4.536.956 31.649 5.347 55.762 32.87 55.762 66.04v256.544h25.168V237.151c0-37.001-29.995-66.996-66.997-66.996z" fill="#F2A077"/><path d="M151.328 423.976h-43.837c-4.142 0-7.5 3.357-7.5 7.5s3.358 7.5 7.5 7.5h43.837v-15zM99.991 318.155a7.5 7.5 0 0 0 7.5 7.5h43.837v-15h-43.837a7.5 7.5 0 0 0-7.5 7.5z" fill="#D7875F"/><path d="M71.768 245.998h-3.936a4.178 4.178 0 0 1-4.178-4.178v-82.983a4.178 4.178 0 0 1 4.178-4.178h3.933c15.004 0 27.168 12.163 27.168 27.168v37.006c-.001 15.003-12.163 27.165-27.165 27.165z" fill="#D2F5FF"/></svg>