<?xml version="1.0" encoding="utf-8"?>
<!-- Generator: Adobe Illustrator 23.0.1, SVG Export Plug-In . SVG Version: 6.00 Build 0)  -->
<svg version="1.1" id="Layer_1" xmlns="http://www.w3.org/2000/svg" xmlns:xlink="http://www.w3.org/1999/xlink" x="0px" y="0px"
	 viewBox="0 0 25 25" style="enable-background:new 0 0 25 25;" xml:space="preserve">
<style type="text/css">
	.st0{fill:#0E7F12;}
</style>
<g transform="translate(0,-952.36218)">
	<path class="st0" d="M11.6,955.4c-0.1,0-0.3,0-0.4,0c-0.8,0-1.6,0.1-2.3,0.4c-5.6,1.5-8.9,7.3-7.4,12.8c1.5,5.6,7.3,8.9,12.8,7.4
		s8.9-7.3,7.4-12.8c-0.1-0.5-0.6-0.9-1.2-0.8c-0.5,0.1-0.9,0.6-0.8,1.2c0,0,0,0.1,0,0.1c1.2,4.5-1.5,9.2-6,10.4
		c-4.5,1.2-9.2-1.5-10.4-6c-1.2-4.5,1.5-9.2,6-10.4c2.5-0.7,5.1-0.2,7.2,1.3c0.4,0.3,1.1,0.2,1.4-0.2c0.3-0.4,0.2-1.1-0.2-1.4
		c0,0,0,0,0,0C15.9,956.1,13.8,955.4,11.6,955.4L11.6,955.4z M22.4,956.1c-0.3,0-0.5,0.1-0.7,0.3c-2.6,2.8-7.9,8.4-10.8,11.5
		l-3.5-3.1c-0.4-0.4-1-0.3-1.4,0.1s-0.3,1,0.1,1.4l0,0l4.2,3.7c0.4,0.4,1,0.3,1.4-0.1c2.8-2.9,8.7-9.4,11.5-12.2
		c0.4-0.4,0.4-1,0-1.4C23,956.2,22.7,956.1,22.4,956.1z"/>
</g>
</svg>
