<svg xmlns="http://www.w3.org/2000/svg" viewBox="0 0 112.61 11.22"><defs><style>.cls-1{fill:#bebaa4;}</style></defs><title>topbar-headline</title><g id="Layer_2" data-name="Layer 2"><g id="Layer_1-2" data-name="Layer 1"><path class="cls-1" d="M3.55,0A1.25,1.25,0,0,1,5,1.42V9.78A1.25,1.25,0,0,1,3.55,11.2H0V0Zm.18,1.62c0-.47-.09-.56-.56-.56H1.24v9.08H3.17c.47,0,.56-.09.56-.56Z"/><path class="cls-1" d="M8.26,0V11.2H7V0Z"/><path class="cls-1" d="M13.68,3.13V1.62c0-.47-.09-.56-.56-.56h-1c-.47,0-.56.09-.56.56v8c0,.46.09.55.56.55h1c.47,0,.56-.09.56-.55v-3h-.9V5.56h2.14V9.79a1.25,1.25,0,0,1-1.42,1.43H11.75a1.26,1.26,0,0,1-1.42-1.43V1.42A1.25,1.25,0,0,1,11.75,0H13.5a1.25,1.25,0,0,1,1.42,1.42V3.13Z"/><path class="cls-1" d="M18.13,0V11.2H16.9V0Z"/><path class="cls-1" d="M24.21,1.06h-1.8V11.2H21.19V1.06h-1.8V0h4.82Z"/><path class="cls-1" d="M28.49,8.35H26.23l-.42,2.85H24.57L26.32,0h2l1.93,11.2H29Zm-.16-1.06-1-6.43-.92,6.43Z"/><path class="cls-1" d="M35.26,10.14V11.2h-3.8V0h1.23V10.14Z"/><path class="cls-1" d="M42.23,0a1.25,1.25,0,0,1,1.42,1.42V9.78a1.25,1.25,0,0,1-1.42,1.42H38.68V0Zm.18,1.62c0-.47-.09-.56-.56-.56H39.92v9.08h1.93c.47,0,.56-.09.56-.56Z"/><path class="cls-1" d="M49.86,10.14V11.2H45.54V0h4.19V1.06H46.78V4.84h2.41V5.91H46.78v4.23Z"/><path class="cls-1" d="M55,10.14V11.2h-3.8V0h1.22V10.14Z"/><path class="cls-1" d="M60.71,0V9.78a1.25,1.25,0,0,1-1.42,1.42H57.46A1.26,1.26,0,0,1,56,9.78V0h1.23V9.58c0,.47.09.56.56.56h1.11c.47,0,.56-.09.56-.56V0Z"/><path class="cls-1" d="M67.57,11.2H66.24L64.66,6.64,63.07,11.2H61.74L64,5.47,61.92,0h1.33l1.41,4.36L66.06,0h1.33L65.3,5.47Z"/><path class="cls-1" d="M73,10.14V11.2H68.65V0h4.2V1.06h-3V4.84h2.42V5.91H69.89v4.23Z"/><path class="cls-1" d="M81,10.14V11.2H76.66V0h4.2V1.06h-3V4.84h2.42V5.91H77.9v4.23Z"/><path class="cls-1" d="M85.88,0A1.25,1.25,0,0,1,87.3,1.42V9.78a1.25,1.25,0,0,1-1.42,1.42H82.33V0Zm.18,1.62c0-.47-.09-.56-.56-.56H83.57v9.08H85.5c.47,0,.56-.09.56-.56Z"/><path class="cls-1" d="M90.59,0V11.2H89.37V0Z"/><path class="cls-1" d="M96.68,1.06h-1.8V11.2H93.65V1.06h-1.8V0h4.83Z"/><path class="cls-1" d="M99.16,0V11.2H97.94V0Z"/><path class="cls-1" d="M104.49,0a1.25,1.25,0,0,1,1.42,1.42V9.78a1.25,1.25,0,0,1-1.42,1.42h-1.84a1.25,1.25,0,0,1-1.42-1.42V1.42A1.25,1.25,0,0,1,102.65,0Zm.2,1.62c0-.47-.09-.56-.56-.56H103c-.47,0-.55.09-.55.56v8c0,.47.08.56.55.56h1.12c.47,0,.56-.09.56-.56Z"/><path class="cls-1" d="M112.61,0V11.2h-1.35l-2.33-8.68V11.2H107.8V0h1.44l2.23,8.37V0Z"/></g></g></svg>