<?xml version="1.0" encoding="utf-8"?>
<!-- Generator: Adobe Illustrator 23.0.2, SVG Export Plug-In . SVG Version: 6.00 Build 0)  -->
<svg version="1.1" id="Layer_1" xmlns="http://www.w3.org/2000/svg" xmlns:xlink="http://www.w3.org/1999/xlink" x="0px" y="0px"
	 viewBox="0 0 20 20" style="enable-background:new 0 0 20 20;" xml:space="preserve">
<style type="text/css">
	.st0{opacity:0.15;}
</style>
<g transform="matrix( 1, 0, 0, 1, 0,0) " class="st0">
	<g>
		<g id="a">
			<path d="M18,2.94c0-0.26-0.09-0.48-0.28-0.67C17.54,2.09,17.32,2,17.06,2s-0.48,0.09-0.67,0.27L10,8.67l-6.4-6.4
				C3.42,2.09,3.2,2,2.94,2S2.46,2.09,2.27,2.27C2.09,2.46,2,2.68,2,2.94S2.09,3.42,2.27,3.6l6.4,6.4l-6.4,6.39
				C2.09,16.58,2,16.8,2,17.06s0.09,0.48,0.27,0.66C2.46,17.91,2.68,18,2.94,18s0.48-0.09,0.66-0.28l6.4-6.39l6.39,6.39
				C16.58,17.91,16.8,18,17.06,18s0.48-0.09,0.66-0.28c0.19-0.18,0.28-0.4,0.28-0.66s-0.09-0.48-0.28-0.67L11.33,10l6.39-6.4
				C17.91,3.42,18,3.2,18,2.94z"/>
		</g>
	</g>
</g>
</svg>
