<?xml version="1.0" encoding="utf-8"?>
<!-- Generator: Adobe Illustrator 23.0.2, SVG Export Plug-In . SVG Version: 6.00 Build 0)  -->
<svg version="1.1" id="Layer_1" xmlns="http://www.w3.org/2000/svg" xmlns:xlink="http://www.w3.org/1999/xlink" x="0px" y="0px"
	 viewBox="0 0 20 20" style="enable-background:new 0 0 20 20;" xml:space="preserve">
<style type="text/css">
	.st0{fill:#FFFFFF;}
</style>
<path class="st0" d="M18.9,14.43c-0.1,0.01-0.23,0.38-0.27,0.54c0.02-0.4-0.08-0.82-0.15-1.01c-0.02-0.05-0.08-0.07-0.12-0.05
	c-0.27,0.12-0.55,0.07-0.64,0.06c-0.18-0.05-0.9-0.08-1-0.05c-0.12,0.05-0.29-0.05-0.36-0.09c-0.38-0.22-1.6-1.34-1.64-1.37
	c-0.13-0.05-0.42-0.32-0.45-0.37c-0.16-0.51-0.23-2.14-0.23-2.24c0.08-0.95,0.02-1.86,0-1.97c-0.11-0.74-1.3-0.94-1.36-0.94
	c-0.48-0.04-1.25-0.56-1.25-0.56c-0.35-0.2-0.43-0.5-0.44-0.74c0-0.16,0.02-0.31,0.08-0.46c0.07-0.2,0.16-0.49,0.18-0.59
	c0.18,0,0.35-0.45,0.37-0.5c0.18-0.61-0.09-0.54-0.09-0.54c0.23-0.92-0.11-1.42-0.51-1.69c-0.51-0.35-1.2-0.35-1.71,0
	C8.91,2.11,8.57,2.61,8.8,3.53c0,0-0.27-0.07-0.09,0.54c0.01,0.05,0.18,0.5,0.37,0.5c0.02,0.1,0.11,0.39,0.18,0.59
	c0.05,0.15,0.08,0.3,0.08,0.46C9.33,5.86,9.25,6.16,8.9,6.36c0,0-0.77,0.51-1.25,0.56C7.6,6.92,6.41,7.12,6.3,7.86
	c-0.02,0.12-0.08,1.02,0,1.97c0,0.11-0.08,1.74-0.23,2.24c-0.03,0.05-0.32,0.32-0.45,0.37c-0.04,0.03-1.26,1.15-1.64,1.37
	c-0.07,0.04-0.24,0.15-0.36,0.09c-0.1-0.02-0.82,0-1,0.05c-0.09,0.01-0.37,0.06-0.64-0.06c-0.05-0.02-0.1,0-0.12,0.05
	c-0.07,0.19-0.18,0.61-0.15,1.01c-0.04-0.16-0.17-0.53-0.27-0.54c-0.06-0.01-0.25,0.54,0.05,0.92c0.04,0.04,0.2,0.07,0.26-0.07
	c0.11,0.02,0.23,0.02,0.28,0.02c0.03,0.08,0.19,0.43,0.47,0.09c0.06,0.08,0.17,0.22,0.24,0.18c0.07-0.03,0.38-0.22,0.4-0.22
	c-0.05,0.11-0.98,1.2,1.94,2.55C5,17.95,4.78,18.27,5.1,18.36c-0.04,0.04-0.11,0.19,0.12,0.22c-0.05,0.04-0.08,0.19,0.18,0.2
	C5.35,18.82,5.27,18.99,5.63,19c0.1-0.01,1.24-0.03,1.58,0c0.12,0.01,1.13-0.13,1.51-0.27c0.18-0.01,1.05-0.02,1.31-0.05
	c0.03,0,0.07,0.01,0.13,0.01c0.06-0.01,0.11-0.01,0.13-0.01c0.25,0.04,1.13,0.05,1.31,0.05c0.38,0.14,1.39,0.28,1.51,0.27
	c0.33-0.03,1.48-0.01,1.58,0c0.36-0.01,0.28-0.18,0.24-0.22c0.26-0.01,0.23-0.16,0.18-0.2c0.23-0.03,0.16-0.18,0.12-0.22
	c0.31-0.09,0.09-0.41,0.03-0.47c2.92-1.34,2-2.44,1.94-2.55c0.02,0,0.33,0.19,0.4,0.22s0.18-0.11,0.24-0.18
	c0.28,0.34,0.44-0.01,0.47-0.09c0.05,0.01,0.17,0,0.28-0.02c0.05,0.14,0.22,0.11,0.26,0.07C19.15,14.97,18.96,14.42,18.9,14.43z
	 M2.51,14.36c-0.03,0.07-0.12,0.22-0.35,0.36c-0.01,0.01-0.03,0-0.02-0.02c0.03-0.1,0.05-0.25-0.08-0.24
	c-0.01,0-0.01-0.01-0.01-0.01c0.01-0.05,0.03-0.1,0.03-0.17c0-0.02,0.02-0.03,0.04-0.02c0.05,0.04,0.17,0.09,0.38,0.07
	C2.51,14.32,2.52,14.34,2.51,14.36z M7.6,14.19c-0.19,0.22-0.41,0.56-0.5,0.72c-0.02,0.04-0.06,0.06-0.11,0.05
	c-0.77-0.19-2.47-0.17-2.9-0.17c-0.03,0-0.05-0.04-0.02-0.06c0.13-0.08,0.42-0.18,0.64-0.26c0.15-0.05,0.3-0.09,0.45-0.14
	c0.52-0.14,1.02-0.4,1.18-0.49c0.03-0.02,0.07-0.04,0.1-0.05c0.99-0.48,1.11-1.36,1.11-1.41c0.04-0.15,0.07-0.78,0.08-1.06
	c0-0.02,0.03-0.02,0.04,0C8.15,13.25,7.68,14.04,7.6,14.19z M16.23,14.78c-0.42-0.01-2.13-0.03-2.9,0.17
	c-0.04,0.01-0.09-0.01-0.11-0.05c-0.09-0.16-0.31-0.5-0.5-0.72c-0.08-0.15-0.55-0.93-0.07-2.87c0-0.02,0.03-0.02,0.04,0
	c0.01,0.27,0.04,0.91,0.08,1.06c0.01,0.06,0.12,0.93,1.11,1.41c0.03,0.02,0.07,0.03,0.1,0.05c0.16,0.09,0.67,0.34,1.18,0.49
	c0.15,0.04,0.3,0.09,0.45,0.14c0.22,0.08,0.5,0.18,0.64,0.26C16.28,14.74,16.26,14.78,16.23,14.78z M18.26,14.46
	c-0.13-0.01-0.11,0.14-0.08,0.24c0,0.01-0.01,0.03-0.02,0.02c-0.23-0.14-0.32-0.29-0.35-0.36c-0.01-0.02,0.01-0.03,0.02-0.03
	c0.2,0.02,0.32-0.04,0.38-0.07c0.02-0.01,0.04,0,0.04,0.02c0,0.07,0.02,0.12,0.03,0.17C18.28,14.45,18.27,14.46,18.26,14.46z"/>
</svg>
